<?xml version="1.0" standalone="no"?>
  <!DOCTYPE svg PUBLIC "-//W3C//DTD SVG 1.1//EN" "http://www.w3.org/Graphics/SVG/1.1/DTD/svg11.dtd" >
  <svg>
  <metadata>
  Created by font-carrier
  </metadata>
  <defs>
  <font id="HelveticaNeueCyr-MediumItalic" horiz-adv-x="1093" vert-adv-y="1093" >
    <font-face
      
      font-family="HelveticaNeueCyr"
      
      font-weight="400"
      
      font-stretch="normal"
      
      units-per-em="1000"
      
      ascent="714"
      
      descent="-191"
      
    />
      <missing-glyph />

      

      
      <glyph glyph-name="uni21" unicode="&#x21;" d="M164 124L138 0L10 0L36 124L164 124M285 712L241 506L144 195L86 195L120 505L163 712L285 712Z"  horiz-adv-x="296" vert-adv-y="1000"  />

      
      <glyph glyph-name="uni22" unicode="&#x22;" d="M171 405L106 405L150 696L251 696L171 405M345 405L280 405L324 696L425 696L345 405Z"  horiz-adv-x="444" vert-adv-y="1000"  />

      
      <glyph glyph-name="uni23" unicode="&#x23;" d="M151 0L57 0L100 195L2 195L19 275L116 275L149 420L52 420L69 500L166 500L210 696L304 696L261 500L371 500L414 696L508 696L465 500L561 500L544 420L448 420L415 275L511 275L494 195L398 195L355 0L261 0L304 195L194 195L151 0M321 275L354 420L244 420L211 275L321 275Z"  horiz-adv-x="556" vert-adv-y="1000"  />

      
      <glyph glyph-name="uni24" unicode="&#x24;" d="M394 787L377 711Q456 702 503.50 658.50Q551 615 551 537Q551 526 550 516L444 516L444 531Q444 572 421.50 597Q399 622 359 626L312 406Q503 359 503 217Q503 111 426.50 48.50Q350-14 240-14L223-14L205-99L160-99L178-13Q87-5 36 48.50Q-15 102-15 189Q-15 203-14 217L98 217Q97 206 97 194Q97 90 197 75L248 320Q206 332 178.50 343.50Q151 355 122.50 375Q94 395 80 426Q66 457 66 499Q66 596 134.50 655.50Q203 715 314 715Q316 715 321.50 714.50Q327 714 331 714L347 787L394 787M269 419L314 630L305 630Q249 630 212.50 596.50Q176 563 176 512Q176 471 199.50 452Q223 433 269 419M291 307L241 72L248 72Q309 72 349.50 109Q390 146 390 202Q390 243 366.50 267.50Q343 292 291 307Z"  horiz-adv-x="556" vert-adv-y="1000"  />

      
      <glyph glyph-name="uni25" unicode="&#x25;" d="M775 725L243-31L160-31L692 725L775 725M415 559Q415 462 364.50 387.50Q314 313 222 313Q154 313 116 353Q78 393 78 465Q78 561 128.50 633.50Q179 706 271 706Q340 706 377.50 667Q415 628 415 559M271 641Q242 641 220 620.50Q198 600 186.50 569Q175 538 169.50 508Q164 478 164 452Q164 378 226 378Q262 378 287 414Q312 450 320.50 490Q329 530 329 565Q329 641 271 641M862 231Q862 134 811.50 59.50Q761-15 669-15Q601-15 563 25Q525 65 525 137Q525 233 575.50 305.50Q626 378 718 378Q787 378 824.50 339Q862 300 862 231M718 313Q689 313 667 292.50Q645 272 633.50 241Q622 210 616.50 180Q611 150 611 124Q611 50 673 50Q709 50 734 86Q759 122 767.50 162Q776 202 776 237Q776 313 718 313Z"  horiz-adv-x="944" vert-adv-y="1000"  />

      
      <glyph glyph-name="uni26" unicode="&#x26;" d="M612 339Q603 287 573.50 231Q544 175 504 136L592 0L466 0L427 65Q337-14 231-14Q143-14 83.50 38Q24 90 24 178Q24 321 217 403Q167 485 167 544Q167 621 218 669Q269 717 350 717Q427 717 475 675.50Q523 634 523 567Q523 531 509.50 501Q496 471 468.50 446.50Q441 422 417.50 406.50Q394 391 357 371L450 220Q490 265 508 339L612 339M311 443Q317 446 335 457Q353 468 361.50 473.50Q370 479 384.50 490.50Q399 502 406.50 512Q414 522 420 536Q426 550 426 565Q426 595 405.50 614Q385 633 352 633Q315 633 291.50 609.50Q268 586 268 550Q268 513 311 443M268 327Q239 312 221 301Q203 290 180 271Q157 252 145 229.50Q133 207 133 180Q133 136 163 108Q193 80 239 80Q315 80 376 146L268 327Z"  horiz-adv-x="667" vert-adv-y="1000"  />

      
      <glyph glyph-name="uni27" unicode="&#x27;" d="M180 405L117 405L160 696L261 696L180 405Z"  horiz-adv-x="278" vert-adv-y="1000"  />

      
      <glyph glyph-name="uni28" unicode="&#x28;" d="M368 721Q136 436 136 116Q136-54 181-186L99-186Q27-25 27 158Q27 451 272 721L368 721Z"  horiz-adv-x="296" vert-adv-y="1000"  />

      
      <glyph glyph-name="uni29" unicode="&#x29;" d="M249 377Q249 84 4-186L-92-186Q140 99 140 419Q140 589 95 721L177 721Q249 560 249 377Z"  horiz-adv-x="296" vert-adv-y="1000"  />

      
      <glyph glyph-name="uni2a" unicode="&#x2a;" d="M303 715L279 598L395 615L404 551L291 536L343 433L284 402L232 508L150 416L103 462L186 550L84 601L114 659L216 607L237 720L303 715Z"  horiz-adv-x="389" vert-adv-y="1000"  />

      
      <glyph glyph-name="uni2b" unicode="&#x2b;" d="M235 0L235 210L28 210L28 305L235 305L235 515L337 515L337 305L545 305L545 210L337 210L337 0L235 0Z"  horiz-adv-x="600" vert-adv-y="1000"  />

      
      <glyph glyph-name="uni2c" unicode="&#x2c;" d="M168 135L145 23Q127-64 89.50-108.50Q52-153-29-157L-16-98Q24-90 42.50-66.50Q61-43 68 0L5 0L33 135L168 135Z"  horiz-adv-x="278" vert-adv-y="1000"  />

      
      <glyph glyph-name="uni2d" unicode="&#x2d;" d="M338 327L316 224L20 224L42 327L338 327Z"  horiz-adv-x="389" vert-adv-y="1000"  />

      
      <glyph glyph-name="uni2e" unicode="&#x2e;" d="M166 135L137 0L-2 0L27 135L166 135Z"  horiz-adv-x="278" vert-adv-y="1000"  />

      
      <glyph glyph-name="uni2f" unicode="&#x2f;" d="M428 729L20-17L-80-17L329 729L428 729Z"  horiz-adv-x="352" vert-adv-y="1000"  />

      
      <glyph glyph-name="uni30" unicode="&#x30;" d="M540 457Q540 409 532 357Q524 305 508 252Q492 199 465.50 151.50Q439 104 405.50 66.50Q372 29 324.50 7.50Q277-14 222-14Q115-14 63.50 58Q12 130 12 241Q12 299 23 360.50Q34 422 59.50 484Q85 546 120.50 594.50Q156 643 210 673.50Q264 704 328 704Q436 704 488 637Q540 570 540 457M324 611Q271 611 229.50 567Q188 523 167 458Q146 393 135.50 332.50Q125 272 125 225Q125 80 232 80Q284 80 324.50 124.50Q365 169 386 235Q407 301 417.50 361.50Q428 422 428 468Q428 611 324 611Z"  horiz-adv-x="556" vert-adv-y="1000"  />

      
      <glyph glyph-name="uni31" unicode="&#x31;" d="M452 704L303 0L183 0L291 508Q222 495 142 495Q127 495 113 496L131 580Q294 583 362 704L452 704Z"  horiz-adv-x="556" vert-adv-y="1000"  />

      
      <glyph glyph-name="uni32" unicode="&#x32;" d="M482 98L460 0L-27 0Q-21 49-4.50 89Q12 129 32 156.50Q52 184 86.50 211.50Q121 239 151 257.50Q181 276 229 304Q249 315 259 321Q345 371 375 400Q423 447 423 505Q423 553 393 581.50Q363 610 311 610Q245 610 208.50 567.50Q172 525 165 457L57 457Q68 571 135 638.50Q202 706 318 706Q419 706 479 653.50Q539 601 539 513Q539 443 499 386.50Q459 330 373 278Q354 266 319 245.50Q284 225 269.50 216.50Q255 208 230.50 192.50Q206 177 194.50 168Q183 159 167.50 146Q152 133 142 121Q132 109 123 95Q151 97 219 97L482 98Z"  horiz-adv-x="556" vert-adv-y="1000"  />

      
      <glyph glyph-name="uni33" unicode="&#x33;" d="M108 229Q107 218 107 207Q107 146 140 114Q173 82 237 82Q301 82 342.50 121Q384 160 384 221Q384 324 259 324Q240 324 222 323L239 408L267 408Q425 408 425 521Q425 563 395.50 587.50Q366 612 315 612Q199 612 176 482L68 482Q84 589 151.50 647.50Q219 706 325 706Q420 706 479 658Q538 610 538 532Q538 470 503.50 428Q469 386 409 368Q501 335 501 225Q501 115 421.50 50Q342-15 230-15Q125-15 61 41.50Q-3 98-3 192Q-3 212-1 229L108 229Z"  horiz-adv-x="556" vert-adv-y="1000"  />

      
      <glyph glyph-name="uni34" unicode="&#x34;" d="M529 257L508 165L414 165L380 0L266 0L301 165L-13 165L10 268L423 706L527 706L434 257L529 257M322 257L389 559Q343 504 340 501L152 298Q141 286 134 279Q127 272 124.50 270Q122 268 117.50 264.50Q113 261 108 256Q115 256 126 256.50Q137 257 163 257L322 257Z"  horiz-adv-x="556" vert-adv-y="1000"  />

      
      <glyph glyph-name="uni35" unicode="&#x35;" d="M546 696L526 596L233 596L181 429Q234 468 308 468Q399 468 455 410.50Q511 353 511 260Q511 182 470 115Q394-14 231-14Q125-14 63.50 40Q2 94 2 186L2 197L113 197Q116 163 126 139Q150 79 236 79Q305 79 349.50 127.50Q394 176 394 251Q394 311 360.50 345.50Q327 380 269 380Q187 380 146 316L45 319L160 696L546 696Z"  horiz-adv-x="556" vert-adv-y="1000"  />

      
      <glyph glyph-name="uni36" unicode="&#x36;" d="M560 522L448 522Q442 619 348 619Q219 619 155 391Q214 459 309 459Q401 459 457 401.50Q513 344 513 250Q513 138 438.50 62Q364-14 254-14Q145-14 83.50 55Q22 124 22 246Q22 324 45.50 411.50Q69 499 106 560Q195 708 355 708Q447 708 503.50 658.50Q560 609 560 527L560 522M277 372Q214 372 174.50 327Q135 282 135 210Q135 151 168.50 115Q202 79 257 79Q319 79 359 125.50Q399 172 399 244Q399 303 367 337.50Q335 372 277 372Z"  horiz-adv-x="556" vert-adv-y="1000"  />

      
      <glyph glyph-name="uni37" unicode="&#x37;" d="M591 696L571 601Q447 477 355 321.50Q263 166 216 0L89 0Q130 153 229.50 315Q329 477 449 592Q440 592 422.50 591.50Q405 591 396 591L92 591L115 696L591 696Z"  horiz-adv-x="556" vert-adv-y="1000"  />

      
      <glyph glyph-name="uni38" unicode="&#x38;" d="M400 370Q449 353 477 311Q505 269 505 213Q505 111 429 49.50Q353-12 241-12Q131-12 65 43.50Q-1 99-1 193Q-1 267 45 317.50Q91 368 171 381Q85 426 85 517Q85 601 148 654Q211 707 310 707Q409 707 470 659Q531 611 531 532Q531 472 494.50 427Q458 382 400 370M310 619Q255 619 223 589.50Q191 560 191 508Q191 463 221.50 437Q252 411 304 411Q358 411 390 441Q422 471 422 521Q422 571 391.50 595Q361 619 310 619M261 331Q194 331 154.50 294Q115 257 115 195Q115 140 149.50 108.50Q184 77 244 77Q309 77 349 115Q389 153 389 216Q389 331 261 331Z"  horiz-adv-x="556" vert-adv-y="1000"  />

      
      <glyph glyph-name="uni39" unicode="&#x39;" d="M3 174L109 174Q118 76 215 76Q252 76 282 91.50Q312 107 330 128Q348 149 363.50 184.50Q379 220 386 245.50Q393 271 402 310Q339 237 245 237Q155 237 99.50 294Q44 351 44 443Q44 558 118.50 633.50Q193 709 306 709Q413 709 472 642Q531 575 531 453Q531 392 521 330Q511 268 487.50 205Q464 142 429 94Q394 46 338.50 15.50Q283-15 215-15Q117-15 60 36Q3 87 3 174M302 613Q240 613 198 566Q156 519 156 449Q156 391 187.50 358.50Q219 326 274 326Q337 326 377.50 371.50Q418 417 418 489Q418 545 387.50 579Q357 613 302 613Z"  horiz-adv-x="556" vert-adv-y="1000"  />

      
      <glyph glyph-name="uni3a" unicode="&#x3a;" d="M163 135L134 0L-1 0L28 135L163 135M242 511L213 376L78 376L107 511L242 511Z"  horiz-adv-x="278" vert-adv-y="1000"  />

      
      <glyph glyph-name="uni3b" unicode="&#x3b;" d="M165 135L142 23Q124-64 86.50-108.50Q49-153-32-157L-19-98Q21-90 39.50-66.50Q58-43 65 0L2 0L30 135L165 135M245 511L216 376L81 376L110 511L245 511Z"  horiz-adv-x="278" vert-adv-y="1000"  />

      
      <glyph glyph-name="uni3c" unicode="&#x3c;" d="M15 208L15 308L532 507L532 401L144 258L532 115L532 7L15 208Z"  horiz-adv-x="600" vert-adv-y="1000"  />

      
      <glyph glyph-name="uni3d" unicode="&#x3d;" d="M25 317L25 413L542 413L542 317L25 317M25 102L25 198L542 198L542 102L25 102Z"  horiz-adv-x="600" vert-adv-y="1000"  />

      
      <glyph glyph-name="uni3e" unicode="&#x3e;" d="M559 208L42 7L42 115L430 258L42 401L42 507L559 308L559 208Z"  horiz-adv-x="600" vert-adv-y="1000"  />

      
      <glyph glyph-name="uni3f" unicode="&#x3f;" d="M285 124L259 0L130 0L157 124L285 124M289 199L182 199Q200 289 226.50 324.50Q253 360 341 416Q425 470 425 536Q425 578 397.50 603Q370 628 323 628Q209 628 185 487L72 487Q85 598 153 661Q221 724 330 724Q427 724 485.50 676Q544 628 544 548Q544 515 534 486.50Q524 458 513 439.50Q502 421 475.50 398.50Q449 376 433.50 365.50Q418 355 383 332Q363 319 348 305.50Q333 292 324.50 283Q316 274 309 258.50Q302 243 300 238.50Q298 234 293.50 217Q289 200 289 199Z"  horiz-adv-x="556" vert-adv-y="1000"  />

      
      <glyph glyph-name="uni40" unicode="&#x40;" d="M695 129L723 91Q645 34 573 8.50Q501-17 417-17Q254-17 141.50 83.50Q29 184 29 346Q29 509 145.50 619Q262 729 432 729Q581 729 676 645.50Q771 562 771 430Q771 325 708.50 246Q646 167 563 167Q526 167 503 187Q480 207 480 240Q480 248 483 262Q433 167 344 167Q283 167 245.50 209.50Q208 252 208 320Q208 417 268.50 489.50Q329 562 409 562Q494 562 523 491L538 546L620 546L555 327Q543 287 543 266Q543 247 554 236.50Q565 226 585 226Q635 226 676 290.50Q717 355 717 435Q717 544 638 612Q559 680 433 680Q283 680 183 584Q83 488 83 344Q83 207 177.50 119.50Q272 32 420 32Q563 32 695 129M493 436Q493 465 475 484Q457 503 429 503Q392 503 362 468.50Q332 434 317.50 392Q303 350 303 315Q303 274 320.50 250Q338 226 369 226Q405 226 435 266.50Q465 307 479 354.50Q493 402 493 436Z"  horiz-adv-x="800" vert-adv-y="1000"  />

      
      <glyph glyph-name="uni41" unicode="&#x41;" d="M499 712L623 0L496 0L467 188L185 188L76 0L-60 0L366 712L499 712M410 595Q368 512 305 402L237 283L454 283L432 429Q412 566 410 595Z"  horiz-adv-x="685" vert-adv-y="1000"  />

      
      <glyph glyph-name="uni42" unicode="&#x42;" d="M151 712L421 712Q471 712 508.50 706Q546 700 583 683.50Q620 667 640 632.50Q660 598 660 546Q660 479 623.50 433.50Q587 388 525 375Q575 359 602.50 321.50Q630 284 630 229Q630 156 585 94Q540 32 470 13Q420 0 309 0L1 0L151 712M252 611L210 413L368 413Q456 413 489 436Q535 469 535 530Q535 559 518.50 579.50Q502 600 474 606Q448 611 394 611L252 611M192 325L143 98L303 98Q371 98 405.50 105Q440 112 463 131Q506 167 506 227Q506 260 488 285.50Q470 311 439 318Q410 325 341 325L192 325Z"  horiz-adv-x="704" vert-adv-y="1000"  />

      
      <glyph glyph-name="uni43" unicode="&#x43;" d="M665 248Q639 124 550.50 53.50Q462-17 334-17Q194-17 115 65.50Q36 148 36 295Q36 411 81 508.50Q126 606 216 667Q306 728 424 728Q548 728 623 662Q698 596 698 487L698 474L577 474Q574 552 534 588.50Q494 625 414 625Q353 625 303 594.50Q253 564 222.50 515.50Q192 467 176 410Q160 353 160 295Q160 196 207.50 140.50Q255 85 340 85Q416 85 467.50 127.50Q519 170 539 248L665 248Z"  horiz-adv-x="722" vert-adv-y="1000"  />

      
      <glyph glyph-name="uni44" unicode="&#x44;" d="M151 712L329 712Q425 712 465 707.50Q505 703 542 687Q612 656 651 587Q690 518 690 424Q690 290 618.50 173.50Q547 57 425 19Q364 0 236 0L1 0L151 712M254 608L147 104L286 104Q386 104 448 152Q500 192 532.50 266Q565 340 565 419Q565 484 538.50 534Q512 584 455 599Q420 608 357 608L254 608Z"  horiz-adv-x="722" vert-adv-y="1000"  />

      
      <glyph glyph-name="uni45" unicode="&#x45;" d="M669 712L647 608L254 608L214 417L579 417L559 317L193 317L148 104L547 104L524 0L1 0L152 712L669 712Z"  horiz-adv-x="630" vert-adv-y="1000"  />

      
      <glyph glyph-name="uni46" unicode="&#x46;" d="M641 712L618 608L255 608L214 410L532 410L511 310L193 310L127 0L1 0L153 712L641 712Z"  horiz-adv-x="593" vert-adv-y="1000"  />

      
      <glyph glyph-name="uni47" unicode="&#x47;" d="M711 380L631 0L551 0L550 74Q471-18 333-18Q197-18 118 65Q42 147 42 290Q42 476 148.50 601Q255 726 439 726Q561 726 641.50 665Q722 604 722 485L601 485Q597 553 554 588Q511 623 435 623Q348 623 285 572Q222 521 194 446.50Q166 372 166 288Q166 190 215.50 136Q265 82 355 82Q529 82 580 284L384 284L405 380L711 380Z"  horiz-adv-x="759" vert-adv-y="1000"  />

      
      <glyph glyph-name="uni48" unicode="&#x48;" d="M727 712L578 0L453 0L520 319L188 319L120 0L-5 0L146 712L270 712L210 425L543 425L603 712L727 712Z"  horiz-adv-x="722" vert-adv-y="1000"  />

      
      <glyph glyph-name="uni49" unicode="&#x49;" d="M278 712L128 0L2 0L153 712L278 712Z"  horiz-adv-x="278" vert-adv-y="1000"  />

      
      <glyph glyph-name="uni4a" unicode="&#x4a;" d="M555 712L459 253Q447 197 438 164Q429 131 410 92Q391 53 366 32Q341 11 300.50-3Q260-17 205-17Q113-17 57.50 26Q2 69 2 158Q2 203 13 250L130 250Q118 198 118 168Q118 84 208 84Q240 84 261.50 93.50Q283 103 296.50 129.50Q310 156 314.50 169.50Q319 183 327 223Q328 227 328.50 229.50Q329 232 330 235L431 712L555 712Z"  horiz-adv-x="537" vert-adv-y="1000"  />

      
      <glyph glyph-name="uni4b" unicode="&#x4b;" d="M742 712L399 419L623 0L482 0L304 341L174 233L126 0L2 0L152 712L276 712L204 382Q227 405 575 712L742 712Z"  horiz-adv-x="685" vert-adv-y="1000"  />

      
      <glyph glyph-name="uni4c" unicode="&#x4c;" d="M280 712L151 106L514 106L492 0L3 0L155 712L280 712Z"  horiz-adv-x="574" vert-adv-y="1000"  />

      
      <glyph glyph-name="uni4d" unicode="&#x4d;" d="M890 712L739 0L620 0L688 311Q724 477 763 611Q703 492 650 397L423 0L321 0L257 415Q238 537 236 610Q225 516 181 302L119 0L-1 0L151 712L323 712L379 322Q396 201 396 130Q450 254 484 313L714 712L890 712Z"  horiz-adv-x="889" vert-adv-y="1000"  />

      
      <glyph glyph-name="uni4e" unicode="&#x4e;" d="M734 712L583 0L453 0L276 425Q239 516 227 561Q222 507 194 371L116 0L-5 0L147 712L277 712L452 288Q485 207 503 148Q510 216 542 369L614 712L734 712Z"  horiz-adv-x="722" vert-adv-y="1000"  />

      
      <glyph glyph-name="uni4f" unicode="&#x4f;" d="M729 421Q729 301 683.50 202Q638 103 547.50 42Q457-19 338-19Q195-19 114 65Q33 149 33 297Q33 479 140.50 602.50Q248 726 427 726Q566 726 647.50 643.50Q729 561 729 421M419 622Q334 622 273 572Q212 522 184.50 449.50Q157 377 157 295Q157 197 207 140.50Q257 84 345 84Q428 84 488.50 137.50Q549 191 576 265.50Q603 340 603 420Q603 514 557 568Q511 622 419 622Z"  horiz-adv-x="759" vert-adv-y="1000"  />

      
      <glyph glyph-name="uni50" unicode="&#x50;" d="M156 712L417 712Q488 712 528 702.50Q568 693 598 668Q663 614 663 518Q663 431 612 363Q561 295 478 283Q427 275 354 275L187 275L129 0L4 0L156 712M258 609L209 375L356 375Q456 375 490 400Q513 417 527.50 446Q542 475 542 507Q542 541 529 563Q516 585 490.50 594.50Q465 604 442 606.50Q419 609 384 609L258 609Z"  horiz-adv-x="667" vert-adv-y="1000"  />

      
      <glyph glyph-name="uni51" unicode="&#x51;" d="M668-14L599-76L505 21Q432-18 335-18Q194-18 114 67.50Q34 153 34 295Q34 483 145 604.50Q256 726 428 726Q569 726 650 642.50Q731 559 731 417Q731 314 692.50 223.50Q654 133 584 73L668-14M436 230L507 156Q606 263 606 417Q606 513 557 567.50Q508 622 422 622Q309 622 234 529Q159 436 159 296Q159 198 208.50 141Q258 84 345 84Q386 84 431 101L367 167L436 230Z"  horiz-adv-x="759" vert-adv-y="1000"  />

      
      <glyph glyph-name="uni52" unicode="&#x52;" d="M151 712L435 712Q510 712 554 702Q614 688 647.50 642.50Q681 597 681 531Q681 454 638 401.50Q595 349 521 336Q561 319 577.50 291Q594 263 594 212Q594 205 590 146Q586 87 586 58Q586 22 597 0L471 0Q463 17 463 52Q463 68 468.50 125.50Q474 183 474 202Q474 261 446 277Q418 293 351 293L187 293L125 0L1 0L151 712M254 610L207 387L404 387Q470 387 505 410Q557 446 557 515Q557 546 545.50 566Q534 586 512 595Q490 604 468.50 607Q447 610 416 610L254 610Z"  horiz-adv-x="704" vert-adv-y="1000"  />

      
      <glyph glyph-name="uni53" unicode="&#x53;" d="M619 502L499 502L499 509Q499 629 358 629Q290 629 249.50 600.50Q209 572 209 525Q209 501 219 484Q229 467 251.50 455Q274 443 294.50 436Q315 429 351 420Q394 409 419.50 401Q445 393 480 376.50Q515 360 533.50 340Q552 320 566 287.50Q580 255 580 213Q580 100 494.50 42.50Q409-15 289-15Q153-15 81.50 45Q10 105 10 220Q10 228 11 235L133 235L133 223Q133 83 296 83Q370 83 414.50 115.50Q459 148 459 202Q459 228 449 246.50Q439 265 416 277Q393 289 378.50 294Q364 299 332 308Q284 321 258 329Q232 337 194.50 354.50Q157 372 137.50 391Q118 410 103.50 442Q89 474 89 514Q89 610 162.50 667.50Q236 725 358 725Q484 725 551.50 670.50Q619 616 619 514L619 502Z"  horiz-adv-x="648" vert-adv-y="1000"  />

      
      <glyph glyph-name="uni54" unicode="&#x54;" d="M665 712L643 609L415 609L287 0L162 0L290 609L57 609L79 712L665 712Z"  horiz-adv-x="593" vert-adv-y="1000"  />

      
      <glyph glyph-name="uni55" unicode="&#x55;" d="M741 712L641 234Q590-14 325-14Q273-14 225.50-2.50Q178 9 138 33Q98 57 74 99.50Q50 142 50 198Q50 233 65 305L150 712L275 712L190 307Q176 237 176 213Q176 154 215.50 121.50Q255 89 328 89Q361 89 387.50 95.50Q414 102 432.50 111Q451 120 466.50 139.50Q482 159 490.50 173Q499 187 508 216.50Q517 246 521 263Q525 280 533 316L617 712L741 712Z"  horiz-adv-x="741" vert-adv-y="1000"  />

      
      <glyph glyph-name="uni56" unicode="&#x56;" d="M693 712L302 0L160 0L67 712L194 712L237 353Q251 231 254 117Q301 225 348 314L560 712L693 712Z"  horiz-adv-x="611" vert-adv-y="1000"  />

      
      <glyph glyph-name="uni57" unicode="&#x57;" d="M995 712L664 0L537 0L512 379Q507 462 507 577Q457 447 410 345L252 0L122 0L74 712L198 712L211 380Q217 199 213 129Q252 233 320 383L470 712L596 712L616 410Q629 194 624 133Q668 254 736 411L866 712L995 712Z"  horiz-adv-x="926" vert-adv-y="1000"  />

      
      <glyph glyph-name="uni58" unicode="&#x58;" d="M700 712L406 364L585 0L449 0L394 119Q338 240 322 280Q311 269 288 238Q265 207 259 199L97 0L-53 0L265 374L96 712L232 712L295 577Q306 553 325 507.50Q344 462 348 452Q383 500 457 592L554 712L700 712Z"  horiz-adv-x="648" vert-adv-y="1000"  />

      
      <glyph glyph-name="uni59" unicode="&#x59;" d="M702 712L354 276L295 0L172 0L232 284L51 712L182 712L268 491Q288 441 307 384Q337 430 374 478L554 712L702 712Z"  horiz-adv-x="630" vert-adv-y="1000"  />

      
      <glyph glyph-name="uni5a" unicode="&#x5a;" d="M665 712L644 610L210 174Q179 143 130 101Q149 101 186.50 102.50Q224 104 243 104L565 104L543 0L-42 0L-20 104L397 523Q447 573 491 609Q481 609 467 608.50Q453 608 447 608L100 608L123 712L665 712Z"  horiz-adv-x="630" vert-adv-y="1000"  />

      
      <glyph glyph-name="uni5b" unicode="&#x5b;" d="M382 719L364 633L246 633L93-93L211-93L192-181L-32-181L159 719L382 719Z"  horiz-adv-x="296" vert-adv-y="1000"  />

      
      <glyph glyph-name="uni5c" unicode="&#x5c;" d="M428-17L328-17L-80 729L19 729L428-17Z"  horiz-adv-x="352" vert-adv-y="1000"  />

      
      <glyph glyph-name="uni5d" unicode="&#x5d;" d="M297 719L105-181L-119-181L-100-94L18-94L173 633L55 633L74 719L297 719Z"  horiz-adv-x="296" vert-adv-y="1000"  />

      
      <glyph glyph-name="uni5e" unicode="&#x5e;" d="M80 271L255 696L345 696L520 271L417 271L298 569L183 271L80 271Z"  horiz-adv-x="600" vert-adv-y="1000"  />

      
      <glyph glyph-name="uni5f" unicode="&#x5f;" d="M0-125L0-75L500-75L500-125L0-125Z"  horiz-adv-x="500" vert-adv-y="1000"  />

      
      <glyph glyph-name="uni60" unicode="&#x60;" d="M213 587L131 587L10 731L136 731L213 587Z"  horiz-adv-x="241" vert-adv-y="1000"  />

      
      <glyph glyph-name="uni61" unicode="&#x61;" d="M58 360Q90 528 295 528Q387 528 440 494Q493 460 493 401Q493 366 480 310L445 154Q434 106 434 97Q434 77 457 77Q471 77 501 82L483-1Q440-13 408-13Q370-13 349.50 1Q329 15 326 52Q256-17 152-17Q79-17 35 22Q-9 61-9 126Q-9 184 25 223.50Q59 263 105 279Q151 295 208 299Q210 299 237.50 300.50Q265 302 282 303.50Q299 305 322 309Q345 313 356 320Q383 336 383 381Q383 445 290 445Q187 445 166 360L58 360M360 255Q350 247 327.50 241Q305 235 289.50 233Q274 231 244 228L215 226Q106 216 106 137Q106 102 129.50 82.50Q153 63 195 63Q255 63 290.50 94.50Q326 126 337 169L360 255Z"  horiz-adv-x="556" vert-adv-y="1000"  />

      
      <glyph glyph-name="uni62" unicode="&#x62;" d="M253 712L199 455Q263 529 358 529Q448 529 500.50 471Q553 413 553 313Q553 185 479.50 85.50Q406-14 283-14Q150-14 113 88L95 0L-12 0L141 712L253 712M321 441Q238 441 192 365Q146 289 146 200Q146 142 178 108Q210 74 264 74Q337 74 388 142.50Q439 211 439 308Q439 369 409.50 405Q380 441 321 441Z"  horiz-adv-x="611" vert-adv-y="1000"  />

      
      <glyph glyph-name="uni63" unicode="&#x63;" d="M496 178Q470 84 406 34.50Q342-15 246-15Q140-15 81.50 43.50Q23 102 23 207Q23 341 103 435.50Q183 530 316 530Q410 530 466.50 481.50Q523 433 523 352L523 345L412 345L412 349Q412 393 385.50 418Q359 443 311 443Q253 443 212 405Q171 367 154 315.50Q137 264 137 207Q137 72 255 72Q300 72 333 99.50Q366 127 382 178L496 178Z"  horiz-adv-x="556" vert-adv-y="1000"  />

      
      <glyph glyph-name="uni64" unicode="&#x64;" d="M626 712L476 0L369 0L384 72Q330-14 216-14Q123-14 71.50 40.50Q20 95 20 194Q20 279 51.50 354Q83 429 149 479.50Q215 530 302 530Q421 530 458 442L514 712L626 712M313 439Q236 439 185.50 371.50Q135 304 135 200Q135 140 165 107.50Q195 75 249 75Q293 75 328.50 98.50Q364 122 385 159Q406 196 417 238Q428 280 428 321Q428 376 397.50 407.50Q367 439 313 439Z"  horiz-adv-x="611" vert-adv-y="1000"  />

      
      <glyph glyph-name="uni65" unicode="&#x65;" d="M484 160Q463 74 395.50 28.50Q328-17 235-17Q129-17 69.50 43.50Q10 104 10 210Q10 347 92 438.50Q174 530 296 530Q397 530 455 471Q513 412 513 309Q513 275 506 228L122 228Q120 200 120 198Q120 137 153 102.50Q186 68 243 68Q336 68 371 160L484 160M135 306L405 306L405 320Q405 381 376 413Q347 445 292 445Q235 445 193.50 408.50Q152 372 135 306Z"  horiz-adv-x="556" vert-adv-y="1000"  />

      
      <glyph glyph-name="uni66" unicode="&#x66;" d="M341 516L323 434L224 434L132 0L18 0L110 434L24 434L43 516L128 516L145 586Q160 648 197.50 683.50Q235 719 309 719Q344 719 393 711L375 624Q351 629 332 629Q309 629 294.50 624Q280 619 271 605.50Q262 592 258.50 582.50Q255 573 249 550Q248 547 248 546Q248 545 247 543Q246 541 246 539L240 516L341 516Z"  horiz-adv-x="315" vert-adv-y="1000"  />

      
      <glyph glyph-name="uni67" unicode="&#x67;" d="M570 516L467 31Q459-7 449.50-35Q440-63 420-96.50Q400-130 372.50-151.50Q345-173 299-188Q253-203 194-203Q97-203 38-160.50Q-21-118-21-47L-21-39L93-39Q99-123 203-123Q242-123 269.50-112Q297-101 313.50-77Q330-53 339-29.50Q348-6 358 34L369 79Q313 5 213 5Q127 5 73 62Q19 119 19 211Q19 291 48.50 362Q78 433 140 481Q202 529 284 529Q403 529 445 429L462 516L570 516M298 441Q221 441 176.50 370Q132 299 132 216Q132 157 162.50 123.50Q193 90 246 90Q316 90 364 156Q412 222 412 319Q412 374 382 407.50Q352 441 298 441Z"  horiz-adv-x="593" vert-adv-y="1000"  />

      
      <glyph glyph-name="uni68" unicode="&#x68;" d="M249 712L190 442Q265 529 370 529Q438 529 479 492.50Q520 456 520 396Q520 365 508 310L443 0L328 0L391 296Q400 341 400 365Q400 436 321 436Q254 436 212 388Q170 340 155 269L98 0L-14 0L137 712L249 712Z"  horiz-adv-x="574" vert-adv-y="1000"  />

      
      <glyph glyph-name="uni69" unicode="&#x69;" d="M212 516L103 0L-11 0L98 516L212 516M254 715L230 603L117 603L141 715L254 715Z"  horiz-adv-x="241" vert-adv-y="1000"  />

      
      <glyph glyph-name="uni6a" unicode="&#x6a;" d="M210 516L106 16Q105 13 104 8Q81-102 60-137Q23-198-72-198Q-102-198-131-193L-111-101Q-92-105-79-105Q-52-105-39.50-90.50Q-27-76-16-21L97 516L210 516M252 715L229 602L115 602L139 715L252 715Z"  horiz-adv-x="241" vert-adv-y="1000"  />

      
      <glyph glyph-name="uni6b" unicode="&#x6b;" d="M251 712L164 306L401 516L546 516L317 322L446 0L321 0L229 252L137 176L100 0L-11 0L141 712L251 712Z"  horiz-adv-x="519" vert-adv-y="1000"  />

      
      <glyph glyph-name="uni6c" unicode="&#x6c;" d="M253 712L103 0L-11 0L140 712L253 712Z"  horiz-adv-x="241" vert-adv-y="1000"  />

      
      <glyph glyph-name="uni6d" unicode="&#x6d;" d="M210 516L192 439Q225 480 272.50 505Q320 530 372 530Q482 530 502 437Q580 528 684 528Q747 528 788 494.50Q829 461 829 409Q829 374 814 303L750 0L636 0L698 298Q709 349 709 374Q709 402 690 418Q671 434 638 434Q587 434 546 397Q505 360 492 299L428 0L314 0L377 298Q389 354 389 377Q389 404 371 420Q353 436 323 436Q269 436 226 396.50Q183 357 170 297L107 0L-8 0L102 516L210 516Z"  horiz-adv-x="889" vert-adv-y="1000"  />

      
      <glyph glyph-name="uni6e" unicode="&#x6e;" d="M203 516L186 438Q259 529 369 529Q438 529 479.50 493.50Q521 458 521 399Q521 365 509 311L444 0L328 0L394 309Q401 340 401 369Q401 401 380.50 418Q360 435 323 435Q254 435 213.50 389.50Q173 344 158 273L100 0L-14 0L96 516L203 516Z"  horiz-adv-x="574" vert-adv-y="1000"  />

      
      <glyph glyph-name="uni6f" unicode="&#x6f;" d="M537 311Q537 176 457.50 80Q378-16 245-16Q136-16 76 43Q16 102 16 209Q16 348 99.50 439.50Q183 531 311 531Q417 531 477 474Q537 417 537 311M305 445Q231 445 180 376Q129 307 129 208Q129 143 161 107Q193 71 251 71Q324 71 374 141Q424 211 424 313Q424 372 393 408.50Q362 445 305 445Z"  horiz-adv-x="593" vert-adv-y="1000"  />

      
      <glyph glyph-name="uni70" unicode="&#x70;" d="M204 516L189 448Q255 529 357 529Q447 529 499 470Q551 411 551 310Q551 227 521.50 155Q492 83 429 34.50Q366-14 281-14Q156-14 117 80L60-191L-53-191L97 516L204 516M318 439Q261 439 220 399Q179 359 162.50 306Q146 253 146 198Q146 141 178.50 107.50Q211 74 267 74Q339 74 388 141Q437 208 437 306Q437 439 318 439Z"  horiz-adv-x="611" vert-adv-y="1000"  />

      
      <glyph glyph-name="uni71" unicode="&#x71;" d="M583 516L434-191L322-191L376 64Q310-14 209-14Q120-14 69.50 41Q19 96 19 194Q19 279 50.50 354Q82 429 148 479.50Q214 530 301 530Q421 530 460 436L477 516L583 516M311 438Q225 438 179 364.50Q133 291 133 200Q133 139 162 106.50Q191 74 246 74Q304 74 347 114.50Q390 155 408 209.50Q426 264 426 320Q426 374 395 406Q364 438 311 438Z"  horiz-adv-x="611" vert-adv-y="1000"  />

      
      <glyph glyph-name="uni72" unicode="&#x72;" d="M404 526L380 415Q358 420 334 420Q195 420 153 229L103 0L-10 0L100 516L207 516L184 413Q254 529 364 529Q386 529 404 526Z"  horiz-adv-x="370" vert-adv-y="1000"  />

      
      <glyph glyph-name="uni73" unicode="&#x73;" d="M461 365L353 365Q353 412 328 430.50Q303 449 253 449Q209 449 184.50 432.50Q160 416 160 387Q160 359 187.50 343Q215 327 278 306Q293 302 301 299Q432 254 432 158Q432 71 365 28Q298-15 206-15Q103-15 46.50 29.50Q-10 74-10 155L-10 165L98 165L98 162Q98 68 215 68Q262 68 290.50 87.50Q319 107 319 140Q319 171 296 186Q273 201 199 227Q196 228 194 229Q165 240 151 245.50Q137 251 113.50 264Q90 277 78.50 290Q67 303 58 324.50Q49 346 49 373Q49 445 107 487.50Q165 530 262 530Q356 530 408.50 489.50Q461 449 461 376L461 365Z"  horiz-adv-x="500" vert-adv-y="1000"  />

      
      <glyph glyph-name="uni74" unicode="&#x74;" d="M341 516L322 433L221 433L166 179Q156 136 156 120Q156 86 206 86Q229 86 260 90L241 1Q205-5 165-5Q38-5 38 89Q38 114 52 175L107 433L19 433L37 516L125 516L159 670L272 670L239 516L341 516Z"  horiz-adv-x="333" vert-adv-y="1000"  />

      
      <glyph glyph-name="uni75" unicode="&#x75;" d="M545 516L436 0L328 0L346 77Q281-15 170-15Q100-15 58.50 21.50Q17 58 17 119Q17 151 28 204L94 516L209 516L151 243Q135 170 135 143Q135 112 157 94.50Q179 77 217 77Q281 77 320 125.50Q359 174 374 243L432 516L545 516Z"  horiz-adv-x="574" vert-adv-y="1000"  />

      
      <glyph glyph-name="uni76" unicode="&#x76;" d="M516 516L232 0L105 0L34 516L151 516L179 274Q187 196 189 105Q227 195 256 251L395 516L516 516Z"  horiz-adv-x="500" vert-adv-y="1000"  />

      
      <glyph glyph-name="uni77" unicode="&#x77;" d="M792 516L525 0L405 0L386 285Q383 337 383 389Q378 378 364.50 343.50Q351 309 342 290L210 0L90 0L31 516L147 516L162 340Q174 190 174 115Q194 174 219 229L348 516L468 516L484 271Q489 198 489 119Q510 178 578 322L671 516L792 516Z"  horiz-adv-x="778" vert-adv-y="1000"  />

      
      <glyph glyph-name="uni78" unicode="&#x78;" d="M513 516L295 267L427 0L303 0L247 127Q235 153 219 193Q199 165 180 142L63 0L-69 0L171 274L55 516L179 516L228 396Q242 364 247 345Q283 394 284 395L382 516L513 516Z"  horiz-adv-x="500" vert-adv-y="1000"  />

      
      <glyph glyph-name="uni79" unicode="&#x79;" d="M523 516L202-63Q162-136 116.50-167Q71-198 7-198Q-29-198-63-190L-43-97Q-13-105 13-105Q32-105 47-96Q62-87 73-70.50Q84-54 89-43.50Q94-33 100-17L119 32L32 516L150 516L179 317Q197 198 204 116Q238 199 281 283L401 516L523 516Z"  horiz-adv-x="500" vert-adv-y="1000"  />

      
      <glyph glyph-name="uni7a" unicode="&#x7a;" d="M480 516L463 433L190 157Q169 136 110 85Q152 89 245 89L416 89L397 0L-48 0L-30 84L242 358Q274 390 319 428Q306 428 262.50 427.50Q219 427 195 427L49 427L68 516L480 516Z"  horiz-adv-x="481" vert-adv-y="1000"  />

      
      <glyph glyph-name="uni7b" unicode="&#x7b;" d="M-48 240L-35 300Q10 307 39 320Q68 333 85.50 358Q103 383 111.50 406Q120 429 130 473Q153 568 160 588Q212 723 399 723L387 661Q353 658 328 646Q303 634 288.50 620.50Q274 607 262 580.50Q250 554 244.50 535.50Q239 517 231 480Q209 381 193 351Q158 283 63 272Q56 271 47 270Q101 257 127 228Q153 199 153 144Q153 110 138.50 43Q124-24 124-48Q124-88 150-103Q176-118 220-121L207-181L199-181Q125-181 77.50-144Q30-107 30-37Q30-1 43.50 69.50Q57 140 57 158Q57 224-48 240Z"  horiz-adv-x="296" vert-adv-y="1000"  />

      
      <glyph glyph-name="uni7c" unicode="&#x7c;" d="M61-214L61 786L161 786L161-214L61-214Z"  horiz-adv-x="222" vert-adv-y="1000"  />

      
      <glyph glyph-name="uni7d" unicode="&#x7d;" d="M308 302L295 242Q250 235 221.50 222Q193 209 175.50 184Q158 159 150 136.50Q142 114 131 69Q110-19 100-46Q49-181-139-181L-126-119Q-93-116-68-104Q-43-92-28.50-78.50Q-14-65-2-38.50Q10-12 15.50 6.50Q21 25 29 62Q51 161 68 192Q104 261 202 271Q208 272 214 272Q160 285 134 314Q108 343 108 398Q108 432 122 499Q136 566 136 590Q136 630 110 645Q84 660 40 663L53 723L62 723Q136 723 183.50 686Q231 649 231 579Q231 542 217 472Q203 402 203 384Q203 318 308 302Z"  horiz-adv-x="296" vert-adv-y="1000"  />

      
      <glyph glyph-name="uni7e" unicode="&#x7e;" d="M550 340Q542 261 505 219Q468 177 407 177Q374 177 273 209Q266 212 244 219.50Q222 227 208 232Q194 237 176.50 241.50Q159 246 148 246Q122 246 103.50 226.50Q85 207 81 175L16 175Q23 245 58 292Q93 339 158 339Q188 339 293 305Q303 302 320.50 296Q338 290 345.50 287.50Q353 285 365 281Q377 277 384.50 275.50Q392 274 401.50 273Q411 272 420 272Q473 272 485 340L550 340Z"  horiz-adv-x="600" vert-adv-y="1000"  />

      
      <glyph glyph-name="unia3" unicode="&#xa3;" d="M363 382L350 319L224 319Q229 294 229 274Q229 214 202.50 176Q176 138 119 91Q175 115 215 115Q244 115 282 104Q343 86 370 86Q377 86 384 87Q391 88 396.50 89Q402 90 409.50 93Q417 96 420.50 97.50Q424 99 432 103.50Q440 108 443 109.50Q446 111 455 116.50Q464 122 467 124L503 35Q428-15 358-15Q321-15 243 9Q183 28 146 28Q133 28 119.50 25Q106 22 98.50 20Q91 18 74 9.50Q57 1 54.50 0Q52-1 31-13L-5 73Q62 122 90.50 164Q119 206 119 256Q119 284 111 319L22 319L36 382L99 382Q77 442 77 495Q77 595 150.50 657.50Q224 720 327 720Q429 720 491 662Q553 604 553 508Q553 495 552 484L441 484Q442 492 442 501Q442 560 411.50 591.50Q381 623 325 623Q267 623 231 585.50Q195 548 195 486Q195 435 214 382L363 382Z"  horiz-adv-x="556" vert-adv-y="1000"  />

      
      <glyph glyph-name="unia4" unicode="&#xa4;" d="M34 160L100 226Q63 286 63 346Q63 412 100 466L34 532L92 590L158 524Q207 561 278 561Q340 561 399 524L464 590L522 532L456 466Q493 417 493 345Q493 284 456 226L522 160L464 102L398 168Q348 131 279 131Q212 131 158 168L92 102L34 160M368.50 436.50Q368.50 436.50 349.75 455.25Q331 474 278 474Q225 474 187.50 436.50Q150 399 150 346Q150 293 187.50 255.50Q225 218 278 218Q331 218 368.50 255.50Q406 293 406 346Q406 399 368.50 436.50Z"  horiz-adv-x="556" vert-adv-y="1000"  />

      
      <glyph glyph-name="unia6" unicode="&#xa6;" d="M61-89L61 161L161 161L161-89L61-89M61 411L61 661L161 661L161 411L61 411Z"  horiz-adv-x="222" vert-adv-y="1000"  />

      
      <glyph glyph-name="unia7" unicode="&#xa7;" d="M531 540L427 540L427 549Q427 589 404.50 612Q382 635 342 635Q304 635 280.50 614.50Q257 594 257 562Q257 530 279.50 503Q302 476 365 425Q456 351 484.50 310.50Q513 270 513 221Q513 160 474 116.50Q435 73 371 63Q401 26 401-24Q401-96 344-143.50Q287-191 200-191Q110-191 55.50-142Q1-93 1-13L1 1L106 1L106-2Q106-102 205-102Q244-102 268-81.50Q292-61 292-28Q292 2 263 34Q234 66 157 135Q87 197 58.50 237.50Q30 278 30 327Q30 387 68.50 429Q107 471 171 481Q146 521 146 561Q146 637 205.50 679.50Q265 722 343 722Q430 722 481 678.50Q532 635 532 560Q532 557 531.50 551Q531 545 531 540M314 125L324 124Q354 124 381 145.50Q408 167 408 203Q408 216 403 229Q398 242 394 250Q390 258 377.50 272Q365 286 362 289Q359 292 343 307L230 414Q227 417 216 417Q183 417 158 393Q133 369 133 338Q133 299 180 254L314 125Z"  horiz-adv-x="556" vert-adv-y="1000"  />

      
      <glyph glyph-name="unia9" unicode="&#xa9;" d="M136.50 619.50Q136.50 619.50 191.25 674.25Q246 729 400 729Q554 729 663.50 619.50Q773 510 773 356Q773 202 663.50 92.50Q554-17 400-17Q246-17 136.50 92.50Q27 202 27 356Q27 510 136.50 619.50M629 585Q629 585 581.50 632.50Q534 680 400 680Q266 680 171 585Q76 490 76 356Q76 222 171 127Q266 32 400 32Q534 32 629 127Q724 222 724 356Q724 490 629 585M585 288Q578 223 528.50 180.50Q479 138 410 138Q321 138 262.50 200.50Q204 263 204 357Q204 453 259.50 515Q315 577 401 577Q475 577 527 533Q579 489 583 422L507 422Q499 464 471.50 488Q444 512 403 512Q350 512 318 470Q286 428 286 360Q286 288 319 245.50Q352 203 408 203Q490 203 509 288L585 288Z"  horiz-adv-x="800" vert-adv-y="1000"  />

      
      <glyph glyph-name="uniab" unicode="&#xab;" d="M226 438L204 333L90 264L171 176L152 82L26 220L51 330L226 438M422 438L399 333L286 265L366 176L346 83L221 220L246 330L422 438Z"  horiz-adv-x="463" vert-adv-y="1000"  />

      
      <glyph glyph-name="uniac" unicode="&#xac;" d="M29 317L29 413L546 413L546 102L448 102L448 317L29 317Z"  horiz-adv-x="600" vert-adv-y="1000"  />

      
      <glyph glyph-name="uniae" unicode="&#xae;" d="M102.50 674.50Q102.50 674.50 129.75 701.75Q157 729 234 729Q311 729 366 674.50Q421 620 421 543Q422 466 366.50 411Q311 356 234 356Q157 356 102.50 411Q48 466 48 543Q48 620 102.50 674.50M343 652Q343 652 320.50 674.50Q298 697 234 697Q170 697 125 652Q80 607 80 543Q80 479 125 433.50Q170 388 234 388Q298 388 343 433.50Q388 479 388 543Q388 607 343 652M157 646L230 646Q321 646 321 586Q321 550 284 537Q303 530 310 515.50Q317 501 318 469Q318 454 323 441L277 441Q273 453 273 469Q272 500 263 509Q254 518 225 518L203 518L203 441L157 441L157 646M203 554L228 554Q274 554 274 582Q274 609 228 609L203 609L203 554Z"  horiz-adv-x="400" vert-adv-y="1000"  />

      
      <glyph glyph-name="unib0" unicode="&#xb0;" d="M125 659Q125 659 148.50 682.50Q172 706 239 706Q306 706 353 659Q400 612 400 545Q400 478 353 431Q306 384 239 384Q172 384 125 431Q78 478 78 545Q78 612 125 659M295 601Q295 601 283.50 612.50Q272 624 239 624Q206 624 183 601Q160 578 160 545Q160 513 183 489.50Q206 466 239 466Q272 466 295 489.50Q318 513 318 545Q318 578 295 601Z"  horiz-adv-x="400" vert-adv-y="1000"  />

      
      <glyph glyph-name="unib1" unicode="&#xb1;" d="M222 115L222 273L15 273L15 369L222 369L222 531L324 531L324 369L532 369L532 273L324 273L324 115L222 115M15-16L15 79L532 79L532-16L15-16Z"  horiz-adv-x="600" vert-adv-y="1000"  />

      
      <glyph glyph-name="unib5" unicode="&#xb5;" d="M88 516L204 516L143 230Q130 172 130 147Q130 114 152 95.50Q174 77 213 77Q279 77 317 126.50Q355 176 370 249L427 516L540 516L430 0L322 0L338 70Q279-15 189-15Q128-15 96 30L52-191L-63-191L88 516Z"  horiz-adv-x="574" vert-adv-y="1000"  />

      
      <glyph glyph-name="unib6" unicode="&#xb6;" d="M626 635L572 635L398-182L305-182L479 635L368 635L194-182L101-182L192 249Q34 270 34 420Q34 551 124.50 631.50Q215 712 350 712L642 712L626 635Z"  horiz-adv-x="600" vert-adv-y="1000"  />

      
      <glyph glyph-name="unib7" unicode="&#xb7;" d="M209 360L180 225L41 225L70 360L209 360Z"  horiz-adv-x="278" vert-adv-y="1000"  />

      
      <glyph glyph-name="unibb" unicode="&#xbb;" d="M79 438L204 301L180 191L4 83L26 188L139 256L59 345L79 438M274 439L400 301L374 191L199 83L221 188L334 257L254 345L274 439Z"  horiz-adv-x="463" vert-adv-y="1000"  />

      
      <glyph glyph-name="unif7" unicode="&#xf7;" d="M26 210L26 305L543 305L543 210L26 210M225 9L225 139L343 139L343 9L225 9M225 376L225 506L343 506L343 376L225 376Z"  horiz-adv-x="600" vert-adv-y="1000"  />

      
      <glyph glyph-name="uni0192" unicode="&#x0192;" d="M467 438L445 358L338 358L245 19Q218-80 177.50-124.50Q137-169 44-169Q18-169-14-164L10-74Q27-77 43-77Q75-77 94-59Q113-41 124 0L221 358L127 358L149 438L243 438L274 551Q298 637 338.50 676.50Q379 716 466 716Q495 716 540 709L516 621Q492 626 476 626Q453 626 437.50 619.50Q422 613 412 597Q402 581 397 568Q392 555 385 529L360 438L467 438Z"  horiz-adv-x="556" vert-adv-y="1000"  />

      
      <glyph glyph-name="uni0401" unicode="&#x0401;" d="M669 712L647 608L254 608L214 417L579 417L559 317L193 317L148 104L547 104L524 0L1 0L152 712L669 712M563 899L544 791L434 791L453 899L563 899M383 899L364 791L254 791L273 899L383 899Z"  horiz-adv-x="630" vert-adv-y="1000"  />

      
      <glyph glyph-name="uni0402" unicode="&#x0402;" d="M403-121Q394-121 370-119L391-20Q456-20 503 19Q550 58 570 112Q590 166 590 226Q590 344 476 344Q409 344 361 296Q313 248 295 163L260 0L135 0L265 608L59 608L81 712L659 712L637 608L390 608L337 361Q411 442 516 442Q611 442 663.50 382.50Q716 323 716 228Q716 141 680 62.50Q644-16 571-68.50Q498-121 403-121Z"  horiz-adv-x="778" vert-adv-y="1000"  />

      
      <glyph glyph-name="uni0403" unicode="&#x0403;" d="M125 0L0 0L152 712L635 712L613 608L255 608L125 0M522 928L387 785L305 785L390 928L522 928Z"  horiz-adv-x="563" vert-adv-y="1000"  />

      
      <glyph glyph-name="uni0404" unicode="&#x0404;" d="M698 498L575 498Q559 625 414 625Q327 625 267 568Q207 511 179 422L485 422L464 321L161 321Q160 312 160 295Q160 196 207.50 140.50Q255 85 340 85Q413 85 464.50 125Q516 165 537 239L663 239Q635 118 547.50 50.50Q460-17 334-17Q194-17 115 65.50Q36 148 36 295Q36 411 81 508.50Q126 606 216 667Q306 728 424 728Q544 728 618.50 665Q693 602 698 498Z"  horiz-adv-x="722" vert-adv-y="1000"  />

      
      <glyph glyph-name="uni0405" unicode="&#x0405;" d="M619 502L499 502L499 509Q499 629 358 629Q290 629 249.50 600.50Q209 572 209 525Q209 501 219 484Q229 467 251.50 455Q274 443 294.50 436Q315 429 351 420Q394 409 419.50 401Q445 393 480 376.50Q515 360 533.50 340Q552 320 566 287.50Q580 255 580 213Q580 100 494.50 42.50Q409-15 289-15Q153-15 81.50 45Q10 105 10 220Q10 228 11 235L133 235L133 223Q133 83 296 83Q370 83 414.50 115.50Q459 148 459 202Q459 228 449 246.50Q439 265 416 277Q393 289 378.50 294Q364 299 332 308Q284 321 258 329Q232 337 194.50 354.50Q157 372 137.50 391Q118 410 103.50 442Q89 474 89 514Q89 610 162.50 667.50Q236 725 358 725Q484 725 551.50 670.50Q619 616 619 514L619 502Z"  horiz-adv-x="648" vert-adv-y="1000"  />

      
      <glyph glyph-name="uni0406" unicode="&#x0406;" d="M278 712L128 0L2 0L153 712L278 712Z"  horiz-adv-x="278" vert-adv-y="1000"  />

      
      <glyph glyph-name="uni0407" unicode="&#x0407;" d="M278 712L128 0L2 0L153 712L278 712M385 899L366 791L256 791L275 899L385 899M205 899L186 791L76 791L95 899L205 899Z"  horiz-adv-x="278" vert-adv-y="1000"  />

      
      <glyph glyph-name="uni0408" unicode="&#x0408;" d="M555 712L459 253Q447 197 438 164Q429 131 410 92Q391 53 366 32Q341 11 300.50-3Q260-17 205-17Q113-17 57.50 26Q2 69 2 158Q2 203 13 250L130 250Q118 198 118 168Q118 84 208 84Q240 84 261.50 93.50Q283 103 296.50 129.50Q310 156 314.50 169.50Q319 183 327 223Q328 227 328.50 229.50Q329 232 330 235L431 712L555 712Z"  horiz-adv-x="537" vert-adv-y="1000"  />

      
      <glyph glyph-name="uni0409" unicode="&#x0409;" d="M531 608L321 608L220 202Q192 90 143.50 36.50Q95-17 10-17Q-40-17-74 0L-53 100Q-33 88-1 88Q41 88 68.50 129Q96 170 126 299L224 712L678 712L621 439L732 439Q803 439 843 429.50Q883 420 913 395Q978 341 978 245Q978 158 926.50 89Q875 20 793 8Q742 0 669 0L402 0L531 608M857 236Q857 270 844 292Q831 314 805.50 323.50Q780 333 757 335.50Q734 338 699 338L598 338L549 104L671 104Q771 104 805 129Q828 146 842.50 175Q857 204 857 236Z"  horiz-adv-x="1035" vert-adv-y="1000"  />

      
      <glyph glyph-name="uni040A" unicode="&#x040A;" d="M478 338L194 338L122 0L-3 0L148 712L272 712L216 444L501 444L557 712L681 712L623 439L734 439Q805 439 845 429.50Q885 420 915 395Q980 341 980 245Q980 158 929 89Q878 20 795 8Q744 0 671 0L405 0L478 338M859 236Q859 264 849.50 283.50Q840 303 826.50 313.50Q813 324 790 329.50Q767 335 748 336.50Q729 338 701 338L600 338L551 104L673 104Q773 104 807 129Q830 146 844.50 175Q859 204 859 236Z"  horiz-adv-x="1035" vert-adv-y="1000"  />

      
      <glyph glyph-name="uni040B" unicode="&#x040B;" d="M506 442Q567 442 609.50 426.50Q652 411 673.50 383.50Q695 356 704 327.50Q713 299 713 266Q713 236 706 204L662 0L537 0L577 187Q586 225 586 248Q586 340 464 340Q440 340 328 324L259 0L134 0L264 608L58 608L80 712L658 712L636 608L389 608L350 428Q443 442 506 442Z"  horiz-adv-x="778" vert-adv-y="1000"  />

      
      <glyph glyph-name="uni040C" unicode="&#x040C;" d="M742 712L399 419L623 0L482 0L304 341L174 233L126 0L2 0L152 712L276 712L204 382Q227 405 575 712L742 712M565 928L430 785L348 785L433 928L565 928Z"  horiz-adv-x="685" vert-adv-y="1000"  />

      
      <glyph glyph-name="uni040E" unicode="&#x040E;" d="M202 206L67 712L197 712L257 462Q271 402 287 319Q334 400 375 460L548 712L688 712L296 145Q242 66 187.50 26Q133-14 64-14Q18-14-26 4L-5 104Q25 88 63 88Q113 88 196 198L202 206M565 892Q531 751 381 751Q235 751 235 869Q235 876 237 892L295 892Q298 816 385 816Q475 816 507 892L565 892Z"  horiz-adv-x="611" vert-adv-y="1000"  />

      
      <glyph glyph-name="uni040F" unicode="&#x040F;" d="M473 108L599 712L724 712L575 0L348 0L310-177L185-177L223 0L-3 0L148 712L273 712L145 108L473 108Z"  horiz-adv-x="722" vert-adv-y="1000"  />

      
      <glyph glyph-name="uni0410" unicode="&#x0410;" d="M499 712L623 0L496 0L467 188L185 188L76 0L-60 0L366 712L499 712M410 595Q368 512 305 402L237 283L454 283L432 429Q412 566 410 595Z"  horiz-adv-x="685" vert-adv-y="1000"  />

      
      <glyph glyph-name="uni0411" unicode="&#x0411;" d="M666 712L644 608L254 608L219 439L389 439Q460 439 500 429.50Q540 420 570 395Q635 341 635 245Q635 158 583.50 89Q532 20 450 8Q399 0 326 0L0 0L151 712L666 712M514 236Q514 270 501 292Q488 314 462.50 323.50Q437 333 414 335.50Q391 338 356 338L196 338L147 104L328 104Q428 104 462 129Q485 146 499.50 175Q514 204 514 236Z"  horiz-adv-x="704" vert-adv-y="1000"  />

      
      <glyph glyph-name="uni0412" unicode="&#x0412;" d="M151 712L421 712Q471 712 508.50 706Q546 700 583 683.50Q620 667 640 632.50Q660 598 660 546Q660 479 623.50 433.50Q587 388 525 375Q575 359 602.50 321.50Q630 284 630 229Q630 156 585 94Q540 32 470 13Q420 0 309 0L1 0L151 712M252 611L210 413L368 413Q456 413 489 436Q535 469 535 530Q535 559 518.50 579.50Q502 600 474 606Q448 611 394 611L252 611M192 325L143 98L303 98Q371 98 405.50 105Q440 112 463 131Q506 167 506 227Q506 260 488 285.50Q470 311 439 318Q410 325 341 325L192 325Z"  horiz-adv-x="704" vert-adv-y="1000"  />

      
      <glyph glyph-name="uni0413" unicode="&#x0413;" d="M125 0L0 0L152 712L635 712L613 608L255 608L125 0Z"  horiz-adv-x="563" vert-adv-y="1000"  />

      
      <glyph glyph-name="uni0414" unicode="&#x0414;" d="M604-177L483-177L521 0L57 0L19-177L-102-177L-42 104L27 104Q83 177 139.50 317Q196 457 226 602L249 712L713 712L584 104L664 104L604-177M459 104L566 608L353 608L344 565Q317 436 265 304.50Q213 173 165 104L459 104Z"  horiz-adv-x="722" vert-adv-y="1000"  />

      
      <glyph glyph-name="uni0415" unicode="&#x0415;" d="M669 712L647 608L254 608L214 417L579 417L559 317L193 317L148 104L547 104L524 0L1 0L152 712L669 712Z"  horiz-adv-x="630" vert-adv-y="1000"  />

      
      <glyph glyph-name="uni0416" unicode="&#x0416;" d="M392 323L94 0L-68 0L328 417L128 712L271 712L481 389L549 712L671 712L604 394L939 712L1098 712L762 402L976 0L830 0L673 319L567 222L520 0L398 0L449 238L392 323Z"  horiz-adv-x="1043" vert-adv-y="1000"  />

      
      <glyph glyph-name="uni0417" unicode="&#x0417;" d="M627 553Q627 487 585.50 442.50Q544 398 482 383L482 380Q533 370 563.50 328Q594 286 594 229Q594 115 507 50Q420-15 293-15Q156-15 83 45.50Q10 106 10 220Q10 228 11 235L133 235L133 223Q133 83 296 83Q375 83 422 120Q469 157 469 229Q469 275 438 299Q407 323 351 323L247 323L265 417L364 417Q417 417 459.50 454.50Q502 492 502 543Q502 584 469 607Q436 630 375 630Q305 630 257.50 599.50Q210 569 195 505L76 505Q97 618 179 673.50Q261 729 378 729Q491 729 559 683Q627 637 627 553Z"  horiz-adv-x="648" vert-adv-y="1000"  />

      
      <glyph glyph-name="uni0418" unicode="&#x0418;" d="M-3 0L149 712L274 712L158 166L565 712L725 712L573 0L448 0L564 546L157 0L-3 0Z"  horiz-adv-x="722" vert-adv-y="1000"  />

      
      <glyph glyph-name="uni0419" unicode="&#x0419;" d="M615 892Q581 751 431 751Q285 751 285 869Q285 876 287 892L345 892Q348 816 435 816Q525 816 557 892L615 892M-3 0L149 712L274 712L158 166L565 712L725 712L573 0L448 0L564 546L157 0L-3 0Z"  horiz-adv-x="722" vert-adv-y="1000"  />

      
      <glyph glyph-name="uni041A" unicode="&#x041A;" d="M742 712L399 419L623 0L482 0L304 341L174 233L126 0L2 0L152 712L276 712L204 382Q227 405 575 712L742 712Z"  horiz-adv-x="685" vert-adv-y="1000"  />

      
      <glyph glyph-name="uni041B" unicode="&#x041B;" d="M558 0L433 0L562 608L346 608L262 269Q224 117 167 51Q110-15 21-15Q-33-15-63 0L-41 96Q-24 86 10 86Q54 86 88.50 141.50Q123 197 160 353L245 712L709 712L558 0Z"  horiz-adv-x="704" vert-adv-y="1000"  />

      
      <glyph glyph-name="uni041C" unicode="&#x041C;" d="M890 712L739 0L620 0L688 311Q724 477 763 611Q703 492 650 397L423 0L321 0L257 415Q238 537 236 610Q225 516 181 302L119 0L-1 0L151 712L323 712L379 322Q396 201 396 130Q450 254 484 313L714 712L890 712Z"  horiz-adv-x="889" vert-adv-y="1000"  />

      
      <glyph glyph-name="uni041D" unicode="&#x041D;" d="M727 712L578 0L453 0L520 319L188 319L120 0L-5 0L146 712L270 712L210 425L543 425L603 712L727 712Z"  horiz-adv-x="722" vert-adv-y="1000"  />

      
      <glyph glyph-name="uni041E" unicode="&#x041E;" d="M729 421Q729 301 683.50 202Q638 103 547.50 42Q457-19 338-19Q195-19 114 65Q33 149 33 297Q33 479 140.50 602.50Q248 726 427 726Q566 726 647.50 643.50Q729 561 729 421M419 622Q334 622 273 572Q212 522 184.50 449.50Q157 377 157 295Q157 197 207 140.50Q257 84 345 84Q428 84 488.50 137.50Q549 191 576 265.50Q603 340 603 420Q603 514 557 568Q511 622 419 622Z"  horiz-adv-x="759" vert-adv-y="1000"  />

      
      <glyph glyph-name="uni041F" unicode="&#x041F;" d="M725 712L576 0L451 0L578 608L250 608L122 0L-3 0L148 712L725 712Z"  horiz-adv-x="722" vert-adv-y="1000"  />

      
      <glyph glyph-name="uni0420" unicode="&#x0420;" d="M156 712L417 712Q488 712 528 702.50Q568 693 598 668Q663 614 663 518Q663 431 612 363Q561 295 478 283Q427 275 354 275L187 275L129 0L4 0L156 712M258 609L209 375L356 375Q456 375 490 400Q513 417 527.50 446Q542 475 542 507Q542 541 529 563Q516 585 490.50 594.50Q465 604 442 606.50Q419 609 384 609L258 609Z"  horiz-adv-x="667" vert-adv-y="1000"  />

      
      <glyph glyph-name="uni0421" unicode="&#x0421;" d="M665 248Q639 124 550.50 53.50Q462-17 334-17Q194-17 115 65.50Q36 148 36 295Q36 411 81 508.50Q126 606 216 667Q306 728 424 728Q548 728 623 662Q698 596 698 487L698 474L577 474Q574 552 534 588.50Q494 625 414 625Q353 625 303 594.50Q253 564 222.50 515.50Q192 467 176 410Q160 353 160 295Q160 196 207.50 140.50Q255 85 340 85Q416 85 467.50 127.50Q519 170 539 248L665 248Z"  horiz-adv-x="722" vert-adv-y="1000"  />

      
      <glyph glyph-name="uni0422" unicode="&#x0422;" d="M665 712L643 609L415 609L287 0L162 0L290 609L57 609L79 712L665 712Z"  horiz-adv-x="593" vert-adv-y="1000"  />

      
      <glyph glyph-name="uni0423" unicode="&#x0423;" d="M202 206L67 712L197 712L257 462Q271 402 287 319Q334 400 375 460L548 712L688 712L296 145Q242 66 187.50 26Q133-14 64-14Q18-14-26 4L-5 104Q25 88 63 88Q113 88 196 198L202 206Z"  horiz-adv-x="611" vert-adv-y="1000"  />

      
      <glyph glyph-name="uni0424" unicode="&#x0424;" d="M777 394Q777 317 746.50 256Q716 195 663.50 158Q611 121 546 101.50Q481 82 408 80L391 0L266 0L283 80Q172 92 102.50 157.50Q33 223 33 329Q33 406 63.50 467Q94 528 146.50 565Q199 602 264 621.50Q329 641 402 643L417 712L542 712L527 643Q638 631 707.50 565.50Q777 500 777 394M651 392Q651 511 504 535L431 188Q535 193 593 244.50Q651 296 651 392M379 535Q275 530 217 478.50Q159 427 159 331Q159 212 306 188L379 535Z"  horiz-adv-x="807" vert-adv-y="1000"  />

      
      <glyph glyph-name="uni0425" unicode="&#x0425;" d="M700 712L406 364L585 0L449 0L394 119Q338 240 322 280Q311 269 288 238Q265 207 259 199L97 0L-53 0L265 374L96 712L232 712L295 577Q306 553 325 507.50Q344 462 348 452Q383 500 457 592L554 712L700 712Z"  horiz-adv-x="648" vert-adv-y="1000"  />

      
      <glyph glyph-name="uni0426" unicode="&#x0426;" d="M595 104L673 104L613-177L492-177L530 0L-3 0L148 712L273 712L144 104L470 104L599 712L724 712L595 104Z"  horiz-adv-x="734" vert-adv-y="1000"  />

      
      <glyph glyph-name="uni0427" unicode="&#x0427;" d="M476 315Q358 295 285 295Q224 295 181.50 310Q139 325 117.50 351Q96 377 87 405Q78 433 78 465Q78 495 85 525L124 712L249 712L214 547Q207 517 207 490Q207 403 329 403Q412 403 499 420L561 712L686 712L535 0L410 0L476 315Z"  horiz-adv-x="685" vert-adv-y="1000"  />

      
      <glyph glyph-name="uni0428" unicode="&#x0428;" d="M-3 0L148 712L273 712L144 104L420 104L549 712L674 712L545 104L821 104L950 712L1075 712L924 0L-3 0Z"  horiz-adv-x="1073" vert-adv-y="1000"  />

      
      <glyph glyph-name="uni0429" unicode="&#x0429;" d="M-4 0L147 712L272 712L143 104L419 104L548 712L673 712L544 104L820 104L949 712L1074 712L945 104L1023 104L963-177L842-177L880 0L-4 0Z"  horiz-adv-x="1085" vert-adv-y="1000"  />

      
      <glyph glyph-name="uni042A" unicode="&#x042A;" d="M757 245Q757 158 706 89Q655 20 572 8Q521 0 448 0L146 0L276 608L62 608L84 712L423 712L365 439L511 439Q582 439 622 429.50Q662 420 692 395Q757 341 757 245M636 236Q636 270 623 292Q610 314 584.50 323.50Q559 333 536 335.50Q513 338 478 338L342 338L293 104L450 104Q550 104 584 129Q607 146 621.50 175Q636 204 636 236Z"  horiz-adv-x="813" vert-adv-y="1000"  />

      
      <glyph glyph-name="uni042B" unicode="&#x042B;" d="M773 712L898 712L747 0L622 0L773 712M611 245Q611 158 559.50 89Q508 20 426 8Q375 0 302 0L0 0L151 712L276 712L219 439L365 439Q436 439 476 429.50Q516 420 546 395Q611 341 611 245M490 236Q490 270 477 292Q464 314 438.50 323.50Q413 333 390 335.50Q367 338 332 338L196 338L147 104L304 104Q404 104 438 129Q461 146 475.50 175Q490 204 490 236Z"  horiz-adv-x="896" vert-adv-y="1000"  />

      
      <glyph glyph-name="uni042C" unicode="&#x042C;" d="M611 245Q611 158 559.50 89Q508 20 426 8Q375 0 302 0L0 0L151 712L276 712L219 439L365 439Q436 439 476 429.50Q516 420 546 395Q611 341 611 245M490 236Q490 270 477 292Q464 314 438.50 323.50Q413 333 390 335.50Q367 338 332 338L196 338L147 104L304 104Q404 104 438 129Q461 146 475.50 175Q490 204 490 236Z"  horiz-adv-x="667" vert-adv-y="1000"  />

      
      <glyph glyph-name="uni042D" unicode="&#x042D;" d="M694 416Q694 300 649 202.50Q604 105 514 44Q424-17 306-17Q182-17 107 49Q32 115 32 224L32 237L153 237Q156 159 196 122.50Q236 86 316 86Q411 86 474 153.50Q537 221 559 321L252 321L273 422L570 422Q568 518 520.50 572Q473 626 390 626Q253 626 203 499L74 499Q108 607 192.50 667.50Q277 728 396 728Q536 728 615 645.50Q694 563 694 416Z"  horiz-adv-x="722" vert-adv-y="1000"  />

      
      <glyph glyph-name="uni042E" unicode="&#x042E;" d="M988 421Q988 301 944 201.50Q900 102 813 41.50Q726-19 611-19Q473-19 394.50 65Q316 149 316 297Q316 312 317 319L190 319L122 0L-3 0L148 712L272 712L212 425L331 425Q364 560 460 643Q556 726 696 726Q831 726 909.50 643.50Q988 561 988 421M693 622Q613 622 553.50 572Q494 522 466.50 449Q439 376 439 295Q439 196 485 140Q531 84 613 84Q673 84 722 115Q771 146 801 195.50Q831 245 847 303.50Q863 362 863 420Q863 515 821 568.50Q779 622 693 622Z"  horiz-adv-x="1018" vert-adv-y="1000"  />

      
      <glyph glyph-name="uni042F" unicode="&#x042F;" d="M346 293L82 0L-76 0L210 304Q150 319 116.50 366.50Q83 414 83 479Q83 563 131.50 627.50Q180 692 259 704Q310 712 382 712L690 712L539 0L414 0L476 293L346 293M543 610L386 610Q289 610 256 586Q207 549 207 485Q207 453 218.50 433Q230 413 254 404Q278 395 300 392.50Q322 390 358 390L497 390L543 610Z"  horiz-adv-x="685" vert-adv-y="1000"  />

      
      <glyph glyph-name="uni0430" unicode="&#x0430;" d="M58 360Q90 528 295 528Q387 528 440 494Q493 460 493 401Q493 366 480 310L445 154Q434 106 434 97Q434 77 457 77Q471 77 501 82L483-1Q440-13 408-13Q370-13 349.50 1Q329 15 326 52Q256-17 152-17Q79-17 35 22Q-9 61-9 126Q-9 184 25 223.50Q59 263 105 279Q151 295 208 299Q210 299 237.50 300.50Q265 302 282 303.50Q299 305 322 309Q345 313 356 320Q383 336 383 381Q383 445 290 445Q187 445 166 360L58 360M360 255Q350 247 327.50 241Q305 235 289.50 233Q274 231 244 228L215 226Q106 216 106 137Q106 102 129.50 82.50Q153 63 195 63Q255 63 290.50 94.50Q326 126 337 169L360 255Z"  horiz-adv-x="556" vert-adv-y="1000"  />

      
      <glyph glyph-name="uni0431" unicode="&#x0431;" d="M337 517Q424 517 480 460.50Q536 404 536 304Q536 171 458.50 77.50Q381-16 251-16Q139-16 84 48Q29 112 29 221Q29 312 64 422Q99 532 150 595Q228 693 374 703Q385 704 403 705Q421 706 428 706.50Q435 707 446 709Q457 711 462.50 713Q468 715 473.50 719.50Q479 724 483 730L597 730Q586 689 566 664Q546 639 509.50 626.50Q473 614 449 610.50Q425 607 372 603Q364 602 358.50 601.50Q353 601 347 601Q272 595 217.50 542Q163 489 140 403L143 403Q207 517 337 517M142 201Q142 139 172.50 105Q203 71 257 71Q326 71 374.50 138.50Q423 206 423 306Q423 362 394 396.50Q365 431 311 431Q241 431 191.50 364.50Q142 298 142 201Z"  horiz-adv-x="593" vert-adv-y="1000"  />

      
      <glyph glyph-name="uni0432" unicode="&#x0432;" d="M98 516L336 516Q372 516 399.50 511.50Q427 507 453.50 495.50Q480 484 494.50 459Q509 434 509 396Q509 347 483 314Q457 281 412 272Q488 248 488 166Q488 113 455.50 68Q423 23 372 9Q337 0 255 0L-10 0L98 516M242 87Q324 87 351 108Q378 132 378 170Q378 191 369.50 204.50Q361 218 342.50 223Q324 228 311.50 229Q299 230 276 230Q271 230 269 230L150 230L119 87L242 87M288 307Q347 307 369 322Q398 342 398 381Q398 398 390.50 409Q383 420 368 423.50Q353 427 343 428Q333 429 314 429Q309 429 307 429L193 429L167 307L288 307Z"  horiz-adv-x="556" vert-adv-y="1000"  />

      
      <glyph glyph-name="uni0433" unicode="&#x0433;" d="M444 427L197 427L106 0L-8 0L102 516L463 516L444 427Z"  horiz-adv-x="426" vert-adv-y="1000"  />

      
      <glyph glyph-name="uni0434" unicode="&#x0434;" d="M488-164L380-164L415 0L48 0L13-164L-95-164L-41 89L24 89Q111 225 163 458L176 516L564 516L473 89L542 89L488-164M361 89L433 428L268 428L260 393Q241 310 205.50 221Q170 132 143 89L361 89Z"  horiz-adv-x="600" vert-adv-y="1000"  />

      
      <glyph glyph-name="uni0435" unicode="&#x0435;" d="M484 160Q463 74 395.50 28.50Q328-17 235-17Q129-17 69.50 43.50Q10 104 10 210Q10 347 92 438.50Q174 530 296 530Q397 530 455 471Q513 412 513 309Q513 275 506 228L122 228Q120 200 120 198Q120 137 153 102.50Q186 68 243 68Q336 68 371 160L484 160M135 306L405 306L405 320Q405 381 376 413Q347 445 292 445Q235 445 193.50 408.50Q152 372 135 306Z"  horiz-adv-x="556" vert-adv-y="1000"  />

      
      <glyph glyph-name="uni0436" unicode="&#x0436;" d="M801 516L568 312L702 0L576 0L486 240L411 174L374 0L264 0L300 172L258 234L68 0L-79 0L201 318L66 516L191 516L326 292L374 516L484 516L439 309L659 516L801 516Z"  horiz-adv-x="759" vert-adv-y="1000"  />

      
      <glyph glyph-name="uni0437" unicode="&#x0437;" d="M479 406Q479 361 449 326Q419 291 373 281L373 279Q406 272 430.50 243Q455 214 455 169Q455 79 383.50 32.50Q312-14 216-14Q106-14 48 30Q-10 74-10 156L-10 166L98 166L98 163Q98 69 215 69Q265 69 302.50 94.50Q340 120 340 167Q340 227 249 227L182 227L200 310L248 310Q363 310 363 390Q363 444 279 444Q233 444 201.50 423Q170 402 163 367L48 367Q83 531 289 531Q479 531 479 406Z"  horiz-adv-x="519" vert-adv-y="1000"  />

      
      <glyph glyph-name="uni0438" unicode="&#x0438;" d="M137 0L-12 0L98 516L212 516L132 140L135 140L404 516L552 516L442 0L328 0L408 376L405 376L137 0Z"  horiz-adv-x="574" vert-adv-y="1000"  />

      
      <glyph glyph-name="uni0439" unicode="&#x0439;" d="M518 729Q485 588 335 588Q189 588 189 706Q189 709 189.50 717Q190 725 190 729L248 729Q251 653 338 653Q429 653 460 729L518 729M137 0L-12 0L98 516L212 516L132 140L135 140L404 516L552 516L442 0L328 0L408 376L405 376L137 0Z"  horiz-adv-x="574" vert-adv-y="1000"  />

      
      <glyph glyph-name="uni043A" unicode="&#x043A;" d="M406 516L550 516L317 312L451 0L325 0L233 238L135 152L103 0L-9 0L101 516L213 516L164 289L406 516Z"  horiz-adv-x="519" vert-adv-y="1000"  />

      
      <glyph glyph-name="uni043B" unicode="&#x043B;" d="M444 0L330 0L420 427L268 427L207 179Q182 76 132.50 32Q83-12 9-12Q-27-12-53 1L-35 88Q-25 83 0 83Q71 83 97 190L177 516L553 516L444 0Z"  horiz-adv-x="574" vert-adv-y="1000"  />

      
      <glyph glyph-name="uni043C" unicode="&#x043C;" d="M98 0L-12 0L98 516L238 516L299 101L301 101L534 516L683 516L573 0L463 0L536 343L534 343L337 0L224 0L173 343L171 343L98 0Z"  horiz-adv-x="704" vert-adv-y="1000"  />

      
      <glyph glyph-name="uni043D" unicode="&#x043D;" d="M102 0L-12 0L98 516L212 516L169 314L395 314L438 516L552 516L442 0L328 0L376 224L150 224L102 0Z"  horiz-adv-x="574" vert-adv-y="1000"  />

      
      <glyph glyph-name="uni043E" unicode="&#x043E;" d="M537 311Q537 176 457.50 80Q378-16 245-16Q136-16 76 43Q16 102 16 209Q16 348 99.50 439.50Q183 531 311 531Q417 531 477 474Q537 417 537 311M305 445Q231 445 180 376Q129 307 129 208Q129 143 161 107Q193 71 251 71Q324 71 374 141Q424 211 424 313Q424 372 393 408.50Q362 445 305 445Z"  horiz-adv-x="593" vert-adv-y="1000"  />

      
      <glyph glyph-name="uni043F" unicode="&#x043F;" d="M102 0L-12 0L98 516L552 516L442 0L328 0L419 427L193 427L102 0Z"  horiz-adv-x="574" vert-adv-y="1000"  />

      
      <glyph glyph-name="uni0440" unicode="&#x0440;" d="M204 516L189 448Q255 529 357 529Q447 529 499 470Q551 411 551 310Q551 227 521.50 155Q492 83 429 34.50Q366-14 281-14Q156-14 117 80L60-191L-53-191L97 516L204 516M318 439Q261 439 220 399Q179 359 162.50 306Q146 253 146 198Q146 141 178.50 107.50Q211 74 267 74Q339 74 388 141Q437 208 437 306Q437 439 318 439Z"  horiz-adv-x="611" vert-adv-y="1000"  />

      
      <glyph glyph-name="uni0441" unicode="&#x0441;" d="M496 178Q470 84 406 34.50Q342-15 246-15Q140-15 81.50 43.50Q23 102 23 207Q23 341 103 435.50Q183 530 316 530Q410 530 466.50 481.50Q523 433 523 352L523 345L412 345L412 349Q412 393 385.50 418Q359 443 311 443Q253 443 212 405Q171 367 154 315.50Q137 264 137 207Q137 72 255 72Q300 72 333 99.50Q366 127 382 178L496 178Z"  horiz-adv-x="556" vert-adv-y="1000"  />

      
      <glyph glyph-name="uni0442" unicode="&#x0442;" d="M476 427L306 427L215 0L101 0L192 427L22 427L41 516L495 516L476 427Z"  horiz-adv-x="464" vert-adv-y="1000"  />

      
      <glyph glyph-name="uni0443" unicode="&#x0443;" d="M523 516L202-63Q162-136 116.50-167Q71-198 7-198Q-29-198-63-190L-43-97Q-13-105 13-105Q32-105 47-96Q62-87 73-70.50Q84-54 89-43.50Q94-33 100-17L119 32L32 516L150 516L179 317Q197 198 204 116Q238 199 281 283L401 516L523 516Z"  horiz-adv-x="500" vert-adv-y="1000"  />

      
      <glyph glyph-name="uni0444" unicode="&#x0444;" d="M308 131L362 382Q359 414 335.50 428.50Q312 443 282 443Q228 443 189.50 397Q151 351 136 294.50Q121 238 121 184Q121 74 208 74Q243 74 271 91Q299 108 308 131M666 340Q666 443 582 443Q552 443 522 428.50Q492 414 476 382L422 131L422 130Q422 107 443 90.50Q464 74 498 74Q553 74 593 121.50Q633 169 649.50 227.50Q666 286 666 340M502-14Q474-14 445 0.50Q416 15 405 34L402 34L354-191L240-191L288 34L285 34Q265 14 233 0Q201-14 173-14Q89-14 48.50 41Q8 96 8 180Q8 240 25 301Q42 362 74 414Q106 466 158.50 498.50Q211 531 276 531Q308 531 338.50 515Q369 499 379 478L382 478L432 712L546 712L496 478L499 478Q519 499 553 515Q587 531 619 531Q695 531 737 483Q779 435 779 341Q779 257 749 178Q719 99 654 42.50Q589-14 502-14Z"  horiz-adv-x="826" vert-adv-y="1000"  />

      
      <glyph glyph-name="uni0445" unicode="&#x0445;" d="M513 516L295 267L427 0L303 0L247 127Q235 153 219 193Q199 165 180 142L63 0L-69 0L171 274L55 516L179 516L228 396Q242 364 247 345Q283 394 284 395L382 516L513 516Z"  horiz-adv-x="500" vert-adv-y="1000"  />

      
      <glyph glyph-name="uni0446" unicode="&#x0446;" d="M461 89L530 89L476-164L366-164L401 0L-12 0L98 516L212 516L121 89L347 89L438 516L552 516L461 89Z"  horiz-adv-x="590" vert-adv-y="1000"  />

      
      <glyph glyph-name="uni0447" unicode="&#x0447;" d="M339 223Q247 196 175 196Q110 196 72.50 232.50Q35 269 35 330Q35 348 40 373L70 516L184 516L156 386Q152 369 152 350Q152 288 222 288Q250 288 293 296Q336 304 358 313L401 516L515 516L405 0L291 0L339 223Z"  horiz-adv-x="537" vert-adv-y="1000"  />

      
      <glyph glyph-name="uni0448" unicode="&#x0448;" d="M-12 0L98 516L212 516L121 89L297 89L388 516L502 516L411 89L587 89L678 516L792 516L682 0L-12 0Z"  horiz-adv-x="814" vert-adv-y="1000"  />

      
      <glyph glyph-name="uni0449" unicode="&#x0449;" d="M-12 0L98 516L212 516L121 89L297 89L388 516L502 516L411 89L587 89L678 516L792 516L701 89L770 89L716-164L606-164L641 0L-12 0Z"  horiz-adv-x="830" vert-adv-y="1000"  />

      
      <glyph glyph-name="uni044A" unicode="&#x044A;" d="M463 175Q463 216 437 228Q411 240 358 240L247 240L215 89L338 89Q407 89 429 105Q463 129 463 175M172 427L25 427L44 516L304 516L265 328L396 328Q490 328 530 295Q579 255 579 183Q579 118 541 66.50Q503 15 441 6Q405 0 350 0L81 0L172 427Z"  horiz-adv-x="630" vert-adv-y="1000"  />

      
      <glyph glyph-name="uni044B" unicode="&#x044B;" d="M449 183Q449 118 410.50 66.50Q372 15 310 6Q276 0 220 0L-15 0L95 516L207 516L168 328L265 328Q359 328 400 295Q449 255 449 183M333 175Q333 216 306.50 228Q280 240 227 240L150 240L118 89L207 89Q277 89 299 105Q333 129 333 175M589 516L703 516L593 0L479 0L589 516Z"  horiz-adv-x="722" vert-adv-y="1000"  />

      
      <glyph glyph-name="uni044C" unicode="&#x044C;" d="M486 183Q486 118 447.50 66.50Q409 15 347 6Q312 0 257 0L-12 0L98 516L210 516L171 328L302 328Q396 328 437 295Q486 255 486 183M370 175Q370 216 343.50 228Q317 240 264 240L153 240L121 89L244 89Q314 89 336 105Q370 129 370 175Z"  horiz-adv-x="537" vert-adv-y="1000"  />

      
      <glyph glyph-name="uni044D" unicode="&#x044D;" d="M523 308Q523 174 443 79.50Q363-15 230-15Q136-15 79.50 33.50Q23 82 23 163L23 170L134 170L134 166Q134 122 160.50 97Q187 72 235 72Q300 72 341 115.50Q382 159 399 226L203 226L220 306L409 306Q409 443 291 443Q209 443 171 357L56 357Q85 441 147 485.50Q209 530 300 530Q406 530 464.50 471.50Q523 413 523 308Z"  horiz-adv-x="556" vert-adv-y="1000"  />

      
      <glyph glyph-name="uni044E" unicode="&#x044E;" d="M748 311Q748 176 671.50 80Q595-16 467-16Q363-16 305 43Q247 102 247 209Q247 212 247.50 217.50Q248 223 248 226L150 226L102 0L-12 0L98 516L212 516L169 312L261 312Q288 411 360.50 471Q433 531 531 531Q632 531 690 474Q748 417 748 311M528 445Q459 445 409.50 375.50Q360 306 360 208Q360 143 389 107Q418 71 471 71Q540 71 588.50 141.50Q637 212 637 313Q637 372 609 408.50Q581 445 528 445Z"  horiz-adv-x="802" vert-adv-y="1000"  />

      
      <glyph glyph-name="uni044F" unicode="&#x044F;" d="M267 210L87 0L-54 0L144 221Q101 231 76.50 266Q52 301 52 347Q52 408 87.50 454.50Q123 501 180 510Q214 516 269 516L534 516L425 0L311 0L356 210L267 210M197 413Q168 393 168 352Q168 320 189 310Q210 300 261 300L375 300L402 427L281 427Q216 427 197 413Z"  horiz-adv-x="556" vert-adv-y="1000"  />

      
      <glyph glyph-name="uni0451" unicode="&#x0451;" d="M484 160Q463 74 395.50 28.50Q328-17 235-17Q129-17 69.50 43.50Q10 104 10 210Q10 347 92 438.50Q174 530 296 530Q397 530 455 471Q513 412 513 309Q513 275 506 228L122 228Q120 200 120 198Q120 137 153 102.50Q186 68 243 68Q336 68 371 160L484 160M135 306L405 306L405 320Q405 381 376 413Q347 445 292 445Q235 445 193.50 408.50Q152 372 135 306M476 703L457 595L347 595L366 703L476 703M296 703L277 595L167 595L186 703L296 703Z"  horiz-adv-x="556" vert-adv-y="1000"  />

      
      <glyph glyph-name="uni0452" unicode="&#x0452;" d="M498 238Q498 206 476 103Q449-22 351.50-104Q254-186 119-191L140-92Q225-82 284.50-29Q344 24 361 102Q378 187 378 207Q378 278 299 278Q232 278 190.50 230Q149 182 133 111L108 0L-6 0L86 431L34 431L52 516L104 516L145 712L259 712L218 516L445 516L427 431L200 431L169 289L171 289Q245 371 348 371Q416 371 457 334.50Q498 298 498 238Z"  horiz-adv-x="574" vert-adv-y="1000"  />

      
      <glyph glyph-name="uni0453" unicode="&#x0453;" d="M444 427L197 427L106 0L-8 0L102 516L463 516L444 427M434 731L283 587L199 587L296 731L434 731Z"  horiz-adv-x="426" vert-adv-y="1000"  />

      
      <glyph glyph-name="uni0454" unicode="&#x0454;" d="M351 308L334 228L138 228Q137 221 137 207Q137 72 255 72Q300 72 333 99.50Q366 127 382 178L496 178Q470 84 406 34.50Q342-15 246-15Q140-15 81.50 43.50Q23 102 23 207Q23 341 103 435.50Q183 530 316 530Q409 530 465 483Q521 436 523 357L412 357Q410 398 383.50 420.50Q357 443 311 443Q251 443 211.50 405.50Q172 368 152 308L351 308Z"  horiz-adv-x="556" vert-adv-y="1000"  />

      
      <glyph glyph-name="uni0455" unicode="&#x0455;" d="M461 365L353 365Q353 412 328 430.50Q303 449 253 449Q209 449 184.50 432.50Q160 416 160 387Q160 359 187.50 343Q215 327 278 306Q293 302 301 299Q432 254 432 158Q432 71 365 28Q298-15 206-15Q103-15 46.50 29.50Q-10 74-10 155L-10 165L98 165L98 162Q98 68 215 68Q262 68 290.50 87.50Q319 107 319 140Q319 171 296 186Q273 201 199 227Q196 228 194 229Q165 240 151 245.50Q137 251 113.50 264Q90 277 78.50 290Q67 303 58 324.50Q49 346 49 373Q49 445 107 487.50Q165 530 262 530Q356 530 408.50 489.50Q461 449 461 376L461 365Z"  horiz-adv-x="500" vert-adv-y="1000"  />

      
      <glyph glyph-name="uni0456" unicode="&#x0456;" d="M212 516L103 0L-11 0L98 516L212 516M254 715L230 603L117 603L141 715L254 715Z"  horiz-adv-x="241" vert-adv-y="1000"  />

      
      <glyph glyph-name="uni0457" unicode="&#x0457;" d="M212 516L103 0L-11 0L98 516L212 516M326 703L307 595L197 595L216 703L326 703M146 703L127 595L17 595L36 703L146 703Z"  horiz-adv-x="241" vert-adv-y="1000"  />

      
      <glyph glyph-name="uni0458" unicode="&#x0458;" d="M210 516L106 16Q105 13 104 8Q81-102 60-137Q23-198-72-198Q-102-198-131-193L-111-101Q-92-105-79-105Q-52-105-39.50-90.50Q-27-76-16-21L97 516L210 516M252 715L229 602L115 602L139 715L252 715Z"  horiz-adv-x="241" vert-adv-y="1000"  />

      
      <glyph glyph-name="uni0459" unicode="&#x0459;" d="M769 183Q769 118 731 66.50Q693 15 630 6Q596 0 540 0L312 0L401 427L268 427L207 179Q182 76 132.50 32Q83-12 9-12Q-27-12-53 1L-35 88Q-25 83 0 83Q71 83 97 190L177 516L534 516L496 328L585 328Q680 328 720 295Q769 255 769 183M653 175Q653 216 627 228Q601 240 548 240L477 240L446 89L527 89Q597 89 619 105Q653 129 653 175Z"  horiz-adv-x="817" vert-adv-y="1000"  />

      
      <glyph glyph-name="uni045A" unicode="&#x045A;" d="M349 240L153 240L102 0L-12 0L98 516L212 516L172 328L368 328L408 516L522 516L483 328L583 328Q677 328 717 295Q766 255 766 183Q766 118 728 66.50Q690 15 628 6Q592 0 537 0L299 0L349 240M650 175Q650 216 624 228Q598 240 545 240L465 240L433 89L524 89Q594 89 616 105Q650 129 650 175Z"  horiz-adv-x="817" vert-adv-y="1000"  />

      
      <glyph glyph-name="uni045B" unicode="&#x045B;" d="M498 238Q498 207 486 152L453 0L338 0L369 138Q378 178 378 207Q378 278 299 278Q232 278 190.50 230Q149 182 133 111L108 0L-6 0L86 431L34 431L52 516L104 516L145 712L259 712L218 516L445 516L427 431L200 431L169 289L171 289Q245 371 348 371Q416 371 457 334.50Q498 298 498 238Z"  horiz-adv-x="574" vert-adv-y="1000"  />

      
      <glyph glyph-name="uni045C" unicode="&#x045C;" d="M406 516L550 516L317 312L451 0L325 0L233 238L135 152L103 0L-9 0L101 516L213 516L164 289L406 516M484 731L333 587L249 587L346 731L484 731Z"  horiz-adv-x="519" vert-adv-y="1000"  />

      
      <glyph glyph-name="uni045E" unicode="&#x045E;" d="M523 516L202-63Q162-136 116.50-167Q71-198 7-198Q-29-198-63-190L-43-97Q-13-105 13-105Q32-105 47-96Q62-87 73-70.50Q84-54 89-43.50Q94-33 100-17L119 32L32 516L150 516L179 317Q197 198 204 116Q238 199 281 283L401 516L523 516M468 729Q435 588 285 588Q139 588 139 706Q139 709 139.50 717Q140 725 140 729L198 729Q201 653 288 653Q379 653 410 729L468 729Z"  horiz-adv-x="500" vert-adv-y="1000"  />

      
      <glyph glyph-name="uni045F" unicode="&#x045F;" d="M347 89L438 516L552 516L442 0L271 0L236-164L122-164L157 0L-12 0L98 516L212 516L121 89L347 89Z"  horiz-adv-x="574" vert-adv-y="1000"  />

      
      <glyph glyph-name="uni0490" unicode="&#x0490;" d="M668 869L611 604L253 604L125 0L0 0L151 712L509 712L543 869L668 869Z"  horiz-adv-x="563" vert-adv-y="1000"  />

      
      <glyph glyph-name="uni0491" unicode="&#x0491;" d="M497 670L446 426L197 426L106 0L-8 0L102 516L351 516L383 670L497 670Z"  horiz-adv-x="426" vert-adv-y="1000"  />

      
      <glyph glyph-name="uni2013" unicode="&#x2013;" d="M500 325L479 225L-21 225L0 325L500 325Z"  horiz-adv-x="500" vert-adv-y="1000"  />

      
      <glyph glyph-name="uni2014" unicode="&#x2014;" d="M1001 325L980 225L-20 225L1 325L1001 325Z"  horiz-adv-x="1000" vert-adv-y="1000"  />

      
      <glyph glyph-name="uni2018" unicode="&#x2018;" d="M285 726L272 666Q230 662 213.50 639Q197 616 188 571L252 571L224 439L89 439L112 552Q129 633 169 679.50Q209 726 285 726Z"  horiz-adv-x="278" vert-adv-y="1000"  />

      
      <glyph glyph-name="uni2019" unicode="&#x2019;" d="M283 712L260 599Q243 518 203 471.50Q163 425 87 425L100 485Q142 489 158.50 512Q175 535 184 580L120 580L148 712L283 712Z"  horiz-adv-x="278" vert-adv-y="1000"  />

      
      <glyph glyph-name="uni201A" unicode="&#x201A;" d="M165 132L142 19Q125-62 85-108.50Q45-155-31-155L-18-95Q24-91 40.50-68Q57-45 66 0L2 0L30 132L165 132Z"  horiz-adv-x="278" vert-adv-y="1000"  />

      
      <glyph glyph-name="uni201C" unicode="&#x201C;" d="M457 724L445 667Q407 661 390 638Q373 615 364 570L424 570L397 442L272 442L295 553Q311 632 347.50 676.50Q384 721 457 724M260 724L248 667Q210 661 193 638Q176 615 167 570L227 570L200 442L75 442L98 553Q114 632 150.50 676.50Q187 721 260 724Z"  horiz-adv-x="444" vert-adv-y="1000"  />

      
      <glyph glyph-name="uni201D" unicode="&#x201D;" d="M457 712L434 601Q418 522 381.50 477.50Q345 433 272 430L284 487Q322 493 339 516Q356 539 365 584L305 584L332 712L457 712M260 712L237 601Q221 522 184.50 477.50Q148 433 75 430L87 487Q125 493 142 516Q159 539 168 584L108 584L135 712L260 712Z"  horiz-adv-x="444" vert-adv-y="1000"  />

      
      <glyph glyph-name="uni201E" unicode="&#x201E;" d="M339 128L316 17Q300-62 263.50-106.50Q227-151 154-154L166-97Q204-91 221-68Q238-45 247 0L187 0L214 128L339 128M142 128L119 17Q103-62 66.50-106.50Q30-151-43-154L-31-97Q7-91 24-68Q41-45 50 0L-10 0L17 128L142 128Z"  horiz-adv-x="444" vert-adv-y="1000"  />

      
      <glyph glyph-name="uni2020" unicode="&#x2020;" d="M406 712L363 509L554 509L534 414L343 414L222-161L112-161L233 414L44 414L64 509L253 509L296 712L406 712Z"  horiz-adv-x="556" vert-adv-y="1000"  />

      
      <glyph glyph-name="uni2021" unicode="&#x2021;" d="M403 712L361 515L553 515L534 421L342 421L281 129L472 129L452 36L260 36L218-159L110-159L152 36L-38 36L-18 129L171 129L233 421L44 421L64 515L252 515L295 712L403 712Z"  horiz-adv-x="556" vert-adv-y="1000"  />

      
      <glyph glyph-name="uni2022" unicode="&#x2022;" d="M124 482Q124 482 150 508Q176 534 250 534Q324 534 376 482Q428 430 428 356Q428 282 376 230Q324 178 250 178Q176 178 124 230Q72 282 72 356Q72 430 124 482Z"  horiz-adv-x="500" vert-adv-y="1000"  />

      
      <glyph glyph-name="uni2026" unicode="&#x2026;" d="M34 0L62 130L179 130L151 0L34 0M367 0L395 130L512 130L484 0L367 0M700 0L728 130L845 130L817 0L700 0Z"  horiz-adv-x="1000" vert-adv-y="1000"  />

      
      <glyph glyph-name="uni2030" unicode="&#x2030;" d="M691 725L125-31L43-31L609 725L691 725M363 573Q363 484 314 424.50Q265 365 191 365Q131 365 97 400Q63 435 63 497Q63 583 108 645Q153 707 236 707Q363 707 363 573M231 646Q199 646 177.50 617Q156 588 149 555Q142 522 142 490Q142 425 195 425Q219 425 237 442.50Q255 460 264 487Q273 514 277.50 539Q282 564 282 586Q282 646 231 646M675 197Q675 108 626 48.50Q577-11 503-11Q443-11 409 24Q375 59 375 121Q375 207 420 269Q465 331 548 331Q675 331 675 197M543 270Q511 270 489.50 241Q468 212 461 179Q454 146 454 114Q454 49 507 49Q531 49 549 66.50Q567 84 576 111Q585 138 589.50 163Q594 188 594 210Q594 270 543 270M1026 197Q1026 108 977 48.50Q928-11 854-11Q794-11 760 24Q726 59 726 121Q726 207 771 269Q816 331 899 331Q1026 331 1026 197M894 270Q862 270 840.50 241Q819 212 812 179Q805 146 805 114Q805 49 858 49Q882 49 900 66.50Q918 84 927 111Q936 138 940.50 163Q945 188 945 210Q945 270 894 270Z"  horiz-adv-x="1093" vert-adv-y="1000"  />

      
      <glyph glyph-name="uni2039" unicode="&#x2039;" d="M219 438L198 333L83 265L164 176L144 83L19 220L44 330L219 438Z"  horiz-adv-x="259" vert-adv-y="1000"  />

      
      <glyph glyph-name="uni203A" unicode="&#x203A;" d="M80 439L205 300L180 192L4 83L26 189L140 257L59 345L80 439Z"  horiz-adv-x="259" vert-adv-y="1000"  />

      
      <glyph glyph-name="uni2116" unicode="&#x2116;" d="M902 293Q902 327 885 347Q868 367 839 367Q798 367 772.50 333.50Q747 300 747 258Q747 225 764.50 205.50Q782 186 811 186Q851 186 876.50 219.50Q902 253 902 293M805 121Q736 121 698 156.50Q660 192 660 256Q660 335 711 383.50Q762 432 847 432Q915 432 952.50 396Q990 360 990 297Q990 217 940 169Q890 121 805 121M930 0L605 0L623 85L948 85L930 0M546 0L414 0L224 507L116 0L-3 0L145 696L277 696L467 188L575 696L694 696L546 0Z"  horiz-adv-x="1068" vert-adv-y="1000"  />

      
      <glyph glyph-name="uni2122" unicode="&#x2122;" d="M245 356L245 657L130 657L130 712L429 712L429 657L315 657L315 356L245 356M487 356L487 712L592 712L682 461L771 712L874 712L874 356L811 356L811 649L708 356L654 356L551 649L551 356L487 356Z"  horiz-adv-x="990" vert-adv-y="1000"  />

      
      <glyph glyph-name="uni2206" unicode="&#x2206;" d="M476 712L609 0L-53 0L371 712L476 712M110 92L495 92L405 595L110 92Z"  horiz-adv-x="682" vert-adv-y="1000"  />

      
      <glyph glyph-name="uni221A" unicode="&#x221A;" d="M559 786L347-214L252-214L96 108L47 85L10 165L146 228L283-61L456 786L559 786Z"  horiz-adv-x="600" vert-adv-y="1000"  />

      
      <glyph glyph-name="uni221E" unicode="&#x221E;" d="M379 312Q411 349 433.50 370Q456 391 494 410.50Q532 430 571 430Q642 430 687 382.50Q732 335 732 259Q732 182 687.50 133.50Q643 85 571 85Q516 85 471 114.50Q426 144 379 196Q372 190 346 165Q320 140 309.50 132.50Q299 125 277 110.50Q255 96 234 91Q213 86 187 86Q115 86 69.50 133.50Q24 181 24 257Q24 333 69 381Q114 429 184 429Q242 429 285 399Q328 369 379 312M431 255Q510 172 572 172Q607 172 629 195.50Q651 219 651 256Q651 295 628.50 319Q606 343 570 343Q514 343 431 255M326 255Q238 342 183 342Q150 342 128 317.50Q106 293 106 256Q106 218 128 195.50Q150 173 187 173Q213 173 240.50 187.50Q268 202 285 216.50Q302 231 326 255Z"  horiz-adv-x="796" vert-adv-y="1000"  />

      
      <glyph glyph-name="uni2248" unicode="&#x2248;" d="M554 439Q546 360 509 318Q472 276 411 276Q378 276 277 308Q270 311 248 318.50Q226 326 212 331Q198 336 180.50 340.50Q163 345 152 345Q126 345 107.50 325.50Q89 306 85 274L20 274Q27 344 62 391Q97 438 162 438Q192 438 297 404Q307 401 324.50 395Q342 389 349.50 386.50Q357 384 369 380Q381 376 388.50 374.50Q396 373 405.50 372Q415 371 424 371Q477 371 489 439L554 439M554 240Q546 161 509 119Q472 77 411 77Q378 77 277 109Q270 112 248 119.50Q226 127 212 132Q198 137 180.50 141.50Q163 146 152 146Q126 146 107.50 126.50Q89 107 85 75L20 75Q27 145 62 192Q97 239 162 239Q192 239 297 205Q307 202 324.50 196Q342 190 349.50 187.50Q357 185 369 181Q381 177 388.50 175.50Q396 174 405.50 173Q415 172 424 172Q477 172 489 240L554 240Z"  horiz-adv-x="600" vert-adv-y="1000"  />

      
      <glyph glyph-name="uni2260" unicode="&#x2260;" d="M200 198L261 317L25 317L25 412L310 412L387 564L471 521L415 412L542 412L542 317L366 317L305 198L542 198L542 102L256 102L179-49L95-6L151 102L25 102L25 198L200 198Z"  horiz-adv-x="600" vert-adv-y="1000"  />

      
      <glyph glyph-name="uni2264" unicode="&#x2264;" d="M21 271L21 368L538 549L538 448L152 320L538 197L538 96L21 271M21 62L538 62L538-34L21-34L21 62Z"  horiz-adv-x="600" vert-adv-y="1000"  />

      
      <glyph glyph-name="uni2265" unicode="&#x2265;" d="M555 271L38 96L38 197L424 320L38 448L38 549L555 368L555 271M555 62L555-34L38-34L38 62L555 62Z"  horiz-adv-x="600" vert-adv-y="1000"  />

      
      <glyph glyph-name="uniE000" unicode="&#xE000;" d="M338 327L316 224L20 224L42 327L338 327Z"  horiz-adv-x="389" vert-adv-y="1000"  />

      

  </font>
</defs>
</svg>
