<?xml version="1.0" standalone="no"?>
  <!DOCTYPE svg PUBLIC "-//W3C//DTD SVG 1.1//EN" "http://www.w3.org/Graphics/SVG/1.1/DTD/svg11.dtd" >
  <svg>
  <metadata>
  Created by font-carrier
  </metadata>
  <defs>
  <font id="HelveticaNeueCyr-BlackItalic" horiz-adv-x="1167" vert-adv-y="1167" >
    <font-face
      
      font-family="HelveticaNeueCyr"
      
      font-weight="400"
      
      font-stretch="normal"
      
      units-per-em="1000"
      
      ascent="714"
      
      descent="-168"
      
    />
      <missing-glyph />

      

      
      <glyph glyph-name="uni21" unicode="&#x21;" d="M233 197L192 0L-7 0L35 197L233 197M345 712L312 552L193 251L99 251L106 548L141 712L345 712Z"  horiz-adv-x="334" vert-adv-y="1000"  />

      
      <glyph glyph-name="uni22" unicode="&#x22;" d="M106 396L155 692L300 692L199 396L106 396M289 396L358 692L503 692L383 396L289 396Z"  horiz-adv-x="519" vert-adv-y="1000"  />

      
      <glyph glyph-name="uni23" unicode="&#x23;" d="M540 395L522 300L601 300L601 164L496 164L465 0L299 0L330 164L264 164L233 0L67 0L99 164L22 164L22 300L126 300L144 395L68 395L68 531L170 531L201 693L365 693L334 531L401 531L432 693L597 693L566 531L646 531L646 395L540 395M308 395L291 300L357 300L374 395L308 395Z"  horiz-adv-x="668" vert-adv-y="1000"  />

      
      <glyph glyph-name="uni24" unicode="&#x24;" d="M641 507Q641 503 640.50 496.50Q640 490 640 484L457 484L457 496Q457 553 397 562L370 437Q419 427 455 415Q491 403 528.50 381Q566 359 586.50 323.50Q607 288 607 240Q607 161 563.50 102.50Q520 44 453 16Q386-12 308-12Q291-12 276-11L256-101L205-101L225-11Q122-6 54 48.50Q-14 103-14 204Q-14 218-13 230L188 230L188 219Q188 152 256 136L288 285Q248 296 223 304Q198 312 165.50 328.50Q133 345 114.50 363.50Q96 382 83 412.50Q70 443 70 481Q70 540 96 584.50Q122 629 165 654Q208 679 258.50 691Q309 703 364 703L376 703L394 787L445 787L427 702Q532 693 586.50 643.50Q641 594 641 507M347 567L339 567Q303 567 282.50 551Q262 535 262 507Q262 496 264.50 488Q267 480 275.50 473.50Q284 467 287 465Q290 463 305 457.50Q320 452 321 451L347 567M405 205Q405 225 393.50 238.50Q382 252 371 257Q360 262 336 269L306 132Q311 131 317 131Q356 131 380.50 151.50Q405 172 405 205Z"  horiz-adv-x="668" vert-adv-y="1000"  />

      
      <glyph glyph-name="uni25" unicode="&#x25;" d="M791 708L308-20L193-20L676 708L791 708M434 548Q434 455 377.50 388.50Q321 322 230 322Q155 322 111.50 364.50Q68 407 68 480Q68 573 122.50 636.50Q177 700 269 700Q345 700 389.50 661.50Q434 623 434 548M266 612Q236 612 224 583Q215 564 205 520.50Q195 477 195 456Q195 434 205 421.50Q215 409 232 409Q249 409 261 421Q273 433 277 444Q281 455 287 474Q305 543 305 572Q305 612 266 612M925 211Q925 118 868.50 51.50Q812-15 721-15Q646-15 602.50 27.50Q559 70 559 143Q559 236 613.50 299.50Q668 363 760 363Q836 363 880.50 324.50Q925 286 925 211M757 275Q727 275 715 246Q706 227 696 183.50Q686 140 686 119Q686 97 696 84.50Q706 72 723 72Q740 72 752 84Q764 96 768 107Q772 118 778 137Q796 206 796 235Q796 275 757 275Z"  horiz-adv-x="1000" vert-adv-y="1000"  />

      
      <glyph glyph-name="uni26" unicode="&#x26;" d="M691 347Q667 243 571 147L665 0L452 0L430 37Q361-17 258-17Q153-17 82 41Q11 99 11 202Q11 353 199 421Q162 483 162 535Q162 616 223.50 669Q285 722 379 722Q473 722 530.50 673.50Q588 625 588 547Q588 424 436 355L482 285Q501 306 520 347L691 347M362 470Q435 509 435 551Q435 570 421 583Q407 596 385 596Q362 596 346.50 580.50Q331 565 331 542Q331 518 362 470M282 289Q236 269 217 250Q198 231 198 204Q198 179 216.50 161.50Q235 144 261 144Q305 144 345 181L282 289Z"  horiz-adv-x="741" vert-adv-y="1000"  />

      
      <glyph glyph-name="uni27" unicode="&#x27;" d="M88 396L154 692L298 692L176 396L88 396Z"  horiz-adv-x="296" vert-adv-y="1000"  />

      
      <glyph glyph-name="uni28" unicode="&#x28;" d="M396 718Q299 567 248 415Q197 263 197 78Q197-60 221-169L54-169Q9-45 9 114Q9 284 56.50 423.50Q104 563 215 718L396 718Z"  horiz-adv-x="315" vert-adv-y="1000"  />

      
      <glyph glyph-name="uni29" unicode="&#x29;" d="M230 718Q274 594 274 436Q274 267 226.50 128.50Q179-10 68-169L-113-169Q86 122 86 476Q86 599 62 718L230 718Z"  horiz-adv-x="315" vert-adv-y="1000"  />

      
      <glyph glyph-name="uni2a" unicode="&#x2a;" d="M342 712L320 566L450 597L474 490L342 467L406 356L312 302L249 418L154 310L75 386L178 487L55 542L100 639L220 577L233 712L342 712Z"  horiz-adv-x="463" vert-adv-y="1000"  />

      
      <glyph glyph-name="uni2b" unicode="&#x2b;" d="M25 340L202 340L202 520L366 520L366 340L543 340L543 183L366 183L366 0L202 0L202 183L25 183L25 340Z"  horiz-adv-x="600" vert-adv-y="1000"  />

      
      <glyph glyph-name="uni2c" unicode="&#x2c;" d="M237 198L201 29Q179-75 125-130Q71-185-33-185L-46-185L-27-91Q24-87 46.50-67Q69-47 77 0L-8 0L35 198L237 198Z"  horiz-adv-x="334" vert-adv-y="1000"  />

      
      <glyph glyph-name="uni2d" unicode="&#x2d;" d="M360 349L325 184L13 184L48 349L360 349Z"  horiz-adv-x="407" vert-adv-y="1000"  />

      
      <glyph glyph-name="uni2e" unicode="&#x2e;" d="M236 198L195 0L-11 0L31 198L236 198Z"  horiz-adv-x="334" vert-adv-y="1000"  />

      
      <glyph glyph-name="uni2f" unicode="&#x2f;" d="M496 731L114-17L-70-17L313 731L496 731Z"  horiz-adv-x="426" vert-adv-y="1000"  />

      
      <glyph glyph-name="uni30" unicode="&#x30;" d="M638 443Q638 379 625 315.50Q612 252 583.50 193.50Q555 135 515 90.50Q475 46 416 19Q357-8 288-8Q170-8 100 62Q30 132 30 251Q30 316 43 378.50Q56 441 84 499Q112 557 152.50 601Q193 645 251.50 671.50Q310 698 379 698Q499 698 568.50 631Q638 564 638 443M367 548Q310 548 276 494Q250 453 232.50 377.50Q215 302 215 247Q215 143 306 143Q360 143 389 190Q417 235 436 313Q455 391 455 450Q455 548 367 548Z"  horiz-adv-x="668" vert-adv-y="1000"  />

      
      <glyph glyph-name="uni31" unicode="&#x31;" d="M560 692L413 0L205 0L294 417L131 417L163 562L168 562Q261 562 308.50 588.50Q356 615 395 692L560 692Z"  horiz-adv-x="668" vert-adv-y="1000"  />

      
      <glyph glyph-name="uni32" unicode="&#x32;" d="M599 163L561 0L-28 0Q-24 41-11.50 76.50Q1 112 14.50 137.50Q28 163 56 189.50Q84 216 102.50 231.50Q121 247 160.50 269Q200 291 220 301Q240 311 286 333Q388 383 410 400Q444 427 444 467Q444 499 421.50 517.50Q399 536 361 536Q270 536 254 426L67 426Q81 558 161.50 628Q242 698 377 698Q501 698 573 641Q645 584 645 487Q645 431 620 384.50Q595 338 546.50 303Q498 268 459 247.50Q420 227 359 201Q286 171 254 152Q291 158 389 160L599 163Z"  horiz-adv-x="668" vert-adv-y="1000"  />

      
      <glyph glyph-name="uni33" unicode="&#x33;" d="M201 260Q201 256 200.50 252Q200 248 199.50 245.50Q199 243 199 240Q199 196 224.50 172.50Q250 149 296 149Q340 149 368.50 173Q397 197 397 234Q397 269 373.50 284Q350 299 297 299L269 299L294 426L351 426Q449 426 449 491Q449 518 427 534Q405 550 367 550Q277 550 261 462L78 462Q95 583 176 641.50Q257 700 385 700Q502 700 568.50 653Q635 606 635 523Q635 460 598 420Q561 380 501 367Q599 339 599 233Q599 153 551.50 96Q504 39 436 14Q368-11 290-11Q234-11 185.50 2Q137 15 97.50 41Q58 67 35 111.50Q12 156 12 214Q12 239 15 260L201 260Z"  horiz-adv-x="668" vert-adv-y="1000"  />

      
      <glyph glyph-name="uni34" unicode="&#x34;" d="M634 306L602 149L510 149L478 0L281 0L312 149L-9 149L30 323L425 692L624 692L544 306L634 306M351 306L369 388Q382 450 399 515Q364 472 321 431L246 358Q211 323 184 304Q209 306 242 306L351 306Z"  horiz-adv-x="668" vert-adv-y="1000"  />

      
      <glyph glyph-name="uni35" unicode="&#x35;" d="M644 692L610 525L300 525L268 432Q319 472 396 472Q493 472 550.50 417.50Q608 363 608 272Q608 142 514.50 65.50Q421-11 287-11Q235-11 188 0.50Q141 12 99.50 35.50Q58 59 33.50 102Q9 145 9 201Q9 211 10 219L200 219Q212 145 300 145Q349 145 381.50 175Q414 205 414 250Q414 290 386.50 315Q359 340 316 340Q257 340 222 295L44 295L175 692L644 692Z"  horiz-adv-x="668" vert-adv-y="1000"  />

      
      <glyph glyph-name="uni36" unicode="&#x36;" d="M652 509L464 509Q456 561 387 561Q289 561 243 402Q306 468 398 468Q493 468 550 413.50Q607 359 607 268Q607 144 522 67.50Q437-9 312-9Q182-9 111 66.50Q40 142 40 281Q40 392 80.50 486Q121 580 205.50 640Q290 700 403 700Q516 700 583.50 648.50Q651 597 652 509M338 339L332 339Q286 339 256 309.50Q226 280 226 235Q226 194 252.50 168Q279 142 320 142Q364 142 393 173.50Q422 205 422 253Q422 290 398.50 314.50Q375 339 338 339Z"  horiz-adv-x="668" vert-adv-y="1000"  />

      
      <glyph glyph-name="uni37" unicode="&#x37;" d="M661 692L628 532Q509 431 423 294.50Q337 158 308 0L88 0Q107 126 205.50 285.50Q304 445 412 520Q394 520 357 518.50Q320 517 301 517L92 517L129 692L661 692Z"  horiz-adv-x="668" vert-adv-y="1000"  />

      
      <glyph glyph-name="uni38" unicode="&#x38;" d="M502 364Q618 332 618 218Q618 140 569.50 86.50Q521 33 452.50 11.50Q384-10 304-10Q261-10 222.50-5Q184 0 142.50 13.50Q101 27 71.50 48.50Q42 70 23 106.50Q4 143 4 190Q4 261 53 310.50Q102 360 181 368Q92 406 92 497Q92 553 118 594Q144 635 187.50 657.50Q231 680 278.50 690Q326 700 378 700Q427 700 469 692.50Q511 685 552.50 667Q594 649 618 612.50Q642 576 642 524Q642 458 604 417Q566 376 502 364M372 568Q326 568 294 549.50Q262 531 262 488Q262 455 288 436.50Q314 418 360 418Q411 418 439.50 439Q468 460 468 498Q468 568 372 568M317 301Q260 301 228 276.50Q196 252 196 209Q196 171 225 150.50Q254 130 307 130Q357 130 391.50 152.50Q426 175 426 224Q426 261 397.50 281Q369 301 317 301Z"  horiz-adv-x="668" vert-adv-y="1000"  />

      
      <glyph glyph-name="uni39" unicode="&#x39;" d="M11 182L193 182Q201 126 274 126Q307 126 330 135.50Q353 145 368.50 169Q384 193 391 210.50Q398 228 409 265L413 278Q355 220 263 220Q166 220 110.50 275.50Q55 331 55 426Q55 546 140.50 623Q226 700 359 700Q490 700 557 625Q624 550 624 421Q624 335 601.50 258.50Q579 182 536 121.50Q493 61 421.50 25.50Q350-10 259-10Q193-10 139.50 8Q86 26 49 70.50Q12 115 11 182M353 548Q305 548 272 518Q239 488 239 440Q239 400 264.50 375Q290 350 330 350Q377 350 408 380.50Q439 411 439 457Q439 496 415 522Q391 548 353 548Z"  horiz-adv-x="668" vert-adv-y="1000"  />

      
      <glyph glyph-name="uni3a" unicode="&#x3a;" d="M237 198L196 0L-8 0L34 198L237 198M302 503L260 305L57 305L98 503L302 503Z"  horiz-adv-x="334" vert-adv-y="1000"  />

      
      <glyph glyph-name="uni3b" unicode="&#x3b;" d="M236 198L200 29Q178-75 123-130.50Q68-186-36-186L-47-186L-28-92Q21-87 44-67Q67-47 76 0L-10 0L33 198L236 198M300 503L258 306L55 306L97 503L300 503Z"  horiz-adv-x="334" vert-adv-y="1000"  />

      
      <glyph glyph-name="uni3c" unicode="&#x3c;" d="M556-28L-22 189L-22 334L556 550L556 381L192 261L556 141L556-28Z"  horiz-adv-x="600" vert-adv-y="1000"  />

      
      <glyph glyph-name="uni3d" unicode="&#x3d;" d="M9 454L568 454L568 301L9 301L9 454M9 234L568 234L568 82L9 82L9 234Z"  horiz-adv-x="600" vert-adv-y="1000"  />

      
      <glyph glyph-name="uni3e" unicode="&#x3e;" d="M11 550L589 334L589 189L11-28L11 141L376 261L11 381L11 550Z"  horiz-adv-x="600" vert-adv-y="1000"  />

      
      <glyph glyph-name="uni3f" unicode="&#x3f;" d="M335 195L295 0L95 0L136 195L335 195M339 250L157 250Q166 323 193 366Q220 409 282 436Q287 438 306 445.50Q325 453 333.50 458Q342 463 355 472Q368 481 373.50 492.50Q379 504 379 519Q379 541 363.50 553.50Q348 566 321 566Q310 566 301.50 564Q293 562 286.50 560Q280 558 274.50 551Q269 544 266 541Q263 538 259 528Q255 518 254 515Q253 512 249.50 499Q246 486 245 483L44 483Q55 595 134 661.50Q213 728 335 728Q454 728 522 678Q590 628 590 540Q590 421 468 366Q389 331 373 318Q345 294 339 250Z"  horiz-adv-x="574" vert-adv-y="1000"  />

      
      <glyph glyph-name="uni40" unicode="&#x40;" d="M466 224Q418 158 342 158Q276 158 236.50 203.50Q197 249 197 322Q197 420 259.50 494Q322 568 406 568Q475 568 506 521L515 551L637 551L574 338Q562 295 562 278Q562 252 588 252Q624 252 656.50 307.50Q689 363 689 433Q689 532 619 592.50Q549 653 433 653Q295 653 205.50 565.50Q116 478 116 345Q116 219 201.50 139Q287 59 423 59Q496 59 557 83Q618 107 689 158L734 97Q580-18 419-18Q250-18 138.50 86Q27 190 27 348Q27 510 144 620Q261 730 432 730Q583 730 680.50 645Q778 560 778 427Q778 323 713 240Q648 157 563 157Q527 157 500.50 175.50Q474 194 466 224M433 474Q393 474 365 417.50Q337 361 337 311Q337 252 375 252Q414 252 441.50 321Q469 390 469 436Q469 474 433 474Z"  horiz-adv-x="800" vert-adv-y="1000"  />

      
      <glyph glyph-name="uni41" unicode="&#x41;" d="M548 712L660 0L444 0L432 101L199 101L144 0L-81 0L333 712L548 712M395 486Q368 421 320 331L279 255L416 255L402 382Q396 430 395 486Z"  horiz-adv-x="722" vert-adv-y="1000"  />

      
      <glyph glyph-name="uni42" unicode="&#x42;" d="M136 712L466 712Q507 712 537.50 709.50Q568 707 602.50 697Q637 687 659.50 669.50Q682 652 697 621Q712 590 712 547Q712 485 676 440Q640 395 582 385Q681 350 681 239Q681 136 606 67Q573 37 527.50 21Q482 5 448 2.50Q414 0 356 0L-16 0L136 712M313 550L289 440L403 440Q444 440 469 452.50Q494 465 494 503Q494 520 486.50 530.50Q479 541 463 544.50Q447 548 437.50 549Q428 550 409 550L313 550M260 302L232 169L354 169Q416 169 438 184Q468 205 468 243Q468 264 459 277Q450 290 431.50 295Q413 300 400.50 301Q388 302 364 302Q359 302 356 302L260 302Z"  horiz-adv-x="741" vert-adv-y="1000"  />

      
      <glyph glyph-name="uni43" unicode="&#x43;" d="M711 270Q684 130 590.50 56.50Q497-17 356-17Q206-17 124 66.50Q42 150 42 302Q42 488 146 608Q250 728 429 728Q567 728 649 656.50Q731 585 731 465Q731 455 730 447L521 447Q518 554 422 554Q379 554 346 529.50Q313 505 295 466Q277 427 268 386Q259 345 259 305Q259 233 288.50 194Q318 155 372 155Q468 155 495 270L711 270Z"  horiz-adv-x="759" vert-adv-y="1000"  />

      
      <glyph glyph-name="uni44" unicode="&#x44;" d="M139 712L411 712Q510 712 570 694Q651 670 698.50 595Q746 520 746 416Q746 244 646 128Q579 51 501 25.50Q423 0 306 0L-12 0L139 712M316 534L241 180L310 180Q364 180 393.50 187Q423 194 447 212Q482 239 504 290.50Q526 342 526 398Q526 476 487 505Q448 534 367 534L316 534Z"  horiz-adv-x="778" vert-adv-y="1000"  />

      
      <glyph glyph-name="uni45" unicode="&#x45;" d="M728 712L691 539L317 539L298 450L645 450L610 285L263 285L241 181L625 181L587 0L-13 0L138 712L728 712Z"  horiz-adv-x="704" vert-adv-y="1000"  />

      
      <glyph glyph-name="uni46" unicode="&#x46;" d="M686 712L648 533L315 533L292 424L579 424L543 256L256 256L202 0L-16 0L135 712L686 712Z"  horiz-adv-x="630" vert-adv-y="1000"  />

      
      <glyph glyph-name="uni47" unicode="&#x47;" d="M737 392L653 0L515 0L522 70Q453-15 325-15Q188-15 112.50 69Q37 153 37 292Q37 480 148 604Q259 728 445 728Q570 728 655 663Q740 598 740 475L740 462L533 462Q526 553 433 553Q386 553 350 529Q314 505 294.50 465.50Q275 426 265.50 383Q256 340 256 296Q256 151 379 151Q472 151 512 239L412 239L445 392L737 392Z"  horiz-adv-x="778" vert-adv-y="1000"  />

      
      <glyph glyph-name="uni48" unicode="&#x48;" d="M776 712L625 0L407 0L467 281L262 281L201 0L-16 0L135 712L353 712L300 466L506 466L559 712L776 712Z"  horiz-adv-x="759" vert-adv-y="1000"  />

      
      <glyph glyph-name="uni49" unicode="&#x49;" d="M353 712L202 0L-16 0L135 712L353 712Z"  horiz-adv-x="333" vert-adv-y="1000"  />

      
      <glyph glyph-name="uni4a" unicode="&#x4a;" d="M634 712L530 220Q504 97 433 40Q362-17 240-17Q128-17 65.50 32.50Q3 82 3 170Q3 217 20 300L217 300Q201 225 201 202Q201 154 251 154Q260 154 267 155.50Q274 157 280 161Q286 165 290 168Q294 171 297.50 178.50Q301 186 303.50 189Q306 192 308.50 202Q311 212 311.50 214.50Q312 217 314.50 229Q317 241 317 242L417 712L634 712Z"  horiz-adv-x="611" vert-adv-y="1000"  />

      
      <glyph glyph-name="uni4b" unicode="&#x4b;" d="M840 712L499 419L705 0L458 0L328 277L250 209L205 0L-12 0L139 712L356 712L328 576Q316 519 298 461Q328 499 413 579L554 712L840 712Z"  horiz-adv-x="759" vert-adv-y="1000"  />

      
      <glyph glyph-name="uni4c" unicode="&#x4c;" d="M360 712L247 183L565 183L526 0L-10 0L142 712L360 712Z"  horiz-adv-x="611" vert-adv-y="1000"  />

      
      <glyph glyph-name="uni4d" unicode="&#x4d;" d="M960 712L809 0L606 0L673 310Q697 423 732 547L717 510Q670 392 618 287L479 0L316 0L298 286Q291 406 291 543Q274 404 253 302L191 0L-15 0L136 712L441 712L447 492Q448 454 448 377Q448 321 444 240Q482 382 580 577L648 712L960 712Z"  horiz-adv-x="944" vert-adv-y="1000"  />

      
      <glyph glyph-name="uni4e" unicode="&#x4e;" d="M776 712L625 0L416 0L315 284Q283 374 274 421Q266 351 249 268L193 0L-17 0L134 712L350 712L447 431Q471 363 489 296Q495 363 515 462L566 712L776 712Z"  horiz-adv-x="759" vert-adv-y="1000"  />

      
      <glyph glyph-name="uni4f" unicode="&#x4f;" d="M761 425Q761 303 715 204Q669 105 576 44Q483-17 359-17Q207-17 122 66Q37 149 37 303Q37 486 147.50 608Q258 730 439 730Q585 730 673 650Q761 570 761 425M429 556Q384 556 348.50 530Q313 504 293.50 463Q274 422 264 378Q254 334 254 293Q254 227 285.50 191.50Q317 156 374 156Q429 156 469 204Q509 252 525 309.50Q541 367 541 419Q541 480 514 518Q487 556 429 556Z"  horiz-adv-x="796" vert-adv-y="1000"  />

      
      <glyph glyph-name="uni50" unicode="&#x50;" d="M137 712L445 712Q567 712 637 663Q707 614 707 495Q707 424 675.50 363Q644 302 590 267Q517 220 374 220L248 220L202 0L-14 0L137 712M315 537L284 387L383 387Q437 387 466.50 404.50Q496 422 496 472Q496 510 473 523.50Q450 537 408 537L315 537Z"  horiz-adv-x="704" vert-adv-y="1000"  />

      
      <glyph glyph-name="uni51" unicode="&#x51;" d="M700-2L587-84L511 15Q463-17 358-17Q211-17 124.50 67Q38 151 38 296Q38 487 149.50 608.50Q261 730 437 730Q590 730 677 647.50Q764 565 764 420Q764 228 628 92L700-2M456 314L505 248Q547 318 547 416Q547 484 516.50 520Q486 556 429 556Q385 556 350 530Q315 504 295.50 463Q276 422 266 378.50Q256 335 256 294Q256 229 286.50 192Q317 155 370 155Q382 155 399 160L344 231L456 314Z"  horiz-adv-x="796" vert-adv-y="1000"  />

      
      <glyph glyph-name="uni52" unicode="&#x52;" d="M135 712L462 712Q500 712 528 710Q556 708 589.50 702.50Q623 697 646 684Q669 671 689.50 651.50Q710 632 720 600.50Q730 569 730 528Q730 449 686 393.50Q642 338 565 328Q611 309 626 273Q641 237 640 179Q639 91 639 85Q639 24 648 0L435 0Q429 22 429 48Q429 62 430.50 91Q432 120 432 135Q432 202 413 226Q394 250 329 250L253 250L201 0L-15 0L135 712M317 547L286 401L411 401Q455 401 483 421.50Q511 442 511 485Q511 547 418 547L317 547Z"  horiz-adv-x="741" vert-adv-y="1000"  />

      
      <glyph glyph-name="uni53" unicode="&#x53;" d="M653 496L450 496Q444 534 423 550.50Q402 567 360 567Q323 567 301 552Q279 537 279 513Q279 493 295.50 481Q312 469 362 456Q480 424 523 400Q618 346 618 234Q618 170 590 120.50Q562 71 515 42.50Q468 14 412.50 0Q357-14 295-14Q233-14 180-0.50Q127 13 84.50 40.50Q42 68 17.50 115.50Q-7 163-7 227L-7 240L207 240Q207 147 315 147Q358 147 383 163.50Q408 180 408 209Q408 217 406.50 223.50Q405 230 400 235.50Q395 241 390.50 245.50Q386 250 376.50 254.50Q367 259 359.50 262.50Q352 266 337 270.50Q322 275 312.50 278Q303 281 283 287Q263 293 250 297Q167 322 119 366.50Q71 411 71 490Q71 550 96.50 597Q122 644 164.50 671Q207 698 258.50 712Q310 726 366 726Q507 726 580 669Q653 612 653 502L653 496Z"  horiz-adv-x="667" vert-adv-y="1000"  />

      
      <glyph glyph-name="uni54" unicode="&#x54;" d="M705 712L666 531L470 531L357 0L139 0L252 531L50 531L88 712L705 712Z"  horiz-adv-x="648" vert-adv-y="1000"  />

      
      <glyph glyph-name="uni55" unicode="&#x55;" d="M777 712L692 297Q659 137 578.50 63Q498-11 337-11Q188-11 109.50 44Q31 99 31 202Q31 231 47 309L132 712L350 712L262 300Q255 267 255 246Q255 206 279 184.50Q303 163 347 163Q379 163 402.50 176Q426 189 440 215Q454 241 461 262.50Q468 284 476 319L561 712L777 712Z"  horiz-adv-x="759" vert-adv-y="1000"  />

      
      <glyph glyph-name="uni56" unicode="&#x56;" d="M731 712L373 0L127 0L65 712L282 712L290 596Q296 514 297 472Q303 301 296 214Q339 347 412 510L503 712L731 712Z"  horiz-adv-x="648" vert-adv-y="1000"  />

      
      <glyph glyph-name="uni57" unicode="&#x57;" d="M1042 712L699 0L487 0L487 169Q487 192 498 439Q456 299 396 154L332 0L118 0L65 712L282 712L282 480Q282 340 271 222Q309 362 375 518L456 712L647 712L647 510Q647 347 635 216Q686 394 741 524L819 712L1042 712Z"  horiz-adv-x="963" vert-adv-y="1000"  />

      
      <glyph glyph-name="uni58" unicode="&#x58;" d="M800 712L503 377L676 0L429 0L385 111Q363 164 350 217Q332 180 268 102L186 0L-85 0L253 377L89 712L328 712L358 631Q380 570 397 513Q468 619 473 626L539 712L800 712Z"  horiz-adv-x="741" vert-adv-y="1000"  />

      
      <glyph glyph-name="uni59" unicode="&#x59;" d="M772 712L420 256L365 0L151 0L206 262L48 712L270 712L317 527Q327 488 336 432Q360 480 395 534L512 712L772 712Z"  horiz-adv-x="667" vert-adv-y="1000"  />

      
      <glyph glyph-name="uni5a" unicode="&#x5a;" d="M723 712L687 540L362 255Q309 208 258 174Q311 178 380 178L624 180L586 0L-50 0L-11 180L301 456Q350 499 408 536Q388 536 348.50 535Q309 534 290 534L82 534L120 712L723 712Z"  horiz-adv-x="685" vert-adv-y="1000"  />

      
      <glyph glyph-name="uni5b" unicode="&#x5b;" d="M474 712L442 559L294 559L173-6L322-6L290-158L-39-158L146 712L474 712Z"  horiz-adv-x="407" vert-adv-y="1000"  />

      
      <glyph glyph-name="uni5c" unicode="&#x5c;" d="M496-17L312-17L-70 731L113 731L496-17Z"  horiz-adv-x="426" vert-adv-y="1000"  />

      
      <glyph glyph-name="uni5d" unicode="&#x5d;" d="M420 712L235-158L-93-158L-61-6L87-6L207 560L59 560L91 712L420 712Z"  horiz-adv-x="407" vert-adv-y="1000"  />

      
      <glyph glyph-name="uni5e" unicode="&#x5e;" d="M48 256L224 692L377 692L552 256L394 256L300 511L207 256L48 256Z"  horiz-adv-x="600" vert-adv-y="1000"  />

      
      <glyph glyph-name="uni5f" unicode="&#x5f;" d="M0-125L0-75L500-75L500-125L0-125Z"  horiz-adv-x="500" vert-adv-y="1000"  />

      
      <glyph glyph-name="uni60" unicode="&#x60;" d="M255 575L126 575L-58 719L147 719L255 575Z"  horiz-adv-x="278" vert-adv-y="1000"  />

      
      <glyph glyph-name="uni61" unicode="&#x61;" d="M58 358Q68 410 93 445.50Q118 481 156.50 499Q195 517 235.50 524Q276 531 328 531Q574 531 574 395Q574 362 561 304L525 137Q512 72 512 46Q512 18 518 0L319 0Q317 8 317 18Q317 29 319 50Q263-17 154-17Q76-17 31.50 22Q-13 61-13 129Q-13 214 47 255.50Q107 297 223 307Q237 308 262 309.50Q287 311 298 312Q309 313 326.50 315.50Q344 318 351.50 322Q359 326 368.50 332Q378 338 381 347.50Q384 357 384 370Q384 412 319 412Q287 412 270 400Q253 388 243 358L58 358M356 231Q343 222 325.50 217.50Q308 213 283.50 211Q259 209 250 207Q186 195 186 148Q186 100 244 100Q291 100 313 124.50Q335 149 348 199L356 231Z"  horiz-adv-x="630" vert-adv-y="1000"  />

      
      <glyph glyph-name="uni62" unicode="&#x62;" d="M331 712L278 465Q335 528 423 528Q506 528 554.50 472Q603 416 603 321Q603 259 586.50 200.50Q570 142 538.50 93Q507 44 455 14.50Q403-15 338-15Q225-15 187 67L173 0L-17 0L134 712L331 712M332 385Q295 385 269 354.50Q243 324 233.50 287.50Q224 251 224 215Q224 177 243 156Q262 135 297 135Q333 135 359 165Q385 195 395 231.50Q405 268 405 303Q405 385 332 385Z"  horiz-adv-x="648" vert-adv-y="1000"  />

      
      <glyph glyph-name="uni63" unicode="&#x63;" d="M549 207Q521 92 454 39Q387-14 271-14Q152-14 81 44Q10 102 10 222Q10 362 94.50 444.50Q179 527 317 527Q432 527 500 473.50Q568 420 568 330L568 321L378 321L378 327Q378 358 360.50 375Q343 392 311 392Q272 392 245.50 358.50Q219 325 210.50 286Q202 247 202 208Q202 116 273 116Q309 116 328 140.50Q347 165 359 207L549 207Z"  horiz-adv-x="593" vert-adv-y="1000"  />

      
      <glyph glyph-name="uni64" unicode="&#x64;" d="M667 712L516 0L327 0L331 25Q333 36 338 59Q289-13 196-13Q101-13 54 45.50Q7 104 7 204Q7 286 33.50 358Q60 430 120.50 480Q181 530 265 530Q369 530 415 453L470 712L667 712M312 381Q274 381 249 353.50Q224 326 215 292Q206 258 206 221Q206 137 279 137Q316 137 340.50 166Q365 195 373.50 229.50Q382 264 382 300Q382 335 364.50 358Q347 381 312 381Z"  horiz-adv-x="648" vert-adv-y="1000"  />

      
      <glyph glyph-name="uni65" unicode="&#x65;" d="M552 152Q500-15 277-15Q156-15 86 42.50Q16 100 16 223Q16 359 101 444Q186 529 323 529Q445 529 513.50 466.50Q582 404 582 293Q582 255 574 212L201 212Q200 205 200 198Q200 112 287 112Q341 112 360 152L552 152M217 315L397 315L397 326Q397 360 376 380.50Q355 401 320 401Q283 401 255.50 378.50Q228 356 217 315Z"  horiz-adv-x="630" vert-adv-y="1000"  />

      
      <glyph glyph-name="uni66" unicode="&#x66;" d="M418 516L392 393L291 393L208 0L11 0L93 393L11 393L39 516L119 516L125 542Q149 645 200 679.50Q251 714 361 714Q402 714 463 710L435 578L423 578Q417 578 406.50 578.50Q396 579 392 579Q353 579 339 569.50Q325 560 317 531L313 516L418 516Z"  horiz-adv-x="389" vert-adv-y="1000"  />

      
      <glyph glyph-name="uni67" unicode="&#x67;" d="M616 516L515 44Q489-78 424.50-126Q360-174 224-174Q-22-174-22-15L-22-3L175-3Q178-57 237-57Q260-57 275.50-50.50Q291-44 300-26.50Q309-9 312.50 1Q316 11 322 39L334 91Q288 34 202 34Q113 34 60.50 89Q8 144 8 238Q8 357 75.50 444Q143 531 258 531Q364 531 411 451L425 516L616 516M306 390Q255 390 227.50 346.50Q200 303 200 249Q200 209 220 186.50Q240 164 276 164Q321 164 350.50 206Q380 248 380 310Q380 346 361 368Q342 390 306 390Z"  horiz-adv-x="630" vert-adv-y="1000"  />

      
      <glyph glyph-name="uni68" unicode="&#x68;" d="M327 712L272 452Q343 528 442 528Q510 528 553 489.50Q596 451 596 390Q596 352 587 311L520 0L323 0L382 276Q388 306 388 321Q388 377 329 377Q304 377 286 366.50Q268 356 257 336Q246 316 241 299.50Q236 283 231 260L176 0L-19 0L133 712L327 712Z"  horiz-adv-x="648" vert-adv-y="1000"  />

      
      <glyph glyph-name="uni69" unicode="&#x69;" d="M291 516L182 0L-16 0L94 516L291 516M333 712L304 574L106 574L135 712L333 712Z"  horiz-adv-x="315" vert-adv-y="1000"  />

      
      <glyph glyph-name="uni6a" unicode="&#x6a;" d="M292 516L192 44Q178-24 163-61.50Q148-99 120-125Q92-151 51.50-159Q11-167-58-167Q-110-167-140-164L-107-11Q-93-12-72-12Q-19-12-9 36L94 516L292 516M334 712L304 574L105 574L136 712L334 712Z"  horiz-adv-x="315" vert-adv-y="1000"  />

      
      <glyph glyph-name="uni6b" unicode="&#x6b;" d="M327 712L268 436Q265 419 248 357Q276 388 284 396L402 516L638 516L407 309L538 0L323 0L253 187L207 149L175 0L-21 0L131 712L327 712Z"  horiz-adv-x="611" vert-adv-y="1000"  />

      
      <glyph glyph-name="uni6c" unicode="&#x6c;" d="M333 712L182 0L-16 0L136 712L333 712Z"  horiz-adv-x="315" vert-adv-y="1000"  />

      
      <glyph glyph-name="uni6d" unicode="&#x6d;" d="M282 516L268 450Q341 531 439 531Q552 531 573 445Q648 531 748 531Q821 531 864.50 491Q908 451 908 384Q908 340 895 281L835 0L635 0L693 274Q701 308 701 326Q701 349 686.50 363.50Q672 378 647 378Q634 378 623.50 374Q613 370 605.50 365Q598 360 591.50 351Q585 342 581.50 335.50Q578 329 574 317Q570 305 569 300.50Q568 296 566 284L564 273L507 0L309 0L368 278Q375 315 375 327Q375 352 361 366.50Q347 381 323 381Q286 381 268 353.50Q250 326 240 282L180 0L-18 0L92 516L282 516Z"  horiz-adv-x="963" vert-adv-y="1000"  />

      
      <glyph glyph-name="uni6e" unicode="&#x6e;" d="M281 516L266 450Q336 530 439 530Q510 530 553.50 492Q597 454 597 392Q597 358 587 311L521 0L321 0L383 292Q387 312 387 322Q387 348 372 362.50Q357 377 330 377Q258 377 238 281L179 0L-19 0L90 516L281 516Z"  horiz-adv-x="648" vert-adv-y="1000"  />

      
      <glyph glyph-name="uni6f" unicode="&#x6f;" d="M580 299Q580 159 495.50 71.50Q411-16 270-16Q153-16 82.50 41.50Q12 99 12 216Q12 355 96.50 442Q181 529 322 529Q437 529 508.50 471Q580 413 580 299M314 392Q285 392 263 372.50Q241 353 229.50 322.50Q218 292 212.50 262.50Q207 233 207 207Q207 122 277 122Q306 122 328 141.50Q350 161 361.50 191.50Q373 222 378.50 251.50Q384 281 384 307Q384 345 367 368.50Q350 392 314 392Z"  horiz-adv-x="630" vert-adv-y="1000"  />

      
      <glyph glyph-name="uni70" unicode="&#x70;" d="M279 516L268 462Q328 529 416 529Q499 529 549.50 470.50Q600 412 600 315Q600 256 584 199.50Q568 143 537.50 94.50Q507 46 456 16Q405-14 341-14Q234-14 190 60L142-167L-56-167L88 516L279 516M334 375Q276 375 249.50 328.50Q223 282 223 218Q223 177 242.50 154.50Q262 132 298 132Q349 132 374.50 184Q400 236 400 293Q400 331 382.50 353Q365 375 334 375Z"  horiz-adv-x="648" vert-adv-y="1000"  />

      
      <glyph glyph-name="uni71" unicode="&#x71;" d="M625 516L480-167L283-167L330 51Q303 15 270 0.50Q237-14 188-14Q100-14 53.50 41.50Q7 97 7 201Q7 344 80.50 436.50Q154 529 268 529Q380 529 420 447L436 516L625 516M310 377Q273 377 247.50 348.50Q222 320 213 285Q204 250 204 214Q204 130 276 130Q312 130 337.50 157.50Q363 185 372.50 219.50Q382 254 382 290Q382 327 363.50 352Q345 377 310 377Z"  horiz-adv-x="648" vert-adv-y="1000"  />

      
      <glyph glyph-name="uni72" unicode="&#x72;" d="M482 523L445 349Q405 362 371 362Q304 362 270.50 328Q237 294 223 229L174 0L-22 0L87 516L276 516L258 436Q293 484 329.50 507Q366 530 421 530Q449 530 482 523Z"  horiz-adv-x="444" vert-adv-y="1000"  />

      
      <glyph glyph-name="uni73" unicode="&#x73;" d="M523 365L344 365Q345 368 345 373Q345 418 285 418Q260 418 244.50 407Q229 396 229 378Q229 373 230.50 368.50Q232 364 234.50 360.50Q237 357 240 354Q243 351 248 349Q253 347 256.50 345.50Q260 344 266 342.50Q272 341 275 340.50Q278 340 284.50 339Q291 338 293 338Q328 332 344 328.50Q360 325 389 317Q418 309 432.50 299Q447 289 464 272.50Q481 256 488 232.50Q495 209 495 178Q495 126 471.50 87.50Q448 49 407.50 28Q367 7 322.50-3Q278-13 228-13Q183-13 143-5.50Q103 2 65 19.50Q27 37 5 71.50Q-17 106-17 155Q-17 157-16.50 162Q-16 167-16 172L166 172L166 166Q166 110 237 110Q302 110 302 151Q302 157 300.50 162.50Q299 168 294.50 172Q290 176 286 179Q282 182 273.50 185Q265 188 258.50 190Q252 192 240 194.50Q228 197 219.50 198.50Q211 200 196 203Q181 206 170 208Q31 235 31 348Q31 399 53.50 436Q76 473 114.50 492.50Q153 512 196 520.50Q239 529 288 529Q523 529 523 380L523 365Z"  horiz-adv-x="556" vert-adv-y="1000"  />

      
      <glyph glyph-name="uni74" unicode="&#x74;" d="M425 516L397 393L291 393L253 224Q244 188 244 174Q244 158 252.50 149.50Q261 141 271 139.50Q281 138 299 138Q335 138 353 140L323 0Q275-8 208-8Q36-8 36 112Q36 135 53 212L92 393L6 393L34 516L120 516L156 674L353 674L319 516L425 516Z"  horiz-adv-x="407" vert-adv-y="1000"  />

      
      <glyph glyph-name="uni75" unicode="&#x75;" d="M622 516L513 0L321 0L336 70Q276-15 167-15Q95-15 52.50 22.50Q10 60 10 122Q10 163 19 204L85 516L284 516L223 226Q219 204 219 190Q219 166 234 152.50Q249 139 275 139Q344 139 365 237L425 516L622 516Z"  horiz-adv-x="648" vert-adv-y="1000"  />

      
      <glyph glyph-name="uni76" unicode="&#x76;" d="M592 516L314 0L81 0L19 516L219 516L228 383Q234 303 234 253Q234 213 232 176Q252 246 296 335L385 516L592 516Z"  horiz-adv-x="556" vert-adv-y="1000"  />

      
      <glyph glyph-name="uni77" unicode="&#x77;" d="M903 516L633 0L428 0L420 186Q418 224 418 274Q418 307 420 331Q401 273 363 187L281 0L76 0L24 516L218 516L226 349Q229 262 229 249Q229 226 226 179Q246 247 299 369L363 516L551 516L557 366Q560 273 560 262Q560 234 557 183Q578 253 630 371L694 516L903 516Z"  horiz-adv-x="870" vert-adv-y="1000"  />

      
      <glyph glyph-name="uni78" unicode="&#x78;" d="M575 516L368 267L498 0L298 0L268 66Q255 97 243 134Q223 102 207 80L146 0L-73 0L161 276L42 516L243 516L268 454Q276 434 283 403Q302 437 314 454L358 516L575 516Z"  horiz-adv-x="556" vert-adv-y="1000"  />

      
      <glyph glyph-name="uni79" unicode="&#x79;" d="M583 516L315 3Q278-67 250-100.50Q222-134 178-150.50Q134-167 61-167Q-4-167-53-163L-21-7Q0-10 26-10Q68-10 83.50 0Q99 10 99 37Q99 63 85 126L8 516L208 516L227 358Q242 240 242 169Q262 250 310 361L377 516L583 516Z"  horiz-adv-x="556" vert-adv-y="1000"  />

      
      <glyph glyph-name="uni7a" unicode="&#x7a;" d="M552 516L520 366L281 177Q260 159 226 139Q239 139 283 141Q327 143 351 143L494 143L464 0L-50 0L-18 148L172 298Q203 323 280 374Q267 374 252 373.50Q237 373 208 373L51 373L82 516L552 516Z"  horiz-adv-x="556" vert-adv-y="1000"  />

      
      <glyph glyph-name="uni7b" unicode="&#x7b;" d="M9 321Q66 332 100 357Q134 382 145 434L168 543Q176 582 192.50 611.50Q209 641 233.50 659Q258 677 282.50 688Q307 699 341.50 704Q376 709 400.50 710.50Q425 712 462 712L443 624Q345 611 322 509L312 464Q292 375 248.50 330.50Q205 286 118 277Q183 270 212 241Q241 212 241 158Q241 132 230 81Q219 30 219 8Q219-60 296-70L277-158Q162-152 109-122.50Q56-93 56-16Q56 16 68.50 77.50Q81 139 81 149Q81 218-10 233L9 321Z"  horiz-adv-x="407" vert-adv-y="1000"  />

      
      <glyph glyph-name="uni7c" unicode="&#x7c;" d="M30-214L30 786L192 786L192-214L30-214Z"  horiz-adv-x="222" vert-adv-y="1000"  />

      
      <glyph glyph-name="uni7d" unicode="&#x7d;" d="M380 321L361 233Q304 222 270 197.50Q236 173 225 120L201 11Q191-36 167-69Q143-102 117-119Q91-136 50.50-145Q10-154-19-156Q-48-158-92-158L-73-70Q25-57 48 45L58 90Q78 178 121.50 223Q165 268 251 277Q187 284 158 313Q129 342 129 396Q129 422 140 473Q151 524 151 546Q151 614 74 624L93 712Q208 706 261 676.50Q314 647 314 570Q314 538 301.50 476.50Q289 415 289 405Q289 336 380 321Z"  horiz-adv-x="407" vert-adv-y="1000"  />

      
      <glyph glyph-name="uni7e" unicode="&#x7e;" d="M79 141L-17 141Q12 377 150 377Q199 377 262 353Q380 307 411 307Q439 307 456.50 325.50Q474 344 485 387L582 387Q578 337 561 286.50Q544 236 504.50 193.50Q465 151 413 151Q365 151 272 186Q264 189 246.50 196Q229 203 220.50 206Q212 209 198.50 213.50Q185 218 173.50 219.50Q162 221 151 221Q100 221 79 141Z"  horiz-adv-x="600" vert-adv-y="1000"  />

      
      <glyph glyph-name="unia3" unicode="&#xa3;" d="M472 411L447 288L353 288Q348 221 283 156Q301 164 340 164Q357 164 397 157Q431 150 449 150Q501 150 548 182L598 42Q522-10 423-10Q388-10 294 8Q242 19 199 19Q135 19 86-12L31 103Q94 139 126 176Q158 213 158 274L158 288L51 288L76 411L143 411Q121 460 121 504Q121 601 198.50 661.50Q276 722 400 722Q521 722 586.50 665Q652 608 652 504Q652 492 651 481L460 481Q461 490 461 498Q461 529 444.50 546Q428 563 397 563Q366 563 348 544Q330 525 330 493Q330 456 346 411L472 411Z"  horiz-adv-x="668" vert-adv-y="1000"  />

      
      <glyph glyph-name="unia4" unicode="&#xa4;" d="M596 174L509 86L442 153Q386 125 333 125Q281 125 223 153L156 86L69 174L136 241Q108 291 108 350Q108 402 136 459L69 526L156 614L224 547Q289 575 331 575Q387 575 441 546L508 613L595 526L529 460Q558 395 558 349Q558 295 529 240L596 174M414 351Q414 384 390.50 407.50Q367 431 333 431Q300 431 276 407.50Q252 384 252 351Q252 317 275.50 293.50Q299 270 333 270Q367 270 390.50 293.50Q414 317 414 351Z"  horiz-adv-x="668" vert-adv-y="1000"  />

      
      <glyph glyph-name="unia6" unicode="&#xa6;" d="M36-25L36 278L186 278L186-25L36-25M36 433L36 735L186 735L186 433L36 433Z"  horiz-adv-x="222" vert-adv-y="1000"  />

      
      <glyph glyph-name="unia7" unicode="&#xa7;" d="M617 525L447 525Q448 529 448 535Q448 588 387 588Q362 588 346 575Q330 562 330 541Q330 529 339 516.50Q348 504 365 493.50Q382 483 395.50 476Q409 469 428 460.50Q447 452 451 450Q484 434 499 426.50Q514 419 542.50 400.50Q571 382 584.50 366.50Q598 351 610 326Q622 301 622 273Q622 213 585.50 169Q549 125 488 111Q520 73 520 20Q520-78 445-130.50Q370-183 267-183Q158-183 94-131Q30-79 30 9Q30 20 31 31L202 31L203 23Q207-10 222.50-24.50Q238-39 273-39Q303-39 320.50-24Q338-9 338 16Q338 40 315 56.50Q292 73 231 101Q225 103 221.50 105Q218 107 212.50 109.50Q207 112 202 114Q165 131 140.50 145.50Q116 160 89 182.50Q62 205 48 234.50Q34 264 34 300Q34 362 73 404.50Q112 447 175 453Q144 492 144 536Q144 599 184.50 643.50Q225 688 280 706.50Q335 725 396 725Q499 725 558.50 678Q618 631 618 548Q618 536 617 525M361 207Q395 189 409 189Q426 189 439.50 202.50Q453 216 453 235Q453 268 397 299L313 345Q267 370 249 370Q230 370 216.50 357Q203 344 203 324Q203 306 216.50 291.50Q230 277 266 258L361 207Z"  horiz-adv-x="667" vert-adv-y="1000"  />

      
      <glyph glyph-name="unia9" unicode="&#xa9;" d="M658 621.50Q658 621.50 713 566.75Q768 512 768 357Q768 202 658.50 92.50Q549-17 394-17Q239-17 129 92.50Q19 202 19 357Q19 512 128.50 621.50Q238 731 393 731Q548 731 658 621.50M598 152.50Q598 152.50 640.50 194.75Q683 237 683 357Q683 477 598 561.50Q513 646 393 646Q273 646 188.50 561.50Q104 477 104 357Q104 237 188.50 152.50Q273 68 393 68Q513 68 598 152.50M401 137Q311 137 252.50 200Q194 263 194 357Q194 455 249.50 517.50Q305 580 394 580Q471 580 523.50 533Q576 486 582 407L477 407Q465 483 399 483Q363 483 340.50 450.50Q318 418 318 359Q318 299 341 266.50Q364 234 405 234Q438 234 454 251Q470 268 478 307L583 307Q574 229 524 183Q474 137 401 137Z"  horiz-adv-x="800" vert-adv-y="1000"  />

      
      <glyph glyph-name="uniab" unicode="&#xab;" d="M228 480L197 327L99 254L167 181L139 46L6 187L41 353L228 480M426 480L396 328L297 254L365 181L337 45L204 187L238 352L426 480Z"  horiz-adv-x="444" vert-adv-y="1000"  />

      
      <glyph glyph-name="uniac" unicode="&#xac;" d="M16 301L16 454L554 454L554 62L404 62L404 301L16 301Z"  horiz-adv-x="600" vert-adv-y="1000"  />

      
      <glyph glyph-name="uniae" unicode="&#xae;" d="M106 677.50Q106 677.50 133 704.25Q160 731 236 731Q312 731 366 677Q420 623 420 547Q420 471 365.50 417.50Q311 364 236 364Q160 364 106 418Q52 472 52 547Q52 624 106 677.50M338.50 649.50Q338.50 649.50 317.25 670.75Q296 692 236 692Q176 692 133.50 649Q91 606 91 547Q91 487 133.50 445Q176 403 236 403Q296 403 338.50 445.50Q381 488 381 547Q381 607 338.50 649.50M155 650L252 650Q285 650 305 634Q325 618 325 588Q325 551 289 539Q309 529 314.50 517Q320 505 322 480L323 468Q326 447 327 444L269 444Q265 456 265 472Q265 499 258 507Q251 515 227 515L216 515L216 444L155 444L155 650M216 560L229 560Q264 560 264 584Q264 606 230 606L216 606L216 560Z"  horiz-adv-x="400" vert-adv-y="1000"  />

      
      <glyph glyph-name="unib0" unicode="&#xb0;" d="M120 648.50Q120 648.50 145.50 673.75Q171 699 242 699Q313 699 364 648.50Q415 598 415 527Q415 455 364 404.50Q313 354 242 354Q171 354 120 404.50Q69 455 69 527Q69 598 120 648.50M203.50 566Q203.50 566 195.25 558Q187 550 187 527Q187 504 203.50 487.50Q220 471 242 471Q264 471 280.50 487.50Q297 504 297 527Q297 550 280.50 566Q264 582 242 582Q220 582 203.50 566Z"  horiz-adv-x="400" vert-adv-y="1000"  />

      
      <glyph glyph-name="unib1" unicode="&#xb1;" d="M203 188L203 305L19 305L19 461L203 461L203 572L373 572L373 461L557 461L557 306L373 306L373 188L203 188M18 0L18 158L556 158L556 0L18 0Z"  horiz-adv-x="600" vert-adv-y="1000"  />

      
      <glyph glyph-name="unib5" unicode="&#xb5;" d="M623 516L513 0L321 0L331 45Q286-13 235-13Q195-13 175 19L137-167L-61-167L85 516L285 516L222 220Q219 208 219 194Q219 137 278 137Q301 137 317.50 146.50Q334 156 344 176.50Q354 197 358 211Q362 225 368 252L425 516L623 516Z"  horiz-adv-x="648" vert-adv-y="1000"  />

      
      <glyph glyph-name="unib6" unicode="&#xb6;" d="M668 715L648 619L598 619L432-167L308-167L474 619L383 619L217-167L93-167L178 239Q103 241 59.50 288Q16 335 16 416Q16 552 110.50 633.50Q205 715 341 715L668 715Z"  horiz-adv-x="620" vert-adv-y="1000"  />

      
      <glyph glyph-name="unib7" unicode="&#xb7;" d="M275 385L234 187L28 187L70 385L275 385Z"  horiz-adv-x="334" vert-adv-y="1000"  />

      
      <glyph glyph-name="unibb" unicode="&#xbb;" d="M71 481L203 340L168 174L-19 47L12 199L109 273L42 345L71 481M268 481L400 340L366 174L179 47L210 200L307 273L239 346L268 481Z"  horiz-adv-x="444" vert-adv-y="1000"  />

      
      <glyph glyph-name="unif7" unicode="&#xf7;" d="M8 345L566 345L566 178L8 178L8 345M374 549L374 381L198 381L198 549L374 549M374 142L374-26L198-26L198 142L374 142Z"  horiz-adv-x="600" vert-adv-y="1000"  />

      
      <glyph glyph-name="uni0192" unicode="&#x0192;" d="M543 410L510 292L417 292L343 28Q310-90 252.50-132.50Q195-175 73-175Q30-175 4-171L43-27Q54-28 65-28Q87-28 101.50-22.50Q116-17 125-4.50Q134 8 138 19.50Q142 31 148 53Q148 55 148.50 57Q149 59 150 61L213 292L118 292L150 410L245 410L274 518Q303 628 357 675.50Q411 723 525 723Q552 723 612 718L624 717L587 579Q567 581 549 581Q512 581 498 563.50Q484 546 474 506L449 410L543 410Z"  horiz-adv-x="668" vert-adv-y="1000"  />

      
      <glyph glyph-name="uni0401" unicode="&#x0401;" d="M728 712L691 539L317 539L298 450L645 450L610 285L263 285L241 181L625 181L587 0L-13 0L138 712L728 712M447 906L418 769L243 769L272 906L447 906M676 906L647 769L471 769L501 906L676 906Z"  horiz-adv-x="704" vert-adv-y="1000"  />

      
      <glyph glyph-name="uni0402" unicode="&#x0402;" d="M454 66L479 66Q530 66 562.50 112Q595 158 595 211Q595 286 521 286Q473 286 441 254Q409 222 398 166L363 0L140 0L252 529L71 529L110 712L734 712L695 529L475 529L445 386Q471 411 516.50 431Q562 451 606 451Q706 451 760 393.50Q814 336 814 236Q814 90 714.50-4.50Q615-99 464-99L419-99L454 66Z"  horiz-adv-x="857" vert-adv-y="1000"  />

      
      <glyph glyph-name="uni0403" unicode="&#x0403;" d="M319 529L206 0L-13 0L139 712L674 712L635 529L319 529M591 911L401 766L270 766L382 911L591 911Z"  horiz-adv-x="611" vert-adv-y="1000"  />

      
      <glyph glyph-name="uni0404" unicode="&#x0404;" d="M479 443L446 285L260 285Q264 223 293 189Q322 155 372 155Q468 155 495 270L711 270Q684 130 590.50 56.50Q497-17 356-17Q206-17 124 66.50Q42 150 42 302Q42 488 146 608Q250 728 429 728Q567 728 649 656.50Q731 585 731 465L731 456L521 456Q513 554 422 554Q329 554 285 443L479 443Z"  horiz-adv-x="759" vert-adv-y="1000"  />

      
      <glyph glyph-name="uni0405" unicode="&#x0405;" d="M653 496L450 496Q444 534 423 550.50Q402 567 360 567Q323 567 301 552Q279 537 279 513Q279 493 295.50 481Q312 469 362 456Q480 424 523 400Q618 346 618 234Q618 170 590 120.50Q562 71 515 42.50Q468 14 412.50 0Q357-14 295-14Q233-14 180-0.50Q127 13 84.50 40.50Q42 68 17.50 115.50Q-7 163-7 227L-7 240L207 240Q207 147 315 147Q358 147 383 163.50Q408 180 408 209Q408 217 406.50 223.50Q405 230 400 235.50Q395 241 390.50 245.50Q386 250 376.50 254.50Q367 259 359.50 262.50Q352 266 337 270.50Q322 275 312.50 278Q303 281 283 287Q263 293 250 297Q167 322 119 366.50Q71 411 71 490Q71 550 96.50 597Q122 644 164.50 671Q207 698 258.50 712Q310 726 366 726Q507 726 580 669Q653 612 653 502L653 496Z"  horiz-adv-x="667" vert-adv-y="1000"  />

      
      <glyph glyph-name="uni0406" unicode="&#x0406;" d="M353 712L202 0L-16 0L135 712L353 712Z"  horiz-adv-x="333" vert-adv-y="1000"  />

      
      <glyph glyph-name="uni0407" unicode="&#x0407;" d="M353 712L202 0L-16 0L135 712L353 712M247 906L218 769L43 769L72 906L247 906M476 906L447 769L271 769L301 906L476 906Z"  horiz-adv-x="333" vert-adv-y="1000"  />

      
      <glyph glyph-name="uni0408" unicode="&#x0408;" d="M634 712L530 220Q504 97 433 40Q362-17 240-17Q128-17 65.50 32.50Q3 82 3 170Q3 217 20 300L217 300Q201 225 201 202Q201 154 251 154Q260 154 267 155.50Q274 157 280 161Q286 165 290 168Q294 171 297.50 178.50Q301 186 303.50 189Q306 192 308.50 202Q311 212 311.50 214.50Q312 217 314.50 229Q317 241 317 242L417 712L634 712Z"  horiz-adv-x="611" vert-adv-y="1000"  />

      
      <glyph glyph-name="uni0409" unicode="&#x0409;" d="M518 529L397 529L388 487Q341 267 307 185Q249 39 142 2Q98-13 44-13Q-14-13-50 3L-14 172Q1 161 34 161Q78 161 103 217.50Q128 274 156 406L221 712L774 712L723 471L796 471Q845 471 881 467Q917 463 952.50 450.50Q988 438 1010.50 417Q1033 396 1047 360Q1061 324 1061 275Q1061 204 1029.50 143Q998 82 944 47Q871 0 728 0L405 0L518 529M851 251Q851 289 828.50 301Q806 313 763 313L690 313L659 166L738 166Q792 166 821.50 183.50Q851 201 851 251Z"  horiz-adv-x="1100" vert-adv-y="1000"  />

      
      <glyph glyph-name="uni040A" unicode="&#x040A;" d="M462 285L263 285L201 0L-16 0L135 712L353 712L301 471L501 471L553 712L770 712L719 471L792 471Q841 471 877 467Q913 463 948.50 450.50Q984 438 1006.50 417Q1029 396 1043 360Q1057 324 1057 275Q1057 204 1025.50 143Q994 82 940 47Q867 0 724 0L401 0L462 285M847 251Q847 289 824.50 301Q802 313 759 313L686 313L655 166L734 166Q788 166 817.50 183.50Q847 201 847 251Z"  horiz-adv-x="1100" vert-adv-y="1000"  />

      
      <glyph glyph-name="uni040B" unicode="&#x040B;" d="M352 0L129 0L242 529L61 529L100 712L724 712L685 529L465 529L445 436Q458 441 496.50 446Q535 451 555 451Q610 451 651 444Q692 437 732 418.50Q772 400 793.50 360.50Q815 321 815 263Q815 226 804 174L767 0L543 0L577 158Q583 183 583 207Q583 286 500 286Q455 286 410 271L352 0Z"  horiz-adv-x="857" vert-adv-y="1000"  />

      
      <glyph glyph-name="uni040C" unicode="&#x040C;" d="M840 712L499 419L705 0L458 0L328 277L250 209L205 0L-12 0L139 712L356 712L328 576Q316 519 298 461Q328 499 413 579L554 712L840 712M681 911L491 766L360 766L472 911L681 911Z"  horiz-adv-x="759" vert-adv-y="1000"  />

      
      <glyph glyph-name="uni040E" unicode="&#x040E;" d="M240 907L348 907L348 899Q348 843 416 843Q490 843 514 907L619 907Q607 823 548.50 780.50Q490 738 405 738Q238 738 238 872Q238 881 240 907M189 245L61 712L295 712L317 555Q328 478 338 370Q367 436 402 505L509 712L757 712L385 130Q291-18 147-18Q105-18 64-10.50Q23-3 7 5L44 176Q49 170 73 162.50Q97 155 120 155Q144 155 164.50 168.50Q185 182 191 207Q194 225 189 245Z"  horiz-adv-x="667" vert-adv-y="1000"  />

      
      <glyph glyph-name="uni040F" unicode="&#x040F;" d="M424 0L389-167L186-167L221 0L0 0L151 712L370 712L259 186L465 186L576 712L794 712L643 0L424 0Z"  horiz-adv-x="759" vert-adv-y="1000"  />

      
      <glyph glyph-name="uni0410" unicode="&#x0410;" d="M548 712L660 0L444 0L432 101L199 101L144 0L-81 0L333 712L548 712M395 486Q368 421 320 331L279 255L416 255L402 382Q396 430 395 486Z"  horiz-adv-x="722" vert-adv-y="1000"  />

      
      <glyph glyph-name="uni0411" unicode="&#x0411;" d="M311 545L291 451L451 451Q494 451 531.50 443Q569 435 605 415Q641 395 662 356Q683 317 683 261Q683 168 640 105.50Q597 43 521 18Q467 0 373 0L-17 0L135 712L724 712L688 545L311 545M470 244Q470 297 387 297L258 297L231 166L376 166Q422 166 446 182Q470 198 470 244Z"  horiz-adv-x="741" vert-adv-y="1000"  />

      
      <glyph glyph-name="uni0412" unicode="&#x0412;" d="M136 712L466 712Q507 712 537.50 709.50Q568 707 602.50 697Q637 687 659.50 669.50Q682 652 697 621Q712 590 712 547Q712 485 676 440Q640 395 582 385Q681 350 681 239Q681 136 606 67Q573 37 527.50 21Q482 5 448 2.50Q414 0 356 0L-16 0L136 712M313 550L289 440L403 440Q444 440 469 452.50Q494 465 494 503Q494 520 486.50 530.50Q479 541 463 544.50Q447 548 437.50 549Q428 550 409 550L313 550M260 302L232 169L354 169Q416 169 438 184Q468 205 468 243Q468 264 459 277Q450 290 431.50 295Q413 300 400.50 301Q388 302 364 302Q359 302 356 302L260 302Z"  horiz-adv-x="741" vert-adv-y="1000"  />

      
      <glyph glyph-name="uni0413" unicode="&#x0413;" d="M319 529L206 0L-13 0L139 712L674 712L635 529L319 529Z"  horiz-adv-x="611" vert-adv-y="1000"  />

      
      <glyph glyph-name="uni0414" unicode="&#x0414;" d="M244 712L790 712L678 182L766 182L692-166L494-166L529 0L134 0L99-166L-100-166L-26 182L38 182Q167 330 231 648L244 712M464 182L538 533L403 533L393 485Q376 403 338 319Q300 235 264 182L464 182Z"  horiz-adv-x="804" vert-adv-y="1000"  />

      
      <glyph glyph-name="uni0415" unicode="&#x0415;" d="M728 712L691 539L317 539L298 450L645 450L610 285L263 285L241 181L625 181L587 0L-13 0L138 712L728 712Z"  horiz-adv-x="704" vert-adv-y="1000"  />

      
      <glyph glyph-name="uni0416" unicode="&#x0416;" d="M403 291L209 0L-67 0L286 466L122 712L363 712L488 485L537 712L755 712L706 485L929 712L1190 712L889 437L1045 0L798 0L722 284L650 218L603 0L385 0L438 238L403 291Z"  horiz-adv-x="1137" vert-adv-y="1000"  />

      
      <glyph glyph-name="uni0417" unicode="&#x0417;" d="M421 233Q421 304 316 304Q308 304 289 303.50Q270 303 263 303L292 439Q304 438 336 438Q456 438 456 512Q456 538 433 554Q410 570 371 570Q328 570 297.50 551Q267 532 262 500L57 500Q73 616 162.50 673.50Q252 731 387 731Q522 731 590 683.50Q658 636 658 555Q658 493 622.50 448Q587 403 530 386Q576 375 606 336.50Q636 298 636 239Q636 117 542.50 51.50Q449-14 303-14Q240-14 186.50-0.50Q133 13 88.50 40.50Q44 68 18.50 115.50Q-7 163-7 227L-7 240L207 240Q207 147 315 147Q363 147 392 169Q421 191 421 233Z"  horiz-adv-x="676" vert-adv-y="1000"  />

      
      <glyph glyph-name="uni0418" unicode="&#x0418;" d="M777 712L625 0L417 0L474 268Q498 378 517 443L216 0L-18 0L134 712L343 712L285 442Q261 334 244 273L544 712L777 712Z"  horiz-adv-x="759" vert-adv-y="1000"  />

      
      <glyph glyph-name="uni0419" unicode="&#x0419;" d="M756 712L605 0L397 0L454 268Q482 396 497 443L196 0L-38 0L113 712L322 712L265 442Q247 360 224 273L523 712L756 712M285 907L393 907L393 899Q393 843 461 843Q535 843 559 907L664 907Q652 823 593.50 780.50Q535 738 450 738Q283 738 283 872Q283 881 285 907Z"  horiz-adv-x="759" vert-adv-y="1000"  />

      
      <glyph glyph-name="uni041A" unicode="&#x041A;" d="M840 712L499 419L705 0L458 0L328 277L250 209L205 0L-12 0L139 712L356 712L328 576Q316 519 298 461Q328 499 413 579L554 712L840 712Z"  horiz-adv-x="759" vert-adv-y="1000"  />

      
      <glyph glyph-name="uni041B" unicode="&#x041B;" d="M221 712L784 712L633 0L416 0L528 529L397 529L388 487Q341 267 307 185Q249 39 142 2Q98-13 44-13Q-14-13-50 3L-14 172Q1 161 34 161Q78 161 103 217.50Q128 274 156 406L221 712Z"  horiz-adv-x="779" vert-adv-y="1000"  />

      
      <glyph glyph-name="uni041C" unicode="&#x041C;" d="M960 712L809 0L606 0L673 310Q697 423 732 547L717 510Q670 392 618 287L479 0L316 0L298 286Q291 406 291 543Q274 404 253 302L191 0L-15 0L136 712L441 712L447 492Q448 454 448 377Q448 321 444 240Q482 382 580 577L648 712L960 712Z"  horiz-adv-x="944" vert-adv-y="1000"  />

      
      <glyph glyph-name="uni041D" unicode="&#x041D;" d="M776 712L625 0L407 0L467 281L262 281L201 0L-16 0L135 712L353 712L300 466L506 466L559 712L776 712Z"  horiz-adv-x="759" vert-adv-y="1000"  />

      
      <glyph glyph-name="uni041E" unicode="&#x041E;" d="M761 425Q761 303 715 204Q669 105 576 44Q483-17 359-17Q207-17 122 66Q37 149 37 303Q37 486 147.50 608Q258 730 439 730Q585 730 673 650Q761 570 761 425M429 556Q384 556 348.50 530Q313 504 293.50 463Q274 422 264 378Q254 334 254 293Q254 227 285.50 191.50Q317 156 374 156Q429 156 469 204Q509 252 525 309.50Q541 367 541 419Q541 480 514 518Q487 556 429 556Z"  horiz-adv-x="796" vert-adv-y="1000"  />

      
      <glyph glyph-name="uni041F" unicode="&#x041F;" d="M776 712L625 0L407 0L520 529L315 529L201 0L-16 0L135 712L776 712Z"  horiz-adv-x="759" vert-adv-y="1000"  />

      
      <glyph glyph-name="uni0420" unicode="&#x0420;" d="M137 712L445 712Q567 712 637 663Q707 614 707 495Q707 424 675.50 363Q644 302 590 267Q517 220 374 220L248 220L202 0L-14 0L137 712M315 537L284 387L383 387Q437 387 466.50 404.50Q496 422 496 472Q496 510 473 523.50Q450 537 408 537L315 537Z"  horiz-adv-x="704" vert-adv-y="1000"  />

      
      <glyph glyph-name="uni0421" unicode="&#x0421;" d="M711 270Q684 130 590.50 56.50Q497-17 356-17Q206-17 124 66.50Q42 150 42 302Q42 488 146 608Q250 728 429 728Q567 728 649 656.50Q731 585 731 465Q731 455 730 447L521 447Q518 554 422 554Q379 554 346 529.50Q313 505 295 466Q277 427 268 386Q259 345 259 305Q259 233 288.50 194Q318 155 372 155Q468 155 495 270L711 270Z"  horiz-adv-x="759" vert-adv-y="1000"  />

      
      <glyph glyph-name="uni0422" unicode="&#x0422;" d="M705 712L666 531L470 531L357 0L139 0L252 531L50 531L88 712L705 712Z"  horiz-adv-x="648" vert-adv-y="1000"  />

      
      <glyph glyph-name="uni0423" unicode="&#x0423;" d="M189 245L61 712L295 712L317 555Q328 478 338 370Q367 436 402 505L509 712L757 712L385 130Q291-18 147-18Q105-18 64-10.50Q23-3 7 5L44 176Q49 170 73 162.50Q97 155 120 155Q144 155 164.50 168.50Q185 182 191 207Q194 225 189 245Z"  horiz-adv-x="667" vert-adv-y="1000"  />

      
      <glyph glyph-name="uni0424" unicode="&#x0424;" d="M904 392Q904 292 853 217.50Q802 143 719.50 106Q637 69 537 69L516 69L501 0L287 0L302 71Q176 77 106 147.50Q36 218 36 320Q36 420 87 494.50Q138 569 220.50 606Q303 643 403 643L424 643L439 712L653 712L638 641Q764 635 834 564.50Q904 494 904 392M684 384Q684 478 604 486L550 225L554 225Q615 225 649.50 273Q684 321 684 384M390 487L386 487Q325 487 290.50 439Q256 391 256 328Q256 234 336 226L390 487Z"  horiz-adv-x="937" vert-adv-y="1000"  />

      
      <glyph glyph-name="uni0425" unicode="&#x0425;" d="M800 712L503 377L676 0L429 0L385 111Q363 164 350 217Q332 180 268 102L186 0L-85 0L253 377L89 712L328 712L358 631Q380 570 397 513Q468 619 473 626L539 712L800 712Z"  horiz-adv-x="741" vert-adv-y="1000"  />

      
      <glyph glyph-name="uni0426" unicode="&#x0426;" d="M777 712L666 186L754 186L679-167L476-167L511 0L-7 0L144 712L363 712L252 186L448 186L559 712L777 712Z"  horiz-adv-x="778" vert-adv-y="1000"  />

      
      <glyph glyph-name="uni0427" unicode="&#x0427;" d="M317 258Q189 258 130.50 301.50Q72 345 72 438Q72 486 83 537L121 712L338 712L307 567Q298 528 298 499Q298 464 315.50 446Q333 428 374 428Q396 428 427 433.50Q458 439 467 443L525 712L742 712L590 0L373 0L432 275Q423 271 378 264.50Q333 258 317 258Z"  horiz-adv-x="722" vert-adv-y="1000"  />

      
      <glyph glyph-name="uni0428" unicode="&#x0428;" d="M-18 0L134 712L348 712L236 185L404 185L516 712L731 712L619 185L787 185L899 712L1113 712L961 0L-18 0Z"  horiz-adv-x="1095" vert-adv-y="1000"  />

      
      <glyph glyph-name="uni0429" unicode="&#x0429;" d="M1026-167L823-167L858 0L-6 0L145 712L359 712L247 185L415 185L527 712L742 712L630 185L798 185L910 712L1124 712L1013 186L1101 186L1026-167Z"  horiz-adv-x="1129" vert-adv-y="1000"  />

      
      <glyph glyph-name="uni042A" unicode="&#x042A;" d="M799 275Q799 204 767.50 143Q736 82 682 47Q609 0 466 0L122 0L235 529L52 529L91 712L492 712L444 490L537 490Q660 490 729.50 441.50Q799 393 799 275M589 258Q589 296 566 309.50Q543 323 501 323L408 323L377 173L476 173Q530 173 559.50 190.50Q589 208 589 258Z"  horiz-adv-x="840" vert-adv-y="1000"  />

      
      <glyph glyph-name="uni042B" unicode="&#x042B;" d="M1029 712L877 0L659 0L811 712L1029 712M629 275Q629 204 597.50 143Q566 82 512 47Q439 0 296 0L-18 0L134 712L352 712L304 490L367 490Q490 490 559.50 441.50Q629 393 629 275M419 258Q419 296 396 309.50Q373 323 331 323L268 323L237 173L306 173Q360 173 389.50 190.50Q419 208 419 258Z"  horiz-adv-x="1011" vert-adv-y="1000"  />

      
      <glyph glyph-name="uni042C" unicode="&#x042C;" d="M659 275Q659 204 627.50 143Q596 82 542 47Q469 0 326 0L-18 0L134 712L352 712L304 490L397 490Q520 490 589.50 441.50Q659 393 659 275M449 258Q449 296 426 309.50Q403 323 361 323L268 323L237 173L336 173Q390 173 419.50 190.50Q449 208 449 258Z"  horiz-adv-x="704" vert-adv-y="1000"  />

      
      <glyph glyph-name="uni042D" unicode="&#x042D;" d="M722 409Q722 223 618 103Q514-17 335-17Q197-17 115 54.50Q33 126 33 246Q33 256 34 264L243 264Q246 157 342 157Q443 157 486 285L280 285L314 442L503 442Q496 497 467.50 526.50Q439 556 392 556Q308 556 276 466L58 466Q90 594 181.50 661Q273 728 408 728Q558 728 640 644.50Q722 561 722 409Z"  horiz-adv-x="759" vert-adv-y="1000"  />

      
      <glyph glyph-name="uni042E" unicode="&#x042E;" d="M1059 425Q1059 303 1015.50 204Q972 105 885 44Q798-17 681-17Q543-17 463.50 61Q384 139 379 284L263 284L201 0L-16 0L135 712L353 712L299 463L403 463Q442 585 534.50 657.50Q627 730 757 730Q894 730 976.50 650Q1059 570 1059 425M745 556Q706 556 675 530Q644 504 627 463Q610 422 601.50 378Q593 334 593 293Q593 227 620.50 191.50Q648 156 697 156Q733 156 762.50 183.50Q792 211 808.50 253Q825 295 833.50 338.50Q842 382 842 419Q842 480 819 518Q796 556 745 556Z"  horiz-adv-x="1094" vert-adv-y="1000"  />

      
      <glyph glyph-name="uni042F" unicode="&#x042F;" d="M759 712L607 0L393 0L448 258L389 258L186 0L-80 0L188 300Q87 350 87 473Q87 509 104.50 548.50Q122 588 156.50 625.50Q191 663 253 687.50Q315 712 393 712L759 712M510 552L405 552Q361 552 333 531.50Q305 511 305 468Q305 406 398 406L479 406L510 552Z"  horiz-adv-x="741" vert-adv-y="1000"  />

      
      <glyph glyph-name="uni0430" unicode="&#x0430;" d="M58 358Q68 410 93 445.50Q118 481 156.50 499Q195 517 235.50 524Q276 531 328 531Q574 531 574 395Q574 362 561 304L525 137Q512 72 512 46Q512 18 518 0L319 0Q317 8 317 18Q317 29 319 50Q263-17 154-17Q76-17 31.50 22Q-13 61-13 129Q-13 214 47 255.50Q107 297 223 307Q237 308 262 309.50Q287 311 298 312Q309 313 326.50 315.50Q344 318 351.50 322Q359 326 368.50 332Q378 338 381 347.50Q384 357 384 370Q384 412 319 412Q287 412 270 400Q253 388 243 358L58 358M356 231Q343 222 325.50 217.50Q308 213 283.50 211Q259 209 250 207Q186 195 186 148Q186 100 244 100Q291 100 313 124.50Q335 149 348 199L356 231Z"  horiz-adv-x="630" vert-adv-y="1000"  />

      
      <glyph glyph-name="uni0431" unicode="&#x0431;" d="M384 293Q384 374 318 374Q290 374 269.50 358Q249 342 239 315.50Q229 289 224.50 263Q220 237 220 211Q220 127 285 127Q322 127 345.50 157Q369 187 376.50 221.50Q384 256 384 293M265-15Q161-15 93 54Q25 123 25 225Q25 289 35.50 351.50Q46 414 71.50 482.50Q97 551 148.50 605.50Q200 660 273 687Q305 699 345 704.50Q385 710 411 716.50Q437 723 454 740L636 740Q628 698 607.50 666.50Q587 635 568 618Q549 601 505.50 587Q462 573 442 569Q422 565 366 556Q361 555 358 554.50Q355 554 351 553.50Q347 553 343 552Q203 529 172 420L175 420Q241 516 372 516Q458 516 520 454Q582 392 582 294Q582 162 489.50 73.50Q397-15 265-15Z"  horiz-adv-x="630" vert-adv-y="1000"  />

      
      <glyph glyph-name="uni0432" unicode="&#x0432;" d="M82 516L398 516Q435 516 462.50 512Q490 508 518 496.50Q546 485 561 460Q576 435 576 396Q576 351 550 318.50Q524 286 482 279Q554 253 554 173Q554 99 499 49Q475 27 442.50 15.50Q410 4 385.50 2Q361 0 318 0L-29 0L82 516M250 399L232 319L309 319Q375 319 375 365Q375 381 363.50 389Q352 397 341.50 398Q331 399 313 399L250 399M211 219L191 122L268 122Q312 122 328 133Q350 149 350 176Q350 217 293 219Q289 219 269 219L211 219Z"  horiz-adv-x="619" vert-adv-y="1000"  />

      
      <glyph glyph-name="uni0433" unicode="&#x0433;" d="M94 516L524 516L492 367L259 367L181 0L-16 0L94 516Z"  horiz-adv-x="500" vert-adv-y="1000"  />

      
      <glyph glyph-name="uni0434" unicode="&#x0434;" d="M542-137L365-137L394 0L108 0L79-137L-95-137L-34 149L19 149Q107 247 165 516L619 516L541 149L603 149L542-137M351 149L398 373L304 373L303 367Q296 326 269 255.50Q242 185 210 149L351 149Z"  horiz-adv-x="648" vert-adv-y="1000"  />

      
      <glyph glyph-name="uni0435" unicode="&#x0435;" d="M552 152Q500-15 277-15Q156-15 86 42.50Q16 100 16 223Q16 359 101 444Q186 529 323 529Q445 529 513.50 466.50Q582 404 582 293Q582 255 574 212L201 212Q200 205 200 198Q200 112 287 112Q341 112 360 152L552 152M217 315L397 315L397 326Q397 360 376 380.50Q355 401 320 401Q283 401 255.50 378.50Q228 356 217 315Z"  horiz-adv-x="630" vert-adv-y="1000"  />

      
      <glyph glyph-name="uni0436" unicode="&#x0436;" d="M827 0L613 0L553 170L511 132L484 0L295 0L326 148L303 177L165 0L-71 0L214 319L77 516L292 516L368 354L370 354L405 516L594 516L559 354L561 354L706 516L946 516L700 299L827 0Z"  horiz-adv-x="906" vert-adv-y="1000"  />

      
      <glyph glyph-name="uni0437" unicode="&#x0437;" d="M326 172Q326 213 251 213Q226 213 214 212L236 316Q260 316 275 317.50Q290 319 307 323.50Q324 328 332.50 339Q341 350 341 368Q341 387 327 398.50Q313 410 290 410Q232 410 217 361L35 361Q59 529 308 529Q541 529 541 401Q541 359 516 326Q491 293 448 278Q485 268 505.50 239.50Q526 211 526 176Q526 77 449 31Q372-15 240-15Q191-15 150-7.50Q109 0 70.50 17.50Q32 35 10 69.50Q-12 104-12 153Q-12 155-11.50 161Q-11 167-11 172L171 172L171 164Q171 108 242 108Q279 108 302.50 124.50Q326 141 326 172Z"  horiz-adv-x="593" vert-adv-y="1000"  />

      
      <glyph glyph-name="uni0438" unicode="&#x0438;" d="M429 516L631 516L521 0L332 0L391 275L388 275L184 0L-18 0L92 516L281 516L224 248L227 248L429 516Z"  horiz-adv-x="648" vert-adv-y="1000"  />

      
      <glyph glyph-name="uni0439" unicode="&#x0439;" d="M550 712Q536 635 483 595Q430 555 358 555Q289 555 247 589Q205 623 205 685Q205 702 207 712L298 712Q297 709 297 704Q297 657 370 657Q440 657 460 712L550 712M429 516L631 516L521 0L332 0L391 275L388 275L184 0L-18 0L92 516L281 516L224 248L227 248L429 516Z"  horiz-adv-x="648" vert-adv-y="1000"  />

      
      <glyph glyph-name="uni043A" unicode="&#x043A;" d="M638 516L403 300L544 0L328 0L262 170L199 113L176 0L-21 0L89 516L281 516L245 346L248 346L408 516L638 516Z"  horiz-adv-x="611" vert-adv-y="1000"  />

      
      <glyph glyph-name="uni043B" unicode="&#x043B;" d="M0 138Q15 138 26.50 148.50Q38 159 47.50 181.50Q57 204 63 223.50Q69 243 77 275Q79 283 80 287Q96 347 132 516L617 516L507 0L311 0L389 367L290 367Q261 235 229 156Q191 66 142 28Q93-10 11-10Q-2-10-23-6.50Q-44-3-58 0L-73 4L-43 145Q-13 138 0 138Z"  horiz-adv-x="630" vert-adv-y="1000"  />

      
      <glyph glyph-name="uni043C" unicode="&#x043C;" d="M231 323L228 323L164 0L-19 0L91 516L334 516L368 215L369 215L530 516L782 516L672 0L489 0L563 323L560 323L385 0L268 0L231 323Z"  horiz-adv-x="800" vert-adv-y="1000"  />

      
      <glyph glyph-name="uni043D" unicode="&#x043D;" d="M398 346L434 516L631 516L521 0L324 0L366 197L221 197L179 0L-18 0L92 516L289 516L253 346L398 346Z"  horiz-adv-x="648" vert-adv-y="1000"  />

      
      <glyph glyph-name="uni043E" unicode="&#x043E;" d="M580 299Q580 159 495.50 71.50Q411-16 270-16Q153-16 82.50 41.50Q12 99 12 216Q12 355 96.50 442Q181 529 322 529Q437 529 508.50 471Q580 413 580 299M314 392Q285 392 263 372.50Q241 353 229.50 322.50Q218 292 212.50 262.50Q207 233 207 207Q207 122 277 122Q306 122 328 141.50Q350 161 361.50 191.50Q373 222 378.50 251.50Q384 281 384 307Q384 345 367 368.50Q350 392 314 392Z"  horiz-adv-x="630" vert-adv-y="1000"  />

      
      <glyph glyph-name="uni043F" unicode="&#x043F;" d="M631 516L521 0L324 0L402 367L257 367L179 0L-18 0L92 516L631 516Z"  horiz-adv-x="648" vert-adv-y="1000"  />

      
      <glyph glyph-name="uni0440" unicode="&#x0440;" d="M279 516L268 462Q328 529 416 529Q499 529 549.50 470.50Q600 412 600 315Q600 256 584 199.50Q568 143 537.50 94.50Q507 46 456 16Q405-14 341-14Q234-14 190 60L142-167L-56-167L88 516L279 516M334 375Q276 375 249.50 328.50Q223 282 223 218Q223 177 242.50 154.50Q262 132 298 132Q349 132 374.50 184Q400 236 400 293Q400 331 382.50 353Q365 375 334 375Z"  horiz-adv-x="648" vert-adv-y="1000"  />

      
      <glyph glyph-name="uni0441" unicode="&#x0441;" d="M549 207Q521 92 454 39Q387-14 271-14Q152-14 81 44Q10 102 10 222Q10 362 94.50 444.50Q179 527 317 527Q432 527 500 473.50Q568 420 568 330L568 321L378 321L378 327Q378 358 360.50 375Q343 392 311 392Q272 392 245.50 358.50Q219 325 210.50 286Q202 247 202 208Q202 116 273 116Q309 116 328 140.50Q347 165 359 207L549 207Z"  horiz-adv-x="593" vert-adv-y="1000"  />

      
      <glyph glyph-name="uni0442" unicode="&#x0442;" d="M185 367L20 367L52 516L578 516L546 367L381 367L303 0L107 0L185 367Z"  horiz-adv-x="556" vert-adv-y="1000"  />

      
      <glyph glyph-name="uni0443" unicode="&#x0443;" d="M583 516L315 3Q278-67 250-100.50Q222-134 178-150.50Q134-167 61-167Q-4-167-53-163L-21-7Q0-10 26-10Q68-10 83.50 0Q99 10 99 37Q99 63 85 126L8 516L208 516L227 358Q242 240 242 169Q262 250 310 361L377 516L583 516Z"  horiz-adv-x="556" vert-adv-y="1000"  />

      
      <glyph glyph-name="uni0444" unicode="&#x0444;" d="M865 325Q865 241 836.50 165.50Q808 90 744.50 37.50Q681-15 594-15Q557-15 527 0Q497 15 486 32L483 32L439-174L248-174L295 43L292 43Q276 20 240.50 2.50Q205-15 170-15Q92-15 49.50 45Q7 105 7 191Q7 275 35.50 350Q64 425 127.50 477Q191 529 278 529Q315 529 345 515Q375 501 386 484L389 484L437 712L628 712L577 473L580 473Q595 495 630.50 512Q666 529 702 529Q780 529 822.50 469.50Q865 410 865 325M670 314Q670 345 655 363.50Q640 382 610 382Q594 382 576.50 374Q559 366 552 354L511 164Q515 153 530.50 143.50Q546 134 561 134Q599 134 625 166Q651 198 660.50 236.50Q670 275 670 314M361 352Q357 363 341.50 372.50Q326 382 311 382Q273 382 247 350Q221 318 211.50 279.50Q202 241 202 202Q202 171 217 152.50Q232 134 262 134Q278 134 295.50 142Q313 150 320 162L361 352Z"  horiz-adv-x="900" vert-adv-y="1000"  />

      
      <glyph glyph-name="uni0445" unicode="&#x0445;" d="M575 516L368 267L498 0L298 0L268 66Q255 97 243 134Q223 102 207 80L146 0L-73 0L161 276L42 516L243 516L268 454Q276 434 283 403Q302 437 314 454L358 516L575 516Z"  horiz-adv-x="556" vert-adv-y="1000"  />

      
      <glyph glyph-name="uni0446" unicode="&#x0446;" d="M568-137L388-137L417 0L-10 0L99 516L296 516L219 151L364 151L441 516L638 516L561 151L629 151L568-137Z"  horiz-adv-x="667" vert-adv-y="1000"  />

      
      <glyph glyph-name="uni0447" unicode="&#x0447;" d="M595 516L485 0L302 0L345 203Q255 173 180 173Q37 173 37 307Q37 338 46 379L75 516L272 516L248 404Q243 377 243 363Q243 335 256.50 323Q270 311 298 311Q330 311 358 327L398 516L595 516Z"  horiz-adv-x="611" vert-adv-y="1000"  />

      
      <glyph glyph-name="uni0448" unicode="&#x0448;" d="M-19 0L91 516L284 516L206 151L323 151L401 516L593 516L515 151L632 151L710 516L903 516L793 0L-19 0Z"  horiz-adv-x="920" vert-adv-y="1000"  />

      
      <glyph glyph-name="uni0449" unicode="&#x0449;" d="M-9 0L100 516L293 516L216 151L333 151L410 516L602 516L525 151L642 151L719 516L912 516L835 151L902 151L841-137L661-137L690 0L-9 0Z"  horiz-adv-x="940" vert-adv-y="1000"  />

      
      <glyph glyph-name="uni044A" unicode="&#x044A;" d="M145 367L11 367L43 516L373 516L339 355L444 355Q533 355 583.50 320Q634 285 634 199Q634 148 611 104Q588 60 549 34Q496 0 392 0L66 0L145 367M433 187Q433 215 416 224.50Q399 234 369 234L313 234L290 125L351 125Q390 125 411.50 138Q433 151 433 187Z"  horiz-adv-x="686" vert-adv-y="1000"  />

      
      <glyph glyph-name="uni044B" unicode="&#x044B;" d="M728 0L536 0L646 516L838 516L728 0M527 199Q527 148 504 104Q481 60 442 34Q389 0 285 0L-20 0L90 516L283 516L249 355L337 355Q426 355 476.50 320Q527 285 527 199M326 187Q326 215 309 224.50Q292 234 262 234L223 234L200 125L244 125Q283 125 304.50 138Q326 151 326 187Z"  horiz-adv-x="853" vert-adv-y="1000"  />

      
      <glyph glyph-name="uni044C" unicode="&#x044C;" d="M549 199Q549 148 526 104Q503 60 464 34Q411 0 307 0L-19 0L91 516L288 516L254 355L359 355Q448 355 498.50 320Q549 285 549 199M348 187Q348 215 331 224.50Q314 234 284 234L228 234L205 125L266 125Q305 125 326.50 138Q348 151 348 187Z"  horiz-adv-x="600" vert-adv-y="1000"  />

      
      <glyph glyph-name="uni044D" unicode="&#x044D;" d="M338 212L210 212L229 310L352 310Q350 397 281 397Q228 397 202 329L11 329Q41 432 107 479.50Q173 527 283 527Q402 527 473 469Q544 411 544 291Q544 151 459.50 68.50Q375-14 237-14Q122-14 54 39.50Q-14 93-14 183L-14 192L176 192L176 186Q176 155 193.50 138Q211 121 243 121Q310 121 338 212Z"  horiz-adv-x="593" vert-adv-y="1000"  />

      
      <glyph glyph-name="uni044E" unicode="&#x044E;" d="M844 299Q844 159 764.50 71.50Q685-16 553-16Q446-16 380 38Q314 92 310 203L218 203L175 0L-18 0L92 516L285 516L247 341L330 341Q360 428 431.50 478.50Q503 529 601 529Q709 529 776.50 471Q844 413 844 299M653 307Q653 392 593 392Q568 392 549 372.50Q530 353 520 322.50Q510 292 505 262.50Q500 233 500 207Q500 122 561 122Q593 122 615.50 156.50Q638 191 645.50 230.50Q653 270 653 307Z"  horiz-adv-x="888" vert-adv-y="1000"  />

      
      <glyph glyph-name="uni044F" unicode="&#x044F;" d="M593 516L483 0L287 0L327 187L300 187L153 0L-86 0L108 217Q35 254 35 343Q35 369 47.50 397.50Q60 426 85 453.50Q110 481 154.50 498.50Q199 516 256 516L593 516M371 400L305 400Q274 400 253.50 385Q233 370 233 339Q233 294 300 294L349 294L371 400Z"  horiz-adv-x="611" vert-adv-y="1000"  />

      
      <glyph glyph-name="uni0451" unicode="&#x0451;" d="M552 152Q500-15 277-15Q156-15 86 42.50Q16 100 16 223Q16 359 101 444Q186 529 323 529Q445 529 513.50 466.50Q582 404 582 293Q582 255 574 212L201 212Q200 205 200 198Q200 112 287 112Q341 112 360 152L552 152M217 315L397 315L397 326Q397 360 376 380.50Q355 401 320 401Q283 401 255.50 378.50Q228 356 217 315M345 712L316 575L141 575L170 712L345 712M574 712L545 575L369 575L399 712L574 712Z"  horiz-adv-x="630" vert-adv-y="1000"  />

      
      <glyph glyph-name="uni0452" unicode="&#x0452;" d="M540 99Q527 37 511-5.50Q495-48 467-90Q439-132 393.50-153.50Q348-175 286-175Q250-175 197-172L228-27Q282-27 303.50 0Q325 27 343 99Q349 122 349 144Q349 200 295 200Q252 200 230 173.50Q208 147 197 93L177 0L-20 0L67 409L22 409L47 529L92 529L131 712L328 712L289 529L485 529L460 409L264 409L237 281Q315 361 404 361Q558 361 558 217Q558 182 549 140L540 99Z"  horiz-adv-x="630" vert-adv-y="1000"  />

      
      <glyph glyph-name="uni0453" unicode="&#x0453;" d="M89 516L524 516L492 367L254 367L176 0L-21 0L89 516M513 712L323 567L192 567L304 712L513 712Z"  horiz-adv-x="500" vert-adv-y="1000"  />

      
      <glyph glyph-name="uni0454" unicode="&#x0454;" d="M345 314L324 215L202 215L202 208Q202 116 273 116Q331 116 356 198L547 198Q519 88 452 37Q385-14 271-14Q152-14 81 44Q10 102 10 222Q10 362 94.50 444.50Q179 527 317 527Q432 527 500 473.50Q568 420 568 330L378 330Q377 359 359.50 375.50Q342 392 311 392Q249 392 220 314L345 314Z"  horiz-adv-x="593" vert-adv-y="1000"  />

      
      <glyph glyph-name="uni0455" unicode="&#x0455;" d="M523 365L344 365Q345 368 345 373Q345 418 285 418Q260 418 244.50 407Q229 396 229 378Q229 373 230.50 368.50Q232 364 234.50 360.50Q237 357 240 354Q243 351 248 349Q253 347 256.50 345.50Q260 344 266 342.50Q272 341 275 340.50Q278 340 284.50 339Q291 338 293 338Q328 332 344 328.50Q360 325 389 317Q418 309 432.50 299Q447 289 464 272.50Q481 256 488 232.50Q495 209 495 178Q495 126 471.50 87.50Q448 49 407.50 28Q367 7 322.50-3Q278-13 228-13Q183-13 143-5.50Q103 2 65 19.50Q27 37 5 71.50Q-17 106-17 155Q-17 157-16.50 162Q-16 167-16 172L166 172L166 166Q166 110 237 110Q302 110 302 151Q302 157 300.50 162.50Q299 168 294.50 172Q290 176 286 179Q282 182 273.50 185Q265 188 258.50 190Q252 192 240 194.50Q228 197 219.50 198.50Q211 200 196 203Q181 206 170 208Q31 235 31 348Q31 399 53.50 436Q76 473 114.50 492.50Q153 512 196 520.50Q239 529 288 529Q523 529 523 380L523 365Z"  horiz-adv-x="556" vert-adv-y="1000"  />

      
      <glyph glyph-name="uni0456" unicode="&#x0456;" d="M291 516L182 0L-16 0L94 516L291 516M333 712L304 574L106 574L135 712L333 712Z"  horiz-adv-x="315" vert-adv-y="1000"  />

      
      <glyph glyph-name="uni0457" unicode="&#x0457;" d="M291 516L182 0L-16 0L94 516L291 516M209 712L180 575L5 575L34 712L209 712M438 712L409 575L233 575L263 712L438 712Z"  horiz-adv-x="315" vert-adv-y="1000"  />

      
      <glyph glyph-name="uni0458" unicode="&#x0458;" d="M292 516L192 44Q178-24 163-61.50Q148-99 120-125Q92-151 51.50-159Q11-167-58-167Q-110-167-140-164L-107-11Q-93-12-72-12Q-19-12-9 36L94 516L292 516M334 712L304 574L105 574L136 712L334 712Z"  horiz-adv-x="315" vert-adv-y="1000"  />

      
      <glyph glyph-name="uni0459" unicode="&#x0459;" d="M852 199Q852 148 829 104Q806 60 767 34Q714 0 610 0L304 0L383 367L294 367Q264 231 233 156Q195 66 146 28Q97-10 15-10Q2-10-19-6.50Q-40-3-54 0L-69 4L-39 145Q-9 138 4 138Q19 138 30.50 148.50Q42 159 51.50 181.50Q61 204 67 223.50Q73 243 81 275Q83 283 84 287Q100 347 136 516L611 516L574 344L659 344Q852 344 852 199M650 182Q650 224 586 224L549 224L527 120L568 120Q607 120 628.50 133Q650 146 650 182Z"  horiz-adv-x="902" vert-adv-y="1000"  />

      
      <glyph glyph-name="uni045A" unicode="&#x045A;" d="M352 224L227 224L179 0L-18 0L92 516L289 516L252 344L377 344L414 516L611 516L574 344L659 344Q851 344 851 199Q851 147 828.50 103Q806 59 767 34Q714 0 610 0L304 0L352 224M650 182Q650 224 585 224L549 224L527 120L568 120Q607 120 628.50 133Q650 146 650 182Z"  horiz-adv-x="902" vert-adv-y="1000"  />

      
      <glyph glyph-name="uni045B" unicode="&#x045B;" d="M519 0L322 0L344 103Q349 126 349 144Q349 200 296 200Q253 200 230.50 173Q208 146 197 93L177 0L-20 0L67 409L22 409L48 529L93 529L132 712L329 712L290 529L486 529L460 409L264 409L237 281Q315 361 404 361Q558 361 558 217Q558 182 549 140L519 0Z"  horiz-adv-x="630" vert-adv-y="1000"  />

      
      <glyph glyph-name="uni045C" unicode="&#x045C;" d="M638 516L403 300L544 0L328 0L262 170L199 113L176 0L-21 0L89 516L281 516L245 346L248 346L408 516L638 516M553 712L363 567L232 567L344 712L553 712Z"  horiz-adv-x="611" vert-adv-y="1000"  />

      
      <glyph glyph-name="uni045E" unicode="&#x045E;" d="M583 516L315 3Q278-67 250-100.50Q222-134 178-150.50Q134-167 61-167Q-4-167-53-163L-21-7Q0-10 26-10Q68-10 83.50 0Q99 10 99 37Q99 63 85 126L8 516L208 516L227 358Q242 240 242 169Q262 250 310 361L377 516L583 516M490 712Q476 635 423 595Q370 555 298 555Q229 555 187 589Q145 623 145 685Q145 702 147 712L238 712Q237 709 237 704Q237 657 310 657Q380 657 400 712L490 712Z"  horiz-adv-x="556" vert-adv-y="1000"  />

      
      <glyph glyph-name="uni045F" unicode="&#x045F;" d="M357 0L328-137L148-137L177 0L-3 0L106 516L303 516L226 151L371 151L448 516L645 516L536 0L357 0Z"  horiz-adv-x="648" vert-adv-y="1000"  />

      
      <glyph glyph-name="uni0490" unicode="&#x0490;" d="M314 529L201 0L-18 0L134 712L483 712L517 872L703 872L630 529L314 529Z"  horiz-adv-x="611" vert-adv-y="1000"  />

      
      <glyph glyph-name="uni0491" unicode="&#x0491;" d="M75 516L348 516L376 647L538 647L478 367L240 367L162 0L-35 0L75 516Z"  horiz-adv-x="500" vert-adv-y="1000"  />

      
      <glyph glyph-name="uni2013" unicode="&#x2013;" d="M499 344L467 187L-33 187L0 344L499 344Z"  horiz-adv-x="500" vert-adv-y="1000"  />

      
      <glyph glyph-name="uni2014" unicode="&#x2014;" d="M999 344L967 187L-36 187L-3 344L999 344Z"  horiz-adv-x="1000" vert-adv-y="1000"  />

      
      <glyph glyph-name="uni2018" unicode="&#x2018;" d="M330 717L310 623Q262 622 238.50 601Q215 580 206 532L290 532L248 335L45 335L80 505Q124 717 319 717L330 717Z"  horiz-adv-x="296" vert-adv-y="1000"  />

      
      <glyph glyph-name="uni2019" unicode="&#x2019;" d="M328 711L293 541Q249 329 54 329L43 329L63 423Q111 424 134.50 445Q158 466 167 514L83 514L125 711L328 711Z"  horiz-adv-x="296" vert-adv-y="1000"  />

      
      <glyph glyph-name="uni201A" unicode="&#x201A;" d="M220 197L185 27Q141-185-54-185L-65-185L-45-91Q3-90 26.50-69Q50-48 59 0L-25 0L17 197L220 197Z"  horiz-adv-x="296" vert-adv-y="1000"  />

      
      <glyph glyph-name="uni201C" unicode="&#x201C;" d="M546 715L528 629Q483 621 461 600Q439 579 429 533L507 533L465 335L286 335L327 522Q348 618 400 664Q452 710 546 715M304 715L286 629Q241 621 219 600Q197 579 187 533L265 533L223 335L44 335L85 522Q106 618 158 664Q210 710 304 715Z"  horiz-adv-x="519" vert-adv-y="1000"  />

      
      <glyph glyph-name="uni201D" unicode="&#x201D;" d="M545 703L504 516Q483 420 431 374Q379 328 285 323L303 409Q348 417 370 438Q392 459 402 505L324 505L366 703L545 703M303 703L262 516Q241 420 189 374Q137 328 43 323L61 409Q106 417 128 438Q150 459 160 505L82 505L124 703L303 703Z"  horiz-adv-x="519" vert-adv-y="1000"  />

      
      <glyph glyph-name="uni201E" unicode="&#x201E;" d="M438 197L398 11Q378-82 325.50-131.50Q273-181 178-182L197-97Q241-89 263.50-66.50Q286-44 295 0L217 0L259 197L438 197M196 197L156 11Q136-82 83.50-131.50Q31-181-64-182L-45-97Q-1-89 21.50-66.50Q44-44 53 0L-25 0L17 197L196 197Z"  horiz-adv-x="519" vert-adv-y="1000"  />

      
      <glyph glyph-name="uni2020" unicode="&#x2020;" d="M508 712L467 524L646 524L612 360L433 360L322-174L130-174L243 360L67 360L102 524L277 524L317 712L508 712Z"  horiz-adv-x="667" vert-adv-y="1000"  />

      
      <glyph glyph-name="uni2021" unicode="&#x2021;" d="M506 712L467 528L646 528L612 368L434 368L391 171L571 171L537 12L358 12L318-173L129-173L168 12L-8 12L26 171L202 171L243 368L68 368L101 528L278 528L318 712L506 712Z"  horiz-adv-x="667" vert-adv-y="1000"  />

      
      <glyph glyph-name="uni2022" unicode="&#x2022;" d="M250 536Q325 537 378 484Q431 431 431 356Q431 281 378.50 228Q326 175 250 175Q175 175 122 228Q69 281 69 356Q69 431 122 483.50Q175 536 250 536Z"  horiz-adv-x="500" vert-adv-y="1000"  />

      
      <glyph glyph-name="uni2026" unicode="&#x2026;" d="M238 198L197 0L-9 0L33 198L238 198M570 198L529 0L323 0L365 198L570 198M903 198L862 0L656 0L698 198L903 198Z"  horiz-adv-x="1000" vert-adv-y="1000"  />

      
      <glyph glyph-name="uni2030" unicode="&#x2030;" d="M699 708L217-20L102-20L584 708L699 708M369 573Q369 484 325.50 418.50Q282 353 198 353Q136 353 101 388Q66 423 66 486Q66 571 110 635.50Q154 700 235 700Q299 700 334 668Q369 636 369 573M235 626Q199 626 179 534Q170 496 170 472Q170 429 200 429Q237 429 256 518Q266 563 266 590Q266 626 235 626M744 210Q744 121 700.50 55.50Q657-10 573-10Q511-10 476 25Q441 60 441 123Q441 208 485 272.50Q529 337 610 337Q674 337 709 305Q744 273 744 210M610 263Q574 263 554 171Q545 133 545 109Q545 66 575 66Q612 66 631 155Q641 200 641 227Q641 263 610 263M1096 210Q1096 121 1052.50 55.50Q1009-10 925-10Q863-10 828 25Q793 60 793 123Q793 208 837 272.50Q881 337 962 337Q1026 337 1061 305Q1096 273 1096 210M962 263Q926 263 906 171Q897 133 897 109Q897 66 927 66Q964 66 983 155Q993 200 993 227Q993 263 962 263Z"  horiz-adv-x="1167" vert-adv-y="1000"  />

      
      <glyph glyph-name="uni2039" unicode="&#x2039;" d="M229 480L197 325L98 256L167 181L138 46L7 187L41 353L229 480Z"  horiz-adv-x="241" vert-adv-y="1000"  />

      
      <glyph glyph-name="uni203A" unicode="&#x203A;" d="M70 481L201 339L167 175L-21 47L10 202L110 271L41 346L70 481Z"  horiz-adv-x="241" vert-adv-y="1000"  />

      
      <glyph glyph-name="uni2116" unicode="&#x2116;" d="M874 285Q874 230 915 230Q948 230 963.50 260Q979 290 979 326Q979 351 968 366Q957 381 938 381Q905 381 889.50 351Q874 321 874 285M948 469Q1024 469 1068 428.50Q1112 388 1112 325Q1112 237 1053.50 190Q995 143 903 143Q831 143 786 182Q741 221 741 286Q741 368 800 418.50Q859 469 948 469M1035 0L687 0L711 113L1059 113L1035 0M341 693L483 308L508 469L556 693L770 693L622 0L413 0L268 372L243 210L198 0L-16 0L132 693L341 693Z"  horiz-adv-x="1167" vert-adv-y="1000"  />

      
      <glyph glyph-name="uni2122" unicode="&#x2122;" d="M208 354L208 624L111 624L111 712L422 712L422 624L324 624L324 354L208 354M474 354L474 712L635 712L701 505L768 712L929 712L929 354L825 354L825 623L738 354L665 354L578 623L578 354L474 354Z"  horiz-adv-x="1000" vert-adv-y="1000"  />

      
      <glyph glyph-name="uni2206" unicode="&#x2206;" d="M492 712L635 0L-56 0L328 712L492 712M175 140L455 140L376 545L175 140Z"  horiz-adv-x="714" vert-adv-y="1000"  />

      
      <glyph glyph-name="uni221A" unicode="&#x221A;" d="M612 786L399-214L227-214L93 79L36 53L-17 167L190 253L290 12L437 786L612 786Z"  horiz-adv-x="600" vert-adv-y="1000"  />

      
      <glyph glyph-name="uni221E" unicode="&#x221E;" d="M608 51Q504 51 418 157Q375 106 332.50 79Q290 52 231 52Q137 52 81.50 111Q26 170 26 262Q26 354 80 411.50Q134 469 226 469Q288 469 331.50 440Q375 411 418 357Q461 412 503 440.50Q545 469 609 469Q702 469 755.50 411Q809 353 809 263Q809 171 755 111Q701 51 608 51M604 328Q557 328 502 258Q555 192 607 192Q636 192 653 211.50Q670 231 670 261Q670 291 652 309.50Q634 328 604 328M227 328Q199 328 181.50 308Q164 288 164 260Q164 230 181.50 211.50Q199 193 229 193Q280 193 332 258Q277 328 227 328Z"  horiz-adv-x="873" vert-adv-y="1000"  />

      
      <glyph glyph-name="uni2248" unicode="&#x2248;" d="M79 273L-17 273Q11 499 150 499Q199 499 262 475Q380 429 411 429Q440 429 457 443.50Q474 458 485 499L582 499Q579 464 568 427Q557 390 537.50 354Q518 318 485.50 295.50Q453 273 413 273Q365 273 272 308Q264 311 246.50 318Q229 325 220.50 328Q212 331 198.50 335.50Q185 340 173.50 341.50Q162 343 151 343Q123 343 106 327.50Q89 312 79 273M79 28L-17 28Q11 254 150 254Q199 254 262 230Q380 184 411 184Q440 184 457 198.50Q474 213 485 254L582 254Q579 219 568 182Q557 145 537.50 109Q518 73 485.50 50.50Q453 28 413 28Q365 28 272 63Q264 66 246.50 73Q229 80 220.50 83Q212 86 198.50 90.50Q185 95 173.50 96.50Q162 98 151 98Q123 98 106 82.50Q89 67 79 28Z"  horiz-adv-x="600" vert-adv-y="1000"  />

      
      <glyph glyph-name="uni2260" unicode="&#x2260;" d="M12 234L198 234L231 301L12 301L12 454L307 454L387 615L515 552L466 454L571 454L571 301L390 301L357 234L571 234L571 82L282 82L196-91L68-28L123 82L12 82L12 234Z"  horiz-adv-x="600" vert-adv-y="1000"  />

      
      <glyph glyph-name="uni2264" unicode="&#x2264;" d="M10 288L10 433L550 588L550 428L233 361L550 283L550 123L10 288M10 97L550 97L550-65L10-65L10 97Z"  horiz-adv-x="600" vert-adv-y="1000"  />

      
      <glyph glyph-name="uni2265" unicode="&#x2265;" d="M563 288L23 123L23 283L340 361L23 428L23 588L563 433L563 288M563-65L23-65L23 97L563 97L563-65Z"  horiz-adv-x="600" vert-adv-y="1000"  />

      
      <glyph glyph-name="uniE000" unicode="&#xE000;" d="M360 349L325 184L13 184L48 349L360 349Z"  horiz-adv-x="407" vert-adv-y="1000"  />

      

  </font>
</defs>
</svg>
