<?xml version="1.0" standalone="no"?>
  <!DOCTYPE svg PUBLIC "-//W3C//DTD SVG 1.1//EN" "http://www.w3.org/Graphics/SVG/1.1/DTD/svg11.dtd" >
  <svg>
  <metadata>
  Created by font-carrier
  </metadata>
  <defs>
  <font id="HelveticaNeueCyr-BoldItalic" horiz-adv-x="1130" vert-adv-y="1130" >
    <font-face
      
      font-family="HelveticaNeueCyr"
      
      font-weight="400"
      
      font-stretch="normal"
      
      units-per-em="1000"
      
      ascent="714"
      
      descent="-198"
      
    />
      <missing-glyph />

      

      
      <glyph glyph-name="uni21" unicode="&#x21;" d="M181 148L150 0L-2 0L30 148L181 148M299 712L258 521L154 214L84 214L109 519L150 712L299 712Z"  horiz-adv-x="296" vert-adv-y="1000"  />

      
      <glyph glyph-name="uni22" unicode="&#x22;" d="M192 375L124 375L167 694L271 694L192 375M366 375L298 375L341 694L446 694L366 375Z"  horiz-adv-x="481" vert-adv-y="1000"  />

      
      <glyph glyph-name="uni23" unicode="&#x23;" d="M141 0L43 0L84 192L-7 192L12 276L103 276L133 417L42 417L61 502L152 502L193 694L291 694L250 502L358 502L400 694L498 694L456 502L547 502L529 417L438 417L407 276L498 276L480 192L389 192L347 0L249 0L291 192L182 192L141 0M309 276L340 417L231 417L201 276L309 276Z"  horiz-adv-x="556" vert-adv-y="1000"  />

      
      <glyph glyph-name="uni24" unicode="&#x24;" d="M392 787L375 708Q456 699 509.50 655.50Q563 612 563 534Q563 530 562.50 520.50Q562 511 562 505L429 505Q430 512 430 523Q430 557 409.50 579Q389 601 353 605L313 416Q419 391 469 344.50Q519 298 519 225Q519 116 439.50 51.50Q360-13 247-13L222-13L204-100L156-100L175-12Q81-5 24 49.50Q-33 104-33 186Q-33 208-32 221L110 221Q108 203 108 202Q108 111 198 96L243 308Q198 321 169.50 332.50Q141 344 110 364.50Q79 385 64 417Q49 449 49 492Q49 591 120.50 651Q192 711 309 711Q320 711 328 710L344 787L392 787M268 430L306 609L299 609Q249 609 217.50 581.50Q186 554 186 510Q186 491 192 477.50Q198 464 211.50 455Q225 446 235.50 441.50Q246 437 268 430M288 294L244 92Q246 92 249 91.50Q252 91 253 91Q306 91 341.50 123Q377 155 377 203Q377 238 356 259Q335 280 288 294Z"  horiz-adv-x="556" vert-adv-y="1000"  />

      
      <glyph glyph-name="uni25" unicode="&#x25;" d="M780 719L265-27L171-27L687 719L780 719M727 372Q801 372 842 333Q883 294 883 224Q883 131 831 57Q780-15 682-15Q614-15 575.50 24Q537 63 537 132Q537 235 591.50 303.50Q646 372 727 372M783 238Q783 267 768.50 283.50Q754 300 729 300Q694 300 675 270Q660 248 648 200Q636 152 636 116Q636 88 650.50 72Q665 56 690 56Q728 56 749 96Q762 121 772.50 164.50Q783 208 783 238M265 703Q339 703 380 664Q421 625 421 555Q421 462 369 388Q318 316 220 316Q152 316 113.50 355Q75 394 75 463Q75 566 129.50 634.50Q184 703 265 703M321 569Q321 598 306.50 614.50Q292 631 267 631Q232 631 213 601Q198 579 186 531Q174 483 174 447Q174 419 188.50 403Q203 387 228 387Q266 387 287 427Q300 452 310.50 495.50Q321 539 321 569Z"  horiz-adv-x="963" vert-adv-y="1000"  />

      
      <glyph glyph-name="uni26" unicode="&#x26;" d="M637 342Q617 232 525 140L615 0L460 0L426 56Q342-15 238-15Q140-15 79 41Q18 97 18 186Q18 332 209 409Q182 453 172.50 481Q163 509 163 542Q163 619 218 669Q273 719 358 719Q439 719 491 674.50Q543 630 543 561Q543 501 505 455Q467 409 381 366L458 242Q492 276 510 342L637 342M326 452Q427 502 427 560Q427 587 408.50 603.50Q390 620 361 620Q329 620 308 599.50Q287 579 287 547Q287 518 326 452M271 314Q238 298 216 285Q194 272 173.50 245.50Q153 219 153 189Q153 151 178.50 126Q204 101 244 101Q309 101 363 158L271 314Z"  horiz-adv-x="685" vert-adv-y="1000"  />

      
      <glyph glyph-name="uni27" unicode="&#x27;" d="M175 375L110 375L151 694L258 694L175 375Z"  horiz-adv-x="278" vert-adv-y="1000"  />

      
      <glyph glyph-name="uni28" unicode="&#x28;" d="M379 717Q158 436 158 104Q158-50 196-183L87-183Q25-22 25 146Q25 300 87 446.50Q149 593 257 717L379 717Z"  horiz-adv-x="296" vert-adv-y="1000"  />

      
      <glyph glyph-name="uni29" unicode="&#x29;" d="M181 717Q243 566 243 391Q243 88 12-183L-110-183Q110 100 110 433Q110 572 73 717L181 717Z"  horiz-adv-x="296" vert-adv-y="1000"  />

      
      <glyph glyph-name="uni2a" unicode="&#x2a;" d="M312 714L289 587L410 609L424 531L305 513L361 407L289 369L234 478L148 381L90 437L180 529L71 581L106 653L214 597L232 717L312 714Z"  horiz-adv-x="407" vert-adv-y="1000"  />

      
      <glyph glyph-name="uni2b" unicode="&#x2b;" d="M223 0L223 209L17 209L17 310L223 310L223 519L331 519L331 310L537 310L537 209L331 209L331 0L223 0Z"  horiz-adv-x="600" vert-adv-y="1000"  />

      
      <glyph glyph-name="uni2c" unicode="&#x2c;" d="M176 156L148 25Q128-72 84.50-118.50Q41-165-50-166L-35-96Q9-89 28.50-67.50Q48-46 56 0L-15 0L18 156L176 156Z"  horiz-adv-x="278" vert-adv-y="1000"  />

      
      <glyph glyph-name="uni2d" unicode="&#x2d;" d="M352 334L325 211L24 211L51 334L352 334Z"  horiz-adv-x="407" vert-adv-y="1000"  />

      
      <glyph glyph-name="uni2e" unicode="&#x2e;" d="M179 156L145 0L-17 0L17 156L179 156Z"  horiz-adv-x="278" vert-adv-y="1000"  />

      
      <glyph glyph-name="uni2f" unicode="&#x2f;" d="M468 729L47-21L-81-21L341 729L468 729Z"  horiz-adv-x="389" vert-adv-y="1000"  />

      
      <glyph glyph-name="uni30" unicode="&#x30;" d="M328 703Q435 703 495 637Q555 571 555 452Q555 375 535.50 296.50Q516 218 478 147.50Q440 77 374 32.50Q308-12 226-12Q116-12 58 58.50Q0 129 0 242Q0 302 11.50 364.50Q23 427 49.50 488Q76 549 113 596.50Q150 644 206 673.50Q262 703 328 703M419 464Q419 590 320 590Q254 590 213 525Q179 471 158 385Q137 299 137 229Q137 167 163 134Q189 101 239 101Q301 101 341 162Q374 215 396.50 300Q419 385 419 464Z"  horiz-adv-x="556" vert-adv-y="1000"  />

      
      <glyph glyph-name="uni31" unicode="&#x31;" d="M469 699L320 0L171 0L273 478L265 477Q199 469 132 469L100 469L123 574Q212 576 266 605Q320 634 354 699L469 699Z"  horiz-adv-x="556" vert-adv-y="1000"  />

      
      <glyph glyph-name="uni32" unicode="&#x32;" d="M505 120L477 0L-44 0Q-40 43-29.50 77.50Q-19 112 3 142Q25 172 44 192.50Q63 213 102.50 239Q142 265 169 280.50Q196 296 251 325Q295 349 318.50 363Q342 377 367.50 398Q393 419 403.50 442Q414 465 414 493Q414 535 386 560Q358 585 311 585Q251 585 218 547Q185 509 178 447L44 447Q55 566 126.50 635Q198 704 321 704Q429 704 493.50 649.50Q558 595 558 504Q558 454 540 413.50Q522 373 481 337.50Q440 302 413 284.50Q386 267 330 235Q326 232 323.50 230.50Q321 229 318 228Q194 157 155 120L505 120Z"  horiz-adv-x="556" vert-adv-y="1000"  />

      
      <glyph glyph-name="uni33" unicode="&#x33;" d="M115 239Q114 229 114 217Q114 164 145.50 134.50Q177 105 234 105Q291 105 328 139Q365 173 365 227Q365 316 249 316Q232 316 214 315L234 414L281 414Q335 414 372.50 436.50Q410 459 410 510Q410 548 383 569.50Q356 591 309 591Q202 591 181 476L48 476Q65 586 135.50 645.50Q206 705 321 705Q423 705 485 656.50Q547 608 547 529Q547 467 512 425.50Q477 384 416 367Q461 353 486 317Q511 281 511 229Q511 116 426 51Q341-14 225-14Q112-14 45 44.50Q-22 103-22 200Q-22 212-19 239L115 239Z"  horiz-adv-x="556" vert-adv-y="1000"  />

      
      <glyph glyph-name="uni34" unicode="&#x34;" d="M541 274L516 160L423 160L390 0L254 0L287 160L-34 160L-6 286L400 701L536 701L448 274L541 274M311 274L366 536L114 274L311 274Z"  horiz-adv-x="556" vert-adv-y="1000"  />

      
      <glyph glyph-name="uni35" unicode="&#x35;" d="M556 694L531 573L232 573L187 430Q240 469 314 469Q407 469 463.50 412.50Q520 356 520 264Q520 143 436.50 65Q353-13 234-13Q127-13 54 37Q-19 87-19 189Q-19 197-18 204L120 204L120 200Q120 155 151 128Q182 101 234 101Q297 101 337 143Q377 185 377 250Q377 304 346 335Q315 366 261 366Q188 366 148 309L21 309L142 694L556 694Z"  horiz-adv-x="556" vert-adv-y="1000"  />

      
      <glyph glyph-name="uni36" unicode="&#x36;" d="M574 518L437 518Q428 599 345 599Q226 599 168 394Q230 462 322 462Q414 462 471 405.50Q528 349 528 257Q528 141 450.50 64Q373-13 256-13Q141-13 76.50 59Q12 131 12 258Q12 338 33 415Q54 492 94.50 558Q135 624 202.50 664.50Q270 705 355 705Q454 705 514 654Q574 603 574 518M276 361Q221 361 185 320.50Q149 280 149 219Q149 165 180 132.50Q211 100 263 100Q317 100 353.50 142Q390 184 390 246Q390 299 359.50 330Q329 361 276 361Z"  horiz-adv-x="556" vert-adv-y="1000"  />

      
      <glyph glyph-name="uni37" unicode="&#x37;" d="M592 694L567 578Q303 320 224 0L65 0Q100 147 198 306Q296 465 412 566L69 566L96 694L592 694Z"  horiz-adv-x="556" vert-adv-y="1000"  />

      
      <glyph glyph-name="uni38" unicode="&#x38;" d="M415 368Q467 351 495.50 311Q524 271 524 215Q524 111 442.50 50Q361-11 243-11Q129-11 55.50 40Q-18 91-18 193Q-18 265 29 315.50Q76 366 155 377Q68 418 68 510Q68 597 136 651Q204 705 313 705Q421 705 485 657.50Q549 610 549 529Q549 467 512.50 423Q476 379 415 368M308 602Q257 602 226.50 575Q196 548 196 502Q196 460 224.50 436.50Q253 413 304 413Q357 413 387 440Q417 467 418 514Q418 556 389.50 579Q361 602 308 602M260 321Q197 321 160 288Q123 255 123 199Q123 150 155.50 122Q188 94 246 94Q308 94 345 128.50Q382 163 382 219Q382 268 350 294.50Q318 321 260 321Z"  horiz-adv-x="556" vert-adv-y="1000"  />

      
      <glyph glyph-name="uni39" unicode="&#x39;" d="M-10 177L121 177Q130 93 218 93Q260 93 291.50 111Q323 129 341.50 162Q360 195 370.50 226.50Q381 258 389 300Q330 231 234 231Q143 231 87.50 288Q32 345 32 438Q32 554 110.50 630Q189 706 308 706Q420 706 483 637Q546 568 546 444Q546 363 527.50 286Q509 209 471.50 140Q434 71 367.50 29Q301-13 214-13Q109-13 49.50 37.50Q-10 88-10 177M299 592Q244 592 206 549.50Q168 507 168 446Q168 394 197 364Q226 334 276 334Q334 334 371.50 374.50Q409 415 409 478Q409 530 379 561Q349 592 299 592Z"  horiz-adv-x="556" vert-adv-y="1000"  />

      
      <glyph glyph-name="uni3a" unicode="&#x3a;" d="M179 156L145 0L-17 0L17 156L179 156M251 509L217 353L55 353L89 509L251 509Z"  horiz-adv-x="278" vert-adv-y="1000"  />

      
      <glyph glyph-name="uni3b" unicode="&#x3b;" d="M176 156L148 25Q128-72 84.50-118.50Q41-165-50-166L-35-96Q9-89 28.50-67.50Q48-46 56 0L-15 0L18 156L176 156M251 509L217 353L55 353L89 509L251 509Z"  horiz-adv-x="278" vert-adv-y="1000"  />

      
      <glyph glyph-name="uni3c" unicode="&#x3c;" d="M12 207L12 312L532 512L532 390L170 260L532 130L532 6L12 207Z"  horiz-adv-x="600" vert-adv-y="1000"  />

      
      <glyph glyph-name="uni3d" unicode="&#x3d;" d="M24 308L24 420L544 420L544 308L24 308M24 99L24 211L544 211L544 99L24 99Z"  horiz-adv-x="600" vert-adv-y="1000"  />

      
      <glyph glyph-name="uni3e" unicode="&#x3e;" d="M560 207L40 6L40 130L402 260L40 390L40 512L560 312L560 207Z"  horiz-adv-x="600" vert-adv-y="1000"  />

      
      <glyph glyph-name="uni3f" unicode="&#x3f;" d="M313 148L282 0L130 0L161 148L313 148M317 216L185 216Q195 286 221 329Q247 372 305 405Q307 406 323.50 415.50Q340 425 344.50 427.50Q349 430 363 439Q377 448 382 453.50Q387 459 397 469Q407 479 410.50 487Q414 495 417.50 506.50Q421 518 421 530Q421 565 397.50 586Q374 607 334 607Q280 607 251.50 573Q223 539 216 486L74 486Q86 596 158.50 660.50Q231 725 343 725Q447 725 509 676.50Q571 628 571 546Q571 513 561.50 484.50Q552 456 539.50 437Q527 418 501.50 398Q476 378 458 366.50Q440 355 406 336Q362 311 345 288.50Q328 266 317 216Z"  horiz-adv-x="574" vert-adv-y="1000"  />

      
      <glyph glyph-name="uni40" unicode="&#x40;" d="M694 130L723 90Q645 33 573 8Q501-17 417-17Q250-17 143 82Q30 186 30 346Q30 508 146 618.50Q262 729 432 729Q581 729 675.50 645Q770 561 770 429Q770 325 708 245.50Q646 166 564 166Q525 166 502 185.50Q479 205 479 239Q479 251 481 259Q433 166 343 166Q282 166 244.50 208.50Q207 251 207 319Q207 416 267.50 488.50Q328 561 408 561Q490 561 521 493L535 545L620 545L555 322Q545 286 545 268Q545 228 586 228Q635 228 674.50 292Q714 356 714 434Q714 542 636 609.50Q558 677 433 677Q284 677 185 582Q86 487 86 343Q86 207 179.50 120.50Q273 34 420 34Q562 34 694 130M490 434Q490 463 473.50 481.50Q457 500 429 500Q377 500 342 435Q307 370 307 314Q307 273 323.50 250.50Q340 228 370 228Q405 228 434.50 268Q464 308 477 354.50Q490 401 490 434Z"  horiz-adv-x="800" vert-adv-y="1000"  />

      
      <glyph glyph-name="uni41" unicode="&#x41;" d="M506 712L625 0L469 0L445 159L180 159L89 0L-77 0L345 712L506 712M241 274L432 274L393 544L241 274Z"  horiz-adv-x="685" vert-adv-y="1000"  />

      
      <glyph glyph-name="uni42" unicode="&#x42;" d="M148 712L418 712Q462 712 490.50 710.50Q519 709 558.50 700Q598 691 621.50 674Q645 657 662 625Q679 593 679 547Q679 482 643 436Q607 390 546 378Q648 344 648 233Q648 158 603.50 95.50Q559 33 487 14Q435 0 327 0L-3 0L148 712M274 591L238 422L381 422Q411 422 433 425.50Q455 429 477.50 438.50Q500 448 511.50 469Q523 490 523 521Q523 542 514 556Q505 570 495 577Q485 584 464 587Q443 590 433 590.50Q423 591 400 591L274 591M216 317L174 122L322 122Q359 122 383 125Q407 128 436 137.50Q465 147 480 171Q495 195 495 232Q495 253 489.50 269Q484 285 469.50 294Q455 303 446 308Q437 313 413 315Q389 317 382 317Q375 317 348 317L216 317Z"  horiz-adv-x="722" vert-adv-y="1000"  />

      
      <glyph glyph-name="uni43" unicode="&#x43;" d="M687 255Q664 128 572 55.50Q480-17 347-17Q204-17 124 66Q44 149 44 297Q44 478 149.50 603Q255 728 433 728Q561 728 638.50 660Q716 592 716 480L716 465L565 465Q562 535 528 568Q494 601 423 601Q368 601 323.50 572.50Q279 544 253 498.50Q227 453 213.50 401.50Q200 350 200 298Q200 209 241.50 159Q283 109 357 109Q423 109 468.50 147Q514 185 531 255L687 255Z"  horiz-adv-x="741" vert-adv-y="1000"  />

      
      <glyph glyph-name="uni44" unicode="&#x44;" d="M147 712L331 712Q431 712 471.50 707.50Q512 703 551 689Q624 662 666 590.50Q708 519 708 422Q708 340 681 262Q654 184 606 128Q539 49 460 24.50Q381 0 259 0L-3 0L147 712M274 582L178 129L272 129Q330 129 371 137Q412 145 447 172Q494 208 523 274.50Q552 341 552 413Q552 502 506.50 542Q461 582 370 582L274 582Z"  horiz-adv-x="741" vert-adv-y="1000"  />

      
      <glyph glyph-name="uni45" unicode="&#x45;" d="M693 712L667 585L280 585L247 428L606 428L580 306L221 306L183 130L578 130L550 0L1 0L152 712L693 712Z"  horiz-adv-x="667" vert-adv-y="1000"  />

      
      <glyph glyph-name="uni46" unicode="&#x46;" d="M655 712L628 581L275 581L239 415L547 415L521 292L213 292L151 0L-5 0L146 712L655 712Z"  horiz-adv-x="593" vert-adv-y="1000"  />

      
      <glyph glyph-name="uni47" unicode="&#x47;" d="M718 384L638 0L538 0L538 71Q463-17 330-17Q191-17 115 66.50Q39 150 39 290Q39 477 147.50 602Q256 727 442 727Q567 727 647 663Q727 599 727 477L577 477Q568 599 433 599Q373 599 326 571Q279 543 251.50 497.50Q224 452 209.50 399Q195 346 195 290Q195 201 238.50 153Q282 105 362 105Q513 105 556 269L392 269L417 384L718 384Z"  horiz-adv-x="759" vert-adv-y="1000"  />

      
      <glyph glyph-name="uni48" unicode="&#x48;" d="M749 712L598 0L442 0L507 307L217 307L152 0L-4 0L147 712L303 712L245 439L535 439L593 712L749 712Z"  horiz-adv-x="741" vert-adv-y="1000"  />

      
      <glyph glyph-name="uni49" unicode="&#x49;" d="M303 712L152 0L-4 0L147 712L303 712Z"  horiz-adv-x="296" vert-adv-y="1000"  />

      
      <glyph glyph-name="uni4a" unicode="&#x4a;" d="M568 712L472 258Q460 201 449.50 165.50Q439 130 418.50 91.50Q398 53 371.50 32Q345 11 302.50-3Q260-17 203-17Q102-17 45 29.50Q-12 76-12 160Q-12 197 1 266L145 266Q132 199 132 180Q132 145 152 126Q172 107 208 107Q231 107 248 115.50Q265 124 274.50 133Q284 142 292.50 164.50Q301 187 303.50 197.50Q306 208 312 237L412 712L568 712Z"  horiz-adv-x="556" vert-adv-y="1000"  />

      
      <glyph glyph-name="uni4b" unicode="&#x4b;" d="M775 712L433 419L651 0L475 0L312 320L200 225L152 0L-3 0L148 712L303 712L242 420L569 712L775 712Z"  horiz-adv-x="722" vert-adv-y="1000"  />

      
      <glyph glyph-name="uni4c" unicode="&#x4c;" d="M306 712L183 132L531 132L503 0L-1 0L150 712L306 712Z"  horiz-adv-x="574" vert-adv-y="1000"  />

      
      <glyph glyph-name="uni4d" unicode="&#x4d;" d="M-5 0L150 712L367 712L420 197L696 712L918 712L764 0L617 0L747 567L443 0L323 0L253 568L145 0L-5 0Z"  horiz-adv-x="907" vert-adv-y="1000"  />

      
      <glyph glyph-name="uni4e" unicode="&#x4e;" d="M-7 0L145 712L307 712L502 206L605 712L752 712L598 0L441 0L244 501L141 0L-7 0Z"  horiz-adv-x="741" vert-adv-y="1000"  />

      
      <glyph glyph-name="uni4f" unicode="&#x4f;" d="M424 727Q574 727 659 646.50Q744 566 744 423Q744 235 637 108.50Q530-18 347-18Q202-18 120 66Q38 150 38 298Q38 483 148 605Q258 727 424 727M420 600Q347 600 293 550.50Q239 501 216 434Q193 367 193 296Q193 208 237 158Q281 108 358 108Q432 108 486 159.50Q540 211 563 280Q586 349 586 420Q586 506 543 553Q500 600 420 600Z"  horiz-adv-x="778" vert-adv-y="1000"  />

      
      <glyph glyph-name="uni50" unicode="&#x50;" d="M137 712L414 712Q489 712 539 698Q597 681 631.50 629.50Q666 578 666 510Q666 444 636 386.50Q606 329 555 297Q490 256 349 256L196 256L141 0L-14 0L137 712M265 585L222 379L381 379Q441 379 477.50 407Q514 435 514 495Q514 525 503.50 544Q493 563 472 571.50Q451 580 431 582.50Q411 585 380 585L265 585Z"  horiz-adv-x="667" vert-adv-y="1000"  />

      
      <glyph glyph-name="uni51" unicode="&#x51;" d="M682-10L598-79L510 19Q442-19 346-19Q204-19 121 66Q38 151 38 296Q37 484 149 605.50Q261 727 434 727Q579 727 662.50 644.50Q746 562 746 419Q746 321 709.50 232Q673 143 602 79L682-10M446 258L510 186Q589 290 589 416Q589 504 546.50 552Q504 600 427 600Q327 600 261 513Q195 426 195 295Q195 209 238 158.50Q281 108 355 108Q388 108 423 121L363 188L446 258Z"  horiz-adv-x="778" vert-adv-y="1000"  />

      
      <glyph glyph-name="uni52" unicode="&#x52;" d="M142 712L440 712Q517 712 564 702Q626 688 660 643Q694 598 694 530Q694 452 650 398.50Q606 345 532 333Q605 302 605 213Q605 188 602.50 138.50Q600 89 600 64Q600 22 610 0L455 0Q448 20 448 50Q448 74 451.50 121Q455 168 455 191Q455 245 428 262Q401 279 340 279L205 279L146 0L-8 0L142 712M271 589L229 391L376 391Q411 391 436 395Q461 399 486 410Q511 421 524 445Q537 469 537 505Q537 556 504.50 572.50Q472 589 413 589L271 589Z"  horiz-adv-x="722" vert-adv-y="1000"  />

      
      <glyph glyph-name="uni53" unicode="&#x53;" d="M629 500L481 500Q477 560 448 584.50Q419 609 354 609Q298 609 264.50 585Q231 561 231 521Q231 511 233.50 502Q236 493 241.50 486Q247 479 252 473.50Q257 468 266.50 462.50Q276 457 282 454Q288 451 300.50 447Q313 443 318.50 441.50Q324 440 337 436.50Q350 433 353 432Q466 401 507 376Q591 325 591 219Q591 139 545 84.50Q499 30 433.50 8Q368-14 289-14Q229-14 179.50-1.50Q130 11 89 37Q48 63 25.50 110Q3 157 3 220L3 237L156 237L156 227Q156 105 304 105Q366 105 403 132Q440 159 440 205Q440 223 432.50 237Q425 251 416.50 259.50Q408 268 390.50 276Q373 284 363 287Q353 290 332 296Q219 328 179 350Q82 402 82 506Q82 605 158 665Q234 725 359 725Q490 725 559.50 669.50Q629 614 629 511L629 500Z"  horiz-adv-x="648" vert-adv-y="1000"  />

      
      <glyph glyph-name="uni54" unicode="&#x54;" d="M678 712L651 583L434 583L310 0L154 0L278 583L55 583L82 712L678 712Z"  horiz-adv-x="611" vert-adv-y="1000"  />

      
      <glyph glyph-name="uni55" unicode="&#x55;" d="M751 712L664 297Q647 217 624.50 163.50Q602 110 564 68Q526 26 468 6.50Q410-13 327-13Q272-13 224-2Q176 9 133.50 32Q91 55 66 98.50Q41 142 41 200Q41 235 56 306L142 712L297 712L214 318Q199 249 199 220Q199 171 234 142.50Q269 114 331 114Q354 114 373.50 118Q393 122 407.50 127Q422 132 435 144Q448 156 456.50 164Q465 172 473.50 190.50Q482 209 486 218Q490 227 496.50 251Q503 275 504.50 283.50Q506 292 512 320Q515 333 516 339L596 712L751 712Z"  horiz-adv-x="741" vert-adv-y="1000"  />

      
      <glyph glyph-name="uni56" unicode="&#x56;" d="M72 712L229 712L277 178L548 712L711 712L331 0L154 0L72 712Z"  horiz-adv-x="630" vert-adv-y="1000"  />

      
      <glyph glyph-name="uni57" unicode="&#x57;" d="M73 712L229 712L241 191L467 712L616 712L637 193L852 712L1012 712L678 0L522 0L503 510L280 0L122 0L73 712Z"  horiz-adv-x="944" vert-adv-y="1000"  />

      
      <glyph glyph-name="uni58" unicode="&#x58;" d="M727 712L432 368L609 0L436 0L324 252L120 0L-70 0L255 375L87 712L257 712L360 481L542 712L727 712Z"  horiz-adv-x="667" vert-adv-y="1000"  />

      
      <glyph glyph-name="uni59" unicode="&#x59;" d="M718 712L368 270L311 0L158 0L216 276L43 712L204 712L310 410L532 712L718 712Z"  horiz-adv-x="648" vert-adv-y="1000"  />

      
      <glyph glyph-name="uni5a" unicode="&#x5a;" d="M684 712L658 587L187 130L585 130L558 0L-44 0L-17 130L451 583L94 583L122 712L684 712Z"  horiz-adv-x="648" vert-adv-y="1000"  />

      
      <glyph glyph-name="uni5b" unicode="&#x5b;" d="M414 717L391 608L262 608L119-64L248-64L225-173L-34-173L155 717L414 717Z"  horiz-adv-x="333" vert-adv-y="1000"  />

      
      <glyph glyph-name="uni5c" unicode="&#x5c;" d="M468-21L340-21L-81 729L46 729L468-21Z"  horiz-adv-x="389" vert-adv-y="1000"  />

      
      <glyph glyph-name="uni5d" unicode="&#x5d;" d="M79 717L338 717L149-173L-110-173L-87-64L42-64L185 608L56 608L79 717Z"  horiz-adv-x="333" vert-adv-y="1000"  />

      
      <glyph glyph-name="uni5e" unicode="&#x5e;" d="M67 268L243 694L357 694L533 268L414 268L297 556L186 268L67 268Z"  horiz-adv-x="600" vert-adv-y="1000"  />

      
      <glyph glyph-name="uni5f" unicode="&#x5f;" d="M0-125L0-75L500-75L500-125L0-125Z"  horiz-adv-x="500" vert-adv-y="1000"  />

      
      <glyph glyph-name="uni60" unicode="&#x60;" d="M228 583L131 583L-11 727L141 727L228 583Z"  horiz-adv-x="259" vert-adv-y="1000"  />

      
      <glyph glyph-name="uni61" unicode="&#x61;" d="M58 360Q90 530 307 530Q407 530 463.50 496Q520 462 520 402Q520 367 507 308L466 122Q454 69 454 37Q454 15 458 0L318 0Q317 9 317 19Q317 37 319 51Q258-16 156-16Q80-16 35 22.50Q-10 61-10 126Q-10 173 10 207Q30 241 66.50 260.50Q103 280 144 290Q185 300 238 304Q326 311 346 318Q384 333 384 379Q384 435 296 435Q252 435 227.50 417.50Q203 400 191 360L58 360M358 248Q352 243 343.50 239.50Q335 236 329.50 234Q324 232 312 230Q300 228 297 227.50Q294 227 279 226L264 224Q232 221 215 217.50Q198 214 175.50 205.50Q153 197 143 181Q133 165 133 141Q133 110 154 92.50Q175 75 212 75Q317 75 346 196L358 248Z"  horiz-adv-x="574" vert-adv-y="1000"  />

      
      <glyph glyph-name="uni62" unicode="&#x62;" d="M278 712L224 459Q288 529 379 529Q466 529 517 472Q568 415 568 317Q568 232 538.50 158.50Q509 85 445.50 35Q382-15 296-15Q174-15 136 81L120 0L-15 0L137 712L278 712M426 306Q426 362 399.50 392Q373 422 323 422Q273 422 236.50 385Q200 348 185.50 300.50Q171 253 171 204Q171 154 199 124Q227 94 274 94Q346 94 386 161.50Q426 229 426 306Z"  horiz-adv-x="611" vert-adv-y="1000"  />

      
      <glyph glyph-name="uni63" unicode="&#x63;" d="M508 188Q455-16 252-16Q13-16 13 209Q13 346 93 437.50Q173 529 309 529Q407 529 469.50 480.50Q532 432 532 337L395 337Q395 426 304 426Q252 426 216 388.50Q180 351 166.50 303.50Q153 256 153 205Q153 87 256 87Q338 87 368 188L508 188Z"  horiz-adv-x="556" vert-adv-y="1000"  />

      
      <glyph glyph-name="uni64" unicode="&#x64;" d="M635 712L485 0L350 0L365 66Q336 24 298.50 5Q261-14 206-14Q112-14 61.50 42Q11 98 11 196Q11 258 29 317Q47 376 80.50 424Q114 472 167 501Q220 530 285 530Q398 530 438 446L495 712L635 712M305 419Q253 419 217.50 383Q182 347 168 300.50Q154 254 154 203Q154 151 180 123Q206 95 254 95Q305 95 342 132.50Q379 170 393.50 218.50Q408 267 408 317Q408 364 380 391.50Q352 419 305 419Z"  horiz-adv-x="611" vert-adv-y="1000"  />

      
      <glyph glyph-name="uni65" unicode="&#x65;" d="M504 157Q479 69 410.50 26Q342-17 246-17Q133-17 71.50 42.50Q10 102 10 214Q10 352 92.50 441Q175 530 303 530Q410 530 472 469.50Q534 409 534 305Q534 274 526 223L146 223Q145 212 145 199Q145 144 174 113.50Q203 83 255 83Q334 83 365 157L504 157M160 309L400 309L400 324Q400 374 373 402Q346 430 299 430Q249 430 212 398Q175 366 160 309Z"  horiz-adv-x="574" vert-adv-y="1000"  />

      
      <glyph glyph-name="uni66" unicode="&#x66;" d="M368 516L348 418L248 418L159 0L17 0L106 418L21 418L43 516L127 516L132 537Q143 584 153.50 612Q164 640 184.50 666.50Q205 693 238 704.50Q271 716 320 716Q352 716 418 710L397 608Q373 611 348 611Q310 611 296 594Q282 577 271 536L266 516L368 516Z"  horiz-adv-x="352" vert-adv-y="1000"  />

      
      <glyph glyph-name="uni67" unicode="&#x67;" d="M587 516L482 26Q455-99 386-146Q317-193 206-193Q101-193 40.50-151Q-20-109-20-36L-20-27L122-27Q126-101 216-101Q250-101 273.50-91.50Q297-82 311-60.50Q325-39 332-19.50Q339 0 348 35L360 83Q305 15 211 15Q124 15 71 71.50Q18 128 18 220Q18 343 88.50 436.50Q159 530 278 530Q394 530 436 436L452 516L587 516M404 314Q404 366 377 395Q350 424 302 424Q234 424 195.50 362Q157 300 157 227Q157 175 183.50 145Q210 115 257 115Q318 115 361 173Q404 231 404 314Z"  horiz-adv-x="611" vert-adv-y="1000"  />

      
      <glyph glyph-name="uni68" unicode="&#x68;" d="M288 712L230 445Q303 529 406 529Q473 530 515.50 493Q558 456 558 399Q558 360 547 310L481 0L339 0L401 289Q409 326 409 350Q409 381 390.50 398.50Q372 416 338 416Q225 416 193 266L137 0L-3 0L148 712L288 712Z"  horiz-adv-x="611" vert-adv-y="1000"  />

      
      <glyph glyph-name="uni69" unicode="&#x69;" d="M237 516L128 0L-14 0L95 516L237 516M279 712L254 595L113 595L137 712L279 712Z"  horiz-adv-x="259" vert-adv-y="1000"  />

      
      <glyph glyph-name="uni6a" unicode="&#x6a;" d="M237 516L126-8Q105-109 66-148.50Q27-188-68-188Q-104-188-135-183L-111-71Q-98-73-78-73Q-48-73-36.50-59.50Q-25-46-17-9L95 516L237 516M279 712L254 595L113 595L137 712L279 712Z"  horiz-adv-x="259" vert-adv-y="1000"  />

      
      <glyph glyph-name="uni6b" unicode="&#x6b;" d="M283 712L201 327L408 516L583 516L354 318L484 0L328 0L245 226L166 160L132 0L-8 0L144 712L283 712Z"  horiz-adv-x="556" vert-adv-y="1000"  />

      
      <glyph glyph-name="uni6c" unicode="&#x6c;" d="M278 712L128 0L-14 0L137 712L278 712Z"  horiz-adv-x="259" vert-adv-y="1000"  />

      
      <glyph glyph-name="uni6d" unicode="&#x6d;" d="M234 516L218 443Q295 530 395 530Q505 530 526 440Q567 485 607.50 506.50Q648 528 705 528Q772 528 814 492.50Q856 457 856 401Q856 365 841 296L779 0L636 0L697 290Q707 336 707 359Q707 384 689 399.50Q671 415 642 415Q611 415 587 402Q563 389 548.50 365.50Q534 342 526 319Q518 296 511 265L455 0L312 0L374 291Q385 344 385 362Q385 387 368 402.50Q351 418 324 418Q268 418 235.50 377.50Q203 337 190 276L131 0L-11 0L99 516L234 516Z"  horiz-adv-x="907" vert-adv-y="1000"  />

      
      <glyph glyph-name="uni6e" unicode="&#x6e;" d="M236 516L220 442Q295 530 400 530Q468 530 511 494Q554 458 554 402Q554 361 543 311L477 0L333 0L398 304Q404 329 404 353Q404 383 385 399.50Q366 416 332 416Q274 416 239.50 376.50Q205 337 192 276L133 0L-8 0L101 516L236 516Z"  horiz-adv-x="611" vert-adv-y="1000"  />

      
      <glyph glyph-name="uni6f" unicode="&#x6f;" d="M308 531Q420 531 483 472Q546 413 546 307Q546 169 463.50 76.50Q381-16 244-16Q134-16 71.50 43Q9 102 9 210Q9 350 93 440.50Q177 531 308 531M302 427Q238 427 193.50 363Q149 299 149 207Q149 150 177 119Q205 88 255 88Q305 88 341 126.50Q377 165 391 213.50Q405 262 405 311Q405 366 378 396.50Q351 427 302 427Z"  horiz-adv-x="593" vert-adv-y="1000"  />

      
      <glyph glyph-name="uni70" unicode="&#x70;" d="M227 516L213 452Q276 529 375 529Q462 529 513.50 470.50Q565 412 565 312Q565 251 548 193.50Q531 136 498.50 89Q466 42 414.50 13.50Q363-15 300-15Q243-15 201 8.50Q159 32 139 73L85-183L-56-183L92 516L227 516M316 418Q245 418 207 349.50Q169 281 169 204Q169 153 197.50 123Q226 93 274 93Q338 93 380 153Q422 213 422 303Q422 358 394.50 388Q367 418 316 418Z"  horiz-adv-x="611" vert-adv-y="1000"  />

      
      <glyph glyph-name="uni71" unicode="&#x71;" d="M594 516L447-183L306-183L358 58Q295-14 201-14Q112-14 62 41Q12 96 12 195Q12 279 42.50 354Q73 429 137.50 479.50Q202 530 288 530Q405 530 444 439L461 516L594 516M308 418Q241 418 197.50 357.50Q154 297 154 203Q154 150 179.50 121Q205 92 252 92Q304 92 341 128Q378 164 393 212Q408 260 408 310Q408 358 381 388Q354 418 308 418Z"  horiz-adv-x="611" vert-adv-y="1000"  />

      
      <glyph glyph-name="uni72" unicode="&#x72;" d="M433 525L405 393Q374 401 349 401Q215 401 179 229L130 0L-11 0L99 516L233 516L211 421Q285 530 387 530Q407 530 433 525Z"  horiz-adv-x="389" vert-adv-y="1000"  />

      
      <glyph glyph-name="uni73" unicode="&#x73;" d="M483 365L352 365Q352 439 267 439Q230 439 207.50 424Q185 409 185 384Q185 356 209 344Q233 332 324 307Q455 271 455 164Q455 102 416.50 60Q378 18 326 1.50Q274-15 214-15Q109-15 49.50 29.50Q-10 74-10 152L-10 167L122 167L122 163Q122 82 225 82Q266 82 291 99Q316 116 316 144Q316 172 289.50 186.50Q263 201 186 224Q183 224 182 224.50Q181 225 178.50 225.50Q176 226 174.50 226.50Q173 227 171 228Q106 248 76 280.50Q46 313 46 364Q46 441 107.50 485.50Q169 530 275 530Q373 530 428.50 490.50Q484 451 484 380Q484 370 483 365Z"  horiz-adv-x="519" vert-adv-y="1000"  />

      
      <glyph glyph-name="uni74" unicode="&#x74;" d="M376 516L355 419L252 419L197 166Q193 149 193 136Q193 103 241 103Q259 103 298 107L275 1Q236-6 186-6Q44-6 44 95Q44 111 60 188L109 419L21 419L43 516L130 516L165 671L306 671L273 516L376 516Z"  horiz-adv-x="370" vert-adv-y="1000"  />

      
      <glyph glyph-name="uni75" unicode="&#x75;" d="M575 516L466 0L330 0L347 75Q284-15 174-15Q102-15 60.50 21.50Q19 58 19 121Q19 149 30 204L96 516L239 516L180 237Q168 182 168 162Q168 98 241 98Q297 98 329.50 139Q362 180 375 241L434 516L575 516Z"  horiz-adv-x="611" vert-adv-y="1000"  />

      
      <glyph glyph-name="uni76" unicode="&#x76;" d="M28 516L174 516L207 149L391 516L540 516L258 0L96 0L28 516Z"  horiz-adv-x="519" vert-adv-y="1000"  />

      
      <glyph glyph-name="uni77" unicode="&#x77;" d="M30 516L175 516L196 153L356 516L500 516L517 156L684 516L835 516L564 0L415 0L397 363L236 0L87 0L30 516Z"  horiz-adv-x="815" vert-adv-y="1000"  />

      
      <glyph glyph-name="uni78" unicode="&#x78;" d="M529 516L314 267L445 0L296 0L222 169L85 0L-76 0L162 275L45 516L195 516L256 371L369 516L529 516Z"  horiz-adv-x="519" vert-adv-y="1000"  />

      
      <glyph glyph-name="uni79" unicode="&#x79;" d="M543 516L261-2Q210-96 184-125Q127-188 22-188Q-22-188-60-181L-36-67Q-10-73 21-73Q49-73 68-61.50Q87-50 95-37.50Q103-25 118 4L24 516L169 516L218 156L393 516L543 516Z"  horiz-adv-x="519" vert-adv-y="1000"  />

      
      <glyph glyph-name="uni7a" unicode="&#x7a;" d="M500 516L478 411L156 107L438 107L416 0L-52 0L-30 105L291 409L46 409L69 516L500 516Z"  horiz-adv-x="500" vert-adv-y="1000"  />

      
      <glyph glyph-name="uni7b" unicode="&#x7b;" d="M416 718L404 654Q343 648 317 617.50Q291 587 278 516L267 459Q251 373 208.50 328.50Q166 284 82 273Q202 262 202 151Q202 122 189 56.50Q176-9 176-33Q176-68 193.50-86Q211-104 256-108L244-171Q140-166 94.50-133Q49-100 49-24Q49 12 62.50 81Q76 150 76 172Q76 204 58 220Q40 236-7 241L5 305Q66 312 92.50 340Q119 368 131 431L148 522Q157 571 175.50 606Q194 641 216.50 661.50Q239 682 273 694.50Q307 707 338.50 711.50Q370 716 416 718Z"  horiz-adv-x="333" vert-adv-y="1000"  />

      
      <glyph glyph-name="uni7c" unicode="&#x7c;" d="M51-214L51 786L172 786L172-214L51-214Z"  horiz-adv-x="222" vert-adv-y="1000"  />

      
      <glyph glyph-name="uni7d" unicode="&#x7d;" d="M327 306L314 242Q254 235 228 207Q202 179 189 116L171 25Q161-24 142.50-59Q124-94 101.50-114.50Q79-135 45.50-147.50Q12-160-19.50-164.50Q-51-169-97-171L-85-107Q-24-101 2-70.50Q28-40 41 31L52 88Q68 174 110.50 218.50Q153 263 237 274Q173 280 145.50 311Q118 342 118 396Q118 425 131 490.50Q144 556 144 580Q144 614 126 632.50Q108 651 64 655L76 718Q180 713 225 680Q270 647 270 571Q270 535 256.50 466Q243 397 243 375Q243 343 261.50 327Q280 311 327 306Z"  horiz-adv-x="333" vert-adv-y="1000"  />

      
      <glyph glyph-name="uni7e" unicode="&#x7e;" d="M395 171Q374 171 343 178Q312 185 291.50 192Q271 199 232.50 213Q194 227 184 230Q152 240 139 240Q113 240 97.50 219Q82 198 78 170L0 170Q3 204 12.50 233.50Q22 263 38.50 290Q55 317 83.50 332.50Q112 348 150 348Q166 348 185.50 344.50Q205 341 217.50 337Q230 333 253 325Q276 317 285 314Q384 281 410 281Q458 281 470 348L548 348Q528 171 395 171Z"  horiz-adv-x="600" vert-adv-y="1000"  />

      
      <glyph glyph-name="unia3" unicode="&#xa3;" d="M382 391L365 309L250 309Q250 302 250.50 293.50Q251 285 251 280Q251 224 230 192Q209 160 156 113Q206 131 240 131Q267 131 303 122Q361 107 381 107Q417 107 472 140L477 143L517 37Q441-13 366-13Q332-13 242 9Q179 25 144 25Q97 25 32-13L-11 83Q46 121 79.50 163Q113 205 113 262Q113 280 109 309L14 309L32 391L96 391Q74 448 74 497Q74 594 148 657.50Q222 721 334 721Q441 721 504.50 663.50Q568 606 568 509Q568 495 567 483L430 483Q431 492 431 503Q431 549 404.50 576Q378 603 332 603Q283 603 252.50 571.50Q222 540 222 489Q222 442 241 391L382 391Z"  horiz-adv-x="556" vert-adv-y="1000"  />

      
      <glyph glyph-name="unia4" unicode="&#xa4;" d="M524 173L463 112L396 178Q342 142 279 142Q213 142 160 178L93 112L32 173L98 239Q62 296 62 358Q62 421 98 477L32 543L93 604L159 538Q215 574 278 574Q336 574 398 538L463 604L524 543L458 477Q494 427 494 357Q494 295 458 239L524 173M351.50 284.50Q351.50 284.50 366.75 299.75Q382 315 382 358Q382 401 351.50 431.50Q321 462 278 462Q235 462 204.50 431.50Q174 401 174 358Q174 315 204.50 284.50Q235 254 278 254Q321 254 351.50 284.50Z"  horiz-adv-x="556" vert-adv-y="1000"  />

      
      <glyph glyph-name="unia6" unicode="&#xa6;" d="M58-89L58 161L164 161L164-89L58-89M58 411L58 661L164 661L164 411L58 411Z"  horiz-adv-x="222" vert-adv-y="1000"  />

      
      <glyph glyph-name="unia7" unicode="&#xa7;" d="M558 535L432 535Q433 539 433 545Q433 580 412.50 599.50Q392 619 356 619Q323 619 301.50 600.50Q280 582 280 554Q280 541 287 527.50Q294 514 302 503.50Q310 493 326 480Q342 467 351 460.50Q360 454 378.50 442Q397 430 400 428Q485 370 516.50 329.50Q548 289 548 238Q548 178 509.50 134Q471 90 409 79Q439 41 439-9Q439-87 377-137.50Q315-188 220-188Q125-188 67-138.50Q9-89 9-8Q9 3 10 11L137 11Q137-5 140-23Q153-81 224-81Q261-81 283.50-62.50Q306-44 306-14Q306 16 277.50 43.50Q249 71 171 128Q135 154 119 167Q103 180 77.50 206Q52 232 41.50 258.50Q31 285 31 317Q31 378 69.50 420.50Q108 463 171 471Q144 509 144 553Q144 634 209 678.50Q274 723 359 723Q450 723 504.50 679Q559 635 559 561Q559 545 558 535M270 380Q246 399 224 399Q196 399 175.50 379Q155 359 155 331Q155 297 198 261L300 176Q335 148 358 148Q384 148 403.50 168Q423 188 423 216Q423 253 392 278L270 380Z"  horiz-adv-x="593" vert-adv-y="1000"  />

      
      <glyph glyph-name="unia9" unicode="&#xa9;" d="M128.50 621.50Q128.50 621.50 183.25 676.25Q238 731 393 731Q548 731 658 621.50Q768 512 768 357Q768 202 658.50 92.50Q549-17 394-17Q239-17 129 92.50Q19 202 19 357Q19 512 128.50 621.50M612 575.50Q612 575.50 566.50 620.75Q521 666 393 666Q265 666 174.50 575.50Q84 485 84 357Q84 229 174.50 138.50Q265 48 393 48Q521 48 612 138.50Q703 229 703 357Q703 485 612 575.50M582 296Q574 225 524.50 181Q475 137 402 137Q312 137 253 199.50Q194 262 194 357Q194 455 250 517.50Q306 580 394 580Q471 580 523.50 534.50Q576 489 581 418L489 418Q483 455 459.50 476Q436 497 400 497Q356 497 331 460Q306 423 306 359Q306 294 332.50 257Q359 220 406 220Q443 220 462.50 239Q482 258 490 296L582 296Z"  horiz-adv-x="800" vert-adv-y="1000"  />

      
      <glyph glyph-name="uniab" unicode="&#xab;" d="M229 452L204 331L96 261L172 178L150 70L21 209L50 338L229 452M425 452L400 331L292 261L368 178L345 70L217 209L246 337L425 452Z"  horiz-adv-x="463" vert-adv-y="1000"  />

      
      <glyph glyph-name="uniac" unicode="&#xac;" d="M13 308L13 420L533 420L533 99L420 99L420 308L13 308Z"  horiz-adv-x="600" vert-adv-y="1000"  />

      
      <glyph glyph-name="uniae" unicode="&#xae;" d="M104.50 674.50Q104.50 674.50 131.75 701.75Q159 729 236 729Q313 729 368 674.50Q423 620 423 543Q423 466 368 411Q313 356 236 356Q159 356 104.50 411Q50 466 50 543Q50 620 104.50 674.50M345 652Q345 652 322.50 674.50Q300 697 236 697Q172 697 127 652Q82 607 82 543Q82 479 127 434Q172 389 236 389Q300 389 345 434Q390 479 390 543Q390 607 345 652M158 647L232 647Q324 647 324 586Q324 550 286 537Q306 529 313 515.50Q320 502 321 468Q321 452 326 440L278 440Q274 448 273 469Q272 499 263.50 508Q255 517 227 517L207 517L207 440L158 440L158 647M207 555L230 555Q275 555 275 582Q275 609 230 609L207 609L207 555Z"  horiz-adv-x="400" vert-adv-y="1000"  />

      
      <glyph glyph-name="unib0" unicode="&#xb0;" d="M352 656Q352 656 376 632Q400 608 400 541Q400 474 352 426Q304 378 237 378Q170 378 122 426Q74 474 74 541Q74 608 122 656Q170 704 237 704Q304 704 352 656M288 490Q288 490 298.50 500.50Q309 511 309 541Q309 571 288 592.50Q267 614 237 614Q207 614 186 592.50Q165 571 165 541Q165 511 186 490Q207 469 237 469Q267 469 288 490Z"  horiz-adv-x="400" vert-adv-y="1000"  />

      
      <glyph glyph-name="unib1" unicode="&#xb1;" d="M210 118L210 270L9 270L9 381L210 381L210 536L328 536L328 381L529 381L529 270L328 270L328 118L210 118M9-17L9 94L529 94L529-17L9-17Z"  horiz-adv-x="600" vert-adv-y="1000"  />

      
      <glyph glyph-name="unib5" unicode="&#xb5;" d="M575 516L466 0L333 0L347 69Q321 32 288 10.50Q255-11 228-11Q164-11 138 25L91-210L-51-210L94 516L238 516L190 289Q168 183 168 161Q168 134 185 116.50Q202 99 241 99Q276 99 302 115Q328 131 344.50 162.50Q361 194 369.50 221Q378 248 386 288L434 516L575 516Z"  horiz-adv-x="611" vert-adv-y="1000"  />

      
      <glyph glyph-name="unib6" unicode="&#xb6;" d="M626 631L572 631L399-183L301-183L474 631L365 631L192-183L93-183L185 247Q27 269 27 415Q27 562 123 637Q219 712 368 712L643 712L626 631Z"  horiz-adv-x="600" vert-adv-y="1000"  />

      
      <glyph glyph-name="unib7" unicode="&#xb7;" d="M228 368L194 212L32 212L66 368L228 368Z"  horiz-adv-x="278" vert-adv-y="1000"  />

      
      <glyph glyph-name="unibb" unicode="&#xbb;" d="M86 452L214 314L186 185L6 71L31 191L139 262L63 345L86 452M281 453L410 314L381 185L202 71L227 192L335 262L259 345L281 453Z"  horiz-adv-x="463" vert-adv-y="1000"  />

      
      <glyph glyph-name="unif7" unicode="&#xf7;" d="M12 208L12 333L532 333L532 208L12 208M210 8L210 142L334 142L334 8L210 8M210 399L210 533L334 533L334 399L210 399Z"  horiz-adv-x="600" vert-adv-y="1000"  />

      
      <glyph glyph-name="uni0192" unicode="&#x0192;" d="M469 429L444 336L342 336L255 22Q227-81 181-126Q135-171 30-171Q0-171-31-166L-1-59Q13-61 29-61Q40-61 48.50-59.50Q57-58 64.50-53.50Q72-49 77-46Q82-43 87-34Q92-25 95-22Q98-19 101.50-7Q105 5 106 8Q107 11 111 25Q115 39 115 41L196 336L101 336L127 429L221 429L252 540Q278 632 321.50 675.50Q365 719 456 719Q475 719 545 712L517 607Q496 611 475 611Q454 611 439.50 604.50Q425 598 416 583.50Q407 569 402.50 556.50Q398 544 392 521L367 429L469 429Z"  horiz-adv-x="556" vert-adv-y="1000"  />

      
      <glyph glyph-name="uni0401" unicode="&#x0401;" d="M693 712L667 585L280 585L247 428L606 428L580 306L221 306L183 130L578 130L550 0L1 0L152 712L693 712M414 881L389 763L257 763L282 881L414 881M609 881L585 763L452 763L478 881L609 881Z"  horiz-adv-x="667" vert-adv-y="1000"  />

      
      <glyph glyph-name="uni0402" unicode="&#x0402;" d="M560 219Q560 269 535 295.50Q510 322 464 322Q406 322 364.50 280Q323 238 307 163L273 0L116 0L240 583L56 583L83 712L658 712L631 583L397 583L350 365Q422 443 525 443Q615 443 667.50 384.50Q720 326 720 218Q720 129 685 48Q650-33 575.50-88.50Q501-144 403-144Q351-144 318-132L344-10Q357-18 397-18Q453-18 492 22Q531 62 545.50 113Q560 164 560 219Z"  horiz-adv-x="778" vert-adv-y="1000"  />

      
      <glyph glyph-name="uni0403" unicode="&#x0403;" d="M645 712L618 583L278 583L154 0L-2 0L149 712L645 712M563 898L400 753L300 753L402 898L563 898Z"  horiz-adv-x="574" vert-adv-y="1000"  />

      
      <glyph glyph-name="uni0404" unicode="&#x0404;" d="M480 434L454 311L200 311L200 298Q200 209 241.50 159Q283 109 357 109Q422 109 466.50 145.50Q511 182 529 249L686 249Q661 125 569.50 54Q478-17 347-17Q204-17 124 66Q44 149 44 297Q44 478 149.50 603Q255 728 433 728Q560 728 637 661.50Q714 595 716 485L563 485Q556 545 522.50 573Q489 601 423 601Q350 601 299.50 554.50Q249 508 223 434L480 434Z"  horiz-adv-x="741" vert-adv-y="1000"  />

      
      <glyph glyph-name="uni0405" unicode="&#x0405;" d="M629 500L481 500Q477 560 448 584.50Q419 609 354 609Q298 609 264.50 585Q231 561 231 521Q231 511 233.50 502Q236 493 241.50 486Q247 479 252 473.50Q257 468 266.50 462.50Q276 457 282 454Q288 451 300.50 447Q313 443 318.50 441.50Q324 440 337 436.50Q350 433 353 432Q466 401 507 376Q591 325 591 219Q591 139 545 84.50Q499 30 433.50 8Q368-14 289-14Q229-14 179.50-1.50Q130 11 89 37Q48 63 25.50 110Q3 157 3 220L3 237L156 237L156 227Q156 105 304 105Q366 105 403 132Q440 159 440 205Q440 223 432.50 237Q425 251 416.50 259.50Q408 268 390.50 276Q373 284 363 287Q353 290 332 296Q219 328 179 350Q82 402 82 506Q82 605 158 665Q234 725 359 725Q490 725 559.50 669.50Q629 614 629 511L629 500Z"  horiz-adv-x="648" vert-adv-y="1000"  />

      
      <glyph glyph-name="uni0406" unicode="&#x0406;" d="M303 712L152 0L-4 0L147 712L303 712Z"  horiz-adv-x="296" vert-adv-y="1000"  />

      
      <glyph glyph-name="uni0407" unicode="&#x0407;" d="M303 712L152 0L-4 0L147 712L303 712M230 881L205 763L73 763L98 881L230 881M426 881L401 763L268 763L294 881L426 881Z"  horiz-adv-x="296" vert-adv-y="1000"  />

      
      <glyph glyph-name="uni0408" unicode="&#x0408;" d="M568 712L472 258Q460 201 449.50 165.50Q439 130 418.50 91.50Q398 53 371.50 32Q345 11 302.50-3Q260-17 203-17Q102-17 45 29.50Q-12 76-12 160Q-12 197 1 266L145 266Q132 199 132 180Q132 145 152 126Q172 107 208 107Q231 107 248 115.50Q265 124 274.50 133Q284 142 292.50 164.50Q301 187 303.50 197.50Q306 208 312 237L412 712L568 712Z"  horiz-adv-x="556" vert-adv-y="1000"  />

      
      <glyph glyph-name="uni0409" unicode="&#x0409;" d="M535 583L364 583L290 277Q250 114 187.50 50Q125-14 25-14Q-12-14-57 0L-32 119Q-5 111 16 111Q53 111 82 145Q111 179 135 279L239 712L719 712L661 442L766 442Q842 442 887 429Q943 413 976.50 363Q1010 313 1010 246Q1010 182 981 126.50Q952 71 902 40Q839 0 703 0L412 0L535 583M858 234Q858 262 848 280Q838 298 818.50 306Q799 314 780 316.50Q761 319 732 319L635 319L595 125L733 125Q790 125 824 151.50Q858 178 858 234Z"  horiz-adv-x="1054" vert-adv-y="1000"  />

      
      <glyph glyph-name="uni040A" unicode="&#x040A;" d="M479 319L224 319L157 0L1 0L152 712L308 712L250 442L505 442L563 712L719 712L661 442L766 442Q842 442 887 429Q943 413 976.50 363Q1010 313 1010 246Q1010 182 981 126.50Q952 71 903 40Q839 0 703 0L413 0L479 319M859 234Q859 262 849 280Q839 298 819 306Q799 314 780 316.50Q761 319 732 319L635 319L595 125L733 125Q790 125 824.50 151.50Q859 178 859 234Z"  horiz-adv-x="1054" vert-adv-y="1000"  />

      
      <glyph glyph-name="uni040B" unicode="&#x040B;" d="M656 0L500 0L543 201Q549 228 549 248Q549 286 527 302Q505 318 457 318Q429 318 337 302L272 0L115 0L239 583L55 583L83 712L658 712L630 583L396 583L363 428Q466 448 511 448Q611 448 660 410.50Q709 373 709 289Q709 248 699 199L656 0Z"  horiz-adv-x="778" vert-adv-y="1000"  />

      
      <glyph glyph-name="uni040C" unicode="&#x040C;" d="M775 712L433 419L651 0L475 0L312 320L200 225L152 0L-3 0L148 712L303 712L242 420L569 712L775 712M623 898L460 753L360 753L462 898L623 898Z"  horiz-adv-x="722" vert-adv-y="1000"  />

      
      <glyph glyph-name="uni040E" unicode="&#x040E;" d="M527 904L583 904Q563 760 406 760Q337 760 296 788Q255 816 255 875Q255 884 257 904L313 904Q315 871 341.50 854.50Q368 838 411 838Q456 838 488 854Q520 870 527 904M31 3L59 133Q89 119 131 119Q170 119 195 142Q220 165 220 203Q220 217 205 272L75 712L243 712L337 334L553 712L733 712L390 170Q324 65 267.50 26.50Q211-12 124-12Q76-12 31 3Z"  horiz-adv-x="667" vert-adv-y="1000"  />

      
      <glyph glyph-name="uni040F" unicode="&#x040F;" d="M373 0L334-183L183-183L222 0L-4 0L147 712L303 712L180 130L470 130L593 712L749 712L598 0L373 0Z"  horiz-adv-x="741" vert-adv-y="1000"  />

      
      <glyph glyph-name="uni0410" unicode="&#x0410;" d="M506 712L625 0L469 0L445 159L180 159L89 0L-77 0L345 712L506 712M241 274L432 274L393 544L241 274Z"  horiz-adv-x="685" vert-adv-y="1000"  />

      
      <glyph glyph-name="uni0411" unicode="&#x0411;" d="M248 456L409 456Q484 456 534 442Q592 425 626.50 373.50Q661 322 661 254Q661 188 631 130.50Q601 73 550 41Q485 0 344 0L-1 0L150 712L687 712L661 585L275 585L248 456M510 242Q510 272 499.50 291Q489 310 468 318.50Q447 327 427 329.50Q407 332 376 332L221 332L178 126L377 126Q437 126 473.50 154Q510 182 510 242Z"  horiz-adv-x="722" vert-adv-y="1000"  />

      
      <glyph glyph-name="uni0412" unicode="&#x0412;" d="M148 712L418 712Q462 712 490.50 710.50Q519 709 558.50 700Q598 691 621.50 674Q645 657 662 625Q679 593 679 547Q679 482 643 436Q607 390 546 378Q648 344 648 233Q648 158 603.50 95.50Q559 33 487 14Q435 0 327 0L-3 0L148 712M274 591L238 422L381 422Q411 422 433 425.50Q455 429 477.50 438.50Q500 448 511.50 469Q523 490 523 521Q523 542 514 556Q505 570 495 577Q485 584 464 587Q443 590 433 590.50Q423 591 400 591L274 591M216 317L174 122L322 122Q359 122 383 125Q407 128 436 137.50Q465 147 480 171Q495 195 495 232Q495 253 489.50 269Q484 285 469.50 294Q455 303 446 308Q437 313 413 315Q389 317 382 317Q375 317 348 317L216 317Z"  horiz-adv-x="722" vert-adv-y="1000"  />

      
      <glyph glyph-name="uni0413" unicode="&#x0413;" d="M645 712L618 583L278 583L154 0L-2 0L149 712L645 712Z"  horiz-adv-x="574" vert-adv-y="1000"  />

      
      <glyph glyph-name="uni0414" unicode="&#x0414;" d="M660-183L509-183L548 0L96 0L57-183L-94-183L-28 130L29 130Q106 209 157 318.50Q208 428 232 545L267 712L768 712L644 130L726 130L660-183M488 130L585 585L395 585L381 520Q355 398 310 296.50Q265 195 211 130L488 130Z"  horiz-adv-x="778" vert-adv-y="1000"  />

      
      <glyph glyph-name="uni0415" unicode="&#x0415;" d="M693 712L667 585L280 585L247 428L606 428L580 306L221 306L183 130L578 130L550 0L1 0L152 712L693 712Z"  horiz-adv-x="667" vert-adv-y="1000"  />

      
      <glyph glyph-name="uni0416" unicode="&#x0416;" d="M372 309L116 0L-81 0L290 430L99 712L281 712L469 418L531 712L682 712L622 428L920 712L1118 712L795 416L988 0L806 0L676 307L577 216L531 0L380 0L428 225L372 309Z"  horiz-adv-x="1054" vert-adv-y="1000"  />

      
      <glyph glyph-name="uni0417" unicode="&#x0417;" d="M617 544Q617 488 579.50 444.50Q542 401 488 387Q539 379 570 339.50Q601 300 601 243Q601 123 511.50 54.50Q422-14 286-14Q226-14 176.50-1.50Q127 11 86 37Q45 63 22.50 110Q0 157 0 220L0 237L153 237L153 227Q153 105 301 105Q359 105 401 142Q443 179 443 236Q443 318 322 318L264 318L287 424Q299 423 325 423Q384 423 426 449.50Q468 476 468 531Q468 567 440.50 586.50Q413 606 362 606Q239 606 216 500L68 500Q80 581 127.50 633.50Q175 686 237.50 706.50Q300 727 380 727Q491 727 554 676Q617 625 617 544Z"  horiz-adv-x="648" vert-adv-y="1000"  />

      
      <glyph glyph-name="uni0418" unicode="&#x0418;" d="M749 712L598 0L442 0L547 494L544 494L182 0L-4 0L147 712L303 712L199 219L202 219L564 712L749 712Z"  horiz-adv-x="741" vert-adv-y="1000"  />

      
      <glyph glyph-name="uni0419" unicode="&#x0419;" d="M573 904L629 904Q609 760 452 760Q383 760 342 788Q301 816 301 875Q301 884 303 904L359 904Q361 871 387.50 854.50Q414 838 457 838Q502 838 534 854Q566 870 573 904M749 712L598 0L442 0L547 494L544 494L182 0L-4 0L147 712L303 712L199 219L202 219L564 712L749 712Z"  horiz-adv-x="741" vert-adv-y="1000"  />

      
      <glyph glyph-name="uni041A" unicode="&#x041A;" d="M775 712L433 419L651 0L475 0L312 320L200 225L152 0L-3 0L148 712L303 712L242 420L569 712L775 712Z"  horiz-adv-x="722" vert-adv-y="1000"  />

      
      <glyph glyph-name="uni041B" unicode="&#x041B;" d="M733 712L581 0L425 0L549 583L364 583L290 277Q250 114 187.50 50Q125-14 25-14Q10-14-57 0L-32 118Q-1 111 18 111Q55 111 83 145Q111 179 135 279L239 712L733 712Z"  horiz-adv-x="722" vert-adv-y="1000"  />

      
      <glyph glyph-name="uni041C" unicode="&#x041C;" d="M-5 0L150 712L367 712L420 197L696 712L918 712L764 0L617 0L747 567L443 0L323 0L253 568L145 0L-5 0Z"  horiz-adv-x="907" vert-adv-y="1000"  />

      
      <glyph glyph-name="uni041D" unicode="&#x041D;" d="M749 712L598 0L442 0L507 307L217 307L152 0L-4 0L147 712L303 712L245 439L535 439L593 712L749 712Z"  horiz-adv-x="741" vert-adv-y="1000"  />

      
      <glyph glyph-name="uni041E" unicode="&#x041E;" d="M424 727Q574 727 659 646.50Q744 566 744 423Q744 235 637 108.50Q530-18 347-18Q202-18 120 66Q38 150 38 298Q38 483 148 605Q258 727 424 727M420 600Q347 600 293 550.50Q239 501 216 434Q193 367 193 296Q193 208 237 158Q281 108 358 108Q432 108 486 159.50Q540 211 563 280Q586 349 586 420Q586 506 543 553Q500 600 420 600Z"  horiz-adv-x="778" vert-adv-y="1000"  />

      
      <glyph glyph-name="uni041F" unicode="&#x041F;" d="M749 712L598 0L442 0L566 583L276 583L152 0L-4 0L147 712L749 712Z"  horiz-adv-x="741" vert-adv-y="1000"  />

      
      <glyph glyph-name="uni0420" unicode="&#x0420;" d="M137 712L414 712Q489 712 539 698Q597 681 631.50 629.50Q666 578 666 510Q666 444 636 386.50Q606 329 555 297Q490 256 349 256L196 256L141 0L-14 0L137 712M265 585L222 379L381 379Q441 379 477.50 407Q514 435 514 495Q514 525 503.50 544Q493 563 472 571.50Q451 580 431 582.50Q411 585 380 585L265 585Z"  horiz-adv-x="667" vert-adv-y="1000"  />

      
      <glyph glyph-name="uni0421" unicode="&#x0421;" d="M687 255Q664 128 572 55.50Q480-17 347-17Q204-17 124 66Q44 149 44 297Q44 478 149.50 603Q255 728 433 728Q561 728 638.50 660Q716 592 716 480L716 465L565 465Q562 535 528 568Q494 601 423 601Q368 601 323.50 572.50Q279 544 253 498.50Q227 453 213.50 401.50Q200 350 200 298Q200 209 241.50 159Q283 109 357 109Q423 109 468.50 147Q514 185 531 255L687 255Z"  horiz-adv-x="741" vert-adv-y="1000"  />

      
      <glyph glyph-name="uni0422" unicode="&#x0422;" d="M678 712L651 583L434 583L310 0L154 0L278 583L55 583L82 712L678 712Z"  horiz-adv-x="611" vert-adv-y="1000"  />

      
      <glyph glyph-name="uni0423" unicode="&#x0423;" d="M31 3L59 133Q89 119 131 119Q170 119 195 142Q220 165 220 203Q220 217 205 272L75 712L243 712L337 334L553 712L733 712L390 170Q324 65 267.50 26.50Q211-12 124-12Q76-12 31 3Z"  horiz-adv-x="667" vert-adv-y="1000"  />

      
      <glyph glyph-name="uni0424" unicode="&#x0424;" d="M819 410Q819 305 766.50 228Q714 151 630 114.50Q546 78 443 78L426 0L272 0L289 78Q169 86 100.50 147Q32 208 32 310Q32 415 84.50 492Q137 569 221.50 605.50Q306 642 409 642L423 712L577 712L563 642Q682 634 750.50 573Q819 512 819 410M668 397Q668 455 634.50 489.50Q601 524 539 529L468 195Q557 195 612.50 249Q668 303 668 397M384 525Q295 525 239 471Q183 417 183 323Q183 264 216.50 230Q250 196 313 191L384 525Z"  horiz-adv-x="848" vert-adv-y="1000"  />

      
      <glyph glyph-name="uni0425" unicode="&#x0425;" d="M727 712L432 368L609 0L436 0L324 252L120 0L-70 0L255 375L87 712L257 712L360 481L542 712L727 712Z"  horiz-adv-x="667" vert-adv-y="1000"  />

      
      <glyph glyph-name="uni0426" unicode="&#x0426;" d="M639-183L488-183L527 0L-4 0L147 712L303 712L179 130L470 130L594 712L750 712L626 130L705 130L639-183Z"  horiz-adv-x="757" vert-adv-y="1000"  />

      
      <glyph glyph-name="uni0427" unicode="&#x0427;" d="M274 274Q149 274 96.50 332.50Q44 391 72 523L112 712L268 712L227 521Q213 457 233 430.50Q253 404 313 404Q362 404 458 420L520 712L676 712L524 0L368 0L431 294Q328 274 274 274Z"  horiz-adv-x="667" vert-adv-y="1000"  />

      
      <glyph glyph-name="uni0428" unicode="&#x0428;" d="M-4 0L147 712L298 712L175 130L417 130L540 712L691 712L568 130L810 130L933 712L1084 712L933 0L-4 0Z"  horiz-adv-x="1075" vert-adv-y="1000"  />

      
      <glyph glyph-name="uni0429" unicode="&#x0429;" d="M973-183L822-183L861 0L-4 0L147 712L298 712L175 130L417 130L540 712L691 712L568 130L810 130L933 712L1084 712L961 130L1040 130L973-183Z"  horiz-adv-x="1092" vert-adv-y="1000"  />

      
      <glyph glyph-name="uni042A" unicode="&#x042A;" d="M610 242Q610 272 599.50 291Q589 310 568 318.50Q547 327 527 329.50Q507 332 476 332L361 332L318 126L477 126Q537 126 573.50 154Q610 182 610 242M260 583L55 583L82 712L442 712L388 456L509 456Q584 456 634 442Q692 425 726.50 373.50Q761 322 761 254Q761 188 731 130.50Q701 73 650 41Q585 0 444 0L136 0L260 583Z"  horiz-adv-x="806" vert-adv-y="1000"  />

      
      <glyph glyph-name="uni042B" unicode="&#x042B;" d="M587 254Q587 188 557 130.50Q527 73 476 41Q411 0 270 0L-3 0L148 712L303 712L249 456L335 456Q410 456 460 442Q518 425 552.50 373.50Q587 322 587 254M436 242Q436 272 425.50 291Q415 310 394 318.50Q373 327 353 329.50Q333 332 302 332L222 332L179 126L303 126Q363 126 399.50 154Q436 182 436 242M760 712L916 712L765 0L609 0L760 712Z"  horiz-adv-x="907" vert-adv-y="1000"  />

      
      <glyph glyph-name="uni042C" unicode="&#x042C;" d="M622 254Q622 188 592 130.50Q562 73 511 41Q446 0 305 0L-3 0L148 712L303 712L249 456L370 456Q445 456 495 442Q553 425 587.50 373.50Q622 322 622 254M471 242Q471 272 460.50 291Q450 310 429 318.50Q408 327 388 329.50Q368 332 337 332L222 332L179 126L338 126Q398 126 434.50 154Q471 182 471 242Z"  horiz-adv-x="667" vert-adv-y="1000"  />

      
      <glyph glyph-name="uni042D" unicode="&#x042D;" d="M704 414Q704 233 598.50 108Q493-17 315-17Q187-17 109.50 51Q32 119 32 231L32 246L183 246Q186 176 220 143Q254 110 325 110Q405 110 458 165.50Q511 221 534 306L272 306L298 428L548 428Q544 511 503 556.50Q462 602 391 602Q274 602 229 493L70 493Q101 603 189.50 665.50Q278 728 401 728Q544 728 624 645Q704 562 704 414Z"  horiz-adv-x="741" vert-adv-y="1000"  />

      
      <glyph glyph-name="uni042E" unicode="&#x042E;" d="M693 600Q623 600 572.50 545Q522 490 501 419Q480 348 480 277Q480 197 514.50 152.50Q549 108 613 108Q668 108 711 141.50Q754 175 778 227Q802 279 814.50 333.50Q827 388 827 439Q827 517 793 558.50Q759 600 693 600M705 727Q839 727 911 650.50Q983 574 983 443Q983 370 968 303Q953 236 921.50 177.50Q890 119 845 75.50Q800 32 736 7Q672-18 595-18Q469-18 397.50 61Q326 140 326 276L326 307L217 307L152 0L-4 0L147 712L303 712L245 439L349 439Q388 567 480.50 647Q573 727 705 727Z"  horiz-adv-x="1018" vert-adv-y="1000"  />

      
      <glyph glyph-name="uni042F" unicode="&#x042F;" d="M382 274L123 0L-77 0L213 293Q91 336 91 468Q91 532 119.50 587Q148 642 197 673Q259 712 395 712L731 712L579 0L424 0L483 274L382 274M549 589L374 589Q316 589 281.50 562Q247 535 247 478Q247 440 267 420Q287 400 311 396Q335 392 375 392L508 392L549 589Z"  horiz-adv-x="722" vert-adv-y="1000"  />

      
      <glyph glyph-name="uni0430" unicode="&#x0430;" d="M58 360Q90 530 307 530Q407 530 463.50 496Q520 462 520 402Q520 367 507 308L466 122Q454 69 454 37Q454 15 458 0L318 0Q317 9 317 19Q317 37 319 51Q258-16 156-16Q80-16 35 22.50Q-10 61-10 126Q-10 173 10 207Q30 241 66.50 260.50Q103 280 144 290Q185 300 238 304Q326 311 346 318Q384 333 384 379Q384 435 296 435Q252 435 227.50 417.50Q203 400 191 360L58 360M358 248Q352 243 343.50 239.50Q335 236 329.50 234Q324 232 312 230Q300 228 297 227.50Q294 227 279 226L264 224Q232 221 215 217.50Q198 214 175.50 205.50Q153 197 143 181Q133 165 133 141Q133 110 154 92.50Q175 75 212 75Q317 75 346 196L358 248Z"  horiz-adv-x="574" vert-adv-y="1000"  />

      
      <glyph glyph-name="uni0431" unicode="&#x0431;" d="M598 734Q590 697 570.50 669Q551 641 528 624.50Q505 608 470 597Q435 586 405 581Q375 576 333 572Q286 568 251 552Q216 536 193.50 509Q171 482 157.50 452Q144 422 134 381L137 381Q206 516 339 516Q435 516 492 459Q549 402 549 300Q549 164 468.50 74Q388-16 254-16Q148-16 87 45.50Q26 107 26 213Q26 289 40 361.50Q54 434 84.50 503.50Q115 573 171.50 624Q228 675 304 694Q326 700 365 704.50Q404 709 427.50 715Q451 721 459 734L598 734M408 304Q408 356 382.50 384.50Q357 413 312 413Q252 413 209 351.50Q166 290 166 200Q166 146 192 117Q218 88 265 88Q312 88 346 124.50Q380 161 394 208Q408 255 408 304Z"  horiz-adv-x="593" vert-adv-y="1000"  />

      
      <glyph glyph-name="uni0432" unicode="&#x0432;" d="M104 516L347 516Q379 516 399.50 515Q420 514 449 507.50Q478 501 494.50 488.50Q511 476 523.50 452.50Q536 429 536 396Q536 349 510 316Q484 283 440 274Q514 249 514 169Q514 114 481.50 69Q449 24 397 10Q360 0 281 0L-5 0L104 516M221 422L198 314L306 314Q348 314 372.50 326.50Q397 339 397 377Q397 393 390.50 403Q384 413 369 417Q354 421 345 421.50Q336 422 318 422L221 422M179 224L152 96L258 96Q291 96 311.50 99Q332 102 351.50 119Q371 136 371 168Q371 185 364 196Q357 207 349.50 212.50Q342 218 325.50 221Q309 224 301.50 224Q294 224 275 224L179 224Z"  horiz-adv-x="574" vert-adv-y="1000"  />

      
      <glyph glyph-name="uni0433" unicode="&#x0433;" d="M467 409L223 409L136 0L-5 0L105 516L489 516L467 409Z"  horiz-adv-x="453" vert-adv-y="1000"  />

      
      <glyph glyph-name="uni0434" unicode="&#x0434;" d="M510-152L377-152L409 0L72 0L40-152L-93-152L-38 107L24 107Q58 149 99 247Q140 345 157 426L176 516L585 516L498 107L565 107L510-152M359 107L424 411L288 411L285 398Q266 317 231.50 232Q197 147 167 107L359 107Z"  horiz-adv-x="628" vert-adv-y="1000"  />

      
      <glyph glyph-name="uni0435" unicode="&#x0435;" d="M504 157Q479 69 410.50 26Q342-17 246-17Q133-17 71.50 42.50Q10 102 10 214Q10 352 92.50 441Q175 530 303 530Q410 530 472 469.50Q534 409 534 305Q534 274 526 223L146 223Q145 212 145 199Q145 144 174 113.50Q203 83 255 83Q334 83 365 157L504 157M160 309L400 309L400 324Q400 374 373 402Q346 430 299 430Q249 430 212 398Q175 366 160 309Z"  horiz-adv-x="574" vert-adv-y="1000"  />

      
      <glyph glyph-name="uni0436" unicode="&#x0436;" d="M834 516L608 312L734 0L581 0L505 219L428 149L396 0L262 0L295 155L254 217L90 0L-85 0L184 324L58 516L210 516L328 311L372 516L506 516L465 326L658 516L834 516Z"  horiz-adv-x="797" vert-adv-y="1000"  />

      
      <glyph glyph-name="uni0437" unicode="&#x0437;" d="M321 169Q321 224 231 224L186 224L206 312Q214 311 233 311Q278 311 308.50 328Q339 345 339 385Q339 435 266 435Q177 435 161 363L29 363Q56 530 289 530Q385 530 431 493.50Q477 457 477 398Q477 357 449 323.50Q421 290 381 279Q418 274 441.50 245Q465 216 465 174Q465 84 398.50 34.50Q332-15 220-15Q112-15 49 29.50Q-14 74-14 152L-14 169L118 169L118 163Q118 82 221 82Q264 82 292.50 104.50Q321 127 321 169Z"  horiz-adv-x="519" vert-adv-y="1000"  />

      
      <glyph glyph-name="uni0438" unicode="&#x0438;" d="M475 0L339 0L413 349L165 0L-6 0L104 516L240 516L166 167L414 516L585 516L475 0Z"  horiz-adv-x="611" vert-adv-y="1000"  />

      
      <glyph glyph-name="uni0439" unicode="&#x0439;" d="M475 0L339 0L413 349L165 0L-6 0L104 516L240 516L166 167L414 516L585 516L475 0M475 712L531 712Q511 568 354 568Q285 568 244 596Q203 624 203 683Q203 692 205 712L261 712Q263 679 289.50 662.50Q316 646 359 646Q404 646 436 662Q468 678 475 712Z"  horiz-adv-x="611" vert-adv-y="1000"  />

      
      <glyph glyph-name="uni043A" unicode="&#x043A;" d="M204 325L411 516L591 516L354 313L491 0L334 0L246 221L168 154L135 0L-4 0L106 516L245 516L204 325Z"  horiz-adv-x="556" vert-adv-y="1000"  />

      
      <glyph glyph-name="uni043B" unicode="&#x043B;" d="M475 0L334 0L422 409L288 409L242 225Q228 170 214.50 134.50Q201 99 177 61Q153 23 115 4.50Q77-14 24-14Q-18-14-48-4L-24 107Q-9 102 16 102Q48 102 67.50 129Q87 156 105 232L173 516L585 516L475 0Z"  horiz-adv-x="611" vert-adv-y="1000"  />

      
      <glyph glyph-name="uni043C" unicode="&#x043C;" d="M603 0L469 0L552 392L549 392L365 0L231 0L213 392L210 392L127 0L-7 0L103 516L306 516L323 141L327 141L504 516L713 516L603 0Z"  horiz-adv-x="741" vert-adv-y="1000"  />

      
      <glyph glyph-name="uni043D" unicode="&#x043D;" d="M475 0L334 0L380 217L181 217L135 0L-6 0L104 516L245 516L205 329L404 329L444 516L585 516L475 0Z"  horiz-adv-x="611" vert-adv-y="1000"  />

      
      <glyph glyph-name="uni043E" unicode="&#x043E;" d="M308 531Q420 531 483 472Q546 413 546 307Q546 169 463.50 76.50Q381-16 244-16Q134-16 71.50 43Q9 102 9 210Q9 350 93 440.50Q177 531 308 531M302 427Q238 427 193.50 363Q149 299 149 207Q149 150 177 119Q205 88 255 88Q305 88 341 126.50Q377 165 391 213.50Q405 262 405 311Q405 366 378 396.50Q351 427 302 427Z"  horiz-adv-x="593" vert-adv-y="1000"  />

      
      <glyph glyph-name="uni043F" unicode="&#x043F;" d="M475 0L334 0L422 409L223 409L135 0L-6 0L104 516L585 516L475 0Z"  horiz-adv-x="611" vert-adv-y="1000"  />

      
      <glyph glyph-name="uni0440" unicode="&#x0440;" d="M227 516L213 452Q276 529 375 529Q462 529 513.50 470.50Q565 412 565 312Q565 251 548 193.50Q531 136 498.50 89Q466 42 414.50 13.50Q363-15 300-15Q243-15 201 8.50Q159 32 139 73L85-183L-56-183L92 516L227 516M316 418Q245 418 207 349.50Q169 281 169 204Q169 153 197.50 123Q226 93 274 93Q338 93 380 153Q422 213 422 303Q422 358 394.50 388Q367 418 316 418Z"  horiz-adv-x="611" vert-adv-y="1000"  />

      
      <glyph glyph-name="uni0441" unicode="&#x0441;" d="M508 188Q455-16 252-16Q13-16 13 209Q13 346 93 437.50Q173 529 309 529Q407 529 469.50 480.50Q532 432 532 337L395 337Q395 426 304 426Q252 426 216 388.50Q180 351 166.50 303.50Q153 256 153 205Q153 87 256 87Q338 87 368 188L508 188Z"  horiz-adv-x="556" vert-adv-y="1000"  />

      
      <glyph glyph-name="uni0442" unicode="&#x0442;" d="M500 409L330 409L243 0L102 0L189 409L19 409L42 516L523 516L500 409Z"  horiz-adv-x="500" vert-adv-y="1000"  />

      
      <glyph glyph-name="uni0443" unicode="&#x0443;" d="M543 516L261-2Q210-96 184-125Q127-188 22-188Q-22-188-60-181L-36-67Q-10-73 21-73Q49-73 68-61.50Q87-50 95-37.50Q103-25 118 4L24 516L169 516L218 156L393 516L543 516Z"  horiz-adv-x="519" vert-adv-y="1000"  />

      
      <glyph glyph-name="uni0444" unicode="&#x0444;" d="M309 145L357 371Q354 399 334 412.50Q314 426 288 426Q252 426 223.50 401Q195 376 179.50 338Q164 300 156 261Q148 222 148 188Q148 95 221 95Q251 95 275.50 110Q300 125 309 145M659 339Q659 426 588 426Q525 426 495 371L449 145L449 144Q449 124 467 109.50Q485 95 515 95Q563 95 597.50 139.50Q632 184 645.50 237Q659 290 659 339M525-14Q494-14 467 0Q440 14 428 34L425 34L379-183L239-183L285 34L282 34Q262 14 229 0Q196-14 165-14Q83-14 44.50 42Q6 98 6 185Q6 267 34 344Q62 421 125 476Q188 531 274 531Q317 531 343.50 516Q370 501 377 478L380 478L429 712L569 712L520 478L523 478Q563 531 648 531Q721 531 761.50 477.50Q802 424 802 335Q802 274 784 213.50Q766 153 733 101.50Q700 50 645.50 18Q591-14 525-14Z"  horiz-adv-x="846" vert-adv-y="1000"  />

      
      <glyph glyph-name="uni0445" unicode="&#x0445;" d="M529 516L314 267L445 0L296 0L222 169L85 0L-76 0L162 275L45 516L195 516L256 371L369 516L529 516Z"  horiz-adv-x="519" vert-adv-y="1000"  />

      
      <glyph glyph-name="uni0446" unicode="&#x0446;" d="M496-152L363-152L395 0L-10 0L100 516L241 516L154 109L345 109L432 516L573 516L486 109L551 109L496-152Z"  horiz-adv-x="611" vert-adv-y="1000"  />

      
      <glyph glyph-name="uni0447" unicode="&#x0447;" d="M364 302L409 516L550 516L441 0L300 0L343 203Q244 180 173 180Q105 180 70.50 217.50Q36 255 36 318Q36 345 42 375L71 516L212 516L185 388Q179 358 179 338Q179 310 193.50 298.50Q208 287 243 287Q306 287 364 302Z"  horiz-adv-x="574" vert-adv-y="1000"  />

      
      <glyph glyph-name="uni0448" unicode="&#x0448;" d="M725 0L-6 0L104 516L245 516L158 109L312 109L399 516L540 516L453 109L607 109L694 516L835 516L725 0Z"  horiz-adv-x="861" vert-adv-y="1000"  />

      
      <glyph glyph-name="uni0449" unicode="&#x0449;" d="M-8 0L102 516L243 516L156 109L307 109L394 516L535 516L448 109L599 109L686 516L827 516L740 109L805 109L750-152L617-152L649 0L-8 0Z"  horiz-adv-x="870" vert-adv-y="1000"  />

      
      <glyph glyph-name="uni044A" unicode="&#x044A;" d="M373 236L290 236L262 101L374 101Q465 101 465 178Q465 214 442 225Q419 236 373 236M33 407L57 516L351 516L312 336L418 336Q477 336 511 326Q556 313 582.50 275Q609 237 609 186Q609 138 586.50 96Q564 54 525 30Q475 0 371 0L100 0L187 407L33 407Z"  horiz-adv-x="648" vert-adv-y="1000"  />

      
      <glyph glyph-name="uni044B" unicode="&#x044B;" d="M392 30Q342 0 238 0L-5 0L105 516L246 516L207 336L285 336Q344 336 378 326Q423 313 449.50 275Q476 237 476 186Q476 138 453.50 96Q431 54 392 30M240 236L185 236L157 101L241 101Q332 101 332 178Q332 214 309 225Q286 236 240 236M751 516L641 0L500 0L610 516L751 516Z"  horiz-adv-x="778" vert-adv-y="1000"  />

      
      <glyph glyph-name="uni044C" unicode="&#x044C;" d="M414 30Q364 0 260 0L-11 0L99 516L240 516L201 336L307 336Q366 336 400 326Q445 313 471.50 275Q498 237 498 186Q498 138 475.50 96Q453 54 414 30M262 236L179 236L151 101L263 101Q354 101 354 178Q354 214 331 225Q308 236 262 236Z"  horiz-adv-x="537" vert-adv-y="1000"  />

      
      <glyph glyph-name="uni044D" unicode="&#x044D;" d="M515 304Q515 167 435 75.50Q355-16 219-16Q121-16 58.50 32.50Q-4 81-4 176L133 176Q133 87 224 87Q278 87 313 124.50Q348 162 363 220L198 220L217 310L375 310Q374 426 272 426Q201 426 168 349L27 349Q86 529 276 529Q515 529 515 304Z"  horiz-adv-x="556" vert-adv-y="1000"  />

      
      <glyph glyph-name="uni044E" unicode="&#x044E;" d="M564 427Q528 427 499 402.50Q470 378 453.50 341.50Q437 305 428.50 268Q420 231 420 199Q420 146 443.50 117Q467 88 510 88Q558 88 592 130.50Q626 173 639 223.50Q652 274 652 319Q652 370 629 398.50Q606 427 564 427M181 219L135 0L-6 0L104 516L245 516L204 323L302 323Q331 415 401 473Q471 531 570 531Q674 531 732 475Q790 419 790 316Q790 228 757.50 153.50Q725 79 657.50 31.50Q590-16 500-16Q398-16 340.50 40Q283 96 283 201Q283 213 284 219L181 219Z"  horiz-adv-x="836" vert-adv-y="1000"  />

      
      <glyph glyph-name="uni044F" unicode="&#x044F;" d="M265 191L91 0L-77 0L133 212Q44 245 44 339Q44 385 65 425Q86 465 122 487Q168 516 265 516L546 516L436 0L297 0L337 191L265 191M385 415L267 415Q187 415 187 345Q187 311 207.50 301.50Q228 292 268 292L359 292L385 415Z"  horiz-adv-x="574" vert-adv-y="1000"  />

      
      <glyph glyph-name="uni0451" unicode="&#x0451;" d="M327 706L302 588L170 588L195 706L327 706M522 706L498 588L365 588L390 706L522 706M504 157Q479 69 410.50 26Q342-17 246-17Q133-17 71.50 42.50Q10 102 10 214Q10 352 92.50 441Q175 530 303 530Q410 530 472 469.50Q534 409 534 305Q534 274 526 223L146 223Q145 212 145 199Q145 144 174 113.50Q203 83 255 83Q334 83 365 157L504 157M160 309L400 309L400 324Q400 374 373 402Q346 430 299 430Q249 430 212 398Q175 366 160 309Z"  horiz-adv-x="574" vert-adv-y="1000"  />

      
      <glyph glyph-name="uni0452" unicode="&#x0452;" d="M527 259Q527 229 516 170L499 86Q446-181 148-188L174-66Q254-59 297.50-26Q341 7 359 95L370 149Q378 186 378 210Q378 241 359.50 258.50Q341 276 307 276Q194 276 162 126L135 0L-5 0L87 435L28 435L49 531L108 531L146 712L286 712L248 531L491 531L470 435L227 435L199 305Q272 389 375 389Q442 390 484.50 353Q527 316 527 259Z"  horiz-adv-x="574" vert-adv-y="1000"  />

      
      <glyph glyph-name="uni0453" unicode="&#x0453;" d="M472 409L223 409L136 0L-5 0L105 516L495 516L472 409M468 727L305 583L205 583L307 727L468 727Z"  horiz-adv-x="453" vert-adv-y="1000"  />

      
      <glyph glyph-name="uni0454" unicode="&#x0454;" d="M337 312L318 222L153 222L153 205Q153 87 256 87Q333 87 364 176L505 176Q449-16 252-16Q13-16 13 209Q13 346 93 437.50Q173 529 309 529Q403 529 465.50 483.50Q528 438 532 349L395 349Q387 426 304 426Q210 426 170 312L337 312Z"  horiz-adv-x="556" vert-adv-y="1000"  />

      
      <glyph glyph-name="uni0455" unicode="&#x0455;" d="M483 365L352 365Q352 439 267 439Q230 439 207.50 424Q185 409 185 384Q185 356 209 344Q233 332 324 307Q455 271 455 164Q455 102 416.50 60Q378 18 326 1.50Q274-15 214-15Q109-15 49.50 29.50Q-10 74-10 152L-10 167L122 167L122 163Q122 82 225 82Q266 82 291 99Q316 116 316 144Q316 172 289.50 186.50Q263 201 186 224Q183 224 182 224.50Q181 225 178.50 225.50Q176 226 174.50 226.50Q173 227 171 228Q106 248 76 280.50Q46 313 46 364Q46 441 107.50 485.50Q169 530 275 530Q373 530 428.50 490.50Q484 451 484 380Q484 370 483 365Z"  horiz-adv-x="519" vert-adv-y="1000"  />

      
      <glyph glyph-name="uni0456" unicode="&#x0456;" d="M237 516L128 0L-14 0L95 516L237 516M279 712L254 595L113 595L137 712L279 712Z"  horiz-adv-x="259" vert-adv-y="1000"  />

      
      <glyph glyph-name="uni0457" unicode="&#x0457;" d="M237 516L128 0L-14 0L95 516L237 516M175 707L150 589L18 589L43 707L175 707M370 707L346 589L213 589L238 707L370 707Z"  horiz-adv-x="259" vert-adv-y="1000"  />

      
      <glyph glyph-name="uni0458" unicode="&#x0458;" d="M237 516L126-8Q105-109 66-148.50Q27-188-68-188Q-104-188-135-183L-111-71Q-98-73-78-73Q-48-73-36.50-59.50Q-25-46-17-9L95 516L237 516M279 712L254 595L113 595L137 712L279 712Z"  horiz-adv-x="259" vert-adv-y="1000"  />

      
      <glyph glyph-name="uni0459" unicode="&#x0459;" d="M783 181Q783 134 761.50 93Q740 52 702 29Q655 0 553 0L309 0L396 409L288 409L242 225Q228 170 214.50 134.50Q201 99 177 61Q153 23 115 4.50Q77-14 24-14Q-18-14-48-4L-24 107Q-9 102 16 102Q48 102 67.50 129Q87 156 105 232L173 516L560 516L519 326L599 326Q655 326 689 316Q732 304 757.50 267Q783 230 783 181M639 172Q639 205 618 215Q597 225 554 225L498 225L471 102L555 102Q639 102 639 172Z"  horiz-adv-x="822" vert-adv-y="1000"  />

      
      <glyph glyph-name="uni045A" unicode="&#x045A;" d="M783 181Q783 134 761.50 93Q740 52 702 29Q655 0 553 0L304 0L352 225L183 225L135 0L-6 0L104 516L245 516L205 329L374 329L414 516L555 516L514 326L599 326Q655 326 689 316Q732 304 757.50 267Q783 230 783 181M639 172Q639 205 618 215Q597 225 554 225L493 225L466 102L555 102Q639 102 639 172Z"  horiz-adv-x="822" vert-adv-y="1000"  />

      
      <glyph glyph-name="uni045B" unicode="&#x045B;" d="M527 259Q527 220 516 170L479 0L337 0L370 149Q378 186 378 210Q378 241 359.50 258.50Q341 276 307 276Q194 276 162 126L135 0L-5 0L87 435L28 435L49 531L108 531L146 712L286 712L248 531L491 531L470 435L227 435L199 305Q272 389 375 389Q442 390 484.50 353Q527 316 527 259Z"  horiz-adv-x="574" vert-adv-y="1000"  />

      
      <glyph glyph-name="uni045C" unicode="&#x045C;" d="M488 727L325 583L225 583L327 727L488 727M204 325L411 516L591 516L354 313L491 0L334 0L246 221L168 154L135 0L-4 0L106 516L245 516L204 325Z"  horiz-adv-x="556" vert-adv-y="1000"  />

      
      <glyph glyph-name="uni045E" unicode="&#x045E;" d="M543 516L261-2Q210-96 184-125Q127-188 22-188Q-22-188-60-181L-36-67Q-10-73 21-73Q49-73 68-61.50Q87-50 95-37.50Q103-25 118 4L24 516L169 516L218 156L393 516L543 516M415 712L471 712Q451 568 294 568Q225 568 184 596Q143 624 143 683Q143 692 145 712L201 712Q203 679 229.50 662.50Q256 646 299 646Q344 646 376 662Q408 678 415 712Z"  horiz-adv-x="519" vert-adv-y="1000"  />

      
      <glyph glyph-name="uni045F" unicode="&#x045F;" d="M475 0L302 0L270-152L136-152L168 0L-6 0L104 516L245 516L158 109L357 109L444 516L585 516L475 0Z"  horiz-adv-x="611" vert-adv-y="1000"  />

      
      <glyph glyph-name="uni0490" unicode="&#x0490;" d="M678 871L616 579L275 579L152 0L-4 0L147 712L493 712L527 871L678 871Z"  horiz-adv-x="574" vert-adv-y="1000"  />

      
      <glyph glyph-name="uni0491" unicode="&#x0491;" d="M525 658L472 407L223 407L136 0L-5 0L105 516L361 516L391 658L525 658Z"  horiz-adv-x="453" vert-adv-y="1000"  />

      
      <glyph glyph-name="uni2013" unicode="&#x2013;" d="M498 332L472 212L-26 212L-1 332L498 332Z"  horiz-adv-x="500" vert-adv-y="1000"  />

      
      <glyph glyph-name="uni2014" unicode="&#x2014;" d="M998 332L972 212L-25 212L0 332L998 332Z"  horiz-adv-x="1000" vert-adv-y="1000"  />

      
      <glyph glyph-name="uni2018" unicode="&#x2018;" d="M305 722L290 652Q244 646 226.50 626Q209 606 198 556L269 556L237 404L79 404L106 530Q126 625 168.50 673.50Q211 722 300 722L305 722Z"  horiz-adv-x="278" vert-adv-y="1000"  />

      
      <glyph glyph-name="uni2019" unicode="&#x2019;" d="M294 712L267 580Q248 490 202.50 441.50Q157 393 71 393L68 393L84 465Q128 467 146 489Q164 511 175 559L104 559L136 712L294 712Z"  horiz-adv-x="278" vert-adv-y="1000"  />

      
      <glyph glyph-name="uni201A" unicode="&#x201A;" d="M166 150L138 16Q120-70 79-115Q38-160-44-165L-29-96Q12-90 29.50-68Q47-46 58 0L-10 0L23 150L166 150Z"  horiz-adv-x="278" vert-adv-y="1000"  />

      
      <glyph glyph-name="uni201C" unicode="&#x201C;" d="M291 720L276 654Q233 646 215.50 624.50Q198 603 190 557L256 557L224 407L80 407L113 551Q132 632 173 675Q214 718 291 720M504 720L489 654Q446 646 428.50 624.50Q411 603 403 557L469 557L437 407L293 407L326 551Q345 632 386 675Q427 718 504 720Z"  horiz-adv-x="481" vert-adv-y="1000"  />

      
      <glyph glyph-name="uni201D" unicode="&#x201D;" d="M291 712L261 574Q241 485 198.50 443Q156 401 80 397L95 465Q138 474 155.50 495.50Q173 517 182 561L115 561L147 712L291 712M502 712L473 576Q455 491 414 446.50Q373 402 292 397L307 464Q351 474 367.50 494.50Q384 515 394 561L328 561L359 712L502 712Z"  horiz-adv-x="481" vert-adv-y="1000"  />

      
      <glyph glyph-name="uni201E" unicode="&#x201E;" d="M153 150L124 16Q105-70 64.50-115Q24-160-57-165L-43-96Q-1-90 17-68Q35-46 44 0L-23 0L9 150L153 150M365 150L336 16Q317-70 276.50-115Q236-160 155-165L169-96Q211-90 229-68Q247-46 256 0L189 0L221 150L365 150Z"  horiz-adv-x="481" vert-adv-y="1000"  />

      
      <glyph glyph-name="uni2020" unicode="&#x2020;" d="M442 712L400 514L587 514L562 396L375 396L257-165L121-165L239 396L54 396L79 514L264 514L306 712L442 712Z"  horiz-adv-x="593" vert-adv-y="1000"  />

      
      <glyph glyph-name="uni2021" unicode="&#x2021;" d="M442 712L401 519L589 519L565 404L377 404L322 143L509 143L485 28L297 28L256-164L121-164L162 28L-23 28L1 143L186 143L241 404L57 404L81 519L265 519L307 712L442 712Z"  horiz-adv-x="593" vert-adv-y="1000"  />

      
      <glyph glyph-name="uni2022" unicode="&#x2022;" d="M124 482Q124 482 150 508Q176 534 250 534Q324 534 376 482Q428 430 428 356Q428 282 376 230Q324 178 250 178Q176 178 124 230Q72 282 72 356Q72 430 124 482Z"  horiz-adv-x="500" vert-adv-y="1000"  />

      
      <glyph glyph-name="uni2026" unicode="&#x2026;" d="M363 0L391 134L514 134L486 0L363 0M696 0L724 134L847 134L819 0L696 0M30 0L58 134L181 134L153 0L30 0Z"  horiz-adv-x="1000" vert-adv-y="1000"  />

      
      <glyph glyph-name="uni2030" unicode="&#x2030;" d="M699 719L161-27L68-27L606 719L699 719M240 705Q371 705 371 574Q371 481 322.50 421Q274 361 199 361Q138 361 104 396Q70 431 70 493Q70 578 114 641.50Q158 705 240 705M570 332Q634 332 669 299Q704 266 704 205Q704 115 659.50 52Q615-11 529-11Q470-11 436.50 24Q403 59 403 119Q403 202 447 267Q491 332 570 332M923 333L925 333Q986 333 1021 299Q1056 265 1056 206Q1056 118 1011 53.50Q966-11 881-11Q822-11 788 24Q754 59 754 120Q754 204 798 268.50Q842 333 923 333M282 590Q282 613 270 626.50Q258 640 238 640Q224 640 211 632Q190 619 173.50 573.50Q157 528 157 482Q157 427 202 427Q230 427 247 451Q282 503 282 590M569 267Q543 267 525 240Q511 220 500.50 180.50Q490 141 490 110Q490 54 537 54Q562 54 580 78Q595 98 605 136Q615 174 615 209Q615 267 569 267M967 212Q967 267 922 267Q901 267 887 254Q868 237 854.50 193.50Q841 150 841 107Q841 82 853.50 68Q866 54 887 54Q908 54 923 69Q942 89 954.50 129Q967 169 967 212Z"  horiz-adv-x="1130" vert-adv-y="1000"  />

      
      <glyph glyph-name="uni2039" unicode="&#x2039;" d="M224 452L200 330L90 262L167 178L144 71L17 209L45 338L224 452Z"  horiz-adv-x="259" vert-adv-y="1000"  />

      
      <glyph glyph-name="uni203A" unicode="&#x203A;" d="M75 453L203 313L174 186L-5 71L19 193L129 262L52 345L75 453Z"  horiz-adv-x="259" vert-adv-y="1000"  />

      
      <glyph glyph-name="uni2116" unicode="&#x2116;" d="M-5 0L143 694L302 694L451 255L545 694L695 694L547 0L391 0L240 440L146 0L-5 0M946 98L925 0L624 0L645 98L946 98M849 452Q915 452 953 415Q991 378 991 316Q991 235 938.50 182Q886 129 803 129Q737 129 698.50 166.50Q660 204 660 265Q660 347 713 399.50Q766 452 849 452M758 263Q758 203 810 203Q851 203 872 238.50Q893 274 893 317Q893 378 840 378Q800 378 779 342Q758 306 758 263Z"  horiz-adv-x="1046" vert-adv-y="1000"  />

      
      <glyph glyph-name="uni2122" unicode="&#x2122;" d="M245 356L245 644L136 644L136 712L436 712L436 644L329 644L329 356L245 356M483 356L483 712L603 712L690 467L777 712L895 712L895 356L818 356L818 646L717 356L661 356L560 646L560 356L483 356Z"  horiz-adv-x="990" vert-adv-y="1000"  />

      
      <glyph glyph-name="uni2206" unicode="&#x2206;" d="M472 695L605 0L-60 0L362 695L472 695M112 97L485 97L398 588L112 97Z"  horiz-adv-x="683" vert-adv-y="1000"  />

      
      <glyph glyph-name="uni221A" unicode="&#x221A;" d="M583 786L371-214L240-214L86 105L37 82L-3 167L155 232L287-49L458 786L583 786Z"  horiz-adv-x="600" vert-adv-y="1000"  />

      
      <glyph glyph-name="uni221E" unicode="&#x221E;" d="M742 262Q742 183 696.50 133.50Q651 84 577 84Q547 84 520 92.50Q493 101 467.50 119.50Q442 138 426 153Q410 168 384 195Q356 167 349.50 160.50Q343 154 318.50 133Q294 112 279.50 106Q265 100 241 92.50Q217 85 192 85Q118 85 71.50 133.50Q25 182 25 260Q25 338 70.50 387Q116 436 189 436Q247 436 291.50 405Q336 374 384 318Q418 356 439.50 377Q461 398 499 417.50Q537 437 577 437Q650 437 696 388Q742 339 742 262M648 259Q648 294 628 315.50Q608 337 576 337Q528 337 450 257Q474 234 489.50 221Q505 208 530 195.50Q555 183 578 183Q610 183 629 204Q648 225 648 259M318 258Q238 336 189 336Q159 336 139 314.50Q119 293 119 259Q119 225 139 204.50Q159 184 192 184Q223 184 257 205.50Q291 227 318 258Z"  horiz-adv-x="806" vert-adv-y="1000"  />

      
      <glyph glyph-name="uni2248" unicode="&#x2248;" d="M400 70Q379 70 348 77Q317 84 296.50 91Q276 98 237.50 112Q199 126 189 129Q159 139 144 139Q96 139 82 69L7 69Q13 142 48.50 193.50Q84 245 155 245Q171 245 190.50 241Q210 237 222 233.50Q234 230 257.50 222Q281 214 289 211Q388 178 415 178Q464 178 476 245L551 245Q533 70 400 70M402 273Q381 273 350 280Q319 287 298.50 294Q278 301 239.50 315Q201 329 191 332Q161 342 146 342Q98 342 84 272L9 272Q15 345 50.50 396.50Q86 448 157 448Q173 448 192.50 444Q212 440 224 436.50Q236 433 259.50 425Q283 417 291 414Q390 381 417 381Q466 381 478 448L553 448Q535 273 402 273Z"  horiz-adv-x="600" vert-adv-y="1000"  />

      
      <glyph glyph-name="uni2260" unicode="&#x2260;" d="M486 530L430 420L544 420L544 308L373 308L323 211L544 211L544 99L266 99L184-64L80-12L137 99L24 99L24 211L194 211L243 308L24 308L24 420L300 420L382 582L486 530Z"  horiz-adv-x="600" vert-adv-y="1000"  />

      
      <glyph glyph-name="uni2264" unicode="&#x2264;" d="M21 273L21 375L540 554L540 437L179 324L540 217L540 100L21 273M21 76L540 76L540-35L21-35L21 76Z"  horiz-adv-x="600" vert-adv-y="1000"  />

      
      <glyph glyph-name="uni2265" unicode="&#x2265;" d="M559 273L40 100L40 217L400 324L40 437L40 554L559 375L559 273M559 76L559-35L40-35L40 76L559 76Z"  horiz-adv-x="600" vert-adv-y="1000"  />

      
      <glyph glyph-name="uniE000" unicode="&#xE000;" d="M352 334L325 211L24 211L51 334L352 334Z"  horiz-adv-x="407" vert-adv-y="1000"  />

      

  </font>
</defs>
</svg>
