<svg width="16" height="17" viewBox="0 0 16 17" fill="none" xmlns="http://www.w3.org/2000/svg">
  <g clip-path="url(#clip0_2805_4975)">
    <path
      d="M8 16.5C12.4183 16.5 16 12.9183 16 8.5C16 4.08172 12.4183 0.5 8 0.5C3.58172 0.5 0 4.08172 0 8.5C0 12.9183 3.58172 16.5 8 16.5Z"
      fill="#F0F0F0" />
    <path d="M7.65234 8.49999H16.0002C16.0002 7.77793 15.9039 7.07843 15.7246 6.41302H7.65234V8.49999Z"
      fill="#D80027" />
    <path d="M7.65234 4.3261H14.826C14.3362 3.52698 13.7101 2.82064 12.98 2.23914H7.65234V4.3261Z" fill="#D80027" />
    <path
      d="M8.00014 16.5C9.88292 16.5 11.6135 15.8492 12.98 14.7609H3.02026C4.38683 15.8492 6.11736 16.5 8.00014 16.5Z"
      fill="#D80027" />
    <path
      d="M1.17423 12.6739H14.8259C15.219 12.0324 15.5239 11.3312 15.7244 10.587H0.275635C0.476166 11.3312 0.781072 12.0324 1.17423 12.6739V12.6739Z"
      fill="#D80027" />
    <path
      d="M3.70575 1.74931H4.43478L3.75666 2.24197L4.01569 3.03912L3.33759 2.54647L2.6595 3.03912L2.88325 2.35047C2.28619 2.84781 1.76287 3.4305 1.33162 4.07975H1.56522L1.13356 4.39334C1.06631 4.50553 1.00181 4.6195 0.94 4.73516L1.14612 5.36956L0.761563 5.09016C0.665969 5.29269 0.578531 5.49978 0.499938 5.71119L0.727031 6.41019H1.56522L0.887094 6.90284L1.14612 7.7L0.468031 7.20734L0.0618437 7.50247C0.0211875 7.82928 0 8.16216 0 8.5H8C8 4.08175 8 3.56087 8 0.5C6.41963 0.5 4.94641 0.958438 3.70575 1.74931V1.74931ZM4.01569 7.7L3.33759 7.20734L2.6595 7.7L2.91853 6.90284L2.24041 6.41019H3.07859L3.33759 5.61303L3.59659 6.41019H4.43478L3.75666 6.90284L4.01569 7.7ZM3.75666 4.57241L4.01569 5.36956L3.33759 4.87691L2.6595 5.36956L2.91853 4.57241L2.24041 4.07975H3.07859L3.33759 3.28259L3.59659 4.07975H4.43478L3.75666 4.57241ZM6.88525 7.7L6.20716 7.20734L5.52906 7.7L5.78809 6.90284L5.10997 6.41019H5.94816L6.20716 5.61303L6.46616 6.41019H7.30434L6.62622 6.90284L6.88525 7.7ZM6.62622 4.57241L6.88525 5.36956L6.20716 4.87691L5.52906 5.36956L5.78809 4.57241L5.10997 4.07975H5.94816L6.20716 3.28259L6.46616 4.07975H7.30434L6.62622 4.57241ZM6.62622 2.24197L6.88525 3.03912L6.20716 2.54647L5.52906 3.03912L5.78809 2.24197L5.10997 1.74931H5.94816L6.20716 0.952156L6.46616 1.74931H7.30434L6.62622 2.24197Z"
      fill="#0052B4" />
  </g>
  <defs>
    <clipPath id="clip0_2805_4975">
      <rect width="16" height="16" fill="white" transform="translate(0 0.5)" />
    </clipPath>
  </defs>
</svg>