<svg width="16" height="17" viewBox="0 0 16 17" fill="none" xmlns="http://www.w3.org/2000/svg">
  <g clip-path="url(#clip0_2805_5055)">
    <path
      d="M0 8.49998C0 9.47854 0.176031 10.4159 0.497594 11.2826L8 11.9782L15.5024 11.2826C15.824 10.4159 16 9.47854 16 8.49998C16 7.52142 15.824 6.58404 15.5024 5.71738L8 5.02173L0.497594 5.71738C0.176031 6.58404 0 7.52142 0 8.49998H0Z"
      fill="#FFDA44" />
    <path
      d="M15.5024 5.71741C14.372 2.67103 11.4397 0.5 7.99996 0.5C4.56025 0.5 1.6279 2.67103 0.497559 5.71741H15.5024Z"
      fill="#D80027" />
    <path
      d="M0.497559 11.2826C1.6279 14.329 4.56025 16.5 7.99996 16.5C11.4397 16.5 14.372 14.329 15.5024 11.2826H0.497559Z"
      fill="#D80027" />
  </g>
  <defs>
    <clipPath id="clip0_2805_5055">
      <rect width="16" height="16" fill="white" transform="translate(0 0.5)" />
    </clipPath>
  </defs>
</svg>