<svg width="700" height="613" viewBox="0 0 700 613" fill="none" xmlns="http://www.w3.org/2000/svg">
  <path fill-rule="evenodd" clip-rule="evenodd"
    d="M174.811 -172.811L174.701 -165.506L170.152 -165.39L165.603 -165.274V-156.659V-148.044L170.152 -147.927L174.701 -147.811L174.938 -128.881C175.086 -117.087 175.353 -109.074 175.645 -107.624C176.903 -101.393 180.568 -96.3492 185.592 -93.9332C190.268 -91.685 195.154 -91.0612 205.635 -91.3751C210.416 -91.5188 215.287 -91.7529 216.46 -91.8957L218.591 -92.1558L218.481 -100.642L218.372 -109.128L210.285 -109.138C200.03 -109.151 198.878 -109.524 197.035 -113.423C196.168 -115.258 196.148 -115.673 196.14 -131.556L196.132 -147.811L204.523 -147.922L212.913 -148.034V-156.659V-165.284L204.523 -165.395L196.132 -165.506L196.022 -172.811L195.911 -180.115H185.417H174.922L174.811 -172.811ZM37.2829 -168.555C34.2542 -168.229 31.1555 -167.29 28.3889 -165.859C26.2979 -164.778 21.8001 -160.917 20.5693 -159.146C18.7258 -156.494 18.4536 -156.878 18.3254 -162.317L18.2114 -167.153H8.70881H-0.793774L-0.896886 -129.388L-1 -91.6241L9.41443 -91.734L19.8289 -91.8439L20.0517 -115.918C20.2684 -139.316 20.2991 -140.054 21.1435 -142.193C22.3133 -145.157 22.9259 -146.04 25.0929 -147.886C28.008 -150.37 30.7989 -151.262 35.7265 -151.287C39.0767 -151.305 40.3096 -151.138 41.9942 -150.438C44.8999 -149.232 47.5942 -146.278 48.7847 -142.995C49.7224 -140.409 49.7248 -140.353 49.8599 -116.014L49.9953 -91.6241L60.3871 -91.734L70.7789 -91.8439L70.8832 -117.684C70.9795 -141.568 70.9289 -143.86 70.2152 -147.973C68.8169 -156.032 65.356 -161.694 59.6415 -165.273C54.508 -168.487 46.963 -169.594 37.2829 -168.555ZM112.542 -168.559C110.825 -168.374 108.59 -167.936 107.575 -167.585C106.559 -167.234 105.444 -166.947 105.097 -166.947C104.75 -166.947 103.983 -166.677 103.393 -166.348C102.802 -166.019 101.235 -165.246 99.9106 -164.632C93.4521 -161.635 88.167 -156.265 84.791 -149.269C83.8678 -147.356 83.1092 -145.504 83.106 -145.154C83.1027 -144.805 82.8476 -143.778 82.5391 -142.873C81.4327 -139.627 80.8986 -130.93 81.4234 -124.705C82.1889 -115.627 84.0583 -109.95 88.1699 -104.222C90.7926 -100.569 91.1933 -100.165 95.8496 -96.4739C100.994 -92.3957 109.689 -89.985 119.202 -89.9994C128.009 -90.013 135.656 -92.0307 141.479 -95.8772C144.401 -97.8073 144.475 -97.8698 147.414 -100.904C150.142 -103.72 151.798 -106.217 153.684 -110.362C156.292 -116.094 157.104 -120.783 157.108 -130.143C157.112 -139.251 156.337 -143.433 153.564 -149.251C151.593 -153.389 150.202 -155.418 147.318 -158.362C139.249 -166.599 127.187 -170.136 112.542 -168.559ZM125.428 -150.383C128.332 -149.215 131.934 -145.613 133.465 -142.344C135.519 -137.961 136.151 -128.194 134.84 -121.115C133.946 -116.287 130.013 -110.743 126.151 -108.865C124.397 -108.012 123.566 -107.894 119.303 -107.894C114.892 -107.893 114.248 -107.992 112.226 -108.978C106.223 -111.905 103.464 -117.465 103.066 -127.441C102.767 -134.911 103.27 -138.562 105.122 -142.377C106.878 -145.993 109.188 -148.417 112.449 -150.067C114.634 -151.171 115.234 -151.284 118.99 -151.296C122.347 -151.306 123.559 -151.135 125.428 -150.383ZM235.904 -111.578C233.324 -110.259 231.312 -108.028 230.543 -105.634C228.731 -99.9953 230.938 -94.3274 235.876 -91.9414C237.532 -91.1418 238.418 -91.0237 242.634 -91.0439C247.046 -91.0653 247.652 -91.1616 249.306 -92.1044C251.43 -93.3147 253.546 -95.9517 254.14 -98.1299C254.668 -100.064 254.679 -103.748 254.162 -105.64C253.626 -107.604 250.741 -110.66 248.401 -111.741C246.794 -112.483 245.783 -112.619 242.133 -112.582C238.434 -112.546 237.501 -112.395 235.904 -111.578ZM168.635 -100.618C168.191 -100.365 167.533 -99.8616 167.173 -99.499C166.814 -99.1365 166.113 -98.562 165.616 -98.2225C165.119 -97.883 163.309 -96.4941 161.593 -95.1361C159.878 -93.778 156.258 -91.0003 153.55 -88.9632L148.626 -85.2595L148.622 -46.878L148.619 -8.49696L159.234 -8.60643L169.848 -8.71631L170.051 -18.0258L170.253 -27.3348L173.892 -31.6805C175.894 -34.0706 177.747 -36.0389 178.011 -36.0542C178.274 -36.0698 178.968 -35.3879 179.552 -34.5394C180.826 -32.6883 189.789 -18.7875 189.952 -18.4097C190.015 -18.264 191.493 -15.9772 193.237 -13.3278L196.407 -8.51054H208.516H220.625L220.105 -9.3838C219.031 -11.1896 218.737 -11.6583 217.173 -14.0661C216.291 -15.4241 215.468 -16.6278 215.344 -16.741C215.22 -16.8542 210.994 -23.2431 205.953 -30.9385C200.912 -38.634 195.96 -46.134 194.948 -47.6052C192.919 -50.5554 192.644 -52.0797 193.908 -53.3665C194.353 -53.8192 194.717 -54.3657 194.717 -54.5805C194.717 -54.7957 194.962 -55.1196 195.262 -55.3007C195.562 -55.4817 196.687 -56.8336 197.763 -58.3048C198.839 -59.776 200.004 -61.2949 200.352 -61.6801C201.216 -62.6369 201.503 -63.0093 204.004 -66.4324C205.204 -68.0735 206.334 -69.4159 206.517 -69.4159C206.699 -69.4159 206.848 -69.6143 206.848 -69.8566C206.848 -70.0986 207.542 -71.1636 208.391 -72.2229C212.139 -76.9015 216.19 -82.2147 216.368 -82.6871C216.522 -83.0937 214.079 -83.1731 204.73 -83.0653L192.897 -82.9286L186.45 -74.5262C182.905 -69.9048 179.857 -66.1237 179.677 -66.1237C179.498 -66.1237 179.351 -65.9188 179.351 -65.6686C179.351 -65.2813 177.219 -62.2245 176.512 -61.597C176.384 -61.4838 175.045 -59.7706 173.536 -57.7904C172.027 -55.8097 170.625 -54.1896 170.421 -54.1896C170.201 -54.1896 170.051 -63.6982 170.051 -77.6463C170.051 -90.5476 169.914 -101.097 169.747 -101.091C169.58 -101.084 169.08 -100.871 168.635 -100.618ZM95.4452 -84.6472C92.2653 -84.2007 91.2232 -83.9513 87.3579 -82.7097C78.4283 -79.8418 73.404 -75.5624 70.5808 -68.4192C69.7401 -66.2924 69.6236 -65.3566 69.6649 -61.0756C69.6997 -57.4525 69.8885 -55.776 70.3867 -54.6649C70.7575 -53.8377 71.402 -52.4184 71.8185 -51.5114C72.2354 -50.604 73.4679 -48.9373 74.5581 -47.8077C76.956 -45.3225 77.218 -45.1138 79.2706 -44.0546C85.2414 -40.9727 88.4816 -39.9838 97.8714 -38.3776C101.604 -37.7393 107.532 -36.3645 110.279 -35.4998C114.581 -34.1459 116.674 -32.0801 116.674 -29.1891C116.674 -27.7714 114.545 -24.5616 113.403 -24.2579C112.978 -24.1447 112.631 -23.9229 112.631 -23.764C112.631 -23.111 106.193 -21.95 102.516 -21.9402C95.8018 -21.9221 92.3332 -23.4217 89.8269 -27.4254L88.2713 -29.9097H78.0328C72.4012 -29.9097 67.7114 -29.771 67.6103 -29.6011C67.3131 -29.1015 68.1331 -24.5274 68.8052 -22.9381C70.4255 -19.104 71.3931 -17.6188 74.028 -14.9212C77.9774 -10.8776 83.4493 -8.16403 90.1884 -6.90807C99.5236 -5.16774 104.537 -5.20355 116.068 -7.09367C118.005 -7.41136 122.698 -8.83853 123.549 -9.36897C123.882 -9.5768 124.599 -9.94058 125.141 -10.1772C126.937 -10.9599 131.118 -14.2204 132.759 -16.1175C137.972 -22.1439 139.193 -31.6608 135.745 -39.3747C134.177 -42.8821 129.062 -47.4126 124.2 -49.6003C120.703 -51.1739 113.344 -52.9817 106.363 -53.9821C97.85 -55.2019 94.2968 -56.2974 92.3114 -58.3138C90.9519 -59.6949 90.795 -60.0731 90.795 -61.971C90.795 -63.9167 90.9357 -64.2307 92.535 -65.8583C93.9385 -67.2867 94.7942 -67.762 96.9648 -68.3167C104.303 -70.1924 110.582 -67.9961 112.94 -62.7287L113.63 -61.1854H124.251C130.092 -61.1854 134.869 -61.3241 134.866 -61.4941C134.864 -61.664 134.52 -63.2175 134.103 -64.9472C131.897 -74.0867 125.551 -80.5064 116.068 -83.1916C114.733 -83.5694 113.096 -84.0595 112.429 -84.2805C110.821 -84.8134 98.5224 -85.0788 95.4452 -84.6472ZM304.098 -84.6702C297.389 -83.5871 291.774 -80.3237 287.555 -75.0542C286.407 -73.6208 285.882 -73.2258 285.641 -73.6138C285.457 -73.9077 285.304 -76.1394 285.301 -78.5723L285.295 -82.9961H275.59H265.885V-31.5558V19.8845H276.399H286.912V1.57176C286.912 -10.8678 287.048 -16.741 287.334 -16.741C287.566 -16.741 288.612 -15.792 289.659 -14.6324C291.583 -12.5007 295.865 -8.92206 296.491 -8.92206C296.678 -8.92206 297.465 -8.57721 298.241 -8.15581C300.326 -7.02165 306.657 -5.6266 309.607 -5.6517C311.942 -5.67104 314.982 -6.14923 319.464 -7.20108C324.634 -8.41507 331.33 -13.1645 334.072 -17.564C334.707 -18.5826 335.346 -19.5085 335.492 -19.6217C336.179 -20.1525 338.491 -26.0237 339.544 -29.9097C340.611 -33.8447 340.735 -35.0031 340.935 -42.8727C341.312 -57.7266 340.11 -64.3797 335.663 -72.0373C332.652 -77.2216 326.882 -81.6484 320.879 -83.3801C319.878 -83.6686 318.647 -84.0682 318.143 -84.2682C316.87 -84.7723 306.559 -85.0673 304.098 -84.6702ZM232.188 -82.3101C232.04 -82.1595 231.919 -65.4929 231.919 -45.2731V-8.51054H242.432H252.946V-45.5476V-82.5846H242.702C237.067 -82.5846 232.336 -82.4612 232.188 -82.3101ZM309.591 -66.5212C313.769 -64.8455 316.643 -61.5241 318.482 -56.2472C319.327 -53.8217 319.414 -52.8624 319.412 -45.9591C319.41 -38.6887 319.359 -38.1978 318.282 -35.055C315.579 -27.176 310.69 -23.3254 303.391 -23.3254C301.661 -23.3254 299.929 -23.4941 299.543 -23.7003C299.157 -23.9068 297.931 -24.399 296.819 -24.7941C294.458 -25.6336 289.537 -30.385 289.085 -32.2616C288.934 -32.892 288.694 -33.5003 288.552 -33.6134C287.3 -34.6151 286.407 -48.0266 287.234 -53.4192C288.199 -59.7147 291.907 -64.4146 297.565 -66.5134C300.605 -67.641 306.79 -67.6451 309.591 -66.5212Z"
    fill="#A3BEF5" />
  <path fill-rule="evenodd" clip-rule="evenodd"
    d="M174.811 36.1525L174.701 43.4205L170.152 43.5364L165.603 43.6523V52.224V60.7958L170.152 60.9116L174.701 61.0275L174.938 79.8629C175.086 91.5982 175.353 99.5709 175.645 101.013C176.903 107.213 180.568 112.232 185.592 114.636C190.268 116.873 195.154 117.494 205.635 117.181C210.416 117.038 215.287 116.805 216.46 116.663L218.591 116.404L218.481 107.961L218.372 99.5172L210.285 99.507C200.03 99.4939 198.878 99.1233 197.035 95.2432C196.168 93.4178 196.148 93.0047 196.14 77.2014L196.132 61.0275L204.523 60.917L212.913 60.806V52.224V43.642L204.523 43.5311L196.132 43.4205L196.022 36.1525L195.911 28.8845H185.417H174.922L174.811 36.1525ZM37.2829 40.3876C34.2542 40.7115 31.1555 41.6459 28.3889 43.0696C26.2979 44.1453 21.8001 47.9873 20.5693 49.7492C18.7258 52.3878 18.4536 52.0054 18.3254 46.5939L18.2114 41.7827H8.70881H-0.793774L-0.896886 79.358L-1 116.933L9.41443 116.824L19.8289 116.715L20.0517 92.7611C20.2684 69.4797 20.2991 68.7459 21.1435 66.6171C22.3133 63.6682 22.9259 62.7895 25.0929 60.9526C28.008 58.4815 30.7989 57.5933 35.7265 57.5684C39.0767 57.5512 40.3096 57.7174 41.9942 58.4135C44.8999 59.614 47.5942 62.5524 48.7847 65.8191C49.7224 68.3926 49.7248 68.4478 49.8599 92.6657L49.9953 116.933L60.3871 116.824L70.7789 116.715L70.8832 91.004C70.9795 67.2391 70.9289 64.9584 70.2152 60.8662C68.8169 52.8481 65.356 47.2138 59.6415 43.6531C54.508 40.4548 46.963 39.3529 37.2829 40.3876ZM112.542 40.3835C110.825 40.5674 108.59 41.0035 107.575 41.3527C106.559 41.7016 105.444 41.9874 105.097 41.9874C104.75 41.9874 103.983 42.2556 103.393 42.5832C102.802 42.9107 101.235 43.6793 99.9106 44.2906C93.4521 47.2724 88.167 52.6155 84.791 59.5764C83.8678 61.4804 83.1092 63.323 83.106 63.671C83.1027 64.0187 82.8476 65.0403 82.5391 65.9411C81.4327 69.1701 80.8986 77.8242 81.4234 84.0182C82.1889 93.051 84.0583 98.6987 88.1699 104.398C90.7926 108.033 91.1933 108.435 95.8496 112.108C100.994 116.166 109.689 118.564 119.202 118.55C128.009 118.536 135.656 116.529 141.479 112.702C144.401 110.781 144.475 110.719 147.414 107.7C150.142 104.898 151.798 102.413 153.684 98.2888C156.292 92.5854 157.104 87.9208 157.108 78.6075C157.112 69.5448 156.337 65.3834 153.564 59.5944C151.593 55.4776 150.202 53.4586 147.318 50.5288C139.249 42.333 127.187 38.814 112.542 40.3835ZM125.428 58.4684C128.332 59.6304 131.934 63.2149 133.465 66.4673C135.519 70.8281 136.151 80.5459 134.84 87.5903C133.946 92.3942 130.013 97.9101 126.151 99.7789C124.397 100.627 123.566 100.745 119.303 100.745C114.892 100.746 114.248 100.647 112.226 99.6667C106.223 96.7542 103.464 91.2215 103.066 81.296C102.767 73.8626 103.27 70.2298 105.122 66.4345C106.878 62.8361 109.188 60.4244 112.449 58.7832C114.634 57.6838 115.234 57.5716 118.99 57.5598C122.347 57.5495 123.559 57.7203 125.428 58.4684ZM235.904 97.0789C233.324 98.392 231.312 100.612 230.543 102.994C228.731 108.604 230.938 114.244 235.876 116.618C237.532 117.413 238.418 117.531 242.634 117.511C247.046 117.489 247.652 117.394 249.306 116.456C251.43 115.251 253.546 112.627 254.14 110.46C254.668 108.535 254.679 104.87 254.162 102.987C253.626 101.033 250.741 97.9932 248.401 96.9175C246.794 96.1789 245.783 96.0437 242.133 96.0802C238.434 96.1166 237.501 96.2665 235.904 97.0789ZM168.635 107.984C168.191 108.236 167.533 108.737 167.173 109.098C166.814 109.459 166.113 110.03 165.616 110.368C165.119 110.706 163.309 112.088 161.593 113.439C159.878 114.79 156.258 117.554 153.55 119.581L148.626 123.266L148.622 161.456L148.619 199.645L159.234 199.536L169.848 199.427L170.051 190.164L170.253 180.901L173.892 176.577C175.894 174.199 177.747 172.241 178.011 172.226C178.274 172.21 178.968 172.888 179.552 173.733C180.826 175.575 189.789 189.406 189.952 189.782C190.015 189.927 191.493 192.202 193.237 194.838L196.407 199.631H208.516H220.625L220.105 198.763C219.031 196.966 218.737 196.499 217.173 194.104C216.291 192.752 215.468 191.555 215.344 191.442C215.22 191.33 210.994 184.973 205.953 177.316C200.912 169.659 195.96 162.196 194.948 160.732C192.919 157.797 192.644 156.28 193.908 155C194.353 154.549 194.717 154.006 194.717 153.792C194.717 153.578 194.962 153.255 195.262 153.075C195.562 152.895 196.687 151.55 197.763 150.086C198.839 148.622 200.004 147.111 200.352 146.728C201.216 145.776 201.503 145.405 204.004 141.999C205.204 140.366 206.334 139.031 206.517 139.031C206.699 139.031 206.848 138.833 206.848 138.592C206.848 138.351 207.542 137.292 208.391 136.238C212.139 131.582 216.19 126.296 216.368 125.826C216.522 125.421 214.079 125.342 204.73 125.449L192.897 125.585L186.45 133.946C182.905 138.544 179.857 142.306 179.677 142.306C179.498 142.306 179.351 142.51 179.351 142.759C179.351 143.145 177.219 146.186 176.512 146.81C176.384 146.923 175.045 148.628 173.536 150.598C172.027 152.569 170.625 154.181 170.421 154.181C170.201 154.181 170.051 144.72 170.051 130.841C170.051 118.005 169.914 107.508 169.747 107.514C169.58 107.521 169.08 107.733 168.635 107.984ZM95.4452 123.875C92.2653 124.32 91.2232 124.568 87.3579 125.803C78.4283 128.657 73.404 132.915 70.5808 140.022C69.7401 142.138 69.6236 143.07 69.6649 147.329C69.6997 150.934 69.8885 152.602 70.3867 153.708C70.7575 154.531 71.402 155.943 71.8185 156.846C72.2354 157.748 73.4679 159.407 74.5581 160.531C76.956 163.004 77.218 163.211 79.2706 164.265C85.2414 167.332 88.4816 168.316 97.8714 169.914C101.604 170.549 107.532 171.917 110.279 172.777C114.581 174.124 116.674 176.18 116.674 179.056C116.674 180.467 114.545 183.661 113.403 183.963C112.978 184.075 112.631 184.296 112.631 184.454C112.631 185.104 106.193 186.259 102.516 186.269C95.8018 186.287 92.3332 184.795 89.8269 180.811L88.2713 178.339H78.0328C72.4012 178.339 67.7114 178.477 67.6103 178.646C67.3131 179.143 68.1331 183.695 68.8052 185.276C70.4255 189.091 71.3931 190.569 74.028 193.253C77.9774 197.276 83.4493 199.976 90.1884 201.226C99.5236 202.958 104.537 202.922 116.068 201.041C118.005 200.725 122.698 199.305 123.549 198.777C123.882 198.571 124.599 198.209 125.141 197.973C126.937 197.194 131.118 193.95 132.759 192.062C137.972 186.066 139.193 176.597 135.745 168.922C134.177 165.432 129.062 160.924 124.2 158.747C120.703 157.181 113.344 155.383 106.363 154.387C97.85 153.174 94.2968 152.084 92.3114 150.077C90.9519 148.703 90.795 148.327 90.795 146.438C90.795 144.502 90.9357 144.19 92.535 142.57C93.9385 141.149 94.7942 140.676 96.9648 140.124C104.303 138.258 110.582 140.443 112.94 145.684L113.63 147.22H124.251C130.092 147.22 134.869 147.082 134.866 146.913C134.864 146.744 134.52 145.198 134.103 143.477C131.897 134.383 125.551 127.996 116.068 125.324C114.733 124.948 113.096 124.46 112.429 124.24C110.821 123.71 98.5224 123.446 95.4452 123.875ZM304.098 123.853C297.389 124.93 291.774 128.177 287.555 133.421C286.407 134.847 285.882 135.24 285.641 134.854C285.457 134.561 285.304 132.341 285.301 129.92L285.295 125.518H275.59H265.885V176.701V227.885H276.399H286.912V209.663C286.912 197.286 287.048 191.442 287.334 191.442C287.566 191.442 288.612 192.386 289.659 193.54C291.583 195.661 295.865 199.222 296.491 199.222C296.678 199.222 297.465 199.565 298.241 199.984C300.326 201.113 306.657 202.501 309.607 202.476C311.942 202.457 314.982 201.981 319.464 200.934C324.634 199.726 331.33 195.001 334.072 190.623C334.707 189.61 335.346 188.688 335.492 188.576C336.179 188.048 338.491 182.206 339.544 178.339C340.611 174.424 340.735 173.271 340.935 165.441C341.312 150.661 340.11 144.042 335.663 136.422C332.652 131.264 326.882 126.859 320.879 125.136C319.878 124.849 318.647 124.452 318.143 124.253C316.87 123.751 306.559 123.457 304.098 123.853ZM232.188 126.201C232.04 126.351 231.919 142.934 231.919 163.053V199.631H242.432H252.946V162.78V125.928H242.702C237.067 125.928 232.336 126.051 232.188 126.201ZM309.591 141.911C313.769 143.578 316.643 146.883 318.482 152.133C319.327 154.547 319.414 155.501 319.412 162.37C319.41 169.604 319.359 170.093 318.282 173.22C315.579 181.059 310.69 184.891 303.391 184.891C301.661 184.891 299.929 184.723 299.543 184.518C299.157 184.312 297.931 183.822 296.819 183.429C294.458 182.594 289.537 177.866 289.085 175.999C288.934 175.372 288.694 174.767 288.552 174.654C287.3 173.657 286.407 160.313 287.234 154.947C288.199 148.683 291.907 144.007 297.565 141.919C300.605 140.797 306.79 140.793 309.591 141.911Z"
    fill="#A3BEF5" />
  <path fill-rule="evenodd" clip-rule="evenodd"
    d="M174.811 244.153L174.701 251.421L170.152 251.536L165.603 251.652V260.224V268.796L170.152 268.912L174.701 269.028L174.938 287.863C175.086 299.598 175.353 307.571 175.645 309.013C176.903 315.213 180.568 320.232 185.592 322.636C190.268 324.873 195.154 325.494 205.635 325.181C210.416 325.038 215.287 324.805 216.46 324.663L218.591 324.404L218.481 315.961L218.372 307.517L210.285 307.507C200.03 307.494 198.878 307.123 197.035 303.243C196.168 301.418 196.148 301.005 196.14 285.201L196.132 269.028L204.523 268.917L212.913 268.806V260.224V251.642L204.523 251.531L196.132 251.421L196.022 244.153L195.911 236.885H185.417H174.922L174.811 244.153ZM37.2829 248.388C34.2542 248.712 31.1555 249.646 28.3889 251.07C26.2979 252.145 21.8001 255.987 20.5693 257.749C18.7258 260.388 18.4536 260.005 18.3254 254.594L18.2114 249.783H8.70881H-0.793774L-0.896886 287.358L-1 324.933L9.41443 324.824L19.8289 324.715L20.0517 300.761C20.2684 277.48 20.2991 276.746 21.1435 274.617C22.3133 271.668 22.9259 270.789 25.0929 268.953C28.008 266.481 30.7989 265.593 35.7265 265.568C39.0767 265.551 40.3096 265.717 41.9942 266.413C44.8999 267.614 47.5942 270.552 48.7847 273.819C49.7224 276.393 49.7248 276.448 49.8599 300.666L49.9953 324.933L60.3871 324.824L70.7789 324.715L70.8832 299.004C70.9795 275.239 70.9289 272.958 70.2152 268.866C68.8169 260.848 65.356 255.214 59.6415 251.653C54.508 248.455 46.963 247.353 37.2829 248.388ZM112.542 248.384C110.825 248.567 108.59 249.003 107.575 249.353C106.559 249.702 105.444 249.987 105.097 249.987C104.75 249.987 103.983 250.256 103.393 250.583C102.802 250.911 101.235 251.679 99.9106 252.291C93.4521 255.272 88.167 260.615 84.791 267.576C83.8678 269.48 83.1092 271.323 83.106 271.671C83.1027 272.019 82.8476 273.04 82.5391 273.941C81.4327 277.17 80.8986 285.824 81.4234 292.018C82.1889 301.051 84.0583 306.699 88.1699 312.398C90.7926 316.033 91.1933 316.435 95.8496 320.108C100.994 324.166 109.689 326.564 119.202 326.55C128.009 326.536 135.656 324.529 141.479 320.702C144.401 318.781 144.475 318.719 147.414 315.7C150.142 312.898 151.798 310.413 153.684 306.289C156.292 300.585 157.104 295.921 157.108 286.607C157.112 277.545 156.337 273.383 153.564 267.594C151.593 263.478 150.202 261.459 147.318 258.529C139.249 250.333 127.187 246.814 112.542 248.384ZM125.428 266.468C128.332 267.63 131.934 271.215 133.465 274.467C135.519 278.828 136.151 288.546 134.84 295.59C133.946 300.394 130.013 305.91 126.151 307.779C124.397 308.627 123.566 308.745 119.303 308.745C114.892 308.746 114.248 308.647 112.226 307.667C106.223 304.754 103.464 299.221 103.066 289.296C102.767 281.863 103.27 278.23 105.122 274.435C106.878 270.836 109.188 268.424 112.449 266.783C114.634 265.684 115.234 265.572 118.99 265.56C122.347 265.55 123.559 265.72 125.428 266.468ZM235.904 305.079C233.324 306.392 231.312 308.612 230.543 310.994C228.731 316.604 230.938 322.244 235.876 324.618C237.532 325.413 238.418 325.531 242.634 325.511C247.046 325.489 247.652 325.394 249.306 324.456C251.43 323.251 253.546 320.627 254.14 318.46C254.668 316.535 254.679 312.87 254.162 310.987C253.626 309.033 250.741 305.993 248.401 304.918C246.794 304.179 245.783 304.044 242.133 304.08C238.434 304.117 237.501 304.266 235.904 305.079ZM168.635 315.984C168.191 316.236 167.533 316.737 167.173 317.098C166.814 317.459 166.113 318.03 165.616 318.368C165.119 318.706 163.309 320.088 161.593 321.439C159.878 322.79 156.258 325.554 153.55 327.581L148.626 331.266L148.622 369.456L148.619 407.645L159.234 407.536L169.848 407.427L170.051 398.164L170.253 388.901L173.892 384.577C175.894 382.199 177.747 380.241 178.011 380.226C178.274 380.21 178.968 380.888 179.552 381.733C180.826 383.575 189.789 397.406 189.952 397.782C190.015 397.927 191.493 400.202 193.237 402.838L196.407 407.631H208.516H220.625L220.105 406.763C219.031 404.966 218.737 404.499 217.173 402.104C216.291 400.752 215.468 399.555 215.344 399.442C215.22 399.33 210.994 392.973 205.953 385.316C200.912 377.659 195.96 370.196 194.948 368.732C192.919 365.797 192.644 364.28 193.908 363C194.353 362.549 194.717 362.006 194.717 361.792C194.717 361.578 194.962 361.255 195.262 361.075C195.562 360.895 196.687 359.55 197.763 358.086C198.839 356.622 200.004 355.111 200.352 354.728C201.216 353.776 201.503 353.405 204.004 349.999C205.204 348.366 206.334 347.031 206.517 347.031C206.699 347.031 206.848 346.833 206.848 346.592C206.848 346.351 207.542 345.292 208.391 344.238C212.139 339.582 216.19 334.296 216.368 333.826C216.522 333.421 214.079 333.342 204.73 333.449L192.897 333.585L186.45 341.946C182.905 346.544 179.857 350.306 179.677 350.306C179.498 350.306 179.351 350.51 179.351 350.759C179.351 351.145 177.219 354.186 176.512 354.81C176.384 354.923 175.045 356.628 173.536 358.598C172.027 360.569 170.625 362.181 170.421 362.181C170.201 362.181 170.051 352.72 170.051 338.841C170.051 326.005 169.914 315.508 169.747 315.514C169.58 315.521 169.08 315.733 168.635 315.984ZM95.4452 331.875C92.2653 332.32 91.2232 332.568 87.3579 333.803C78.4283 336.657 73.404 340.915 70.5808 348.022C69.7401 350.138 69.6236 351.07 69.6649 355.329C69.6997 358.934 69.8885 360.602 70.3867 361.708C70.7575 362.531 71.402 363.943 71.8185 364.846C72.2354 365.748 73.4679 367.407 74.5581 368.531C76.956 371.004 77.218 371.211 79.2706 372.265C85.2414 375.332 88.4816 376.316 97.8714 377.914C101.604 378.549 107.532 379.917 110.279 380.777C114.581 382.124 116.674 384.18 116.674 387.056C116.674 388.467 114.545 391.661 113.403 391.963C112.978 392.075 112.631 392.296 112.631 392.454C112.631 393.104 106.193 394.259 102.516 394.269C95.8018 394.287 92.3332 392.795 89.8269 388.811L88.2713 386.339H78.0328C72.4012 386.339 67.7114 386.477 67.6103 386.646C67.3131 387.143 68.1331 391.695 68.8052 393.276C70.4255 397.091 71.3931 398.569 74.028 401.253C77.9774 405.276 83.4493 407.976 90.1884 409.226C99.5236 410.958 104.537 410.922 116.068 409.041C118.005 408.725 122.698 407.305 123.549 406.777C123.882 406.571 124.599 406.209 125.141 405.973C126.937 405.194 131.118 401.95 132.759 400.062C137.972 394.066 139.193 384.597 135.745 376.922C134.177 373.432 129.062 368.924 124.2 366.747C120.703 365.181 113.344 363.383 106.363 362.387C97.85 361.174 94.2968 360.084 92.3114 358.077C90.9519 356.703 90.795 356.327 90.795 354.438C90.795 352.502 90.9357 352.19 92.535 350.57C93.9385 349.149 94.7942 348.676 96.9648 348.124C104.303 346.258 110.582 348.443 112.94 353.684L113.63 355.22H124.251C130.092 355.22 134.869 355.082 134.866 354.913C134.864 354.744 134.52 353.198 134.103 351.477C131.897 342.383 125.551 335.996 116.068 333.324C114.733 332.948 113.096 332.46 112.429 332.24C110.821 331.71 98.5224 331.446 95.4452 331.875ZM304.098 331.853C297.389 332.93 291.774 336.177 287.555 341.421C286.407 342.847 285.882 343.24 285.641 342.854C285.457 342.561 285.304 340.341 285.301 337.92L285.295 333.518H275.59H265.885V384.701V435.885H276.399H286.912V417.663C286.912 405.286 287.048 399.442 287.334 399.442C287.566 399.442 288.612 400.386 289.659 401.54C291.583 403.661 295.865 407.222 296.491 407.222C296.678 407.222 297.465 407.565 298.241 407.984C300.326 409.113 306.657 410.501 309.607 410.476C311.942 410.457 314.982 409.981 319.464 408.934C324.634 407.726 331.33 403.001 334.072 398.623C334.707 397.61 335.346 396.688 335.492 396.576C336.179 396.048 338.491 390.206 339.544 386.339C340.611 382.424 340.735 381.271 340.935 373.441C341.312 358.661 340.11 352.042 335.663 344.422C332.652 339.264 326.882 334.859 320.879 333.136C319.878 332.849 318.647 332.452 318.143 332.253C316.87 331.751 306.559 331.457 304.098 331.853ZM232.188 334.201C232.04 334.351 231.919 350.934 231.919 371.053V407.631H242.432H252.946V370.78V333.928H242.702C237.067 333.928 232.336 334.051 232.188 334.201ZM309.591 349.911C313.769 351.578 316.643 354.883 318.482 360.133C319.327 362.547 319.414 363.501 319.412 370.37C319.41 377.604 319.359 378.093 318.282 381.22C315.579 389.059 310.69 392.891 303.391 392.891C301.661 392.891 299.929 392.723 299.543 392.518C299.157 392.312 297.931 391.822 296.819 391.429C294.458 390.594 289.537 385.866 289.085 383.999C288.934 383.372 288.694 382.767 288.552 382.654C287.3 381.657 286.407 368.313 287.234 362.947C288.199 356.683 291.907 352.007 297.565 349.919C300.605 348.797 306.79 348.793 309.591 349.911Z"
    fill="#A3BEF5" />
  <path fill-rule="evenodd" clip-rule="evenodd"
    d="M174.811 452.153L174.701 459.421L170.152 459.536L165.603 459.652V468.224V476.796L170.152 476.912L174.701 477.028L174.938 495.863C175.086 507.598 175.353 515.571 175.645 517.013C176.903 523.213 180.568 528.232 185.592 530.636C190.268 532.873 195.154 533.494 205.635 533.181C210.416 533.038 215.287 532.805 216.46 532.663L218.591 532.404L218.481 523.961L218.372 515.517L210.285 515.507C200.03 515.494 198.878 515.123 197.035 511.243C196.168 509.418 196.148 509.005 196.14 493.201L196.132 477.028L204.523 476.917L212.913 476.806V468.224V459.642L204.523 459.531L196.132 459.421L196.022 452.153L195.911 444.885H185.417H174.922L174.811 452.153ZM37.2829 456.388C34.2542 456.712 31.1555 457.646 28.3889 459.07C26.2979 460.145 21.8001 463.987 20.5693 465.749C18.7258 468.388 18.4536 468.005 18.3254 462.594L18.2114 457.783H8.70881H-0.793774L-0.896886 495.358L-1 532.933L9.41443 532.824L19.8289 532.715L20.0517 508.761C20.2684 485.48 20.2991 484.746 21.1435 482.617C22.3133 479.668 22.9259 478.789 25.0929 476.953C28.008 474.481 30.7989 473.593 35.7265 473.568C39.0767 473.551 40.3096 473.717 41.9942 474.413C44.8999 475.614 47.5942 478.552 48.7847 481.819C49.7224 484.393 49.7248 484.448 49.8599 508.666L49.9953 532.933L60.3871 532.824L70.7789 532.715L70.8832 507.004C70.9795 483.239 70.9289 480.958 70.2152 476.866C68.8169 468.848 65.356 463.214 59.6415 459.653C54.508 456.455 46.963 455.353 37.2829 456.388ZM112.542 456.384C110.825 456.567 108.59 457.003 107.575 457.353C106.559 457.702 105.444 457.987 105.097 457.987C104.75 457.987 103.983 458.256 103.393 458.583C102.802 458.911 101.235 459.679 99.9106 460.291C93.4521 463.272 88.167 468.615 84.791 475.576C83.8678 477.48 83.1092 479.323 83.106 479.671C83.1027 480.019 82.8476 481.04 82.5391 481.941C81.4327 485.17 80.8986 493.824 81.4234 500.018C82.1889 509.051 84.0583 514.699 88.1699 520.398C90.7926 524.033 91.1933 524.435 95.8496 528.108C100.994 532.166 109.689 534.564 119.202 534.55C128.009 534.536 135.656 532.529 141.479 528.702C144.401 526.781 144.475 526.719 147.414 523.7C150.142 520.898 151.798 518.413 153.684 514.289C156.292 508.585 157.104 503.921 157.108 494.607C157.112 485.545 156.337 481.383 153.564 475.594C151.593 471.478 150.202 469.459 147.318 466.529C139.249 458.333 127.187 454.814 112.542 456.384ZM125.428 474.468C128.332 475.63 131.934 479.215 133.465 482.467C135.519 486.828 136.151 496.546 134.84 503.59C133.946 508.394 130.013 513.91 126.151 515.779C124.397 516.627 123.566 516.745 119.303 516.745C114.892 516.746 114.248 516.647 112.226 515.667C106.223 512.754 103.464 507.221 103.066 497.296C102.767 489.863 103.27 486.23 105.122 482.435C106.878 478.836 109.188 476.424 112.449 474.783C114.634 473.684 115.234 473.572 118.99 473.56C122.347 473.55 123.559 473.72 125.428 474.468ZM235.904 513.079C233.324 514.392 231.312 516.612 230.543 518.994C228.731 524.604 230.938 530.244 235.876 532.618C237.532 533.413 238.418 533.531 242.634 533.511C247.046 533.489 247.652 533.394 249.306 532.456C251.43 531.251 253.546 528.627 254.14 526.46C254.668 524.535 254.679 520.87 254.162 518.987C253.626 517.033 250.741 513.993 248.401 512.918C246.794 512.179 245.783 512.044 242.133 512.08C238.434 512.117 237.501 512.266 235.904 513.079ZM168.635 523.984C168.191 524.236 167.533 524.737 167.173 525.098C166.814 525.459 166.113 526.03 165.616 526.368C165.119 526.706 163.309 528.088 161.593 529.439C159.878 530.79 156.258 533.554 153.55 535.581L148.626 539.266L148.622 577.456L148.619 615.645L159.234 615.536L169.848 615.427L170.051 606.164L170.253 596.901L173.892 592.577C175.894 590.199 177.747 588.241 178.011 588.226C178.274 588.21 178.968 588.888 179.552 589.733C180.826 591.575 189.789 605.406 189.952 605.782C190.015 605.927 191.493 608.202 193.237 610.838L196.407 615.631H208.516H220.625L220.105 614.763C219.031 612.966 218.737 612.499 217.173 610.104C216.291 608.752 215.468 607.555 215.344 607.442C215.22 607.33 210.994 600.973 205.953 593.316C200.912 585.659 195.96 578.196 194.948 576.732C192.919 573.797 192.644 572.28 193.908 571C194.353 570.549 194.717 570.006 194.717 569.792C194.717 569.578 194.962 569.255 195.262 569.075C195.562 568.895 196.687 567.55 197.763 566.086C198.839 564.622 200.004 563.111 200.352 562.728C201.216 561.776 201.503 561.405 204.004 557.999C205.204 556.366 206.334 555.031 206.517 555.031C206.699 555.031 206.848 554.833 206.848 554.592C206.848 554.351 207.542 553.292 208.391 552.238C212.139 547.582 216.19 542.296 216.368 541.826C216.522 541.421 214.079 541.342 204.73 541.449L192.897 541.585L186.45 549.946C182.905 554.544 179.857 558.306 179.677 558.306C179.498 558.306 179.351 558.51 179.351 558.759C179.351 559.145 177.219 562.186 176.512 562.81C176.384 562.923 175.045 564.628 173.536 566.598C172.027 568.569 170.625 570.181 170.421 570.181C170.201 570.181 170.051 560.72 170.051 546.841C170.051 534.005 169.914 523.508 169.747 523.514C169.58 523.521 169.08 523.733 168.635 523.984ZM95.4452 539.875C92.2653 540.32 91.2232 540.568 87.3579 541.803C78.4283 544.657 73.404 548.915 70.5808 556.022C69.7401 558.138 69.6236 559.07 69.6649 563.329C69.6997 566.934 69.8885 568.602 70.3867 569.708C70.7575 570.531 71.402 571.943 71.8185 572.846C72.2354 573.748 73.4679 575.407 74.5581 576.531C76.956 579.004 77.218 579.211 79.2706 580.265C85.2414 583.332 88.4816 584.316 97.8714 585.914C101.604 586.549 107.532 587.917 110.279 588.777C114.581 590.124 116.674 592.18 116.674 595.056C116.674 596.467 114.545 599.661 113.403 599.963C112.978 600.075 112.631 600.296 112.631 600.454C112.631 601.104 106.193 602.259 102.516 602.269C95.8018 602.287 92.3332 600.795 89.8269 596.811L88.2713 594.339H78.0328C72.4012 594.339 67.7114 594.477 67.6103 594.646C67.3131 595.143 68.1331 599.695 68.8052 601.276C70.4255 605.091 71.3931 606.569 74.028 609.253C77.9774 613.276 83.4493 615.976 90.1884 617.226C99.5236 618.958 104.537 618.922 116.068 617.041C118.005 616.725 122.698 615.305 123.549 614.777C123.882 614.571 124.599 614.209 125.141 613.973C126.937 613.194 131.118 609.95 132.759 608.062C137.972 602.066 139.193 592.597 135.745 584.922C134.177 581.432 129.062 576.924 124.2 574.747C120.703 573.181 113.344 571.383 106.363 570.387C97.85 569.174 94.2968 568.084 92.3114 566.077C90.9519 564.703 90.795 564.327 90.795 562.438C90.795 560.502 90.9357 560.19 92.535 558.57C93.9385 557.149 94.7942 556.676 96.9648 556.124C104.303 554.258 110.582 556.443 112.94 561.684L113.63 563.22H124.251C130.092 563.22 134.869 563.082 134.866 562.913C134.864 562.744 134.52 561.198 134.103 559.477C131.897 550.383 125.551 543.996 116.068 541.324C114.733 540.948 113.096 540.46 112.429 540.24C110.821 539.71 98.5224 539.446 95.4452 539.875ZM304.098 539.853C297.389 540.93 291.774 544.177 287.555 549.421C286.407 550.847 285.882 551.24 285.641 550.854C285.457 550.561 285.304 548.341 285.301 545.92L285.295 541.518H275.59H265.885V592.701V643.885H276.399H286.912V625.663C286.912 613.286 287.048 607.442 287.334 607.442C287.566 607.442 288.612 608.386 289.659 609.54C291.583 611.661 295.865 615.222 296.491 615.222C296.678 615.222 297.465 615.565 298.241 615.984C300.326 617.113 306.657 618.501 309.607 618.476C311.942 618.457 314.982 617.981 319.464 616.934C324.634 615.726 331.33 611.001 334.072 606.623C334.707 605.61 335.346 604.688 335.492 604.576C336.179 604.048 338.491 598.206 339.544 594.339C340.611 590.424 340.735 589.271 340.935 581.441C341.312 566.661 340.11 560.042 335.663 552.422C332.652 547.264 326.882 542.859 320.879 541.136C319.878 540.849 318.647 540.452 318.143 540.253C316.87 539.751 306.559 539.457 304.098 539.853ZM232.188 542.201C232.04 542.351 231.919 558.934 231.919 579.053V615.631H242.432H252.946V578.78V541.928H242.702C237.067 541.928 232.336 542.051 232.188 542.201ZM309.591 557.911C313.769 559.578 316.643 562.883 318.482 568.133C319.327 570.547 319.414 571.501 319.412 578.37C319.41 585.604 319.359 586.093 318.282 589.22C315.579 597.059 310.69 600.891 303.391 600.891C301.661 600.891 299.929 600.723 299.543 600.518C299.157 600.312 297.931 599.822 296.819 599.429C294.458 598.594 289.537 593.866 289.085 591.999C288.934 591.372 288.694 590.767 288.552 590.654C287.3 589.657 286.407 576.313 287.234 570.947C288.199 564.683 291.907 560.007 297.565 557.919C300.605 556.797 306.79 556.793 309.591 557.911Z"
    fill="#A3BEF5" />
  <path fill-rule="evenodd" clip-rule="evenodd"
    d="M533.811 -172.811L533.701 -165.506L529.152 -165.39L524.603 -165.274V-156.659V-148.044L529.152 -147.927L533.701 -147.811L533.938 -128.881C534.086 -117.087 534.353 -109.074 534.645 -107.624C535.903 -101.393 539.568 -96.3492 544.592 -93.9332C549.268 -91.685 554.154 -91.0612 564.635 -91.3751C569.416 -91.5188 574.287 -91.7529 575.46 -91.8957L577.591 -92.1558L577.481 -100.642L577.372 -109.128L569.285 -109.138C559.03 -109.151 557.878 -109.524 556.035 -113.423C555.168 -115.258 555.148 -115.673 555.14 -131.556L555.132 -147.811L563.523 -147.922L571.913 -148.034V-156.659V-165.284L563.523 -165.395L555.132 -165.506L555.022 -172.811L554.911 -180.115H544.417H533.922L533.811 -172.811ZM396.283 -168.555C393.254 -168.229 390.156 -167.29 387.389 -165.859C385.298 -164.778 380.8 -160.917 379.569 -159.146C377.726 -156.494 377.454 -156.878 377.325 -162.317L377.211 -167.153H367.709H358.206L358.103 -129.388L358 -91.6241L368.414 -91.734L378.829 -91.8439L379.052 -115.918C379.268 -139.316 379.299 -140.054 380.143 -142.193C381.313 -145.157 381.926 -146.04 384.093 -147.886C387.008 -150.37 389.799 -151.262 394.726 -151.287C398.077 -151.305 399.31 -151.138 400.994 -150.438C403.9 -149.232 406.594 -146.278 407.785 -142.995C408.722 -140.409 408.725 -140.353 408.86 -116.014L408.995 -91.6241L419.387 -91.734L429.779 -91.8439L429.883 -117.684C429.979 -141.568 429.929 -143.86 429.215 -147.973C427.817 -156.032 424.356 -161.694 418.641 -165.273C413.508 -168.487 405.963 -169.594 396.283 -168.555ZM471.542 -168.559C469.825 -168.374 467.59 -167.936 466.575 -167.585C465.559 -167.234 464.444 -166.947 464.097 -166.947C463.75 -166.947 462.983 -166.677 462.393 -166.348C461.802 -166.019 460.235 -165.246 458.911 -164.632C452.452 -161.635 447.167 -156.265 443.791 -149.269C442.868 -147.356 442.109 -145.504 442.106 -145.154C442.103 -144.805 441.848 -143.778 441.539 -142.873C440.433 -139.627 439.899 -130.93 440.423 -124.705C441.189 -115.627 443.058 -109.95 447.17 -104.222C449.793 -100.569 450.193 -100.165 454.85 -96.4739C459.994 -92.3957 468.689 -89.985 478.202 -89.9994C487.009 -90.013 494.656 -92.0307 500.479 -95.8772C503.401 -97.8073 503.475 -97.8698 506.414 -100.904C509.142 -103.72 510.798 -106.217 512.684 -110.362C515.292 -116.094 516.104 -120.783 516.108 -130.143C516.112 -139.251 515.337 -143.433 512.564 -149.251C510.593 -153.389 509.202 -155.418 506.318 -158.362C498.249 -166.599 486.187 -170.136 471.542 -168.559ZM484.428 -150.383C487.332 -149.215 490.934 -145.613 492.465 -142.344C494.519 -137.961 495.151 -128.194 493.84 -121.115C492.946 -116.287 489.013 -110.743 485.151 -108.865C483.397 -108.012 482.566 -107.894 478.303 -107.894C473.892 -107.893 473.248 -107.992 471.226 -108.978C465.223 -111.905 462.464 -117.465 462.066 -127.441C461.767 -134.911 462.27 -138.562 464.122 -142.377C465.878 -145.993 468.188 -148.417 471.449 -150.067C473.634 -151.171 474.234 -151.284 477.99 -151.296C481.347 -151.306 482.559 -151.135 484.428 -150.383ZM594.904 -111.578C592.324 -110.259 590.312 -108.028 589.543 -105.634C587.731 -99.9953 589.938 -94.3274 594.876 -91.9414C596.532 -91.1418 597.418 -91.0237 601.634 -91.0439C606.046 -91.0653 606.652 -91.1616 608.306 -92.1044C610.43 -93.3147 612.546 -95.9517 613.14 -98.1299C613.668 -100.064 613.679 -103.748 613.162 -105.64C612.626 -107.604 609.741 -110.66 607.401 -111.741C605.794 -112.483 604.783 -112.619 601.133 -112.582C597.434 -112.546 596.501 -112.395 594.904 -111.578ZM527.635 -100.618C527.191 -100.365 526.533 -99.8616 526.173 -99.499C525.814 -99.1365 525.113 -98.562 524.616 -98.2225C524.119 -97.883 522.309 -96.4941 520.593 -95.1361C518.878 -93.778 515.258 -91.0003 512.55 -88.9632L507.626 -85.2595L507.622 -46.878L507.619 -8.49696L518.234 -8.60643L528.848 -8.71631L529.051 -18.0258L529.253 -27.3348L532.892 -31.6805C534.894 -34.0706 536.747 -36.0389 537.011 -36.0542C537.274 -36.0698 537.968 -35.3879 538.552 -34.5394C539.826 -32.6883 548.789 -18.7875 548.952 -18.4097C549.015 -18.264 550.493 -15.9772 552.237 -13.3278L555.407 -8.51054H567.516H579.625L579.105 -9.3838C578.031 -11.1896 577.737 -11.6583 576.173 -14.0661C575.291 -15.4241 574.468 -16.6278 574.344 -16.741C574.22 -16.8542 569.994 -23.2431 564.953 -30.9385C559.912 -38.634 554.96 -46.134 553.948 -47.6052C551.919 -50.5554 551.644 -52.0797 552.908 -53.3665C553.353 -53.8192 553.717 -54.3657 553.717 -54.5805C553.717 -54.7957 553.962 -55.1196 554.262 -55.3007C554.562 -55.4817 555.687 -56.8336 556.763 -58.3048C557.839 -59.776 559.004 -61.2949 559.352 -61.6801C560.216 -62.6369 560.503 -63.0093 563.004 -66.4324C564.204 -68.0735 565.334 -69.4159 565.517 -69.4159C565.699 -69.4159 565.848 -69.6143 565.848 -69.8566C565.848 -70.0986 566.542 -71.1636 567.391 -72.2229C571.139 -76.9015 575.19 -82.2147 575.368 -82.6871C575.522 -83.0937 573.079 -83.1731 563.73 -83.0653L551.897 -82.9286L545.45 -74.5262C541.905 -69.9048 538.857 -66.1237 538.677 -66.1237C538.498 -66.1237 538.351 -65.9188 538.351 -65.6686C538.351 -65.2813 536.219 -62.2245 535.512 -61.597C535.384 -61.4838 534.045 -59.7706 532.536 -57.7904C531.027 -55.8097 529.625 -54.1896 529.421 -54.1896C529.201 -54.1896 529.051 -63.6982 529.051 -77.6463C529.051 -90.5476 528.914 -101.097 528.747 -101.091C528.58 -101.084 528.08 -100.871 527.635 -100.618ZM454.445 -84.6472C451.265 -84.2007 450.223 -83.9513 446.358 -82.7097C437.428 -79.8418 432.404 -75.5624 429.581 -68.4192C428.74 -66.2924 428.624 -65.3566 428.665 -61.0756C428.7 -57.4525 428.888 -55.776 429.387 -54.6649C429.757 -53.8377 430.402 -52.4184 430.819 -51.5114C431.235 -50.604 432.468 -48.9373 433.558 -47.8077C435.956 -45.3225 436.218 -45.1138 438.271 -44.0546C444.241 -40.9727 447.482 -39.9838 456.871 -38.3776C460.604 -37.7393 466.532 -36.3645 469.279 -35.4998C473.581 -34.1459 475.674 -32.0801 475.674 -29.1891C475.674 -27.7714 473.545 -24.5616 472.403 -24.2579C471.978 -24.1447 471.631 -23.9229 471.631 -23.764C471.631 -23.111 465.193 -21.95 461.516 -21.9402C454.802 -21.9221 451.333 -23.4217 448.827 -27.4254L447.271 -29.9097H437.033C431.401 -29.9097 426.711 -29.771 426.61 -29.6011C426.313 -29.1015 427.133 -24.5274 427.805 -22.9381C429.425 -19.104 430.393 -17.6188 433.028 -14.9212C436.977 -10.8776 442.449 -8.16403 449.188 -6.90807C458.524 -5.16774 463.537 -5.20355 475.068 -7.09367C477.005 -7.41136 481.698 -8.83853 482.549 -9.36897C482.882 -9.5768 483.599 -9.94058 484.141 -10.1772C485.937 -10.9599 490.118 -14.2204 491.759 -16.1175C496.972 -22.1439 498.193 -31.6608 494.745 -39.3747C493.177 -42.8821 488.062 -47.4126 483.2 -49.6003C479.703 -51.1739 472.344 -52.9817 465.363 -53.9821C456.85 -55.2019 453.297 -56.2974 451.311 -58.3138C449.952 -59.6949 449.795 -60.0731 449.795 -61.971C449.795 -63.9167 449.936 -64.2307 451.535 -65.8583C452.939 -67.2867 453.794 -67.762 455.965 -68.3167C463.303 -70.1924 469.582 -67.9961 471.94 -62.7287L472.63 -61.1854H483.251C489.092 -61.1854 493.869 -61.3241 493.866 -61.4941C493.864 -61.664 493.52 -63.2175 493.103 -64.9472C490.897 -74.0867 484.551 -80.5064 475.068 -83.1916C473.733 -83.5694 472.096 -84.0595 471.429 -84.2805C469.821 -84.8134 457.522 -85.0788 454.445 -84.6472ZM663.098 -84.6702C656.389 -83.5871 650.774 -80.3237 646.555 -75.0542C645.407 -73.6208 644.882 -73.2258 644.641 -73.6138C644.457 -73.9077 644.304 -76.1394 644.301 -78.5723L644.295 -82.9961H634.59H624.885V-31.5558V19.8845H635.399H645.912V1.57176C645.912 -10.8678 646.048 -16.741 646.334 -16.741C646.566 -16.741 647.612 -15.792 648.659 -14.6324C650.583 -12.5007 654.865 -8.92206 655.491 -8.92206C655.678 -8.92206 656.465 -8.57721 657.241 -8.15581C659.326 -7.02165 665.657 -5.6266 668.607 -5.6517C670.942 -5.67104 673.982 -6.14923 678.464 -7.20108C683.634 -8.41507 690.33 -13.1645 693.072 -17.564C693.707 -18.5826 694.346 -19.5085 694.492 -19.6217C695.179 -20.1525 697.491 -26.0237 698.544 -29.9097C699.611 -33.8447 699.735 -35.0031 699.935 -42.8727C700.312 -57.7266 699.11 -64.3797 694.663 -72.0373C691.652 -77.2216 685.882 -81.6484 679.879 -83.3801C678.878 -83.6686 677.647 -84.0682 677.143 -84.2682C675.87 -84.7723 665.559 -85.0673 663.098 -84.6702ZM591.188 -82.3101C591.04 -82.1595 590.919 -65.4929 590.919 -45.2731V-8.51054H601.432H611.946V-45.5476V-82.5846H601.702C596.067 -82.5846 591.336 -82.4612 591.188 -82.3101ZM668.591 -66.5212C672.769 -64.8455 675.643 -61.5241 677.482 -56.2472C678.327 -53.8217 678.414 -52.8624 678.412 -45.9591C678.41 -38.6887 678.359 -38.1978 677.282 -35.055C674.579 -27.176 669.69 -23.3254 662.391 -23.3254C660.661 -23.3254 658.929 -23.4941 658.543 -23.7003C658.157 -23.9068 656.931 -24.399 655.819 -24.7941C653.458 -25.6336 648.537 -30.385 648.085 -32.2616C647.934 -32.892 647.694 -33.5003 647.552 -33.6134C646.3 -34.6151 645.407 -48.0266 646.234 -53.4192C647.199 -59.7147 650.907 -64.4146 656.565 -66.5134C659.605 -67.641 665.79 -67.6451 668.591 -66.5212Z"
    fill="#A3BEF5" />
  <path fill-rule="evenodd" clip-rule="evenodd"
    d="M533.811 36.1525L533.701 43.4205L529.152 43.5364L524.603 43.6523V52.224V60.7958L529.152 60.9116L533.701 61.0275L533.938 79.8629C534.086 91.5982 534.353 99.5709 534.645 101.013C535.903 107.213 539.568 112.232 544.592 114.636C549.268 116.873 554.154 117.494 564.635 117.181C569.416 117.038 574.287 116.805 575.46 116.663L577.591 116.404L577.481 107.961L577.372 99.5172L569.285 99.507C559.03 99.4939 557.878 99.1233 556.035 95.2432C555.168 93.4178 555.148 93.0047 555.14 77.2014L555.132 61.0275L563.523 60.917L571.913 60.806V52.224V43.642L563.523 43.5311L555.132 43.4205L555.022 36.1525L554.911 28.8845H544.417H533.922L533.811 36.1525ZM396.283 40.3876C393.254 40.7115 390.156 41.6459 387.389 43.0696C385.298 44.1453 380.8 47.9873 379.569 49.7492C377.726 52.3878 377.454 52.0054 377.325 46.5939L377.211 41.7827H367.709H358.206L358.103 79.358L358 116.933L368.414 116.824L378.829 116.715L379.052 92.7611C379.268 69.4797 379.299 68.7459 380.143 66.6171C381.313 63.6682 381.926 62.7895 384.093 60.9526C387.008 58.4815 389.799 57.5933 394.726 57.5684C398.077 57.5512 399.31 57.7174 400.994 58.4135C403.9 59.614 406.594 62.5524 407.785 65.8191C408.722 68.3926 408.725 68.4478 408.86 92.6657L408.995 116.933L419.387 116.824L429.779 116.715L429.883 91.004C429.979 67.2391 429.929 64.9584 429.215 60.8662C427.817 52.8481 424.356 47.2138 418.641 43.6531C413.508 40.4548 405.963 39.3529 396.283 40.3876ZM471.542 40.3835C469.825 40.5674 467.59 41.0035 466.575 41.3527C465.559 41.7016 464.444 41.9874 464.097 41.9874C463.75 41.9874 462.983 42.2556 462.393 42.5832C461.802 42.9107 460.235 43.6793 458.911 44.2906C452.452 47.2724 447.167 52.6155 443.791 59.5764C442.868 61.4804 442.109 63.323 442.106 63.671C442.103 64.0187 441.848 65.0403 441.539 65.9411C440.433 69.1701 439.899 77.8242 440.423 84.0182C441.189 93.051 443.058 98.6987 447.17 104.398C449.793 108.033 450.193 108.435 454.85 112.108C459.994 116.166 468.689 118.564 478.202 118.55C487.009 118.536 494.656 116.529 500.479 112.702C503.401 110.781 503.475 110.719 506.414 107.7C509.142 104.898 510.798 102.413 512.684 98.2888C515.292 92.5854 516.104 87.9208 516.108 78.6075C516.112 69.5448 515.337 65.3834 512.564 59.5944C510.593 55.4776 509.202 53.4586 506.318 50.5288C498.249 42.333 486.187 38.814 471.542 40.3835ZM484.428 58.4684C487.332 59.6304 490.934 63.2149 492.465 66.4673C494.519 70.8281 495.151 80.5459 493.84 87.5903C492.946 92.3942 489.013 97.9101 485.151 99.7789C483.397 100.627 482.566 100.745 478.303 100.745C473.892 100.746 473.248 100.647 471.226 99.6667C465.223 96.7542 462.464 91.2215 462.066 81.296C461.767 73.8626 462.27 70.2298 464.122 66.4345C465.878 62.8361 468.188 60.4244 471.449 58.7832C473.634 57.6838 474.234 57.5716 477.99 57.5598C481.347 57.5495 482.559 57.7203 484.428 58.4684ZM594.904 97.0789C592.324 98.392 590.312 100.612 589.543 102.994C587.731 108.604 589.938 114.244 594.876 116.618C596.532 117.413 597.418 117.531 601.634 117.511C606.046 117.489 606.652 117.394 608.306 116.456C610.43 115.251 612.546 112.627 613.14 110.46C613.668 108.535 613.679 104.87 613.162 102.987C612.626 101.033 609.741 97.9932 607.401 96.9175C605.794 96.1789 604.783 96.0437 601.133 96.0802C597.434 96.1166 596.501 96.2665 594.904 97.0789ZM527.635 107.984C527.191 108.236 526.533 108.737 526.173 109.098C525.814 109.459 525.113 110.03 524.616 110.368C524.119 110.706 522.309 112.088 520.593 113.439C518.878 114.79 515.258 117.554 512.55 119.581L507.626 123.266L507.622 161.456L507.619 199.645L518.234 199.536L528.848 199.427L529.051 190.164L529.253 180.901L532.892 176.577C534.894 174.199 536.747 172.241 537.011 172.226C537.274 172.21 537.968 172.888 538.552 173.733C539.826 175.575 548.789 189.406 548.952 189.782C549.015 189.927 550.493 192.202 552.237 194.838L555.407 199.631H567.516H579.625L579.105 198.763C578.031 196.966 577.737 196.499 576.173 194.104C575.291 192.752 574.468 191.555 574.344 191.442C574.22 191.33 569.994 184.973 564.953 177.316C559.912 169.659 554.96 162.196 553.948 160.732C551.919 157.797 551.644 156.28 552.908 155C553.353 154.549 553.717 154.006 553.717 153.792C553.717 153.578 553.962 153.255 554.262 153.075C554.562 152.895 555.687 151.55 556.763 150.086C557.839 148.622 559.004 147.111 559.352 146.728C560.216 145.776 560.503 145.405 563.004 141.999C564.204 140.366 565.334 139.031 565.517 139.031C565.699 139.031 565.848 138.833 565.848 138.592C565.848 138.351 566.542 137.292 567.391 136.238C571.139 131.582 575.19 126.296 575.368 125.826C575.522 125.421 573.079 125.342 563.73 125.449L551.897 125.585L545.45 133.946C541.905 138.544 538.857 142.306 538.677 142.306C538.498 142.306 538.351 142.51 538.351 142.759C538.351 143.145 536.219 146.186 535.512 146.81C535.384 146.923 534.045 148.628 532.536 150.598C531.027 152.569 529.625 154.181 529.421 154.181C529.201 154.181 529.051 144.72 529.051 130.841C529.051 118.005 528.914 107.508 528.747 107.514C528.58 107.521 528.08 107.733 527.635 107.984ZM454.445 123.875C451.265 124.32 450.223 124.568 446.358 125.803C437.428 128.657 432.404 132.915 429.581 140.022C428.74 142.138 428.624 143.07 428.665 147.329C428.7 150.934 428.888 152.602 429.387 153.708C429.757 154.531 430.402 155.943 430.819 156.846C431.235 157.748 432.468 159.407 433.558 160.531C435.956 163.004 436.218 163.211 438.271 164.265C444.241 167.332 447.482 168.316 456.871 169.914C460.604 170.549 466.532 171.917 469.279 172.777C473.581 174.124 475.674 176.18 475.674 179.056C475.674 180.467 473.545 183.661 472.403 183.963C471.978 184.075 471.631 184.296 471.631 184.454C471.631 185.104 465.193 186.259 461.516 186.269C454.802 186.287 451.333 184.795 448.827 180.811L447.271 178.339H437.033C431.401 178.339 426.711 178.477 426.61 178.646C426.313 179.143 427.133 183.695 427.805 185.276C429.425 189.091 430.393 190.569 433.028 193.253C436.977 197.276 442.449 199.976 449.188 201.226C458.524 202.958 463.537 202.922 475.068 201.041C477.005 200.725 481.698 199.305 482.549 198.777C482.882 198.571 483.599 198.209 484.141 197.973C485.937 197.194 490.118 193.95 491.759 192.062C496.972 186.066 498.193 176.597 494.745 168.922C493.177 165.432 488.062 160.924 483.2 158.747C479.703 157.181 472.344 155.383 465.363 154.387C456.85 153.174 453.297 152.084 451.311 150.077C449.952 148.703 449.795 148.327 449.795 146.438C449.795 144.502 449.936 144.19 451.535 142.57C452.939 141.149 453.794 140.676 455.965 140.124C463.303 138.258 469.582 140.443 471.94 145.684L472.63 147.22H483.251C489.092 147.22 493.869 147.082 493.866 146.913C493.864 146.744 493.52 145.198 493.103 143.477C490.897 134.383 484.551 127.996 475.068 125.324C473.733 124.948 472.096 124.46 471.429 124.24C469.821 123.71 457.522 123.446 454.445 123.875ZM663.098 123.853C656.389 124.93 650.774 128.177 646.555 133.421C645.407 134.847 644.882 135.24 644.641 134.854C644.457 134.561 644.304 132.341 644.301 129.92L644.295 125.518H634.59H624.885V176.701V227.885H635.399H645.912V209.663C645.912 197.286 646.048 191.442 646.334 191.442C646.566 191.442 647.612 192.386 648.659 193.54C650.583 195.661 654.865 199.222 655.491 199.222C655.678 199.222 656.465 199.565 657.241 199.984C659.326 201.113 665.657 202.501 668.607 202.476C670.942 202.457 673.982 201.981 678.464 200.934C683.634 199.726 690.33 195.001 693.072 190.623C693.707 189.61 694.346 188.688 694.492 188.576C695.179 188.048 697.491 182.206 698.544 178.339C699.611 174.424 699.735 173.271 699.935 165.441C700.312 150.661 699.11 144.042 694.663 136.422C691.652 131.264 685.882 126.859 679.879 125.136C678.878 124.849 677.647 124.452 677.143 124.253C675.87 123.751 665.559 123.457 663.098 123.853ZM591.188 126.201C591.04 126.351 590.919 142.934 590.919 163.053V199.631H601.432H611.946V162.78V125.928H601.702C596.067 125.928 591.336 126.051 591.188 126.201ZM668.591 141.911C672.769 143.578 675.643 146.883 677.482 152.133C678.327 154.547 678.414 155.501 678.412 162.37C678.41 169.604 678.359 170.093 677.282 173.22C674.579 181.059 669.69 184.891 662.391 184.891C660.661 184.891 658.929 184.723 658.543 184.518C658.157 184.312 656.931 183.822 655.819 183.429C653.458 182.594 648.537 177.866 648.085 175.999C647.934 175.372 647.694 174.767 647.552 174.654C646.3 173.657 645.407 160.313 646.234 154.947C647.199 148.683 650.907 144.007 656.565 141.919C659.605 140.797 665.79 140.793 668.591 141.911Z"
    fill="#A3BEF5" />
  <path fill-rule="evenodd" clip-rule="evenodd"
    d="M533.811 244.153L533.701 251.421L529.152 251.536L524.603 251.652V260.224V268.796L529.152 268.912L533.701 269.028L533.938 287.863C534.086 299.598 534.353 307.571 534.645 309.013C535.903 315.213 539.568 320.232 544.592 322.636C549.268 324.873 554.154 325.494 564.635 325.181C569.416 325.038 574.287 324.805 575.46 324.663L577.591 324.404L577.481 315.961L577.372 307.517L569.285 307.507C559.03 307.494 557.878 307.123 556.035 303.243C555.168 301.418 555.148 301.005 555.14 285.201L555.132 269.028L563.523 268.917L571.913 268.806V260.224V251.642L563.523 251.531L555.132 251.421L555.022 244.153L554.911 236.885H544.417H533.922L533.811 244.153ZM396.283 248.388C393.254 248.712 390.156 249.646 387.389 251.07C385.298 252.145 380.8 255.987 379.569 257.749C377.726 260.388 377.454 260.005 377.325 254.594L377.211 249.783H367.709H358.206L358.103 287.358L358 324.933L368.414 324.824L378.829 324.715L379.052 300.761C379.268 277.48 379.299 276.746 380.143 274.617C381.313 271.668 381.926 270.789 384.093 268.953C387.008 266.481 389.799 265.593 394.726 265.568C398.077 265.551 399.31 265.717 400.994 266.413C403.9 267.614 406.594 270.552 407.785 273.819C408.722 276.393 408.725 276.448 408.86 300.666L408.995 324.933L419.387 324.824L429.779 324.715L429.883 299.004C429.979 275.239 429.929 272.958 429.215 268.866C427.817 260.848 424.356 255.214 418.641 251.653C413.508 248.455 405.963 247.353 396.283 248.388ZM471.542 248.384C469.825 248.567 467.59 249.003 466.575 249.353C465.559 249.702 464.444 249.987 464.097 249.987C463.75 249.987 462.983 250.256 462.393 250.583C461.802 250.911 460.235 251.679 458.911 252.291C452.452 255.272 447.167 260.615 443.791 267.576C442.868 269.48 442.109 271.323 442.106 271.671C442.103 272.019 441.848 273.04 441.539 273.941C440.433 277.17 439.899 285.824 440.423 292.018C441.189 301.051 443.058 306.699 447.17 312.398C449.793 316.033 450.193 316.435 454.85 320.108C459.994 324.166 468.689 326.564 478.202 326.55C487.009 326.536 494.656 324.529 500.479 320.702C503.401 318.781 503.475 318.719 506.414 315.7C509.142 312.898 510.798 310.413 512.684 306.289C515.292 300.585 516.104 295.921 516.108 286.607C516.112 277.545 515.337 273.383 512.564 267.594C510.593 263.478 509.202 261.459 506.318 258.529C498.249 250.333 486.187 246.814 471.542 248.384ZM484.428 266.468C487.332 267.63 490.934 271.215 492.465 274.467C494.519 278.828 495.151 288.546 493.84 295.59C492.946 300.394 489.013 305.91 485.151 307.779C483.397 308.627 482.566 308.745 478.303 308.745C473.892 308.746 473.248 308.647 471.226 307.667C465.223 304.754 462.464 299.221 462.066 289.296C461.767 281.863 462.27 278.23 464.122 274.435C465.878 270.836 468.188 268.424 471.449 266.783C473.634 265.684 474.234 265.572 477.99 265.56C481.347 265.55 482.559 265.72 484.428 266.468ZM594.904 305.079C592.324 306.392 590.312 308.612 589.543 310.994C587.731 316.604 589.938 322.244 594.876 324.618C596.532 325.413 597.418 325.531 601.634 325.511C606.046 325.489 606.652 325.394 608.306 324.456C610.43 323.251 612.546 320.627 613.14 318.46C613.668 316.535 613.679 312.87 613.162 310.987C612.626 309.033 609.741 305.993 607.401 304.918C605.794 304.179 604.783 304.044 601.133 304.08C597.434 304.117 596.501 304.266 594.904 305.079ZM527.635 315.984C527.191 316.236 526.533 316.737 526.173 317.098C525.814 317.459 525.113 318.03 524.616 318.368C524.119 318.706 522.309 320.088 520.593 321.439C518.878 322.79 515.258 325.554 512.55 327.581L507.626 331.266L507.622 369.456L507.619 407.645L518.234 407.536L528.848 407.427L529.051 398.164L529.253 388.901L532.892 384.577C534.894 382.199 536.747 380.241 537.011 380.226C537.274 380.21 537.968 380.888 538.552 381.733C539.826 383.575 548.789 397.406 548.952 397.782C549.015 397.927 550.493 400.202 552.237 402.838L555.407 407.631H567.516H579.625L579.105 406.763C578.031 404.966 577.737 404.499 576.173 402.104C575.291 400.752 574.468 399.555 574.344 399.442C574.22 399.33 569.994 392.973 564.953 385.316C559.912 377.659 554.96 370.196 553.948 368.732C551.919 365.797 551.644 364.28 552.908 363C553.353 362.549 553.717 362.006 553.717 361.792C553.717 361.578 553.962 361.255 554.262 361.075C554.562 360.895 555.687 359.55 556.763 358.086C557.839 356.622 559.004 355.111 559.352 354.728C560.216 353.776 560.503 353.405 563.004 349.999C564.204 348.366 565.334 347.031 565.517 347.031C565.699 347.031 565.848 346.833 565.848 346.592C565.848 346.351 566.542 345.292 567.391 344.238C571.139 339.582 575.19 334.296 575.368 333.826C575.522 333.421 573.079 333.342 563.73 333.449L551.897 333.585L545.45 341.946C541.905 346.544 538.857 350.306 538.677 350.306C538.498 350.306 538.351 350.51 538.351 350.759C538.351 351.145 536.219 354.186 535.512 354.81C535.384 354.923 534.045 356.628 532.536 358.598C531.027 360.569 529.625 362.181 529.421 362.181C529.201 362.181 529.051 352.72 529.051 338.841C529.051 326.005 528.914 315.508 528.747 315.514C528.58 315.521 528.08 315.733 527.635 315.984ZM454.445 331.875C451.265 332.32 450.223 332.568 446.358 333.803C437.428 336.657 432.404 340.915 429.581 348.022C428.74 350.138 428.624 351.07 428.665 355.329C428.7 358.934 428.888 360.602 429.387 361.708C429.757 362.531 430.402 363.943 430.819 364.846C431.235 365.748 432.468 367.407 433.558 368.531C435.956 371.004 436.218 371.211 438.271 372.265C444.241 375.332 447.482 376.316 456.871 377.914C460.604 378.549 466.532 379.917 469.279 380.777C473.581 382.124 475.674 384.18 475.674 387.056C475.674 388.467 473.545 391.661 472.403 391.963C471.978 392.075 471.631 392.296 471.631 392.454C471.631 393.104 465.193 394.259 461.516 394.269C454.802 394.287 451.333 392.795 448.827 388.811L447.271 386.339H437.033C431.401 386.339 426.711 386.477 426.61 386.646C426.313 387.143 427.133 391.695 427.805 393.276C429.425 397.091 430.393 398.569 433.028 401.253C436.977 405.276 442.449 407.976 449.188 409.226C458.524 410.958 463.537 410.922 475.068 409.041C477.005 408.725 481.698 407.305 482.549 406.777C482.882 406.571 483.599 406.209 484.141 405.973C485.937 405.194 490.118 401.95 491.759 400.062C496.972 394.066 498.193 384.597 494.745 376.922C493.177 373.432 488.062 368.924 483.2 366.747C479.703 365.181 472.344 363.383 465.363 362.387C456.85 361.174 453.297 360.084 451.311 358.077C449.952 356.703 449.795 356.327 449.795 354.438C449.795 352.502 449.936 352.19 451.535 350.57C452.939 349.149 453.794 348.676 455.965 348.124C463.303 346.258 469.582 348.443 471.94 353.684L472.63 355.22H483.251C489.092 355.22 493.869 355.082 493.866 354.913C493.864 354.744 493.52 353.198 493.103 351.477C490.897 342.383 484.551 335.996 475.068 333.324C473.733 332.948 472.096 332.46 471.429 332.24C469.821 331.71 457.522 331.446 454.445 331.875ZM663.098 331.853C656.389 332.93 650.774 336.177 646.555 341.421C645.407 342.847 644.882 343.24 644.641 342.854C644.457 342.561 644.304 340.341 644.301 337.92L644.295 333.518H634.59H624.885V384.701V435.885H635.399H645.912V417.663C645.912 405.286 646.048 399.442 646.334 399.442C646.566 399.442 647.612 400.386 648.659 401.54C650.583 403.661 654.865 407.222 655.491 407.222C655.678 407.222 656.465 407.565 657.241 407.984C659.326 409.113 665.657 410.501 668.607 410.476C670.942 410.457 673.982 409.981 678.464 408.934C683.634 407.726 690.33 403.001 693.072 398.623C693.707 397.61 694.346 396.688 694.492 396.576C695.179 396.048 697.491 390.206 698.544 386.339C699.611 382.424 699.735 381.271 699.935 373.441C700.312 358.661 699.11 352.042 694.663 344.422C691.652 339.264 685.882 334.859 679.879 333.136C678.878 332.849 677.647 332.452 677.143 332.253C675.87 331.751 665.559 331.457 663.098 331.853ZM591.188 334.201C591.04 334.351 590.919 350.934 590.919 371.053V407.631H601.432H611.946V370.78V333.928H601.702C596.067 333.928 591.336 334.051 591.188 334.201ZM668.591 349.911C672.769 351.578 675.643 354.883 677.482 360.133C678.327 362.547 678.414 363.501 678.412 370.37C678.41 377.604 678.359 378.093 677.282 381.22C674.579 389.059 669.69 392.891 662.391 392.891C660.661 392.891 658.929 392.723 658.543 392.518C658.157 392.312 656.931 391.822 655.819 391.429C653.458 390.594 648.537 385.866 648.085 383.999C647.934 383.372 647.694 382.767 647.552 382.654C646.3 381.657 645.407 368.313 646.234 362.947C647.199 356.683 650.907 352.007 656.565 349.919C659.605 348.797 665.79 348.793 668.591 349.911Z"
    fill="#A3BEF5" />
  <path fill-rule="evenodd" clip-rule="evenodd"
    d="M533.811 452.153L533.701 459.421L529.152 459.536L524.603 459.652V468.224V476.796L529.152 476.912L533.701 477.028L533.938 495.863C534.086 507.598 534.353 515.571 534.645 517.013C535.903 523.213 539.568 528.232 544.592 530.636C549.268 532.873 554.154 533.494 564.635 533.181C569.416 533.038 574.287 532.805 575.46 532.663L577.591 532.404L577.481 523.961L577.372 515.517L569.285 515.507C559.03 515.494 557.878 515.123 556.035 511.243C555.168 509.418 555.148 509.005 555.14 493.201L555.132 477.028L563.523 476.917L571.913 476.806V468.224V459.642L563.523 459.531L555.132 459.421L555.022 452.153L554.911 444.885H544.417H533.922L533.811 452.153ZM396.283 456.388C393.254 456.712 390.156 457.646 387.389 459.07C385.298 460.145 380.8 463.987 379.569 465.749C377.726 468.388 377.454 468.005 377.325 462.594L377.211 457.783H367.709H358.206L358.103 495.358L358 532.933L368.414 532.824L378.829 532.715L379.052 508.761C379.268 485.48 379.299 484.746 380.143 482.617C381.313 479.668 381.926 478.789 384.093 476.953C387.008 474.481 389.799 473.593 394.726 473.568C398.077 473.551 399.31 473.717 400.994 474.413C403.9 475.614 406.594 478.552 407.785 481.819C408.722 484.393 408.725 484.448 408.86 508.666L408.995 532.933L419.387 532.824L429.779 532.715L429.883 507.004C429.979 483.239 429.929 480.958 429.215 476.866C427.817 468.848 424.356 463.214 418.641 459.653C413.508 456.455 405.963 455.353 396.283 456.388ZM471.542 456.384C469.825 456.567 467.59 457.003 466.575 457.353C465.559 457.702 464.444 457.987 464.097 457.987C463.75 457.987 462.983 458.256 462.393 458.583C461.802 458.911 460.235 459.679 458.911 460.291C452.452 463.272 447.167 468.615 443.791 475.576C442.868 477.48 442.109 479.323 442.106 479.671C442.103 480.019 441.848 481.04 441.539 481.941C440.433 485.17 439.899 493.824 440.423 500.018C441.189 509.051 443.058 514.699 447.17 520.398C449.793 524.033 450.193 524.435 454.85 528.108C459.994 532.166 468.689 534.564 478.202 534.55C487.009 534.536 494.656 532.529 500.479 528.702C503.401 526.781 503.475 526.719 506.414 523.7C509.142 520.898 510.798 518.413 512.684 514.289C515.292 508.585 516.104 503.921 516.108 494.607C516.112 485.545 515.337 481.383 512.564 475.594C510.593 471.478 509.202 469.459 506.318 466.529C498.249 458.333 486.187 454.814 471.542 456.384ZM484.428 474.468C487.332 475.63 490.934 479.215 492.465 482.467C494.519 486.828 495.151 496.546 493.84 503.59C492.946 508.394 489.013 513.91 485.151 515.779C483.397 516.627 482.566 516.745 478.303 516.745C473.892 516.746 473.248 516.647 471.226 515.667C465.223 512.754 462.464 507.221 462.066 497.296C461.767 489.863 462.27 486.23 464.122 482.435C465.878 478.836 468.188 476.424 471.449 474.783C473.634 473.684 474.234 473.572 477.99 473.56C481.347 473.55 482.559 473.72 484.428 474.468ZM594.904 513.079C592.324 514.392 590.312 516.612 589.543 518.994C587.731 524.604 589.938 530.244 594.876 532.618C596.532 533.413 597.418 533.531 601.634 533.511C606.046 533.489 606.652 533.394 608.306 532.456C610.43 531.251 612.546 528.627 613.14 526.46C613.668 524.535 613.679 520.87 613.162 518.987C612.626 517.033 609.741 513.993 607.401 512.918C605.794 512.179 604.783 512.044 601.133 512.08C597.434 512.117 596.501 512.266 594.904 513.079ZM527.635 523.984C527.191 524.236 526.533 524.737 526.173 525.098C525.814 525.459 525.113 526.03 524.616 526.368C524.119 526.706 522.309 528.088 520.593 529.439C518.878 530.79 515.258 533.554 512.55 535.581L507.626 539.266L507.622 577.456L507.619 615.645L518.234 615.536L528.848 615.427L529.051 606.164L529.253 596.901L532.892 592.577C534.894 590.199 536.747 588.241 537.011 588.226C537.274 588.21 537.968 588.888 538.552 589.733C539.826 591.575 548.789 605.406 548.952 605.782C549.015 605.927 550.493 608.202 552.237 610.838L555.407 615.631H567.516H579.625L579.105 614.763C578.031 612.966 577.737 612.499 576.173 610.104C575.291 608.752 574.468 607.555 574.344 607.442C574.22 607.33 569.994 600.973 564.953 593.316C559.912 585.659 554.96 578.196 553.948 576.732C551.919 573.797 551.644 572.28 552.908 571C553.353 570.549 553.717 570.006 553.717 569.792C553.717 569.578 553.962 569.255 554.262 569.075C554.562 568.895 555.687 567.55 556.763 566.086C557.839 564.622 559.004 563.111 559.352 562.728C560.216 561.776 560.503 561.405 563.004 557.999C564.204 556.366 565.334 555.031 565.517 555.031C565.699 555.031 565.848 554.833 565.848 554.592C565.848 554.351 566.542 553.292 567.391 552.238C571.139 547.582 575.19 542.296 575.368 541.826C575.522 541.421 573.079 541.342 563.73 541.449L551.897 541.585L545.45 549.946C541.905 554.544 538.857 558.306 538.677 558.306C538.498 558.306 538.351 558.51 538.351 558.759C538.351 559.145 536.219 562.186 535.512 562.81C535.384 562.923 534.045 564.628 532.536 566.598C531.027 568.569 529.625 570.181 529.421 570.181C529.201 570.181 529.051 560.72 529.051 546.841C529.051 534.005 528.914 523.508 528.747 523.514C528.58 523.521 528.08 523.733 527.635 523.984ZM454.445 539.875C451.265 540.32 450.223 540.568 446.358 541.803C437.428 544.657 432.404 548.915 429.581 556.022C428.74 558.138 428.624 559.07 428.665 563.329C428.7 566.934 428.888 568.602 429.387 569.708C429.757 570.531 430.402 571.943 430.819 572.846C431.235 573.748 432.468 575.407 433.558 576.531C435.956 579.004 436.218 579.211 438.271 580.265C444.241 583.332 447.482 584.316 456.871 585.914C460.604 586.549 466.532 587.917 469.279 588.777C473.581 590.124 475.674 592.18 475.674 595.056C475.674 596.467 473.545 599.661 472.403 599.963C471.978 600.075 471.631 600.296 471.631 600.454C471.631 601.104 465.193 602.259 461.516 602.269C454.802 602.287 451.333 600.795 448.827 596.811L447.271 594.339H437.033C431.401 594.339 426.711 594.477 426.61 594.646C426.313 595.143 427.133 599.695 427.805 601.276C429.425 605.091 430.393 606.569 433.028 609.253C436.977 613.276 442.449 615.976 449.188 617.226C458.524 618.958 463.537 618.922 475.068 617.041C477.005 616.725 481.698 615.305 482.549 614.777C482.882 614.571 483.599 614.209 484.141 613.973C485.937 613.194 490.118 609.95 491.759 608.062C496.972 602.066 498.193 592.597 494.745 584.922C493.177 581.432 488.062 576.924 483.2 574.747C479.703 573.181 472.344 571.383 465.363 570.387C456.85 569.174 453.297 568.084 451.311 566.077C449.952 564.703 449.795 564.327 449.795 562.438C449.795 560.502 449.936 560.19 451.535 558.57C452.939 557.149 453.794 556.676 455.965 556.124C463.303 554.258 469.582 556.443 471.94 561.684L472.63 563.22H483.251C489.092 563.22 493.869 563.082 493.866 562.913C493.864 562.744 493.52 561.198 493.103 559.477C490.897 550.383 484.551 543.996 475.068 541.324C473.733 540.948 472.096 540.46 471.429 540.24C469.821 539.71 457.522 539.446 454.445 539.875ZM663.098 539.853C656.389 540.93 650.774 544.177 646.555 549.421C645.407 550.847 644.882 551.24 644.641 550.854C644.457 550.561 644.304 548.341 644.301 545.92L644.295 541.518H634.59H624.885V592.701V643.885H635.399H645.912V625.663C645.912 613.286 646.048 607.442 646.334 607.442C646.566 607.442 647.612 608.386 648.659 609.54C650.583 611.661 654.865 615.222 655.491 615.222C655.678 615.222 656.465 615.565 657.241 615.984C659.326 617.113 665.657 618.501 668.607 618.476C670.942 618.457 673.982 617.981 678.464 616.934C683.634 615.726 690.33 611.001 693.072 606.623C693.707 605.61 694.346 604.688 694.492 604.576C695.179 604.048 697.491 598.206 698.544 594.339C699.611 590.424 699.735 589.271 699.935 581.441C700.312 566.661 699.11 560.042 694.663 552.422C691.652 547.264 685.882 542.859 679.879 541.136C678.878 540.849 677.647 540.452 677.143 540.253C675.87 539.751 665.559 539.457 663.098 539.853ZM591.188 542.201C591.04 542.351 590.919 558.934 590.919 579.053V615.631H601.432H611.946V578.78V541.928H601.702C596.067 541.928 591.336 542.051 591.188 542.201ZM668.591 557.911C672.769 559.578 675.643 562.883 677.482 568.133C678.327 570.547 678.414 571.501 678.412 578.37C678.41 585.604 678.359 586.093 677.282 589.22C674.579 597.059 669.69 600.891 662.391 600.891C660.661 600.891 658.929 600.723 658.543 600.518C658.157 600.312 656.931 599.822 655.819 599.429C653.458 598.594 648.537 593.866 648.085 591.999C647.934 591.372 647.694 590.767 647.552 590.654C646.3 589.657 645.407 576.313 646.234 570.947C647.199 564.683 650.907 560.007 656.565 557.919C659.605 556.797 665.79 556.793 668.591 557.911Z"
    fill="#A3BEF5" />
</svg>