<svg xmlns="http://www.w3.org/2000/svg" width="48" height="48" viewBox="0 0 48 48" fill="none">
  <path fill-rule="evenodd" clip-rule="evenodd"
    d="M24.6753 11.0226L24.6598 12.0453L24.0213 12.0616L23.3828 12.0779V13.284V14.49L24.0213 14.5063L24.6598 14.5226L24.6931 17.1728C24.7139 18.824 24.7513 19.9458 24.7923 20.1488C24.9689 21.0211 25.4832 21.7273 26.1884 22.0655C26.8446 22.3803 27.5303 22.4676 29.0014 22.4236C29.6725 22.4035 30.3561 22.3708 30.5207 22.3508L30.8197 22.3144L30.8044 21.1263L30.7891 19.9383L29.654 19.9368C28.2148 19.935 28.0531 19.8828 27.7944 19.3369C27.6727 19.0801 27.6698 19.0219 27.6688 16.7984L27.6677 14.5226L28.8453 14.5071L30.0229 14.4915V13.284V12.0764L28.8453 12.0608L27.6677 12.0453L27.6522 11.0226L27.6367 10H26.1637H24.6908L24.6753 11.0226ZM5.37304 11.6185C4.94796 11.6641 4.51306 11.7956 4.12475 11.9959C3.83128 12.1472 3.20002 12.6878 3.02726 12.9357C2.76853 13.307 2.73033 13.2532 2.71234 12.4918L2.69634 11.8148H1.36264H0.0289441L0.0144721 17.1018L0 22.3888L1.46167 22.3734L2.92335 22.358L2.95462 18.9877C2.98504 15.7119 2.98935 15.6086 3.10785 15.3091C3.27204 14.8942 3.35802 14.7705 3.66216 14.5121C4.07129 14.1644 4.463 14.0394 5.1546 14.0359C5.62479 14.0335 5.79783 14.0569 6.03427 14.1548C6.44209 14.3238 6.82024 14.7372 6.98732 15.1968C7.11893 15.5589 7.11927 15.5667 7.13823 18.9742L7.15724 22.3888L8.61574 22.3734L10.0742 22.358L10.0889 18.7404C10.1024 15.3966 10.0953 15.0757 9.99512 14.4999C9.79887 13.3718 9.31312 12.579 8.51108 12.078C7.7906 11.628 6.73165 11.4729 5.37304 11.6185ZM15.9357 11.618C15.6948 11.6438 15.381 11.7052 15.2385 11.7543C15.096 11.8034 14.9396 11.8436 14.8908 11.8436C14.8421 11.8436 14.7345 11.8814 14.6516 11.9274C14.5687 11.9735 14.3488 12.0817 14.1629 12.1677C13.2564 12.5872 12.5147 13.339 12.0408 14.3185C11.9113 14.5864 11.8048 14.8456 11.8043 14.8946C11.8039 14.9435 11.7681 15.0872 11.7248 15.214C11.5695 15.6683 11.4945 16.886 11.5682 17.7575C11.6756 19.0284 11.938 19.8231 12.5151 20.625C12.8832 21.1365 12.9394 21.1931 13.5929 21.7098C14.3149 22.2808 15.5354 22.6183 16.8704 22.6162C18.1065 22.6143 19.1797 22.3319 19.997 21.7934C20.4071 21.5232 20.4175 21.5144 20.8301 21.0896C21.213 20.6953 21.4453 20.3458 21.71 19.7654C22.0761 18.9629 22.19 18.3066 22.1906 16.9962C22.1912 15.721 22.0823 15.1355 21.6932 14.321C21.4166 13.7417 21.2213 13.4577 20.8165 13.0454C19.6841 11.8922 17.9912 11.3971 15.9357 11.618ZM17.7442 14.1626C18.1518 14.3261 18.6573 14.8304 18.8723 15.288C19.1606 15.9016 19.2493 17.2689 19.0653 18.2601C18.9397 18.936 18.3878 19.7121 17.8458 19.9751C17.5996 20.0945 17.483 20.111 16.8846 20.1111C16.2655 20.1111 16.1751 20.0973 15.8914 19.9593C15.0489 19.5495 14.6616 18.771 14.6057 17.3745C14.5639 16.3286 14.6344 15.8174 14.8943 15.2834C15.1407 14.7771 15.4649 14.4378 15.9226 14.2069C16.2293 14.0522 16.3136 14.0364 16.8407 14.0347C17.3119 14.0333 17.4819 14.0573 17.7442 14.1626ZM33.2497 19.5952C32.8876 19.78 32.6052 20.0923 32.4972 20.4274C32.2429 21.2168 32.5528 22.0103 33.2458 22.3444C33.4782 22.4563 33.6026 22.4728 34.1943 22.47C34.8135 22.467 34.8985 22.4535 35.1307 22.3216C35.4288 22.1521 35.7257 21.7829 35.8091 21.478C35.8832 21.2071 35.8848 20.6914 35.8122 20.4265C35.737 20.1516 35.3321 19.7238 35.0036 19.5725C34.778 19.4686 34.6362 19.4495 34.124 19.4547C33.6047 19.4598 33.4738 19.4809 33.2497 19.5952ZM23.8085 21.1296C23.746 21.165 23.6537 21.2355 23.6033 21.2863C23.5528 21.3371 23.4545 21.4175 23.3847 21.465C23.3149 21.5126 23.0609 21.707 22.8201 21.8971C22.5793 22.0872 22.0713 22.4761 21.6912 22.7613L21.0001 23.2798L20.9996 28.6532L20.9992 34.0266L22.489 34.0113L23.9787 33.9959L24.0071 32.6926L24.0355 31.3893L24.5463 30.7809C24.8272 30.4463 25.0873 30.1707 25.1243 30.1686C25.1613 30.1664 25.2586 30.2619 25.3406 30.3807C25.5194 30.6398 26.7774 32.5859 26.8003 32.6388C26.8092 32.6592 27.0166 32.9794 27.2613 33.3503L27.7063 34.0247H29.4057H31.1052L31.0323 33.9024C30.8815 33.6496 30.8402 33.584 30.6208 33.2469C30.497 33.0568 30.3815 32.8883 30.3641 32.8724C30.3466 32.8566 29.7535 31.9621 29.046 30.8848C28.3385 29.8074 27.6434 28.7574 27.5014 28.5514C27.2167 28.1384 27.1781 27.925 27.3555 27.7449C27.418 27.6815 27.469 27.605 27.469 27.5749C27.469 27.5448 27.5035 27.4994 27.5456 27.4741C27.5877 27.4487 27.7456 27.2595 27.8966 27.0535C28.0475 26.8475 28.211 26.6349 28.2599 26.581C28.3812 26.447 28.4214 26.3949 28.7725 25.9156C28.9409 25.6859 29.0996 25.4979 29.1252 25.4979C29.1507 25.4979 29.1716 25.4702 29.1716 25.4362C29.1716 25.4024 29.2691 25.2533 29.3881 25.105C29.9142 24.45 30.4827 23.7061 30.5078 23.64C30.5293 23.5831 30.1865 23.5719 28.8744 23.587L27.2137 23.6062L26.3088 24.7825C25.8112 25.4295 25.3834 25.9588 25.3582 25.9588C25.333 25.9588 25.3124 25.9875 25.3124 26.0226C25.3124 26.0768 25.0132 26.5047 24.9139 26.5926C24.896 26.6084 24.7081 26.8483 24.4963 27.1255C24.2845 27.4028 24.0878 27.6296 24.0591 27.6296C24.0282 27.6296 24.0071 26.2984 24.0071 24.3457C24.0071 22.5395 23.988 21.0625 23.9645 21.0635C23.9411 21.0644 23.8709 21.0942 23.8085 21.1296ZM13.5362 23.3656C13.0899 23.4281 12.9436 23.463 12.4011 23.6368C11.1478 24.0383 10.4427 24.6374 10.0464 25.6375C9.92843 25.9352 9.91209 26.0662 9.91788 26.6656C9.92276 27.1728 9.94926 27.4075 10.0192 27.5631C10.0712 27.6789 10.1617 27.8776 10.2201 28.0046C10.2787 28.1316 10.4516 28.3649 10.6046 28.5231C10.9412 28.871 10.978 28.9002 11.266 29.0485C12.1041 29.48 12.5588 29.6184 13.8767 29.8433C14.4006 29.9327 15.2325 30.1251 15.6182 30.2462C16.2218 30.4357 16.5157 30.725 16.5157 31.1297C16.5157 31.3282 16.2168 31.7775 16.0565 31.8201C15.9969 31.8359 15.9482 31.867 15.9482 31.8892C15.9482 31.9806 15.0447 32.1432 14.5285 32.1445C13.5862 32.1471 13.0994 31.9371 12.7476 31.3766L12.5293 31.0288H11.0923C10.3019 31.0288 9.6437 31.0482 9.62952 31.072C9.5878 31.142 9.7029 31.7823 9.79722 32.0048C10.0246 32.5416 10.1604 32.7495 10.5302 33.1272C11.0845 33.6933 11.8525 34.0732 12.7984 34.249C14.1086 34.4927 14.8122 34.4877 16.4306 34.2231C16.7025 34.1786 17.3611 33.9788 17.4805 33.9045C17.5273 33.8754 17.6279 33.8245 17.7041 33.7914C17.9561 33.6818 18.5429 33.2253 18.7732 32.9597C19.5048 32.116 19.6762 30.7837 19.1922 29.7037C18.9722 29.2127 18.2543 28.5784 17.572 28.2721C17.0812 28.0518 16.0483 27.7987 15.0685 27.6587C13.8737 27.4879 13.375 27.3345 13.0963 27.0522C12.9055 26.8589 12.8835 26.8059 12.8835 26.5402C12.8835 26.2678 12.9033 26.2239 13.1277 25.996C13.3247 25.796 13.4448 25.7295 13.7494 25.6518C14.7793 25.3892 15.6607 25.6967 15.9915 26.4342L16.0885 26.6502H17.579C18.3988 26.6502 19.0693 26.6308 19.0689 26.607C19.0686 26.5832 19.0203 26.3657 18.9618 26.1236C18.6522 24.844 17.7616 23.9453 16.4306 23.5693C16.2433 23.5165 16.0134 23.4478 15.9198 23.4169C15.6941 23.3423 13.9681 23.3051 13.5362 23.3656ZM42.8207 23.3623C41.8791 23.514 41.0911 23.9708 40.4989 24.7086C40.3378 24.9093 40.2642 24.9646 40.2302 24.9102C40.2045 24.8691 40.1831 24.5567 40.1826 24.216L40.1817 23.5967H38.8196H37.4576V30.7984V38H38.9332H40.4087V35.4362C40.4087 33.6947 40.4277 32.8724 40.4679 32.8724C40.5005 32.8724 40.6473 33.0053 40.7943 33.1676C41.0643 33.4661 41.6652 33.9671 41.7532 33.9671C41.7794 33.9671 41.8899 34.0154 41.9987 34.0744C42.2913 34.2331 43.1799 34.4284 43.5939 34.4249C43.9217 34.4222 44.3484 34.3553 44.9774 34.208C45.7031 34.0381 46.6428 33.3731 47.0277 32.7572C47.1168 32.6146 47.2064 32.485 47.227 32.4691C47.3234 32.3948 47.6479 31.5728 47.7957 31.0288C47.9454 30.4779 47.9628 30.3157 47.9909 29.214C48.0438 27.1344 47.875 26.203 47.2509 25.1309C46.8283 24.4051 46.0185 23.7854 45.176 23.543C45.0355 23.5026 44.8627 23.4466 44.7919 23.4186C44.6133 23.348 43.1661 23.3067 42.8207 23.3623ZM32.7282 23.6927C32.7073 23.7138 32.6903 26.0472 32.6903 28.8779V34.0247H34.1659H35.6415V28.8395V23.6543H34.2038C33.413 23.6543 32.7489 23.6716 32.7282 23.6927ZM43.5918 25.9032C44.1782 26.1378 44.5815 26.6028 44.8396 27.3416C44.9582 27.6811 44.9703 27.8154 44.9701 28.7819C44.9699 29.7997 44.9627 29.8685 44.8115 30.3085C44.4321 31.4115 43.746 31.9506 42.7215 31.9506C42.4787 31.9506 42.2357 31.927 42.1815 31.8981C42.1273 31.8692 41.9553 31.8003 41.7992 31.745C41.4677 31.6275 40.7771 30.9623 40.7137 30.6995C40.6924 30.6113 40.6588 30.5261 40.6389 30.5103C40.4632 30.3701 40.3378 28.4924 40.4539 27.7375C40.5893 26.8561 41.1098 26.1981 41.9039 25.9043C42.3305 25.7464 43.1986 25.7459 43.5918 25.9032Z"
    fill="#1C1B1F" />
</svg>